<svg id="Layer_1" xmlns="http://www.w3.org/2000/svg" viewBox="0 0 194.6 52.1"><style>.st0{fill:#f4dd38}.st1{fill:#fff}.st2{fill:#25212a}</style><g id="XMLID_17_"><path id="XMLID_2123_" class="st0" d="M20.7 11.9l10.1-6-8.4-4.8-10 5.9z"/><path id="XMLID_2140_" class="st0" d="M20.7 51.6l-9.4-5.5v-21c0-2.6 0-4.9.1-6.9-.6.5-1.3.9-2.2 1.3L5.4 21 .6 11.4 12.4 7l8.4 4.8v39.8z"/><path id="XMLID_2136_" class="st0" d="M10.6 5.4L.5 11.3 12.4 7l10-5.9z"/><path id="XMLID_201_" class="st1" d="M30.8 9l-8.4-4.8-10.9 4-10.1 5.9 11-4 8.3 4.9z"/><path id="XMLID_301_" class="st2" d="M22.4.7l-.2.1L10.4 5l-10 6-.4.1 5.2 10.3 4.2-1.6c.6-.3 1.1-.6 1.6-.9-.1 1.9-.1 3.9-.1 6.2v21.3l9.8 5.7L31.1 46V5.7l-8.7-5zm-11.7 5l8-2.9-6.5 3.9-.6.2-7.4 2.7 6.5-3.9zM20.4 51l-8.7-5V25.1c0-2.5 0-4.9.1-6.9v-.8l-.7.5c-.6.5-1.3.9-2.1 1.2l-3.6 1.3-4.5-9 11.3-4.1 8 4.6V51zM13.1 7l9.3-5.5L30 5.9l-3.2 1.9-6.1 3.6L13.1 7z"/></g><g id="XMLID_82_"><path id="XMLID_2208_" class="st0" d="M37.5 22.9V10.1L43.7 29v12.8z"/><path id="XMLID_2204_" class="st0" d="M50 32.7v12.7l-6.3-3.6V29z"/><path id="XMLID_2187_" class="st0" d="M68.9 28.9v12.8l-6.2-3.6V25.3z"/><path id="XMLID_83_" class="st0" d="M47.8 15.3l10.9 6.4-8.4 5-3.5-10.5z"/><path id="XMLID_2212_" class="st0" d="M74.8 18.4l-3.5 2 6.2 3.6-8.5 4.9-6.2-3.6L50 32.7 43.7 29l-6.1-18.9 8-4.6 19.3 11.1 3.5-2 6.4 3.8zm-18.5 3.2l-3.7-2.1c-.7-.4-1.6-1-2.8-1.7-1.1-.7-1.7-1.1-1.7-1.1l-.2.1c.6.9 1.1 1.9 1.5 2.8l1.7 5.1 5.2-3.1z"/><path id="XMLID_132_" class="st1" d="M74.8 21.2l-3.5 2 6.2 3.6-8.5 4.9-6.2-3.6L50 35.5l-6.3-3.7-6.1-18.9 8-4.6 19.3 11.1 3.5-2 6.4 3.8zm-18.5 3.2l-3.7-2.1c-.7-.4-1.6-1-2.8-1.7-1.1-.7-1.7-1.1-1.7-1.1l-.2.1c.6.9 1.1 1.9 1.5 2.8l1.7 5.1 5.2-3.1z"/><g id="XMLID_357_"><path id="XMLID_2163_" class="st2" d="M50 17.5c-1.2-.7-1.5-1-1.7-1.1l-.2-.3-.9.5.2.3c.6.9 1.1 1.8 1.4 2.7l1.9 5.5 6.2-3.6-4.3-2.5c-.5-.3-1.4-.8-2.6-1.5zm1.2 6.6l-1.6-4.7c-.2-.6-.5-1.2-.9-1.9.2.1.5.3.9.5 1.1.7 2.1 1.3 2.8 1.7l3.2 1.8-4.4 2.6z"/><path id="XMLID_321_" class="st2" d="M75.1 22.2v-4.1l-6.8-3.9-3.5 2L45.5 5.1l-8.3 4.8v13L43.4 42l6.6 3.8 12.7-7.3 6.2 3.6 8.9-5.1V23.8l-2.7-1.6zm-31.8 9.1v8.1l-5.4-16.6V12.5l2.9 9 2.4 7.5.1 2.3zm6.3 4.6v8.9L44 41.6V29.7l1.1.6 4.5 2.6v3zm18.9-3.8V41l-5.4-3.1V26l5.4 3.1v3zm-5.8-7.2L50 32.2l-4.8-2.8-1.2-.6-6-18.4L45.5 6l19.1 11 .2.1 3.5-2 5.7 3.3-3.5 2 6.2 3.6-.8.5-6.9 4-6.3-3.6z"/></g></g><g id="XMLID_2258_"><g id="XMLID_2262_"><path id="XMLID_15_" class="st0" d="M116.3 29.8c0-6.7-1-12.4-3.1-17s-5.1-8.1-9.2-10.4C100.7.5 98.3-.1 96.3.9H96l-.4.2c-.1 0-.1.1-.2.1l-9.2 5.5 5.5 5.3c-.1 1.1-.1 2.2-.1 3.5 0 6.7 1 12.3 3.1 16.9 1.8 4 4.3 7.1 7.6 9.4l.1 8.1 9.8-5.8c.4-.2.7-.5 1-.8 2.1-2 3.1-6.5 3.1-13.5z"/><path id="XMLID_2268_" class="st2" d="M102.1 50.6L102 42c-3.3-2.3-5.8-5.5-7.6-9.4-2.1-4.6-3.1-10.3-3.1-17 0-1.1 0-2.3.1-3.3l-5.8-5.6L95.3 1s.1 0 .1-.1l.4-.3.3-.1c2-1 4.5-.5 8 1.6 4.1 2.4 7.3 5.9 9.4 10.6 2.1 4.6 3.1 10.4 3.1 17.2 0 7.1-1 11.7-3.1 13.8-.3.3-.6.5-.9.7l-.2.1-10.3 6.1zM86.8 6.8l5.3 5.1v.2c-.1 1.1-.1 2.3-.1 3.5 0 6.6 1 12.2 3.1 16.7 1.7 3.9 4.3 7 7.5 9.2l.2.1.1 7.6 9.2-5.5c.4-.2.7-.5 1-.7 1.9-2 2.9-6.5 2.9-13.3 0-6.7-1-12.3-3.1-16.9-2-4.5-5.1-8-9.1-10.2-3.3-1.9-5.6-2.4-7.4-1.5l-.3.1-.5.3-8.8 5.3z"/></g><path id="XMLID_199_" class="st0" d="M89 16.5l-.5 21.7 4.9 5.4 5.9.9.4-4.6-1.2-24-4.4-3.6z"/><path id="XMLID_200_" class="st2" d="M91.9 36l5.2-3.1s3.3-4.7 3.3-4.9-3.7-13.4-3.7-13.4-5.5-2.6-5.9-2.7c-.4-.1-3.1 5.6-3.1 6.9s.2 11.2.2 11.5 1.4 6 1.4 6l1 .2 1.6-.5z"/><path id="XMLID_305_" class="st1" d="M98.3 33.4L93 36.9s2.3 4.6 5.4 1.9-.1-5.4-.1-5.4z"/><path id="XMLID_198_" class="st0" d="M106.2 35.7c0 7-1 11.5-3 13.6-2 2.1-5.1 1.9-9.3-.5-4.1-2.4-7.1-5.8-9.2-10.4-2.1-4.6-3.1-10.2-3.1-16.9 0-7 1-11.6 3-13.7 2-2.1 5.1-1.9 9.3.5 4.1 2.3 7.1 5.8 9.2 10.4 2.1 4.6 3.1 10.3 3.1 17zm-15.4-8.9c0 4.5.2 7.7.7 9.6.5 1.9 1.3 3.3 2.4 3.9 1.2.7 2 .3 2.4-1.2.5-1.5.7-4.3.7-8.7 0-4.4-.2-7.6-.7-9.6-.5-2-1.3-3.4-2.4-4-1.1-.7-1.9-.3-2.4 1.1-.5 1.4-.7 4.4-.7 8.9z"/><path id="XMLID_2273_" class="st1" d="M103.3 4.7c-3.3-1.9-5.7-2.5-7.7-1.5l-.3.1-.3.2c-.1 0-.1.1-.2.1l-9.2 5.5c1.9-.8 4.5-.3 7.7 1.5 3 1.7 5.4 4 7.3 6.9l10-5.9c-1.9-2.9-4.3-5.2-7.3-6.9z"/><g id="XMLID_14_"><path id="XMLID_2272_" class="st2" d="M94.1 16.5c-.6-.4-1.2-.5-1.7-.3s-1 .7-1.3 1.6c-.5 1.5-.7 4.4-.7 9 0 4.5.2 7.7.7 9.7.5 2 1.4 3.4 2.6 4.1.4.2.8.4 1.2.4.2 0 .4 0 .5-.1.6-.2 1-.8 1.3-1.7.5-1.5.7-4.4.7-8.8s-.2-7.6-.7-9.7c-.5-2.1-1.4-3.5-2.6-4.2zM96 39c-.2.7-.5 1.1-.8 1.2-.3.1-.6 0-1.1-.2-1-.6-1.8-1.8-2.2-3.7-.5-1.9-.7-5.1-.7-9.5s.2-7.4.7-8.7c.2-.6.5-1 .8-1.1h.3c.2 0 .5.1.8.3 1 .6 1.8 1.9 2.2 3.8.5 2 .7 5.2.7 9.5 0 4.1-.2 7-.7 8.4z"/><path id="XMLID_2276_" class="st2" d="M115.9 21.7l-1.9-5.6-9.4 5.4c-.3-1-.7-2.1-1.1-3-2.1-4.7-5.2-8.2-9.4-10.6-4.3-2.5-7.6-2.6-9.7-.4-2.1 2.2-3.1 6.7-3.1 13.9 0 6.7 1.1 12.4 3.1 17 2.1 4.6 5.2 8.2 9.4 10.6 2.3 1.3 4.3 2 6 2 1.5 0 2.8-.5 3.8-1.5.2-.2.4-.5.6-.8l6.5-3.6 3.5-2.8 1.6-4.4.7-6.7-.6-9.5zM94.1 48.5c-4-2.3-7-5.7-9.1-10.2-2-4.6-3-10.2-3-16.8 0-6.9 1-11.4 2.9-13.4.9-.9 2-1.3 3.3-1.3 1.5 0 3.4.6 5.6 1.9 4 2.3 7 5.7 9.1 10.2 2 4.5 3.1 10.2 3.1 16.9 0 6.8-1 11.3-2.9 13.3-2 1.9-5 1.7-9-.6z"/></g></g><g id="XMLID_1_"><g id="XMLID_20_"><path id="XMLID_24_" class="st0" d="M155.3 29.8c0-6.7-1-12.4-3.1-17s-5.1-8.1-9.2-10.4c-3.3-1.9-5.7-2.5-7.7-1.5h-.3l-.4.2c-.1 0-.1.1-.2.1l-9.2 5.5 5.5 5.3c-.1 1.1-.1 2.2-.1 3.5 0 6.7 1 12.3 3.1 16.9 1.8 4 4.3 7.1 7.6 9.4l.1 8.1 9.8-5.8c.4-.2.7-.5 1-.8 2.1-2 3.1-6.5 3.1-13.5z"/><path id="XMLID_21_" class="st2" d="M141.1 50.6L141 42c-3.3-2.3-5.8-5.5-7.6-9.4-2.1-4.6-3.1-10.3-3.1-17 0-1.1 0-2.3.1-3.3l-5.8-5.6 9.7-5.7s.1 0 .1-.1l.4-.3.3-.1c2-1 4.5-.5 8 1.6 4.1 2.4 7.3 5.9 9.4 10.6 2.1 4.6 3.1 10.4 3.1 17.2 0 7.1-1 11.7-3.1 13.8-.3.3-.6.5-.9.7l-.2.1-10.3 6.1zM125.8 6.8l5.3 5.1v.2c-.1 1.1-.1 2.2-.1 3.4 0 6.6 1 12.2 3.1 16.7 1.7 3.9 4.3 7 7.5 9.2l.2.1.1 7.6 9.2-5.5c.4-.2.7-.5 1-.7 1.9-2 2.9-6.5 2.9-13.3 0-6.7-1-12.3-3.1-16.9-2-4.5-5.1-8-9.1-10.2-3.3-1.9-5.6-2.4-7.4-1.5l-.3.1-.5.3-8.8 5.4z"/></g><path id="XMLID_19_" class="st0" d="M128 16.5l-.5 21.7 4.9 5.4 5.9.9.4-4.6-1.2-24-4.4-3.6z"/><path id="XMLID_18_" class="st2" d="M130.9 36l5.2-3.1s3.3-4.7 3.3-4.9-3.7-13.4-3.7-13.4-5.5-2.6-5.9-2.7c-.4-.1-3.1 5.6-3.1 6.9s.2 11.2.2 11.5 1.4 6 1.4 6l1 .2 1.6-.5z"/><path id="XMLID_13_" class="st1" d="M137.3 33.4l-5.4 3.4s2.3 4.6 5.4 1.9 0-5.3 0-5.3z"/><path id="XMLID_10_" class="st0" d="M145.2 35.7c0 7-1 11.5-3 13.6-2 2.1-5.1 1.9-9.3-.5-4.1-2.4-7.1-5.8-9.2-10.4-2.1-4.6-3.1-10.2-3.1-16.9 0-7 1-11.6 3-13.7 2-2.1 5.1-1.9 9.3.5 4.1 2.3 7.1 5.8 9.2 10.4 2.1 4.6 3.1 10.3 3.1 17zm-15.4-8.9c0 4.5.2 7.7.7 9.6.5 1.9 1.3 3.3 2.4 3.9 1.2.7 2 .3 2.4-1.2.5-1.5.7-4.3.7-8.7 0-4.4-.2-7.6-.7-9.6-.5-2-1.3-3.4-2.4-4-1.1-.7-1.9-.3-2.4 1.1-.5 1.4-.7 4.4-.7 8.9z"/><path id="XMLID_9_" class="st1" d="M142.3 4.7c-3.3-1.9-5.7-2.5-7.7-1.5l-.3.1-.3.2c-.1 0-.1.1-.2.1l-9.2 5.5c1.9-.8 4.5-.3 7.7 1.5 3 1.7 5.4 4 7.3 6.9l10-5.9c-1.9-2.9-4.3-5.2-7.3-6.9z"/><g id="XMLID_2_"><path id="XMLID_6_" class="st2" d="M133.1 16.5c-.6-.4-1.2-.5-1.7-.3s-1 .7-1.3 1.6c-.5 1.5-.7 4.4-.7 9 0 4.5.2 7.7.7 9.7.5 2 1.4 3.4 2.6 4.1.4.2.8.4 1.2.4.2 0 .4 0 .5-.1.6-.2 1-.8 1.3-1.7.5-1.5.7-4.4.7-8.8s-.2-7.6-.7-9.7c-.5-2.1-1.4-3.5-2.6-4.2zM135 39c-.2.7-.5 1.1-.8 1.2-.3.1-.6 0-1.1-.2-1-.6-1.8-1.8-2.2-3.7-.5-1.9-.7-5.1-.7-9.5s.2-7.4.7-8.7c.2-.6.5-1 .8-1.1h.3c.2 0 .5.1.8.3 1 .6 1.8 1.9 2.2 3.8.5 2 .7 5.2.7 9.5 0 4.1-.2 7-.7 8.4z"/><path id="XMLID_3_" class="st2" d="M154.9 21.7l-1.9-5.6-9.4 5.4c-.3-1-.7-2.1-1.1-3-2.1-4.7-5.2-8.2-9.4-10.6-4.3-2.5-7.6-2.6-9.7-.4-2.1 2.2-3.1 6.7-3.1 13.9 0 6.7 1.1 12.4 3.1 17 2.1 4.6 5.2 8.2 9.4 10.6 2.3 1.3 4.3 2 6 2 1.5 0 2.8-.5 3.8-1.5.2-.2.4-.5.6-.8l6.5-3.6 3.5-2.8 1.6-4.4.7-6.7-.6-9.5zm-21.8 26.8c-4-2.3-7-5.7-9.1-10.2-2-4.5-3.1-10.1-3.1-16.7 0-6.9 1-11.4 2.9-13.4.9-.9 2-1.3 3.3-1.3 1.5 0 3.4.6 5.6 1.9 4 2.3 7 5.7 9.1 10.2 2 4.5 3.1 10.2 3.1 16.9 0 6.8-1 11.3-2.9 13.3-1.9 1.8-4.9 1.6-8.9-.7z"/></g></g><g id="XMLID_26_"><g id="XMLID_41_"><path id="XMLID_45_" class="st0" d="M194.3 29.8c0-6.7-1-12.4-3.1-17s-5.1-8.1-9.2-10.4c-3.3-1.9-5.7-2.5-7.7-1.5h-.3l-.4.2c-.1 0-.1.1-.2.1l-9.2 5.5 5.5 5.3c-.1 1.1-.1 2.2-.1 3.5 0 6.7 1 12.3 3.1 16.9 1.8 4 4.3 7.1 7.6 9.4l.1 8.1 9.8-5.8c.4-.2.7-.5 1-.8 2.1-2 3.1-6.5 3.1-13.5z"/><path id="XMLID_42_" class="st2" d="M180.1 50.6L180 42c-3.3-2.3-5.8-5.5-7.6-9.4-2.1-4.6-3.1-10.3-3.1-17 0-1.1 0-2.3.1-3.3l-5.8-5.6 9.7-5.7s.1 0 .1-.1l.4-.3.3-.1c2-1 4.5-.5 8 1.6 4.1 2.4 7.3 5.9 9.4 10.6 2.1 4.6 3.1 10.4 3.1 17.2 0 7.1-1 11.7-3.1 13.8-.3.3-.6.5-.9.7l-.2.1-10.3 6.1zM164.8 6.8l5.3 5.1v.2c-.1 1.1-.1 2.2-.1 3.4 0 6.6 1 12.2 3.1 16.7 1.7 3.9 4.3 7 7.5 9.2l.2.1.1 7.6 9.2-5.5c.4-.2.7-.5 1-.7 1.9-2 2.9-6.5 2.9-13.3 0-6.7-1-12.3-3.1-16.9-2-4.5-5.1-8-9.1-10.2-3.3-1.9-5.6-2.4-7.4-1.5l-.3.1-.5.3-8.8 5.4z"/></g><path id="XMLID_40_" class="st0" d="M167 16.5l-.5 21.7 4.9 5.4 5.9.9.4-4.6-1.2-24-4.4-3.6z"/><path id="XMLID_39_" class="st2" d="M169.9 36l5.2-3.1s3.3-4.7 3.3-4.9-3.7-13.4-3.7-13.4-5.5-2.6-5.9-2.7c-.4-.1-3.1 5.6-3.1 6.9s.2 11.2.2 11.5 1.4 6 1.4 6l1 .2 1.6-.5z"/><path id="XMLID_38_" class="st1" d="M176.3 33.4l-5.4 3.4s2.3 4.6 5.4 1.9 0-5.3 0-5.3z"/><path id="XMLID_35_" class="st0" d="M184.2 35.7c0 7-1 11.5-3 13.6-2 2.1-5.1 1.9-9.3-.5-4.1-2.4-7.1-5.8-9.2-10.4-2.1-4.6-3.1-10.2-3.1-16.9 0-7 1-11.6 3-13.7 2-2.1 5.1-1.9 9.3.5 4.1 2.3 7.1 5.8 9.2 10.4 2.1 4.6 3.1 10.3 3.1 17zm-15.4-8.9c0 4.5.2 7.7.7 9.6.5 1.9 1.3 3.3 2.4 3.9 1.2.7 2 .3 2.4-1.2.5-1.5.7-4.3.7-8.7 0-4.4-.2-7.6-.7-9.6-.5-2-1.3-3.4-2.4-4-1.1-.7-1.9-.3-2.4 1.1-.5 1.4-.7 4.4-.7 8.9z"/><path id="XMLID_34_" class="st1" d="M181.3 4.7c-3.3-1.9-5.7-2.5-7.7-1.5l-.3.1-.3.2c-.1 0-.1.1-.2.1l-9.2 5.5c1.9-.8 4.5-.3 7.7 1.5 3 1.7 5.4 4 7.3 6.9l10-5.9c-1.9-2.9-4.3-5.2-7.3-6.9z"/><g id="XMLID_27_"><path id="XMLID_31_" class="st2" d="M172.1 16.5c-.6-.4-1.2-.5-1.7-.3s-1 .7-1.3 1.6c-.5 1.5-.7 4.4-.7 9 0 4.5.2 7.7.7 9.7.5 2 1.4 3.4 2.6 4.1.4.2.8.4 1.2.4.2 0 .4 0 .5-.1.6-.2 1-.8 1.3-1.7.5-1.5.7-4.4.7-8.8s-.2-7.6-.7-9.7c-.5-2.1-1.4-3.5-2.6-4.2zM174 39c-.2.7-.5 1.1-.8 1.2-.3.1-.6 0-1.1-.2-1-.6-1.8-1.8-2.2-3.7-.5-1.9-.7-5.1-.7-9.5s.2-7.4.7-8.7c.2-.6.5-1 .8-1.1h.3c.2 0 .5.1.8.3 1 .6 1.8 1.9 2.2 3.8.5 2 .7 5.2.7 9.5 0 4.1-.2 7-.7 8.4z"/><path id="XMLID_28_" class="st2" d="M193.9 21.7l-1.9-5.6-9.4 5.4c-.3-1-.7-2.1-1.1-3-2.1-4.7-5.2-8.2-9.4-10.6-4.3-2.5-7.6-2.6-9.7-.4-2.1 2.2-3.1 6.7-3.1 13.9 0 6.7 1.1 12.4 3.1 17 2.1 4.6 5.2 8.2 9.4 10.6 2.3 1.3 4.3 2 6 2 1.5 0 2.8-.5 3.8-1.5.2-.2.4-.5.6-.8l6.5-3.6 3.5-2.8 1.6-4.4.7-6.7-.6-9.5zm-21.8 26.8c-4-2.3-7-5.7-9.1-10.2-2-4.5-3.1-10.1-3.1-16.7 0-6.9 1-11.4 2.9-13.4.9-.9 2-1.3 3.3-1.3 1.5 0 3.4.6 5.6 1.9 4 2.3 7 5.7 9.1 10.2 2 4.5 3.1 10.2 3.1 16.9 0 6.8-1 11.3-2.9 13.3-1.9 1.8-4.9 1.6-8.9-.7z"/></g></g></svg>