<?xml version="1.0" encoding="utf-8"?>
<!-- Generator: Adobe Illustrator 21.1.0, SVG Export Plug-In . SVG Version: 6.00 Build 0)  -->
<svg version="1.1" id="Layer_1" xmlns="http://www.w3.org/2000/svg" xmlns:xlink="http://www.w3.org/1999/xlink" x="0px" y="0px"
	 viewBox="0 0 187 34" style="enable-background:new 0 0 187 34;" xml:space="preserve">
<style type="text/css">
	.st0{fill:#C0C0C0;}
</style>
<g>
	<g>
		<path class="st0" d="M51.9,22.4l-0.6-1.9h-4.4l-0.6,1.9h-3.7l4.4-13.3h4.2l4.4,13.3H51.9z M47.8,17.6h2.7L49.1,13L47.8,17.6z"/>
		<path class="st0" d="M67,9.1h3.4v13.3h-2.6L63,15.7v6.7h-3.4V9.1h2.6l4.7,6.7V9.1z"/>
		<path class="st0" d="M87,20.7c-1.4,1.3-3,2-5,2c-2,0-3.6-0.7-5-2c-1.4-1.3-2-3-2-4.9s0.7-3.6,2-4.9c1.4-1.3,3-2,5-2
			c2,0,3.6,0.7,5,2c1.4,1.3,2,3,2,4.9S88.3,19.4,87,20.7z M79.4,18.4c0.7,0.7,1.5,1,2.6,1s1.9-0.3,2.6-1c0.7-0.7,1-1.5,1-2.6
			s-0.3-1.9-1-2.6c-0.7-0.7-1.5-1-2.6-1s-1.9,0.3-2.6,1s-1,1.5-1,2.6S78.7,17.7,79.4,18.4z"/>
		<path class="st0" d="M101,9.1h3.4v13.3h-2.6L97,15.7v6.7h-3.4V9.1h2.6l4.7,6.7V9.1z"/>
		<path class="st0" d="M120.9,9.1l-4.5,8.2v5.1H113v-5.1l-4.5-8.2h3.8l2.4,4.9l2.4-4.9H120.9z"/>
		<path class="st0" d="M138.5,9.1v13.3h-3.4v-7.2l-3.2,5.4h-0.3l-3.2-5.3v7.2H125V9.1h3.4l3.4,5.7l3.4-5.7H138.5z"/>
		<path class="st0" d="M155.1,20.7c-1.4,1.3-3,2-5,2c-2,0-3.6-0.7-5-2c-1.4-1.3-2-3-2-4.9s0.7-3.6,2-4.9c1.4-1.3,3-2,5-2
			c2,0,3.6,0.7,5,2c1.4,1.3,2,3,2,4.9S156.5,19.4,155.1,20.7z M147.6,18.4c0.7,0.7,1.5,1,2.6,1c1,0,1.9-0.3,2.6-1
			c0.7-0.7,1-1.5,1-2.6s-0.3-1.9-1-2.6s-1.5-1-2.6-1c-1,0-1.9,0.3-2.6,1s-1,1.5-1,2.6S146.9,17.7,147.6,18.4z"/>
		<path class="st0" d="M170.7,21.4c-1,0.9-2.3,1.3-3.8,1.3c-1.5,0-2.8-0.4-3.8-1.3c-1-0.8-1.5-2-1.5-3.4V9.1h3.4v8.6
			c0,1.1,0.6,1.7,1.9,1.7c1.2,0,1.9-0.6,1.9-1.7V9.1h3.4v8.9C172.2,19.5,171.7,20.6,170.7,21.4z"/>
		<path class="st0" d="M181.9,22.7c-1.4,0-2.6-0.3-3.5-0.9c-0.9-0.6-1.6-1.4-1.9-2.4l2.9-1.7c0.5,1.2,1.4,1.8,2.6,1.8
			c1,0,1.6-0.3,1.6-0.9c0-0.4-0.3-0.7-0.9-1c-0.3-0.1-0.8-0.3-1.7-0.5c-1.2-0.4-2.2-0.9-2.9-1.5c-0.7-0.6-1.1-1.5-1.1-2.7
			c0-1.2,0.4-2.2,1.3-3c0.9-0.8,2-1.1,3.3-1.1c1.1,0,2.1,0.3,3,0.8s1.5,1.3,2,2.3l-2.9,1.7c-0.4-1-1.1-1.5-2.1-1.5
			c-0.4,0-0.7,0.1-0.9,0.2c-0.2,0.2-0.3,0.4-0.3,0.6c0,0.3,0.2,0.5,0.5,0.7c0.3,0.2,0.9,0.4,1.8,0.7c0.6,0.2,1.2,0.4,1.6,0.5
			c0.4,0.2,0.8,0.4,1.3,0.7s0.8,0.7,1,1.2s0.3,1.1,0.3,1.7c0,1.3-0.5,2.3-1.4,3.1S183.4,22.7,181.9,22.7z"/>
	</g>
	<g>
		<g>
			<g>
				<path class="st0" d="M17,0C7.6,0,0,7.6,0,17c0,9.4,7.6,17,17,17s17-7.6,17-17C34,7.6,26.4,0,17,0z M17.1,25L17.1,25l-0.1,0H9.7
					c0-5.3,4.7-5.3,5.7-6.7l0.1-0.6C14.1,17,13,15.2,13,13.1c0-2.7,1.8-5,4-5s4,2.2,4,5c0,2.1-1,3.8-2.4,4.6l0.1,0.7
					c1.1,1.3,5.6,1.4,5.6,6.6H17.1z"/>
			</g>
		</g>
	</g>
</g>
</svg>
