<?xml version="1.0" encoding="utf-8"?>
<!-- Generator: Adobe Illustrator 21.1.0, SVG Export Plug-In . SVG Version: 6.00 Build 0)  -->
<svg version="1.1" id="Capa_1" xmlns="http://www.w3.org/2000/svg" xmlns:xlink="http://www.w3.org/1999/xlink" x="0px" y="0px"
	 viewBox="0 0 464 464" style="enable-background:new 0 0 464 464;" xml:space="preserve">
<style type="text/css">
	.st0{fill:#F4DD38;}
	.st1{fill:#25212A;}
</style>
<path class="st0" d="M328,168v-64c0-35.2-28.8-64-64-64c-12,0-22.4,0-32,8c-4.8-4-9.6-6.4-15.2-7.2C211.2,40,205.6,40,200,40
	c-35.2,0-64,28.8-64,64v64h96c0,0,32,0,32-32c0,11.2,0,32,32,32S328,168,328,168z"/>
<g>
	<path class="st1" d="M258.4,290.4c-14.4,14.4-38.4,14.4-52.8,0c-3.2-3.2-8-3.2-11.2,0s-3.2,8,0,11.2c10.4,10.4,24,15.2,37.6,15.2
		s27.2-4.8,37.6-15.2c3.2-3.2,3.2-8,0-11.2S261.6,287.2,258.4,290.4z"/>
	<path class="st1" d="M232,272c4.8,0,8-3.2,8-8s-3.2-8-8-8c-3.2,0-4.8-2.4-4.8-3.2s-0.8-3.2,0.8-5.6c7.2-7.2,12-17.6,12-28V200
		c0-4.8-3.2-8-8-8s-8,3.2-8,8v18.4c0,6.4-2.4,12.8-7.2,16.8c-6.4,6.4-8,15.2-4.8,23.2C216,267.2,223.2,272,232,272z"/>
	<circle class="st1" cx="192" cy="192" r="8"/>
	<path class="st1" d="M208,168c0-4.8-3.2-8-8-8h-32c-4.8,0-8,3.2-8,8s3.2,8,8,8h32C204.8,176,208,172.8,208,168z"/>
	<circle class="st1" cx="288" cy="192" r="8"/>
	<path class="st1" d="M296,160h-32c-4.8,0-8,3.2-8,8s3.2,8,8,8h32c4.8,0,8-3.2,8-8S300.8,160,296,160z"/>
	<path class="st1" d="M64,424v32c0,4.8,3.2,8,8,8h96c4.8,0,8-3.2,8-8s-3.2-8-8-8H80v-24c0-4,1.6-24,24-24h64c4.8,0,8-3.2,8-8
		s-3.2-8-8-8h-64C72,384,64,410.4,64,424z"/>
	<path class="st1" d="M296,448c-4.8,0-8,3.2-8,8s3.2,8,8,8h96c4.8,0,8-3.2,8-8v-32c0-12-4-21.6-11.2-28.8
		C377.6,384,360.8,384,360,384h-64c-4.8,0-8,3.2-8,8v28.8l-7.2,7.2c-12.8,12.8-30.4,20-48.8,20s-36-7.2-48.8-20l-9.6-9.6
		c-3.2-3.2-8-3.2-11.2,0s-3.2,8,0,11.2l9.6,9.6c16,16,37.6,24.8,60,24.8s44-8.8,60-24.8l9.6-9.6c1.6-1.6,2.4-3.2,2.4-5.6v-24h56l0,0
		c0.8,0,11.2,0,17.6,6.4c4,4,6.4,9.6,6.4,17.6v24H296z"/>
	<path class="st1" d="M336,72c0-40-32-72-72-72c-9.6,0-21.6,0-32,6.4c-4-2.4-8.8-4-13.6-5.6C212,0,206.4,0,200,0
		c-40,0-72,32.8-72,72v64v24h-8c-13.6,0-24,10.4-24,24s10.4,24,24,24h8v56c0,43.2,24,80,64,96l0,0v32c0,22.4,17.6,40,40,40
		s40-17.6,40-40v-32l0,0c37.6-16,64-52.8,64-96v-56h8c13.6,0,24-10.4,24-24s-10.4-24-24-24h-8v-24V72z M144,72c0-31.2,24.8-56,56-56
		c5.6,0,10.4,0,15.2,0.8s8,2.4,11.2,5.6c3.2,2.4,7.2,2.4,10.4,0C244,16,252,16,264,16c31.2,0,56,25.6,56,56v56h-24
		c-24,0-24-12.8-24-24c0-4.8-3.2-8-8-8s-8,3.2-8,8c0,22.4-20,24-24,24h-88V72z M120,192c-4.8,0-8-3.2-8-8s3.2-8,8-8h8v16H120z
		 M256,392c0,13.6-10.4,24-24,24s-24-10.4-24-24v-27.2c8,1.6,16,3.2,24,3.2s16-0.8,24-3.2V392z M320,264c0,48.8-39.2,88-88,88
		s-88-39.2-88-88V144h88c8.8,0,22.4-3.2,31.2-13.6c5.6,7.2,15.2,13.6,32.8,13.6h24V264z M344,176c4.8,0,8,3.2,8,8s-3.2,8-8,8h-8v-16
		H344z"/>
	<path class="st1" d="M237.6,34.4c-3.2-3.2-8-3.2-11.2,0l-64,64c-3.2,3.2-3.2,8,0,11.2c1.6,1.6,4,2.4,5.6,2.4s4-0.8,5.6-2.4l64-64
		C240.8,42.4,240.8,37.6,237.6,34.4z"/>
	<path class="st1" d="M168,80c2.4,0,4-0.8,5.6-2.4l32-32c3.2-3.2,3.2-8,0-11.2s-8-3.2-11.2,0l-32,32c-3.2,3.2-3.2,8,0,11.2
		C164,79.2,165.6,80,168,80z"/>
	<path class="st1" d="M237.6,66.4c-3.2-3.2-8-3.2-11.2,0l-32,32c-3.2,3.2-3.2,8,0,11.2c1.6,1.6,4,2.4,5.6,2.4s4-0.8,5.6-2.4l32-32
		C240.8,74.4,240.8,69.6,237.6,66.4z"/>
</g>
</svg>
