<?xml version="1.0" encoding="utf-8"?>
<!-- Generator: Adobe Illustrator 21.1.0, SVG Export Plug-In . SVG Version: 6.00 Build 0)  -->
<svg version="1.1" id="content" xmlns="http://www.w3.org/2000/svg" xmlns:xlink="http://www.w3.org/1999/xlink" x="0px" y="0px"
	 viewBox="0 0 342.8 285.8" style="enable-background:new 0 0 342.8 285.8;" xml:space="preserve">
<style type="text/css">
	.st0{fill:#FFFFFF;}
	.st1{fill:#16110D;}
	.st2{fill:#F4DD38;}
	.st3{fill:#25212A;}
</style>
<g>
	<g id="_x31_4">
		<path id="XMLID_15_" class="st0" d="M342,188.3l-0.1-18.9l-22.9-4.6L198.9,95.1c-17.9-10.4-49.3-9.2-70.1,2.8L17.9,161.6
			c-0.9,0.5-1.8,1.1-2.6,1.6l-14.6,4.5v17.2l0,0c0.1,6.4,4.1,12.6,12.1,17.2l131.1,76c17.9,10.4,49.3,9.2,70.1-2.8l110.9-63.7
			C336.4,204.9,342.2,196.3,342,188.3L342,188.3z"/>
		<path id="XMLID_16_" class="st1" d="M174.5,285.8c-11.6,0-22.7-2.3-30.9-7.1l-131.1-76c-7.6-4.4-12-10.5-12.4-17.2l0,0l0-0.7
			v-17.7l15-4.6c0.9-0.6,1.8-1.1,2.6-1.6l110.9-63.7c20.9-12,52.7-13.3,70.8-2.8L319.3,164l23.3,4.7l0.1,20.3h0
			c-0.2,8.4-6.5,16.8-17.6,23.1l-110.9,63.7C203,282.5,188.4,285.8,174.5,285.8z M1.5,184.5l0,0.3c0.1,6.4,4.3,12.3,11.7,16.6
			l131.1,76c17.7,10.3,48.8,9,69.3-2.8l110.9-63.7c10.9-6.2,17-14.5,16.8-22.6l0-0.8h0l-0.1-17.5l-22.5-4.6L198.5,95.7
			c-17.7-10.3-48.8-9-69.3,2.8L18.3,162.3c-0.8,0.5-1.6,1-2.6,1.6l-0.2,0.1l-14.1,4.3V184.5z"/>
		<path id="XMLID_5_" class="st0" d="M143.9,260.9l-131.1-76c-17.9-10.4-15.7-28.5,5.1-40.4l110.9-63.7
			c20.8-11.9,52.1-13.2,70.1-2.8l131.1,76c17.9,10.4,15.7,28.5-5.1,40.4L214,258.1C193.2,270,161.9,271.3,143.9,260.9z"/>
		<path id="XMLID_136_" class="st0" d="M329.9,158.9l-131.1-76c-17.9-10.4-49.3-9.2-70.1,2.8L17.9,149.4c-9,5.2-14.5,11.5-16.4,17.9
			v9.8c1.5,4.8,5.2,9.2,11.3,12.7l131.1,76c17.9,10.4,49.3,9.2,70.1-2.8l110.9-63.7C345.6,187.4,347.9,169.3,329.9,158.9z"/>
		<path id="XMLID_24_" class="st1" d="M342.8,171.5c0-7.1-4.4-13.6-12.5-18.2l-131.1-76c-18.1-10.5-49.9-9.3-70.8,2.8L17.6,143.8
			C6.4,150.2,0,158.8,0,167.3c0,7.1,4.4,13.6,12.5,18.2l131.1,76c8.2,4.8,19.3,7.1,30.9,7.1c6.9,0,13.9-0.8,20.7-2.5v8
			c0,4.2-2.8,8-6.9,9c-0.1,0-0.1,0-0.2,0c-6.4,1.5-6.4,1.5-6.4,1.5l17.4-3.2l8.5-3.1l123.7-70.3l7.5-9l3-7.3l0.2-14.9
			C342.5,175.1,342.8,173.3,342.8,171.5z M144.3,260.2l-131.1-76c-7.6-4.4-11.7-10.4-11.7-16.9c0-8,6.1-16.1,16.8-22.2l110.9-63.7
			c11.2-6.4,25.5-9.7,39.1-9.7c11.3,0,22.1,2.3,30.2,6.9l131.1,76c7.6,4.4,11.7,10.4,11.7,16.9c0,8-6.1,16.1-16.8,22.2l-110.9,63.7
			C193.1,269.2,162,270.5,144.3,260.2z"/>
	</g>
	<g id="_x31_3">
		<g id="XMLID_215_">
			<path id="XMLID_641_" class="st0" d="M159.2,90.8V153c0,0.7,0.3,1.3,0.7,1.7l0,0l0,0c0.2,0.2,0.4,0.3,0.6,0.5l3.3,2.4l1.5-3.8
				l52.4-29.9c1.3-0.8,2.2-2.2,2.2-3.7V73.5L159.2,90.8z"/>
			<path id="XMLID_486_" class="st1" d="M181.7,83.8l-22.9,6.5V153c0,0.7,0.2,1.3,0.6,1.8l0,0.1l0.2,0.2c0.2,0.2,0.5,0.4,0.7,0.5
				l3.2,2.3c0,0,0,0,0.1,0.1c0,0,0,0,0,0l0.5,0.4l0.1-0.1c0.3,0.1,0.6,0.2,0.9,0.2c0.5,0,1-0.1,1.5-0.4l54.8-31.3
				c1.5-0.9,2.4-2.4,2.4-4.2V64.5L181.7,83.8z M160.4,154.4L160.4,154.4c-0.3-0.3-0.6-0.8-0.6-1.4V91.1l16-4.6l-13.4,6.2l-0.3,0.1
				v62.6c0,0.1,0,0.2,0,0.3l-1.3-1C160.7,154.7,160.5,154.6,160.4,154.4z"/>
			<path id="XMLID_610_" class="st0" d="M241.2,137.5v62.3c0,0.7,0.3,1.3,0.7,1.7l0,0l0,0c0.2,0.2,0.4,0.3,0.6,0.5l3.3,2.4l1.5-3.8
				l52.4-29.9c1.3-0.8,2.2-2.2,2.2-3.7v-48.8L241.2,137.5z"/>
			<path id="XMLID_411_" class="st1" d="M282.4,123.7l-41.8,13.4v62.6c0,0.6,0.2,1.2,0.6,1.8l-0.1,0.1l0.3,0.2
				c0.2,0.2,0.5,0.4,0.7,0.5l3.2,2.3c0,0,0.1,0.1,0.1,0.1c0,0,0,0,0,0l0.5,0.4l0.1-0.1c0.3,0.1,0.6,0.2,0.9,0.2c0.5,0,1-0.1,1.5-0.4
				l54.8-31.3c1.5-0.9,2.4-2.4,2.4-4.2l0-55.2L282.4,123.7z M242.3,201.2L242.3,201.2c-0.3-0.3-0.6-0.8-0.6-1.4v-61.9l29.4-9.4
				l-26.7,11l-0.3,0.1v62.6c0,0.1,0,0.2,0,0.3l-1.3-1C242.6,201.4,242.4,201.3,242.3,201.2z"/>
			<g id="XMLID_717_">
				<path id="XMLID_481_" class="st0" d="M313.4,121.5c0-0.1,0-0.2,0-0.3l0-3.1l-9.8-3.8l-92.3-53.5c-2.1-1.2-5.9-1.1-8.4,0.3
					l-47.8,27.1l-2.9-0.8v4.3c0,0,0,0,0,0c0.1,0.7,0.5,1.3,1.4,1.8l100.6,58.3c2.1,1.2,5.9,1.1,8.4-0.3l48.6-27.6
					C312.6,123.2,313.3,122.3,313.4,121.5L313.4,121.5L313.4,121.5z"/>
				<path id="XMLID_482_" class="st1" d="M258,153.2c-1.5,0-2.9-0.3-4-0.9L153.4,93.9c-1-0.6-1.4-1.3-1.6-1.9l-0.1,0l0-0.4V88
					c0-0.7,0.7-1.2,1.3-1l2,0.6l47.6-27c2.7-1.5,6.6-1.6,8.9-0.3l92.3,53.5l10,3.9l0,3.4c0,0.2,0,0.2,0,0.3l0,0l-0.1,0.5
					c-0.3,0.9-1,1.7-2.2,2.4L263,151.9C261.5,152.8,259.7,153.2,258,153.2z M152.7,91.4l0,0.1c0.1,0.6,0.5,1.1,1.2,1.5l100.6,58.3
					c2,1.2,5.6,1,7.9-0.3l48.6-27.6c1-0.6,1.7-1.3,1.8-2.1l0,0c0,0,0-0.1,0-0.1l0-2.8l-9.4-3.7l-92.4-53.5c-2-1.2-5.6-1-7.9,0.3
					l-48,27.2l-2.5-0.7V91.4z"/>
			</g>
			<g id="XMLID_219_">
				<path id="XMLID_446_" class="st0" d="M254.3,148.5L153.7,90.1c-2.1-1.2-1.9-3.4,0.6-4.8l48.6-27.6c2.5-1.4,6.3-1.6,8.4-0.3
					L312,115.7c2.1,1.2,1.9,3.4-0.6,4.8l-48.6,27.6C260.2,149.6,256.5,149.7,254.3,148.5z"/>
				<path id="XMLID_634_" class="st0" d="M254.6,150.1L154,91.7c-2.1-1.2-1.9-3.4,0.6-4.8l48.6-27.6c2.5-1.4,6.3-1.6,8.4-0.3
					l100.6,58.3c1.1,0.8,1.9,3.4-0.6,4.8L263,149.7C260.5,151.2,256.8,151.3,254.6,150.1z"/>
				<path id="XMLID_475_" class="st1" d="M258,149.8c-1.5,0-2.9-0.3-4-0.9L153.4,90.5c-1.1-0.6-1.7-1.5-1.7-2.5
					c0-1.2,0.9-2.3,2.3-3.1l48.6-27.6c2.7-1.5,6.6-1.6,8.9-0.3l100.6,58.3c1.1,0.6,1.7,1.5,1.7,2.5c0,1.2-0.9,2.3-2.3,3.1L263,148.6
					C261.5,149.4,259.7,149.8,258,149.8z M207.6,57c-1.5,0-3.2,0.4-4.5,1.1l-48.6,27.6c-1.2,0.7-1.8,1.5-1.8,2.3
					c0,0.6,0.4,1.2,1.2,1.7L254.6,148c2,1.2,5.6,1,7.9-0.3l48.6-27.6c1.2-0.7,1.8-1.5,1.8-2.3c0-0.6-0.4-1.2-1.2-1.7L211.1,57.8
					C210.2,57.3,208.9,57,207.6,57z"/>
			</g>
			<polygon id="XMLID_406_" class="st0" points="189.6,135.8 189.6,132.5 241.2,162.4 241.2,165.6 			"/>
			<g id="XMLID_714_">
				<polygon id="XMLID_398_" class="st0" points="189.6,132.5 205.3,123.3 241.2,143.9 241.2,162.4 				"/>
				<path id="XMLID_637_" class="st1" d="M205.3,122.7l-15.7,9.2l0,0l-0.5,0.3v0.6l0,0v3.4l51.9,29.9l0.8,0.4v-3.3v-1.2v-18.4
					L205.3,122.7z M240.7,164.8l-50.6-29.2v-2.2l50.6,29.3V164.8z M205.3,123.9l35.4,20.3v17.3l-50.1-29L205.3,123.9z"/>
			</g>
		</g>
		<g id="XMLID_684_">
			<path id="XMLID_353_" class="st0" d="M246.6,138.5l-79.3-45.7c-1.4-0.8-1.2-2.2,0.4-3.1l39.6-22.5c1.6-0.9,4-1,5.4-0.2l79.3,45.7
				c1.4,0.8,1.2,2.2-0.4,3.1L252,138.3C250.4,139.2,248,139.3,246.6,138.5z"/>
			<path id="XMLID_394_" class="st1" d="M249,139.6c-1,0-1.9-0.2-2.6-0.6l-79.3-45.7c-0.8-0.4-1.2-1.1-1.2-1.8
				c0-0.8,0.6-1.6,1.6-2.2l39.6-22.5c1.8-1,4.4-1.1,5.9-0.2l79.3,45.7c0.8,0.4,1.2,1.1,1.2,1.8c0,0.8-0.6,1.6-1.6,2.2l-39.6,22.5
				C251.3,139.3,250.1,139.6,249,139.6z M210.4,67.1c-1,0-2,0.2-2.8,0.7L168,90.2c-0.7,0.4-1.1,0.9-1.1,1.3c0,0.4,0.4,0.7,0.7,0.9
				l79.3,45.7c1.2,0.7,3.5,0.6,4.9-0.2l39.6-22.5c0.7-0.4,1.1-0.9,1.1-1.3c0-0.4-0.4-0.7-0.7-0.9l-79.3-45.7
				C211.9,67.2,211.2,67.1,210.4,67.1z"/>
		</g>
	</g>
	<g id="_x31_2">
		<path id="XMLID_942_" class="st1" d="M251.4,112.8l-42.2-24.3c-0.5-0.3-1.3-0.3-1.9,0.1L189.3,99l-1.8-0.4l0,1.8l0,0.1l0,0
			c0,0.3,0.2,0.5,0.4,0.6l45.4,26.1c0.2,0.1,0.5,0.2,0.8,0.2c0.4,0,0.8-0.1,1.1-0.3l22.5-13c0.3-0.2,0.5-0.5,0.5-0.8l0-1.8
			L251.4,112.8z"/>
		<g id="XMLID_823_">
			<path id="XMLID_933_" class="st0" d="M233.5,125.5l-45.4-26.1c-0.4-0.2-0.4-0.7,0.1-0.9l22.5-13c0.5-0.3,1.2-0.3,1.6-0.1
				l45.4,26.1c0.4,0.2,0.4,0.7-0.1,0.9l-22.5,13C234.6,125.7,233.9,125.8,233.5,125.5z"/>
			<path id="XMLID_934_" class="st1" d="M234.2,126c-0.3,0-0.6-0.1-0.8-0.2L188,99.7c-0.3-0.2-0.4-0.4-0.4-0.7
				c0-0.3,0.2-0.6,0.5-0.8l22.5-13c0.6-0.3,1.4-0.4,1.9-0.1l45.4,26.1c0.3,0.2,0.4,0.4,0.4,0.7c0,0.3-0.2,0.6-0.5,0.8l-22.5,13
				C234.9,125.9,234.5,126,234.2,126z M211.7,85.6c-0.3,0-0.5,0.1-0.8,0.2l-22.5,13c-0.2,0.1-0.2,0.2-0.2,0.3c0,0,0,0.1,0.1,0.1
				l45.4,26.1c0.3,0.2,0.9,0.2,1.3-0.1l22.5-13c0.2-0.1,0.2-0.2,0.2-0.3c0,0,0-0.1-0.1-0.1l-45.4-26.1
				C212.1,85.6,211.9,85.6,211.7,85.6z"/>
		</g>
		<g id="XMLID_413_">
			<g id="XMLID_633_">
				<path id="XMLID_929_" class="st0" d="M207.7,91l-1.3-0.7c-0.3-0.2-0.3-0.5,0.1-0.7l0.5-0.3c0.4-0.2,0.9-0.2,1.2-0.1l1.3,0.7
					c0.3,0.2,0.3,0.5-0.1,0.7L209,91C208.6,91.2,208,91.2,207.7,91z"/>
				<path id="XMLID_930_" class="st1" d="M208.3,91.5c-0.3,0-0.5-0.1-0.7-0.2v0l-1.3-0.7c-0.2-0.1-0.4-0.3-0.4-0.6
					c0-0.3,0.2-0.5,0.5-0.7l0.5-0.3c0.5-0.3,1.1-0.3,1.5-0.1l1.3,0.7c0.2,0.1,0.4,0.3,0.4,0.6c0,0.3-0.2,0.5-0.5,0.7l-0.5,0.3
					C208.9,91.4,208.5,91.5,208.3,91.5z M207.9,90.8c0.2,0.1,0.7,0.1,0.9-0.1l0.5-0.3c0.1-0.1,0.2-0.1,0.2-0.1c0,0,0,0-0.1,0
					l-1.3-0.7c-0.2-0.1-0.7-0.1-0.9,0.1l-0.5,0.3c-0.1,0.1-0.2,0.1-0.2,0.1c0,0,0,0,0.1,0L207.9,90.8z"/>
			</g>
			<g id="XMLID_632_">
				<path id="XMLID_925_" class="st0" d="M210.9,92.9l-1.3-0.7c-0.3-0.2-0.3-0.5,0.1-0.7l0.5-0.3c0.4-0.2,0.9-0.2,1.2-0.1l1.3,0.7
					c0.3,0.2,0.3,0.5-0.1,0.7l-0.5,0.3C211.7,93,211.2,93,210.9,92.9z"/>
				<path id="XMLID_926_" class="st1" d="M211.4,93.3c-0.3,0-0.5-0.1-0.7-0.2v0l-1.3-0.7c-0.2-0.1-0.4-0.3-0.4-0.6
					c0-0.3,0.2-0.5,0.5-0.7l0.5-0.3c0.5-0.3,1.1-0.3,1.5-0.1l1.3,0.7c0.2,0.1,0.4,0.3,0.4,0.6c0,0.3-0.2,0.5-0.5,0.7l-0.5,0.3
					C212,93.2,211.7,93.3,211.4,93.3z M211,92.6c0.2,0.1,0.7,0.1,0.9-0.1l0.5-0.3c0.1-0.1,0.2-0.1,0.2-0.1c0,0,0,0-0.1,0l-1.3-0.7
					c-0.2-0.1-0.7-0.1-0.9,0.1l-0.5,0.3c-0.1,0.1-0.2,0.1-0.2,0.1c0,0,0,0,0.1,0L211,92.6z"/>
			</g>
			<g id="XMLID_631_">
				<path id="XMLID_921_" class="st0" d="M214,94.7l-1.3-0.7c-0.3-0.2-0.3-0.5,0.1-0.7l0.5-0.3c0.4-0.2,0.9-0.2,1.2-0.1l1.3,0.7
					c0.3,0.2,0.3,0.5-0.1,0.7l-0.5,0.3C214.9,94.8,214.3,94.8,214,94.7z"/>
				<path id="XMLID_922_" class="st1" d="M214.5,95.1c-0.3,0-0.5-0.1-0.7-0.2v0l-1.3-0.7c-0.2-0.1-0.4-0.3-0.4-0.6
					c0-0.3,0.2-0.5,0.5-0.7l0.5-0.3c0.5-0.3,1.1-0.3,1.5-0.1l1.3,0.7c0.2,0.1,0.4,0.3,0.4,0.6c0,0.3-0.2,0.5-0.5,0.7l-0.5,0.3
					C215.1,95,214.8,95.1,214.5,95.1z M214.1,94.4c0.2,0.1,0.7,0.1,0.9-0.1l0.5-0.3c0.1-0.1,0.2-0.1,0.2-0.1c0,0,0,0-0.1,0l-1.3-0.7
					c-0.2-0.1-0.7-0.1-0.9,0.1l-0.5,0.3c-0.1,0.1-0.2,0.1-0.2,0.1c0,0,0,0,0.1,0L214.1,94.4z"/>
			</g>
			<g id="XMLID_630_">
				<path id="XMLID_917_" class="st0" d="M217.1,96.5l-1.3-0.7c-0.3-0.2-0.3-0.5,0.1-0.7l0.5-0.3c0.4-0.2,0.9-0.2,1.2-0.1l1.3,0.7
					c0.3,0.2,0.3,0.5-0.1,0.7l-0.5,0.3C218,96.6,217.5,96.6,217.1,96.5z"/>
				<path id="XMLID_918_" class="st1" d="M217.7,96.9c-0.3,0-0.5-0.1-0.7-0.2v0l-1.3-0.7c-0.2-0.1-0.4-0.3-0.4-0.6
					c0-0.3,0.2-0.5,0.5-0.7l0.5-0.3c0.5-0.3,1.1-0.3,1.5-0.1l1.3,0.7c0.2,0.1,0.4,0.3,0.4,0.6c0,0.3-0.2,0.5-0.5,0.7l-0.5,0.3
					C218.3,96.8,218,96.9,217.7,96.9z M217.3,96.2c0.2,0.1,0.7,0.1,0.9-0.1l0.5-0.3c0.1-0.1,0.2-0.1,0.2-0.1c0,0,0,0-0.1,0l-1.3-0.7
					c-0.2-0.1-0.7-0.1-0.9,0.1l-0.5,0.3c-0.1,0.1-0.2,0.1-0.2,0.1c0,0,0,0,0.1,0L217.3,96.2z"/>
			</g>
			<g id="XMLID_629_">
				<path id="XMLID_912_" class="st0" d="M220.3,98.3l-1.3-0.7c-0.3-0.2-0.3-0.5,0.1-0.7l0.5-0.3c0.4-0.2,0.9-0.2,1.2-0.1l1.3,0.7
					c0.3,0.2,0.3,0.5-0.1,0.7l-0.5,0.3C221.1,98.4,220.6,98.5,220.3,98.3z"/>
				<path id="XMLID_913_" class="st1" d="M220.8,98.7c-0.3,0-0.5-0.1-0.7-0.2v0l-1.3-0.7c-0.2-0.1-0.4-0.3-0.4-0.6
					c0-0.3,0.2-0.5,0.5-0.7l0.5-0.3c0.5-0.3,1.1-0.3,1.5-0.1l1.3,0.7c0.2,0.1,0.4,0.3,0.4,0.6c0,0.3-0.2,0.5-0.5,0.7l-0.5,0.3
					C221.4,98.6,221.1,98.7,220.8,98.7z M220.4,98c0.2,0.1,0.7,0.1,0.9-0.1l0.5-0.3c0.1-0.1,0.2-0.1,0.2-0.1c0,0,0,0-0.1,0l-1.3-0.7
					c-0.2-0.1-0.7-0.1-0.9,0.1l-0.5,0.3c-0.1,0.1-0.2,0.1-0.2,0.1c0,0,0,0,0.1,0L220.4,98z"/>
			</g>
			<g id="XMLID_628_">
				<path id="XMLID_908_" class="st0" d="M223.4,100.1l-1.3-0.7c-0.3-0.2-0.3-0.5,0.1-0.7l0.5-0.3c0.4-0.2,0.9-0.2,1.2-0.1l1.3,0.7
					c0.3,0.2,0.3,0.5-0.1,0.7l-0.5,0.3C224.3,100.2,223.7,100.3,223.4,100.1z"/>
				<path id="XMLID_909_" class="st1" d="M224,100.5c-0.3,0-0.5-0.1-0.7-0.2l-1.3-0.7c-0.2-0.1-0.4-0.3-0.4-0.6
					c0-0.3,0.2-0.5,0.5-0.7l0.5-0.3c0.5-0.3,1.1-0.3,1.5-0.1l1.3,0.7c0.2,0.1,0.4,0.3,0.4,0.6c0,0.3-0.2,0.5-0.5,0.7l-0.5,0.3
					C224.6,100.4,224.2,100.5,224,100.5z M223.5,98.5c-0.2,0-0.4,0-0.6,0.1l-0.5,0.3c-0.1,0.1-0.2,0.1-0.2,0.1c0,0,0,0,0.1,0
					l1.3,0.7c0.2,0.1,0.7,0.1,0.9-0.1l0.5-0.3c0.1-0.1,0.2-0.1,0.2-0.1c0,0,0,0-0.1,0l-1.3-0.7C223.7,98.5,223.6,98.5,223.5,98.5z"
					/>
			</g>
			<g id="XMLID_627_">
				<path id="XMLID_904_" class="st0" d="M226.6,101.9l-1.3-0.7c-0.3-0.2-0.3-0.5,0.1-0.7l0.5-0.3c0.4-0.2,0.9-0.2,1.2-0.1l1.3,0.7
					c0.3,0.2,0.3,0.5-0.1,0.7l-0.5,0.3C227.4,102.1,226.9,102.1,226.6,101.9z"/>
				<path id="XMLID_905_" class="st1" d="M227.1,102.3c-0.3,0-0.5-0.1-0.7-0.2l-1.3-0.7c-0.2-0.1-0.4-0.3-0.4-0.6
					c0-0.3,0.2-0.5,0.5-0.7l0.5-0.3c0.5-0.3,1.1-0.3,1.5-0.1l1.3,0.7c0.2,0.1,0.4,0.3,0.4,0.6c0,0.3-0.2,0.5-0.5,0.7l-0.5,0.3
					C227.7,102.2,227.4,102.3,227.1,102.3z M226.6,100.3c-0.2,0-0.4,0-0.6,0.1l-0.5,0.3c-0.1,0.1-0.2,0.1-0.2,0.1c0,0,0,0,0.1,0
					l1.3,0.7c0.2,0.1,0.7,0.1,0.9-0.1l0.5-0.3c0.1-0.1,0.2-0.1,0.2-0.1c0,0,0,0-0.1,0l-1.3-0.7C226.9,100.3,226.7,100.3,226.6,100.3
					z"/>
			</g>
			<g id="XMLID_626_">
				<path id="XMLID_900_" class="st0" d="M229.7,103.7l-1.3-0.7c-0.3-0.2-0.3-0.5,0.1-0.7l0.5-0.3c0.4-0.2,0.9-0.2,1.2-0.1l1.3,0.7
					c0.3,0.2,0.3,0.5-0.1,0.7l-0.5,0.3C230.6,103.9,230,103.9,229.7,103.7z"/>
				<path id="XMLID_901_" class="st1" d="M230.2,104.1c-0.3,0-0.5-0.1-0.7-0.2l-1.3-0.7c-0.2-0.1-0.4-0.3-0.4-0.6
					c0-0.3,0.2-0.5,0.5-0.7l0.5-0.3c0.5-0.3,1.1-0.3,1.5-0.1l1.3,0.7c0.2,0.1,0.4,0.3,0.4,0.6c0,0.3-0.2,0.5-0.5,0.7l-0.5,0.3
					C230.8,104.1,230.5,104.1,230.2,104.1z M229.8,103.4c0.2,0.1,0.7,0.1,0.9-0.1l0.5-0.3c0.1-0.1,0.2-0.1,0.2-0.1c0,0,0,0-0.1,0
					l-1.3-0.7c-0.2-0.1-0.7-0.1-0.9,0.1l-0.5,0.3c-0.1,0.1-0.2,0.1-0.2,0.1c0,0,0,0,0.1,0L229.8,103.4z"/>
			</g>
			<g id="XMLID_625_">
				<path id="XMLID_896_" class="st0" d="M232.8,105.5l-1.3-0.7c-0.3-0.2-0.3-0.5,0.1-0.7l0.5-0.3c0.4-0.2,0.9-0.2,1.2-0.1l1.3,0.7
					c0.3,0.2,0.3,0.5-0.1,0.7l-0.5,0.3C233.7,105.7,233.2,105.7,232.8,105.5z"/>
				<path id="XMLID_897_" class="st1" d="M233.4,105.9c-0.3,0-0.5-0.1-0.7-0.2l-1.3-0.7c-0.2-0.1-0.4-0.3-0.4-0.6
					c0-0.3,0.2-0.5,0.5-0.7l0.5-0.3c0.5-0.3,1.1-0.3,1.5-0.1l1.3,0.7c0.2,0.1,0.4,0.3,0.4,0.6c0,0.3-0.2,0.5-0.5,0.7l-0.5,0.3
					C234,105.9,233.7,105.9,233.4,105.9z M233,105.2c0.2,0.1,0.7,0.1,0.9-0.1l0.5-0.3c0.1-0.1,0.2-0.1,0.2-0.1c0,0,0,0-0.1,0
					l-1.3-0.7c-0.2-0.1-0.7-0.1-0.9,0.1l-0.5,0.3c-0.1,0.1-0.2,0.1-0.2,0.1c0,0,0,0,0.1,0L233,105.2z"/>
			</g>
			<g id="XMLID_624_">
				<path id="XMLID_892_" class="st0" d="M236,107.3l-1.3-0.7c-0.3-0.2-0.3-0.5,0.1-0.7l0.5-0.3c0.4-0.2,0.9-0.2,1.2-0.1l1.3,0.7
					c0.3,0.2,0.3,0.5-0.1,0.7l-0.5,0.3C236.8,107.5,236.3,107.5,236,107.3z"/>
				<path id="XMLID_893_" class="st1" d="M236.5,107.7c-0.3,0-0.5-0.1-0.7-0.2l-1.3-0.7c-0.2-0.1-0.4-0.3-0.4-0.6
					c0-0.3,0.2-0.5,0.5-0.7l0.5-0.3c0.5-0.3,1.1-0.3,1.5-0.1l1.3,0.7c0.2,0.1,0.4,0.3,0.4,0.6c0,0.3-0.2,0.5-0.5,0.7l-0.5,0.3
					C237.1,107.7,236.8,107.7,236.5,107.7z M236.1,107.1c0.2,0.1,0.7,0.1,0.9-0.1l0.5-0.3c0.1-0.1,0.2-0.1,0.2-0.1c0,0,0,0-0.1,0
					l-1.3-0.7c-0.2-0.1-0.7-0.1-0.9,0.1l-0.5,0.3c-0.1,0.1-0.2,0.1-0.2,0.1c0,0,0,0,0.1,0L236.1,107.1z"/>
			</g>
			<g id="XMLID_623_">
				<path id="XMLID_888_" class="st0" d="M239.2,109.2l-1.3-0.7c-0.3-0.2-0.3-0.5,0.1-0.7l0.5-0.3c0.4-0.2,0.9-0.2,1.2-0.1l1.3,0.7
					c0.3,0.2,0.3,0.5-0.1,0.7l-0.5,0.3C240.1,109.3,239.5,109.4,239.2,109.2z"/>
				<path id="XMLID_889_" class="st1" d="M239.7,109.6c-0.3,0-0.5-0.1-0.7-0.2l-1.3-0.7c-0.2-0.1-0.4-0.3-0.4-0.6
					c0-0.3,0.2-0.5,0.5-0.7l0.5-0.3c0.5-0.3,1.1-0.3,1.5-0.1l1.3,0.7c0.2,0.1,0.4,0.3,0.4,0.6c0,0.3-0.2,0.5-0.5,0.7l-0.5,0.3
					C240.3,109.5,240,109.6,239.7,109.6z M239.4,108.9c0.2,0.1,0.7,0.1,0.9-0.1l0.5-0.3c0.1-0.1,0.2-0.1,0.2-0.1c0,0,0,0-0.1,0
					l-1.3-0.7c-0.2-0.1-0.7-0.1-0.9,0.1l-0.5,0.3c-0.1,0.1-0.2,0.1-0.2,0.1c0,0,0,0,0.1,0L239.4,108.9z"/>
			</g>
			<g id="XMLID_622_">
				<path id="XMLID_884_" class="st0" d="M242.3,111l-1.3-0.7c-0.3-0.2-0.3-0.5,0.1-0.7l0.5-0.3c0.4-0.2,0.9-0.2,1.2-0.1l1.3,0.7
					c0.3,0.2,0.3,0.5-0.1,0.7l-0.5,0.3C243.2,111.1,242.7,111.2,242.3,111z"/>
				<path id="XMLID_885_" class="st1" d="M242.9,111.4c-0.3,0-0.5-0.1-0.7-0.2l-1.3-0.7c-0.2-0.1-0.4-0.3-0.4-0.6
					c0-0.3,0.2-0.5,0.5-0.7l0.5-0.3c0.5-0.3,1.1-0.3,1.5-0.1l1.3,0.7c0.2,0.1,0.4,0.3,0.4,0.6c0,0.3-0.2,0.5-0.5,0.7l-0.5,0.3
					C243.5,111.3,243.2,111.4,242.9,111.4z M242.5,110.7c0.2,0.1,0.7,0.1,0.9-0.1l0.5-0.3c0.1-0.1,0.2-0.1,0.2-0.1c0,0,0,0-0.1,0
					l-1.3-0.7c-0.2-0.1-0.7-0.1-0.9,0.1l-0.5,0.3c-0.1,0.1-0.2,0.1-0.2,0.1c0,0,0,0,0.1,0L242.5,110.7z"/>
			</g>
			<g id="XMLID_615_">
				<path id="XMLID_880_" class="st0" d="M245.5,112.8l-1.3-0.7c-0.3-0.2-0.3-0.5,0.1-0.7l0.5-0.3c0.4-0.2,0.9-0.2,1.2-0.1l1.3,0.7
					c0.3,0.2,0.3,0.5-0.1,0.7l-0.5,0.3C246.4,113,245.8,113,245.5,112.8z"/>
				<path id="XMLID_881_" class="st1" d="M246,113.2c-0.3,0-0.5-0.1-0.7-0.2l-1.3-0.7c-0.2-0.1-0.4-0.3-0.4-0.6
					c0-0.3,0.2-0.5,0.5-0.7l0.5-0.3c0.5-0.3,1.1-0.3,1.5-0.1l1.3,0.7c0.2,0.1,0.4,0.3,0.4,0.6c0,0.3-0.2,0.5-0.5,0.7l-0.5,0.3
					C246.6,113.1,246.3,113.2,246,113.2z M245.6,112.5c0.2,0.1,0.7,0.1,0.9-0.1l0.5-0.3c0.1-0.1,0.2-0.1,0.2-0.1c0,0,0,0-0.1,0
					l-1.3-0.7c-0.2-0.1-0.7-0.1-0.9,0.1l-0.5,0.3c-0.1,0.1-0.2,0.1-0.2,0.1c0,0,0,0,0.1,0L245.6,112.5z"/>
			</g>
			<g id="XMLID_613_">
				<path id="XMLID_876_" class="st0" d="M248.6,114.6l-1.3-0.7c-0.3-0.2-0.3-0.5,0.1-0.7l0.5-0.3c0.4-0.2,0.9-0.2,1.2-0.1l1.3,0.7
					c0.3,0.2,0.3,0.5-0.1,0.7l-0.5,0.3C249.5,114.8,248.9,114.8,248.6,114.6z"/>
				<path id="XMLID_877_" class="st1" d="M249.2,115c-0.3,0-0.5-0.1-0.7-0.2l-1.3-0.7c-0.2-0.1-0.4-0.3-0.4-0.6
					c0-0.3,0.2-0.5,0.5-0.7l0.5-0.3c0.5-0.3,1.1-0.3,1.5-0.1l1.3,0.7c0.2,0.1,0.4,0.3,0.4,0.6c0,0.3-0.2,0.5-0.5,0.7l-0.5,0.3
					C249.8,115,249.5,115,249.2,115z M248.7,113c-0.2,0-0.4,0-0.6,0.1l-0.5,0.3c-0.1,0.1-0.2,0.1-0.2,0.1c0,0,0,0,0.1,0l1.3,0.7
					c0.2,0.1,0.7,0.1,0.9-0.1l0.5-0.3c0.1-0.1,0.2-0.1,0.2-0.1c0,0,0,0-0.1,0l-1.3-0.7C249,113,248.8,113,248.7,113z"/>
			</g>
			<g id="XMLID_591_">
				<g id="XMLID_612_">
					<path id="XMLID_872_" class="st0" d="M204.1,93.2l-1.3-0.8c-0.3-0.2-0.3-0.5,0.1-0.7l1.5-0.9c0.4-0.2,0.9-0.2,1.2-0.1l1.3,0.8
						c0.3,0.2,0.3,0.5-0.1,0.7l-1.5,0.9C205,93.3,204.4,93.3,204.1,93.2z"/>
					<path id="XMLID_873_" class="st1" d="M204.6,93.6c-0.3,0-0.5-0.1-0.7-0.2l-1.3-0.8c-0.2-0.1-0.4-0.3-0.4-0.6
						c0-0.3,0.2-0.5,0.5-0.7l1.5-0.9c0.5-0.3,1.1-0.3,1.5-0.1l1.3,0.8c0.2,0.1,0.4,0.3,0.4,0.6c0,0.3-0.2,0.5-0.5,0.7l-1.5,0.9
						C205.2,93.5,204.9,93.6,204.6,93.6z M205.1,90.9c-0.2,0-0.4,0-0.6,0.1l-1.5,0.9c-0.1,0.1-0.2,0.1-0.2,0.1c0,0,0,0,0.1,0
						l1.3,0.8c0.2,0.1,0.7,0.1,0.9-0.1l1.5-0.9c0.1-0.1,0.2-0.1,0.2-0.1c0,0,0,0-0.1,0l-1.3-0.8C205.4,91,205.2,90.9,205.1,90.9z"/>
				</g>
				<g id="XMLID_611_">
					<path id="XMLID_868_" class="st0" d="M207.2,95l-1.3-0.8c-0.3-0.2-0.3-0.5,0.1-0.7l1.5-0.9c0.4-0.2,0.9-0.2,1.2-0.1l1.3,0.8
						c0.3,0.2,0.3,0.5-0.1,0.7l-1.5,0.9C208.1,95.1,207.6,95.2,207.2,95z"/>
					<path id="XMLID_869_" class="st1" d="M207.8,95.4c-0.3,0-0.5-0.1-0.7-0.2l-1.3-0.8c-0.2-0.1-0.4-0.3-0.4-0.6
						c0-0.3,0.2-0.5,0.5-0.7l1.5-0.9c0.5-0.3,1.1-0.3,1.5-0.1l1.3,0.8c0.2,0.1,0.4,0.3,0.4,0.6c0,0.3-0.2,0.5-0.5,0.7l-1.5,0.9
						C208.4,95.3,208.1,95.4,207.8,95.4z M208.2,92.7c-0.2,0-0.4,0-0.6,0.1l-1.5,0.9c-0.1,0.1-0.2,0.1-0.2,0.1c0,0,0,0,0.1,0
						l1.3,0.8c0.2,0.1,0.7,0.1,0.9-0.1l1.5-0.9c0.1-0.1,0.2-0.1,0.2-0.1c0,0,0,0-0.1,0l-1.3-0.8C208.5,92.8,208.4,92.7,208.2,92.7z"
						/>
				</g>
				<g id="XMLID_608_">
					<path id="XMLID_864_" class="st0" d="M210.4,96.8l-1.3-0.8c-0.3-0.2-0.3-0.5,0.1-0.7l1.5-0.9c0.4-0.2,0.9-0.2,1.2-0.1l1.3,0.8
						c0.3,0.2,0.3,0.5-0.1,0.7l-1.5,0.9C211.3,97,210.7,97,210.4,96.8z"/>
					<path id="XMLID_865_" class="st1" d="M211,97.2c-0.3,0-0.5-0.1-0.7-0.2l-1.3-0.8c-0.2-0.1-0.4-0.3-0.4-0.6
						c0-0.3,0.2-0.5,0.5-0.7l1.5-0.9c0.5-0.3,1.1-0.3,1.5-0.1l1.3,0.8c0.2,0.1,0.4,0.3,0.4,0.6c0,0.3-0.2,0.5-0.5,0.7l-1.5,0.9
						C211.6,97.2,211.3,97.2,211,97.2z M211.4,94.6c-0.2,0-0.4,0-0.6,0.1l-1.5,0.9c-0.1,0.1-0.2,0.1-0.2,0.1c0,0,0,0,0.1,0l1.3,0.8
						c0.2,0.1,0.7,0.1,0.9-0.1l1.5-0.9c0.1-0.1,0.2-0.1,0.2-0.1c0,0,0,0-0.1,0l-1.3-0.8C211.7,94.6,211.6,94.6,211.4,94.6z"/>
				</g>
				<g id="XMLID_607_">
					<path id="XMLID_860_" class="st0" d="M213.6,98.6l-1.3-0.8c-0.3-0.2-0.3-0.5,0.1-0.7l1.5-0.9c0.4-0.2,0.9-0.2,1.2-0.1l1.3,0.8
						c0.3,0.2,0.3,0.5-0.1,0.7l-1.5,0.9C214.4,98.8,213.9,98.8,213.6,98.6z"/>
					<path id="XMLID_861_" class="st1" d="M214.1,99c-0.3,0-0.5-0.1-0.7-0.2l-1.3-0.8c-0.2-0.1-0.4-0.3-0.4-0.6
						c0-0.3,0.2-0.5,0.5-0.7l1.5-0.9c0.5-0.3,1.1-0.3,1.5-0.1l1.3,0.8c0.2,0.1,0.4,0.3,0.4,0.6c0,0.3-0.2,0.5-0.5,0.7l-1.5,0.9
						C214.7,99,214.4,99,214.1,99z M214.6,96.4c-0.2,0-0.4,0-0.6,0.1l-1.5,0.9c-0.1,0.1-0.2,0.1-0.2,0.1c0,0,0,0,0.1,0l1.3,0.8
						c0.2,0.1,0.7,0.1,0.9-0.1l1.5-0.9c0.1-0.1,0.2-0.1,0.2-0.1c0,0,0,0-0.1,0l-1.3-0.8C214.8,96.4,214.7,96.4,214.6,96.4z"/>
				</g>
				<g id="XMLID_606_">
					<path id="XMLID_856_" class="st0" d="M216.7,100.4l-1.3-0.8c-0.3-0.2-0.3-0.5,0.1-0.7l1.5-0.9c0.4-0.2,0.9-0.2,1.2-0.1l1.3,0.8
						c0.3,0.2,0.3,0.5-0.1,0.7l-1.5,0.9C217.6,100.6,217,100.6,216.7,100.4z"/>
					<path id="XMLID_857_" class="st1" d="M217.2,100.8c-0.3,0-0.5-0.1-0.7-0.2l-1.3-0.8c-0.2-0.1-0.4-0.3-0.4-0.6
						c0-0.3,0.2-0.5,0.5-0.7l1.5-0.9c0.5-0.3,1.1-0.3,1.5-0.1l1.3,0.8c0.2,0.1,0.4,0.3,0.4,0.6c0,0.3-0.2,0.5-0.5,0.7l-1.5,0.9
						C217.8,100.8,217.5,100.8,217.2,100.8z M217.7,98.2c-0.2,0-0.4,0-0.6,0.1l-1.5,0.9c-0.1,0.1-0.2,0.1-0.2,0.1c0,0,0,0,0.1,0
						l1.3,0.8c0.2,0.1,0.7,0.1,0.9-0.1l1.5-0.9c0.1-0.1,0.2-0.1,0.2-0.1c0,0,0,0-0.1,0l-1.3-0.8C218,98.2,217.8,98.2,217.7,98.2z"/>
				</g>
				<g id="XMLID_605_">
					<path id="XMLID_852_" class="st0" d="M219.9,102.2l-1.3-0.8c-0.3-0.2-0.3-0.5,0.1-0.7l1.5-0.9c0.4-0.2,0.9-0.2,1.2-0.1l1.3,0.8
						c0.3,0.2,0.3,0.5-0.1,0.7l-1.5,0.9C220.7,102.4,220.2,102.4,219.9,102.2z"/>
					<path id="XMLID_853_" class="st1" d="M220.4,102.7c-0.3,0-0.5-0.1-0.7-0.2l-1.3-0.8c-0.2-0.1-0.4-0.3-0.4-0.6
						c0-0.3,0.2-0.5,0.5-0.7l1.5-0.9c0.5-0.3,1.1-0.3,1.5-0.1l1.3,0.8c0.2,0.1,0.4,0.3,0.4,0.6c0,0.3-0.2,0.5-0.5,0.7l-1.5,0.9
						C221,102.6,220.7,102.7,220.4,102.7z M220.9,100c-0.2,0-0.4,0-0.6,0.1l-1.5,0.9c-0.1,0.1-0.2,0.1-0.2,0.1c0,0,0,0,0.1,0
						l1.3,0.8c0.2,0.1,0.7,0.1,0.9-0.1l1.5-0.9c0.1-0.1,0.2-0.1,0.2-0.1c0,0,0,0-0.1,0l-1.3-0.8C221.1,100,221,100,220.9,100z"/>
				</g>
				<g id="XMLID_603_">
					<path id="XMLID_848_" class="st0" d="M223,104.1l-1.3-0.8c-0.3-0.2-0.3-0.5,0.1-0.7l1.5-0.9c0.4-0.2,0.9-0.2,1.2-0.1l1.3,0.8
						c0.3,0.2,0.3,0.5-0.1,0.7l-1.5,0.9C223.9,104.2,223.3,104.2,223,104.1z"/>
					<path id="XMLID_849_" class="st1" d="M223.5,104.5c-0.3,0-0.5-0.1-0.7-0.2l-1.3-0.8c-0.2-0.1-0.4-0.3-0.4-0.6
						c0-0.3,0.2-0.5,0.5-0.7l1.5-0.9c0.5-0.3,1.1-0.3,1.5-0.1l1.3,0.8c0.2,0.1,0.4,0.3,0.4,0.6c0,0.3-0.2,0.5-0.5,0.7l-1.5,0.9
						C224.1,104.4,223.8,104.5,223.5,104.5z M224,101.8c-0.2,0-0.4,0-0.6,0.1l-1.5,0.9c-0.1,0.1-0.2,0.1-0.2,0.1c0,0,0,0,0.1,0
						l1.3,0.8c0.2,0.1,0.7,0.1,0.9-0.1l1.5-0.9c0.1-0.1,0.2-0.1,0.2-0.1c0,0,0,0-0.1,0l-1.3-0.8C224.3,101.8,224.2,101.8,224,101.8z
						"/>
				</g>
				<g id="XMLID_601_">
					<path id="XMLID_844_" class="st0" d="M226.2,105.9l-1.3-0.8c-0.3-0.2-0.3-0.5,0.1-0.7l1.5-0.9c0.4-0.2,0.9-0.2,1.2-0.1l1.3,0.8
						c0.3,0.2,0.3,0.5-0.1,0.7l-1.5,0.9C227.1,106,226.5,106.1,226.2,105.9z"/>
					<path id="XMLID_845_" class="st1" d="M226.7,106.3c-0.3,0-0.5-0.1-0.7-0.2l-1.3-0.8c-0.2-0.1-0.4-0.3-0.4-0.6
						c0-0.3,0.2-0.5,0.5-0.7l1.5-0.9c0.5-0.3,1.1-0.3,1.5-0.1l1.3,0.8c0.2,0.1,0.4,0.3,0.4,0.6c0,0.3-0.2,0.5-0.5,0.7l-1.5,0.9
						C227.3,106.2,227,106.3,226.7,106.3z M227.2,103.6c-0.2,0-0.4,0-0.6,0.1l-1.5,0.9c-0.1,0.1-0.2,0.1-0.2,0.1c0,0,0,0,0.1,0
						l1.3,0.8c0.2,0.1,0.7,0.1,0.9-0.1l1.5-0.9c0.1-0.1,0.2-0.1,0.2-0.1c0,0,0,0-0.1,0l-1.3-0.8
						C227.5,103.7,227.3,103.6,227.2,103.6z"/>
				</g>
				<g id="XMLID_600_">
					<path id="XMLID_840_" class="st0" d="M229.3,107.7l-1.3-0.8c-0.3-0.2-0.3-0.5,0.1-0.7l1.5-0.9c0.4-0.2,0.9-0.2,1.2-0.1l1.3,0.8
						c0.3,0.2,0.3,0.5-0.1,0.7l-1.5,0.9C230.2,107.8,229.6,107.9,229.3,107.7z"/>
					<path id="XMLID_841_" class="st1" d="M229.9,108.1c-0.3,0-0.5-0.1-0.7-0.2l-1.3-0.8c-0.2-0.1-0.4-0.3-0.4-0.6
						c0-0.3,0.2-0.5,0.5-0.7l1.5-0.9c0.5-0.3,1.1-0.3,1.5-0.1l1.3,0.8c0.2,0.1,0.4,0.3,0.4,0.6c0,0.3-0.2,0.5-0.5,0.7l-1.5,0.9
						C230.5,108,230.2,108.1,229.9,108.1z M230.3,105.5c-0.2,0-0.4,0-0.6,0.1l-1.5,0.9c-0.1,0.1-0.2,0.1-0.2,0.1c0,0,0,0,0.1,0
						l1.3,0.8c0.2,0.1,0.7,0.1,0.9-0.1l1.5-0.9c0.1-0.1,0.2-0.1,0.2-0.1c0,0,0,0-0.1,0l-1.3-0.8
						C230.6,105.5,230.5,105.5,230.3,105.5z"/>
				</g>
				<g id="XMLID_598_">
					<path id="XMLID_836_" class="st0" d="M232.5,109.5l-1.3-0.8c-0.3-0.2-0.3-0.5,0.1-0.7l1.5-0.9c0.4-0.2,0.9-0.2,1.2-0.1l1.3,0.8
						c0.3,0.2,0.3,0.5-0.1,0.7l-1.5,0.9C233.3,109.7,232.8,109.7,232.5,109.5z"/>
					<path id="XMLID_837_" class="st1" d="M233,109.9c-0.3,0-0.5-0.1-0.7-0.2L231,109c-0.2-0.1-0.4-0.3-0.4-0.6
						c0-0.3,0.2-0.5,0.5-0.7l1.5-0.9c0.5-0.3,1.1-0.3,1.5-0.1l1.3,0.8c0.2,0.1,0.4,0.3,0.4,0.6c0,0.3-0.2,0.5-0.5,0.7l-1.5,0.9
						C233.6,109.8,233.3,109.9,233,109.9z M233.5,107.3c-0.2,0-0.4,0-0.6,0.1l-1.5,0.9c-0.1,0.1-0.2,0.1-0.2,0.1c0,0,0,0,0.1,0
						l1.3,0.8c0.2,0.1,0.7,0.1,0.9-0.1l1.5-0.9c0.1-0.1,0.2-0.1,0.2-0.1c0,0,0,0-0.1,0l-1.3-0.8
						C233.7,107.3,233.6,107.3,233.5,107.3z"/>
				</g>
				<g id="XMLID_597_">
					<path id="XMLID_832_" class="st0" d="M235.6,111.3l-1.3-0.8c-0.3-0.2-0.3-0.5,0.1-0.7l1.5-0.9c0.4-0.2,0.9-0.2,1.2-0.1l1.3,0.8
						c0.3,0.2,0.3,0.5-0.1,0.7l-1.5,0.9C236.5,111.5,236,111.5,235.6,111.3z"/>
					<path id="XMLID_833_" class="st1" d="M236.2,111.7c-0.3,0-0.5-0.1-0.7-0.2l-1.3-0.8c-0.2-0.1-0.4-0.3-0.4-0.6
						c0-0.3,0.2-0.5,0.5-0.7l1.5-0.9c0.5-0.3,1.1-0.3,1.5-0.1l1.3,0.8c0.2,0.1,0.4,0.3,0.4,0.6c0,0.3-0.2,0.5-0.5,0.7l-1.5,0.9
						C236.8,111.7,236.5,111.7,236.2,111.7z M236.6,109.1c-0.2,0-0.4,0-0.6,0.1l-1.5,0.9c-0.1,0.1-0.2,0.1-0.2,0.1c0,0,0,0,0.1,0
						l1.3,0.8c0.2,0.1,0.7,0.1,0.9-0.1l1.5-0.9c0.1-0.1,0.2-0.1,0.2-0.1c0,0,0,0-0.1,0l-1.3-0.8
						C236.9,109.1,236.8,109.1,236.6,109.1z"/>
				</g>
				<g id="XMLID_594_">
					<path id="XMLID_828_" class="st0" d="M238.8,113.1l-1.3-0.8c-0.3-0.2-0.3-0.5,0.1-0.7l1.5-0.9c0.4-0.2,0.9-0.2,1.2-0.1l1.3,0.8
						c0.3,0.2,0.3,0.5-0.1,0.7l-1.5,0.9C239.6,113.3,239.1,113.3,238.8,113.1z"/>
					<path id="XMLID_829_" class="st1" d="M239.3,113.6c-0.3,0-0.5-0.1-0.7-0.2v0l-1.3-0.8c-0.2-0.1-0.4-0.3-0.4-0.6
						c0-0.3,0.2-0.5,0.5-0.7l1.5-0.9c0.5-0.3,1.1-0.3,1.5-0.1l1.3,0.8c0.2,0.1,0.4,0.3,0.4,0.6c0,0.3-0.2,0.5-0.5,0.7l-1.5,0.9
						C239.9,113.5,239.6,113.6,239.3,113.6z M238.9,112.9c0.2,0.1,0.7,0.1,0.9-0.1l1.5-0.9c0.1-0.1,0.2-0.1,0.2-0.1c0,0,0,0-0.1,0
						l-1.3-0.8c-0.2-0.1-0.7-0.1-0.9,0.1l-1.5,0.9c-0.1,0.1-0.2,0.1-0.2,0.1c0,0,0,0,0.1,0L238.9,112.9z"/>
				</g>
				<g id="XMLID_593_">
					<path id="XMLID_821_" class="st0" d="M241.9,114.9l-1.3-0.8c-0.3-0.2-0.3-0.5,0.1-0.7l1.5-0.9c0.4-0.2,0.9-0.2,1.2-0.1l1.3,0.8
						c0.3,0.2,0.3,0.5-0.1,0.7l-1.5,0.9C242.8,115.1,242.2,115.1,241.9,114.9z"/>
					<path id="XMLID_822_" class="st1" d="M242.5,115.4c-0.3,0-0.5-0.1-0.7-0.2l-1.3-0.8c-0.2-0.1-0.4-0.3-0.4-0.6
						c0-0.3,0.2-0.5,0.5-0.7l1.5-0.9c0.5-0.3,1.1-0.3,1.5-0.1l1.3,0.8c0.2,0.1,0.4,0.3,0.4,0.6c0,0.3-0.2,0.5-0.5,0.7l-1.5,0.9
						C243.1,115.3,242.7,115.4,242.5,115.4z M242.1,114.7c0.2,0.1,0.7,0.1,0.9-0.1l1.5-0.9c0.1-0.1,0.2-0.1,0.2-0.1c0,0,0,0-0.1,0
						l-1.3-0.8c-0.2-0.1-0.7-0.1-0.9,0.1l-1.5,0.9c-0.1,0.1-0.2,0.1-0.2,0.1c0,0,0,0,0.1,0L242.1,114.7z"/>
				</g>
				<g id="XMLID_592_">
					<path id="XMLID_817_" class="st0" d="M245.1,116.8l-1.3-0.8c-0.3-0.2-0.3-0.5,0.1-0.7l1.5-0.9c0.4-0.2,0.9-0.2,1.2-0.1l1.3,0.8
						c0.3,0.2,0.3,0.5-0.1,0.7l-1.5,0.9C246,116.9,245.4,117,245.1,116.8z"/>
					<path id="XMLID_818_" class="st1" d="M245.6,117.2c-0.3,0-0.5-0.1-0.7-0.2l-1.3-0.8c-0.2-0.1-0.4-0.3-0.4-0.6
						c0-0.3,0.2-0.5,0.5-0.7l1.5-0.9c0.5-0.3,1.1-0.3,1.5-0.1l1.3,0.8c0.2,0.1,0.4,0.3,0.4,0.6c0,0.3-0.2,0.5-0.5,0.7l-1.5,0.9
						C246.2,117.1,245.9,117.2,245.6,117.2z M246.1,114.5c-0.2,0-0.4,0-0.6,0.1l-1.5,0.9c-0.1,0.1-0.2,0.1-0.2,0.1c0,0,0,0,0.1,0
						l1.3,0.8c0.2,0.1,0.7,0.1,0.9-0.1l1.5-0.9c0.1-0.1,0.2-0.1,0.2-0.1c0,0,0,0-0.1,0l-1.3-0.8
						C246.4,114.6,246.2,114.5,246.1,114.5z"/>
				</g>
			</g>
			<g id="XMLID_529_">
				<g id="XMLID_590_">
					<path id="XMLID_813_" class="st0" d="M200.5,95.3l-1.3-0.8c-0.3-0.2-0.3-0.5,0.1-0.7l1.5-0.9c0.4-0.2,0.9-0.2,1.2-0.1l1.3,0.8
						c0.3,0.2,0.3,0.5-0.1,0.7l-1.5,0.9C201.4,95.5,200.8,95.5,200.5,95.3z"/>
					<path id="XMLID_814_" class="st1" d="M201,95.7c-0.3,0-0.5-0.1-0.7-0.2v0l-1.3-0.8c-0.2-0.1-0.4-0.3-0.4-0.6
						c0-0.3,0.2-0.5,0.5-0.7l1.5-0.9c0.5-0.3,1.1-0.3,1.5-0.1l1.3,0.8c0.2,0.1,0.4,0.3,0.4,0.6c0,0.3-0.2,0.5-0.5,0.7l-1.5,0.9
						C201.6,95.7,201.3,95.7,201,95.7z M200.6,95.1c0.2,0.1,0.7,0.1,0.9-0.1l1.5-0.9c0.1-0.1,0.2-0.1,0.2-0.1c0,0,0,0-0.1,0
						l-1.3-0.8c-0.2-0.1-0.7-0.1-0.9,0.1l-1.5,0.9c-0.1,0.1-0.2,0.1-0.2,0.1c0,0,0,0,0.1,0L200.6,95.1z"/>
				</g>
				<g id="XMLID_589_">
					<path id="XMLID_809_" class="st0" d="M203.6,97.1l-1.3-0.8c-0.3-0.2-0.3-0.5,0.1-0.7l1.5-0.9c0.4-0.2,0.9-0.2,1.2-0.1l1.3,0.8
						c0.3,0.2,0.3,0.5-0.1,0.7l-1.5,0.9C204.5,97.3,203.9,97.3,203.6,97.1z"/>
					<path id="XMLID_810_" class="st1" d="M204.2,97.5c-0.3,0-0.5-0.1-0.7-0.2v0l-1.3-0.8c-0.2-0.1-0.4-0.3-0.4-0.6
						c0-0.3,0.2-0.5,0.5-0.7l1.5-0.9c0.5-0.3,1.1-0.3,1.5-0.1l1.3,0.8c0.2,0.1,0.4,0.3,0.4,0.6c0,0.3-0.2,0.5-0.5,0.7l-1.5,0.9
						C204.8,97.5,204.5,97.5,204.2,97.5z M203.8,96.9c0.2,0.1,0.7,0.1,0.9-0.1l1.5-0.9c0.1-0.1,0.2-0.1,0.2-0.1c0,0,0,0-0.1,0
						L205,95c-0.2-0.1-0.7-0.1-0.9,0.1l-1.5,0.9c-0.1,0.1-0.2,0.1-0.2,0.1c0,0,0,0,0.1,0L203.8,96.9z"/>
				</g>
				<g id="XMLID_588_">
					<path id="XMLID_805_" class="st0" d="M206.8,98.9l-1.3-0.8c-0.3-0.2-0.3-0.5,0.1-0.7l1.5-0.9c0.4-0.2,0.9-0.2,1.2-0.1l1.3,0.8
						c0.3,0.2,0.3,0.5-0.1,0.7l-1.5,0.9C207.7,99.1,207.1,99.1,206.8,98.9z"/>
					<path id="XMLID_806_" class="st1" d="M207.3,99.4c-0.3,0-0.5-0.1-0.7-0.2v0l-1.3-0.8c-0.2-0.1-0.4-0.3-0.4-0.6
						c0-0.3,0.2-0.5,0.5-0.7l1.5-0.9c0.5-0.3,1.1-0.3,1.5-0.1l1.3,0.8c0.2,0.1,0.4,0.3,0.4,0.6c0,0.3-0.2,0.5-0.5,0.7l-1.5,0.9
						C207.9,99.3,207.6,99.4,207.3,99.4z M206.9,98.7c0.2,0.1,0.7,0.1,0.9-0.1l1.5-0.9c0.1-0.1,0.2-0.1,0.2-0.1c0,0,0,0-0.1,0
						l-1.3-0.8c-0.2-0.1-0.7-0.1-0.9,0.1l-1.5,0.9c-0.1,0.1-0.2,0.1-0.2,0.1c0,0,0,0,0.1,0L206.9,98.7z"/>
				</g>
				<g id="XMLID_587_">
					<path id="XMLID_801_" class="st0" d="M209.9,100.8l-1.3-0.8c-0.3-0.2-0.3-0.5,0.1-0.7l1.5-0.9c0.4-0.2,0.9-0.2,1.2-0.1l1.3,0.8
						c0.3,0.2,0.3,0.5-0.1,0.7l-1.5,0.9C210.8,100.9,210.3,100.9,209.9,100.8z"/>
					<path id="XMLID_802_" class="st1" d="M210.5,101.2c-0.3,0-0.5-0.1-0.7-0.2l-1.3-0.8c-0.2-0.1-0.4-0.3-0.4-0.6
						c0-0.3,0.2-0.5,0.5-0.7l1.5-0.9c0.5-0.3,1.1-0.3,1.5-0.1l1.3,0.8c0.2,0.1,0.4,0.3,0.4,0.6c0,0.3-0.2,0.5-0.5,0.7l-1.5,0.9
						C211.1,101.1,210.8,101.2,210.5,101.2z M210.1,100.5c0.2,0.1,0.7,0.1,0.9-0.1l1.5-0.9c0.1-0.1,0.2-0.1,0.2-0.1c0,0,0,0-0.1,0
						l-1.3-0.8c-0.2-0.1-0.7-0.1-0.9,0.1l-1.5,0.9c-0.1,0.1-0.2,0.1-0.2,0.1c0,0,0,0,0.1,0L210.1,100.5z"/>
				</g>
				<g id="XMLID_586_">
					<path id="XMLID_797_" class="st0" d="M213.1,102.6l-1.3-0.8c-0.3-0.2-0.3-0.5,0.1-0.7l1.5-0.9c0.4-0.2,0.9-0.2,1.2-0.1l1.3,0.8
						c0.3,0.2,0.3,0.5-0.1,0.7l-1.5,0.9C213.9,102.7,213.4,102.7,213.1,102.6z"/>
					<path id="XMLID_798_" class="st1" d="M213.6,103c-0.3,0-0.5-0.1-0.7-0.2l-1.3-0.8c-0.2-0.1-0.4-0.3-0.4-0.6
						c0-0.3,0.2-0.5,0.5-0.7l1.5-0.9c0.5-0.3,1.1-0.3,1.5-0.1l1.3,0.8c0.2,0.1,0.4,0.3,0.4,0.6c0,0.3-0.2,0.5-0.5,0.7l-1.5,0.9
						C214.2,102.9,213.9,103,213.6,103z M213.2,102.3c0.2,0.1,0.7,0.1,0.9-0.1l1.5-0.9c0.1-0.1,0.2-0.1,0.2-0.1c0,0,0,0-0.1,0
						l-1.3-0.8c-0.2-0.1-0.7-0.1-0.9,0.1l-1.5,0.9c-0.1,0.1-0.2,0.1-0.2,0.1c0,0,0,0,0.1,0L213.2,102.3z"/>
				</g>
				<g id="XMLID_584_">
					<path id="XMLID_793_" class="st0" d="M216.2,104.4l-1.3-0.8c-0.3-0.2-0.3-0.5,0.1-0.7l1.5-0.9c0.4-0.2,0.9-0.2,1.2-0.1l1.3,0.8
						c0.3,0.2,0.3,0.5-0.1,0.7l-1.5,0.9C217.1,104.6,216.6,104.6,216.2,104.4z"/>
					<path id="XMLID_794_" class="st1" d="M216.8,104.8c-0.3,0-0.5-0.1-0.7-0.2l-1.3-0.8c-0.2-0.1-0.4-0.3-0.4-0.6
						c0-0.3,0.2-0.5,0.5-0.7l1.5-0.9c0.5-0.3,1.1-0.3,1.5-0.1l1.3,0.8c0.2,0.1,0.4,0.3,0.4,0.6c0,0.3-0.2,0.5-0.5,0.7l-1.5,0.9
						C217.4,104.7,217.1,104.8,216.8,104.8z M216.4,104.1c0.2,0.1,0.7,0.1,0.9-0.1l1.5-0.9c0.1-0.1,0.2-0.1,0.2-0.1c0,0,0,0-0.1,0
						l-1.3-0.8c-0.2-0.1-0.7-0.1-0.9,0.1l-1.5,0.9c-0.1,0.1-0.2,0.1-0.2,0.1c0,0,0,0,0.1,0L216.4,104.1z"/>
				</g>
				<g id="XMLID_581_">
					<path id="XMLID_789_" class="st0" d="M219.4,106.2l-1.3-0.8c-0.3-0.2-0.3-0.5,0.1-0.7l1.5-0.9c0.4-0.2,0.9-0.2,1.2-0.1l1.3,0.8
						c0.3,0.2,0.3,0.5-0.1,0.7l-1.5,0.9C220.3,106.4,219.7,106.4,219.4,106.2z"/>
					<path id="XMLID_790_" class="st1" d="M219.9,106.6c-0.3,0-0.5-0.1-0.7-0.2l-1.3-0.8c-0.2-0.1-0.4-0.3-0.4-0.6
						c0-0.3,0.2-0.5,0.5-0.7l1.5-0.9c0.5-0.3,1.1-0.3,1.5-0.1l1.3,0.8c0.2,0.1,0.4,0.3,0.4,0.6c0,0.3-0.2,0.5-0.5,0.7l-1.5,0.9
						C220.5,106.6,220.2,106.6,219.9,106.6z M219.5,105.9c0.2,0.1,0.7,0.1,0.9-0.1l1.5-0.9c0.1-0.1,0.2-0.1,0.2-0.1c0,0,0,0-0.1,0
						l-1.3-0.8c-0.2-0.1-0.7-0.1-0.9,0.1l-1.5,0.9c-0.1,0.1-0.2,0.1-0.2,0.1c0,0,0,0,0.1,0L219.5,105.9z"/>
				</g>
				<g id="XMLID_580_">
					<path id="XMLID_785_" class="st0" d="M222.6,108l-1.3-0.8c-0.3-0.2-0.3-0.5,0.1-0.7l1.5-0.9c0.4-0.2,0.9-0.2,1.2-0.1l1.3,0.8
						c0.3,0.2,0.3,0.5-0.1,0.7l-1.5,0.9C223.4,108.2,222.9,108.2,222.6,108z"/>
					<path id="XMLID_786_" class="st1" d="M223.1,108.5c-0.3,0-0.5-0.1-0.7-0.2l-1.3-0.8c-0.2-0.1-0.4-0.3-0.4-0.6
						c0-0.3,0.2-0.5,0.5-0.7l1.5-0.9c0.5-0.3,1.1-0.3,1.5-0.1l1.3,0.8c0.2,0.1,0.4,0.3,0.4,0.6c0,0.3-0.2,0.5-0.5,0.7l-1.5,0.9
						C223.7,108.4,223.4,108.5,223.1,108.5z M222.7,107.8c0.2,0.1,0.7,0.1,0.9-0.1l1.5-0.9c0.1-0.1,0.2-0.1,0.2-0.1c0,0,0,0-0.1,0
						l-1.3-0.8c-0.2-0.1-0.7-0.1-0.9,0.1l-1.5,0.9c-0.1,0.1-0.2,0.1-0.2,0.1c0,0,0,0,0.1,0L222.7,107.8z"/>
				</g>
				<g id="XMLID_578_">
					<path id="XMLID_781_" class="st0" d="M225.7,109.8l-1.3-0.8c-0.3-0.2-0.3-0.5,0.1-0.7l1.5-0.9c0.4-0.2,0.9-0.2,1.2-0.1l1.3,0.8
						c0.3,0.2,0.3,0.5-0.1,0.7l-1.5,0.9C226.6,110,226,110,225.7,109.8z"/>
					<path id="XMLID_782_" class="st1" d="M226.2,110.3c-0.3,0-0.5-0.1-0.7-0.2l-1.3-0.8c-0.2-0.1-0.4-0.3-0.4-0.6
						c0-0.3,0.2-0.5,0.5-0.7l1.5-0.9c0.5-0.3,1.1-0.3,1.5-0.1l1.3,0.8c0.2,0.1,0.4,0.3,0.4,0.6c0,0.3-0.2,0.5-0.5,0.7l-1.5,0.9
						C226.8,110.2,226.5,110.3,226.2,110.3z M225.8,109.6c0.2,0.1,0.7,0.1,0.9-0.1l1.5-0.9c0.1-0.1,0.2-0.1,0.2-0.1c0,0,0,0-0.1,0
						l-1.3-0.8c-0.2-0.1-0.7-0.1-0.9,0.1l-1.5,0.9c-0.1,0.1-0.2,0.1-0.2,0.1c0,0,0,0,0.1,0L225.8,109.6z"/>
				</g>
				<g id="XMLID_573_">
					<path id="XMLID_777_" class="st0" d="M228.8,111.6l-1.3-0.8c-0.3-0.2-0.3-0.5,0.1-0.7l1.5-0.9c0.4-0.2,0.9-0.2,1.2-0.1l1.3,0.8
						c0.3,0.2,0.3,0.5-0.1,0.7l-1.5,0.9C229.7,111.8,229.2,111.8,228.8,111.6z"/>
					<path id="XMLID_778_" class="st1" d="M229.4,112.1c-0.3,0-0.5-0.1-0.7-0.2l-1.3-0.8c-0.2-0.1-0.4-0.3-0.4-0.6
						c0-0.3,0.2-0.5,0.5-0.7l1.5-0.9c0.5-0.3,1.1-0.3,1.5-0.1l1.3,0.8c0.2,0.1,0.4,0.3,0.4,0.6c0,0.3-0.2,0.5-0.5,0.7l-1.5,0.9
						C230,112,229.7,112.1,229.4,112.1z M229,111.4c0.2,0.1,0.7,0.1,0.9-0.1l1.5-0.9c0.1-0.1,0.2-0.1,0.2-0.1c0,0,0,0-0.1,0
						l-1.3-0.8c-0.2-0.1-0.7-0.1-0.9,0.1l-1.5,0.9c-0.1,0.1-0.2,0.1-0.2,0.1c0,0,0,0,0.1,0L229,111.4z"/>
				</g>
				<g id="XMLID_565_">
					<path id="XMLID_773_" class="st0" d="M232,113.5l-1.3-0.8c-0.3-0.2-0.3-0.5,0.1-0.7l1.5-0.9c0.4-0.2,0.9-0.2,1.2-0.1l1.3,0.8
						c0.3,0.2,0.3,0.5-0.1,0.7l-1.5,0.9C232.9,113.6,232.3,113.7,232,113.5z"/>
					<path id="XMLID_774_" class="st1" d="M232.5,113.9c-0.3,0-0.5-0.1-0.7-0.2l-1.3-0.8c-0.2-0.1-0.4-0.3-0.4-0.6
						c0-0.3,0.2-0.5,0.5-0.7l1.5-0.9c0.5-0.3,1.1-0.3,1.5-0.1l1.3,0.8c0.2,0.1,0.4,0.3,0.4,0.6c0,0.3-0.2,0.5-0.5,0.7l-1.5,0.9
						C233.1,113.8,232.8,113.9,232.5,113.9z M232.2,113.2c0.2,0.1,0.7,0.1,0.9-0.1l1.5-0.9c0.1-0.1,0.2-0.1,0.2-0.1c0,0,0,0-0.1,0
						l-1.3-0.8c-0.2-0.1-0.7-0.1-0.9,0.1l-1.5,0.9c-0.1,0.1-0.2,0.1-0.2,0.1c0,0,0,0,0.1,0L232.2,113.2z"/>
				</g>
				<g id="XMLID_541_">
					<path id="XMLID_769_" class="st0" d="M235.1,115.3l-1.3-0.8c-0.3-0.2-0.3-0.5,0.1-0.7l1.5-0.9c0.4-0.2,0.9-0.2,1.2-0.1l1.3,0.8
						c0.3,0.2,0.3,0.5-0.1,0.7l-1.5,0.9C236,115.4,235.5,115.5,235.1,115.3z"/>
					<path id="XMLID_770_" class="st1" d="M235.7,115.7c-0.3,0-0.5-0.1-0.7-0.2l-1.3-0.8c-0.2-0.1-0.4-0.3-0.4-0.6
						c0-0.3,0.2-0.5,0.5-0.7l1.5-0.9c0.5-0.3,1.1-0.3,1.5-0.1l1.3,0.8c0.2,0.1,0.4,0.3,0.4,0.6c0,0.3-0.2,0.5-0.5,0.7l-1.5,0.9
						C236.3,115.6,236,115.7,235.7,115.7z M235.3,115c0.2,0.1,0.7,0.1,0.9-0.1l1.5-0.9c0.1-0.1,0.2-0.1,0.2-0.1c0,0,0,0-0.1,0
						l-1.3-0.8c-0.2-0.1-0.7-0.1-0.9,0.1l-1.5,0.9c-0.1,0.1-0.2,0.1-0.2,0.1c0,0,0,0,0.1,0L235.3,115z"/>
				</g>
				<g id="XMLID_539_">
					<path id="XMLID_765_" class="st0" d="M238.3,117.1l-1.3-0.8c-0.3-0.2-0.3-0.5,0.1-0.7l1.5-0.9c0.4-0.2,0.9-0.2,1.2-0.1l1.3,0.8
						c0.3,0.2,0.3,0.5-0.1,0.7l-1.5,0.9C239.2,117.2,238.6,117.3,238.3,117.1z"/>
					<path id="XMLID_766_" class="st1" d="M238.8,117.5c-0.3,0-0.5-0.1-0.7-0.2l-1.3-0.8c-0.2-0.1-0.4-0.3-0.4-0.6
						c0-0.3,0.2-0.5,0.5-0.7l1.5-0.9c0.5-0.3,1.1-0.3,1.5-0.1l1.3,0.8c0.2,0.1,0.4,0.3,0.4,0.6c0,0.3-0.2,0.5-0.5,0.7l-1.5,0.9
						C239.4,117.4,239.1,117.5,238.8,117.5z M238.4,116.8c0.2,0.1,0.7,0.1,0.9-0.1l1.5-0.9c0.1-0.1,0.2-0.1,0.2-0.1c0,0,0,0-0.1,0
						l-1.3-0.8c-0.2-0.1-0.7-0.1-0.9,0.1l-1.5,0.9c-0.1,0.1-0.2,0.1-0.2,0.1c0,0,0,0,0.1,0L238.4,116.8z"/>
				</g>
				<g id="XMLID_538_">
					<path id="XMLID_757_" class="st0" d="M241.5,118.9l-1.3-0.8c-0.3-0.2-0.3-0.5,0.1-0.7l1.5-0.9c0.4-0.2,0.9-0.2,1.2-0.1l1.3,0.8
						c0.3,0.2,0.3,0.5-0.1,0.7l-1.5,0.9C242.3,119.1,241.8,119.1,241.5,118.9z"/>
					<path id="XMLID_759_" class="st1" d="M242,119.3c-0.3,0-0.5-0.1-0.7-0.2l-1.3-0.8c-0.2-0.1-0.4-0.3-0.4-0.6
						c0-0.3,0.2-0.5,0.5-0.7l1.5-0.9c0.5-0.3,1.1-0.3,1.5-0.1l1.3,0.8c0.2,0.1,0.4,0.3,0.4,0.6c0,0.3-0.2,0.5-0.5,0.7l-1.5,0.9
						C242.6,119.3,242.3,119.3,242,119.3z M241.6,118.7c0.2,0.1,0.7,0.1,0.9-0.1l1.5-0.9c0.1-0.1,0.2-0.1,0.2-0.1c0,0,0,0-0.1,0
						l-1.3-0.8c-0.2-0.1-0.7-0.1-0.9,0.1l-1.5,0.9c-0.1,0.1-0.2,0.1-0.2,0.1c0,0,0,0,0.1,0L241.6,118.7z"/>
				</g>
			</g>
			<g id="XMLID_454_">
				<g id="XMLID_527_">
					<path id="XMLID_753_" class="st0" d="M199.8,99.2l-4.4-2.6c-0.3-0.2-0.3-0.5,0.1-0.7l1.5-0.9c0.4-0.2,0.9-0.2,1.2-0.1l4.4,2.6
						c0.3,0.2,0.3,0.5-0.1,0.7l-1.5,0.9C200.7,99.4,200.1,99.4,199.8,99.2z"/>
					<path id="XMLID_754_" class="st1" d="M200.3,99.7c-0.3,0-0.5-0.1-0.7-0.2l-4.4-2.6c-0.2-0.1-0.4-0.3-0.4-0.6
						c0-0.3,0.2-0.5,0.5-0.7l1.5-0.9c0.5-0.3,1.1-0.3,1.5-0.1l4.4,2.6c0.2,0.1,0.4,0.3,0.4,0.6c0,0.3-0.2,0.5-0.5,0.7l-1.5,0.9
						C200.9,99.6,200.6,99.7,200.3,99.7z M200,99c0.2,0.1,0.7,0.1,0.9-0.1l1.5-0.9c0.1-0.1,0.2-0.1,0.2-0.1c0,0,0,0-0.1,0l-4.4-2.6
						c-0.2-0.1-0.7-0.1-0.9,0.1l-1.5,0.9c-0.1,0.1-0.2,0.1-0.2,0.1c0,0,0,0,0.1,0L200,99L200,99z"/>
				</g>
				<g id="XMLID_517_">
					<path id="XMLID_749_" class="st0" d="M203,101.1l-1.3-0.8c-0.3-0.2-0.3-0.5,0.1-0.7l1.5-0.9c0.4-0.2,0.9-0.2,1.2-0.1l1.3,0.8
						c0.3,0.2,0.3,0.5-0.1,0.7l-1.5,0.9C203.9,101.2,203.3,101.3,203,101.1z"/>
					<path id="XMLID_750_" class="st1" d="M203.5,101.5c-0.3,0-0.5-0.1-0.7-0.2l-1.3-0.8c-0.2-0.1-0.4-0.3-0.4-0.6
						c0-0.3,0.2-0.5,0.5-0.7l1.5-0.9c0.5-0.3,1.1-0.3,1.5-0.1l1.3,0.8c0.2,0.1,0.4,0.3,0.4,0.6c0,0.3-0.2,0.5-0.5,0.7l-1.5,0.9
						C204.1,101.4,203.8,101.5,203.5,101.5z M204,98.9c-0.2,0-0.4,0-0.6,0.1l-1.5,0.9c-0.1,0.1-0.2,0.1-0.2,0.1c0,0,0,0,0.1,0
						l1.3,0.8c0.2,0.1,0.7,0.1,0.9-0.1l1.5-0.9c0.1-0.1,0.2-0.1,0.2-0.1c0,0,0,0-0.1,0l-1.3-0.8C204.3,98.9,204.2,98.9,204,98.9z"/>
				</g>
				<g id="XMLID_502_">
					<path id="XMLID_745_" class="st0" d="M206.2,102.9l-1.3-0.8c-0.3-0.2-0.3-0.5,0.1-0.7l1.5-0.9c0.4-0.2,0.9-0.2,1.2-0.1l1.3,0.8
						c0.3,0.2,0.3,0.5-0.1,0.7l-1.5,0.9C207,103.1,206.5,103.1,206.2,102.9z"/>
					<path id="XMLID_746_" class="st1" d="M206.7,103.3c-0.3,0-0.5-0.1-0.7-0.2l-1.3-0.8c-0.2-0.1-0.4-0.3-0.4-0.6
						c0-0.3,0.2-0.5,0.5-0.7l1.5-0.9c0.5-0.3,1.1-0.3,1.5-0.1l1.3,0.8c0.2,0.1,0.4,0.3,0.4,0.6c0,0.3-0.2,0.5-0.5,0.7l-1.5,0.9
						C207.3,103.2,207,103.3,206.7,103.3z M207.1,100.7c-0.2,0-0.4,0-0.6,0.1l-1.5,0.9c-0.1,0.1-0.2,0.1-0.2,0.1c0,0,0,0,0.1,0
						l1.3,0.8c0.2,0.1,0.7,0.1,0.9-0.1l1.5-0.9c0.1-0.1,0.2-0.1,0.2-0.1c0,0,0,0-0.1,0l-1.3-0.8
						C207.4,100.7,207.3,100.7,207.1,100.7z"/>
				</g>
				<g id="XMLID_497_">
					<path id="XMLID_741_" class="st0" d="M209.3,104.7l-1.3-0.8c-0.3-0.2-0.3-0.5,0.1-0.7l1.5-0.9c0.4-0.2,0.9-0.2,1.2-0.1l1.3,0.8
						c0.3,0.2,0.3,0.5-0.1,0.7l-1.5,0.9C210.2,104.9,209.6,104.9,209.3,104.7z"/>
					<path id="XMLID_742_" class="st1" d="M209.8,105.1c-0.3,0-0.5-0.1-0.7-0.2l-1.3-0.8c-0.2-0.1-0.4-0.3-0.4-0.6
						c0-0.3,0.2-0.5,0.5-0.7l1.5-0.9c0.5-0.3,1.1-0.3,1.5-0.1l1.3,0.8c0.2,0.1,0.4,0.3,0.4,0.6c0,0.3-0.2,0.5-0.5,0.7l-1.5,0.9
						C210.4,105.1,210.1,105.1,209.8,105.1z M210.3,102.5c-0.2,0-0.4,0-0.6,0.1l-1.5,0.9c-0.1,0.1-0.2,0.1-0.2,0.1c0,0,0,0,0.1,0
						l1.3,0.8c0.2,0.1,0.7,0.1,0.9-0.1l1.5-0.9c0.1-0.1,0.2-0.1,0.2-0.1c0,0,0,0-0.1,0l-1.3-0.8
						C210.6,102.5,210.4,102.5,210.3,102.5z"/>
				</g>
				<g id="XMLID_494_">
					<path id="XMLID_737_" class="st0" d="M212.5,106.5l-1.3-0.8c-0.3-0.2-0.3-0.5,0.1-0.7l1.5-0.9c0.4-0.2,0.9-0.2,1.2-0.1l1.3,0.8
						c0.3,0.2,0.3,0.5-0.1,0.7l-1.5,0.9C213.3,106.7,212.8,106.7,212.5,106.5z"/>
					<path id="XMLID_738_" class="st1" d="M213,107c-0.3,0-0.5-0.1-0.7-0.2L211,106c-0.2-0.1-0.4-0.3-0.4-0.6c0-0.3,0.2-0.5,0.5-0.7
						l1.5-0.9c0.5-0.3,1.1-0.3,1.5-0.1l1.3,0.8c0.2,0.1,0.4,0.3,0.4,0.6c0,0.3-0.2,0.5-0.5,0.7l-1.5,0.9
						C213.6,106.9,213.3,107,213,107z M213.5,104.3c-0.2,0-0.4,0-0.6,0.1l-1.5,0.9c-0.1,0.1-0.2,0.1-0.2,0.1c0,0,0,0,0.1,0l1.3,0.8
						c0.2,0.1,0.7,0.1,0.9-0.1l1.5-0.9c0.1-0.1,0.2-0.1,0.2-0.1c0,0,0,0-0.1,0l-1.3-0.8C213.7,104.3,213.6,104.3,213.5,104.3z"/>
				</g>
				<g id="XMLID_479_">
					<path id="XMLID_733_" class="st0" d="M215.6,108.3l-1.3-0.8c-0.3-0.2-0.3-0.5,0.1-0.7l1.5-0.9c0.4-0.2,0.9-0.2,1.2-0.1l1.3,0.8
						c0.3,0.2,0.3,0.5-0.1,0.7l-1.5,0.9C216.5,108.5,215.9,108.5,215.6,108.3z"/>
					<path id="XMLID_734_" class="st1" d="M216.1,108.8c-0.3,0-0.5-0.1-0.7-0.2l-1.3-0.8c-0.2-0.1-0.4-0.3-0.4-0.6
						c0-0.3,0.2-0.5,0.5-0.7l1.5-0.9c0.5-0.3,1.1-0.3,1.5-0.1l1.3,0.8c0.2,0.1,0.4,0.3,0.4,0.6c0,0.3-0.2,0.5-0.5,0.7l-1.5,0.9
						C216.7,108.7,216.4,108.8,216.1,108.8z M216.6,106.1c-0.2,0-0.4,0-0.6,0.1l-1.5,0.9c-0.1,0.1-0.2,0.1-0.2,0.1c0,0,0,0,0.1,0
						l1.3,0.8c0.2,0.1,0.7,0.1,0.9-0.1l1.5-0.9c0.1-0.1,0.2-0.1,0.2-0.1c0,0,0,0-0.1,0l-1.3-0.8
						C216.9,106.1,216.7,106.1,216.6,106.1z"/>
				</g>
				<g id="XMLID_474_">
					<path id="XMLID_729_" class="st0" d="M218.8,110.2l-1.3-0.8c-0.3-0.2-0.3-0.5,0.1-0.7l1.5-0.9c0.4-0.2,0.9-0.2,1.2-0.1l1.3,0.8
						c0.3,0.2,0.3,0.5-0.1,0.7l-1.5,0.9C219.6,110.3,219.1,110.4,218.8,110.2z"/>
					<path id="XMLID_730_" class="st1" d="M219.3,110.6c-0.3,0-0.5-0.1-0.7-0.2l-1.3-0.8c-0.2-0.1-0.4-0.3-0.4-0.6
						c0-0.3,0.2-0.5,0.5-0.7l1.5-0.9c0.5-0.3,1.1-0.3,1.5-0.1l1.3,0.8c0.2,0.1,0.4,0.3,0.4,0.6c0,0.3-0.2,0.5-0.5,0.7l-1.5,0.9
						C219.9,110.5,219.6,110.6,219.3,110.6z M219.8,107.9c-0.2,0-0.4,0-0.6,0.1l-1.5,0.9c-0.1,0.1-0.2,0.1-0.2,0.1c0,0,0,0,0.1,0
						l1.3,0.8c0.2,0.1,0.7,0.1,0.9-0.1l1.5-0.9c0.1-0.1,0.2-0.1,0.2-0.1c0,0,0,0-0.1,0l-1.3-0.8C220.1,108,219.9,107.9,219.8,107.9z
						"/>
				</g>
				<g id="XMLID_473_">
					<path id="XMLID_725_" class="st0" d="M221.9,112l-1.3-0.8c-0.3-0.2-0.3-0.5,0.1-0.7l1.5-0.9c0.4-0.2,0.9-0.2,1.2-0.1l1.3,0.8
						c0.3,0.2,0.3,0.5-0.1,0.7l-1.5,0.9C222.8,112.1,222.2,112.2,221.9,112z"/>
					<path id="XMLID_726_" class="st1" d="M222.5,112.4c-0.3,0-0.5-0.1-0.7-0.2l-1.3-0.8c-0.2-0.1-0.4-0.3-0.4-0.6
						c0-0.3,0.2-0.5,0.5-0.7l1.5-0.9c0.5-0.3,1.1-0.3,1.5-0.1l1.3,0.8c0.2,0.1,0.4,0.3,0.4,0.6c0,0.3-0.2,0.5-0.5,0.7l-1.5,0.9
						C223,112.3,222.7,112.4,222.5,112.4z M222.9,109.7c-0.2,0-0.4,0-0.6,0.1l-1.5,0.9c-0.1,0.1-0.2,0.1-0.2,0.1c0,0,0,0,0.1,0
						l1.3,0.8c0.2,0.1,0.7,0.1,0.9-0.1l1.5-0.9c0.1-0.1,0.2-0.1,0.2-0.1c0,0,0,0-0.1,0l-1.3-0.8
						C223.2,109.8,223.1,109.7,222.9,109.7z"/>
				</g>
				<g id="XMLID_472_">
					<path id="XMLID_721_" class="st0" d="M225.1,113.8l-1.3-0.8c-0.3-0.2-0.3-0.5,0.1-0.7l1.5-0.9c0.4-0.2,0.9-0.2,1.2-0.1l1.3,0.8
						c0.3,0.2,0.3,0.5-0.1,0.7l-1.5,0.9C225.9,113.9,225.4,114,225.1,113.8z"/>
					<path id="XMLID_722_" class="st1" d="M225.6,114.2c-0.3,0-0.5-0.1-0.7-0.2l-1.3-0.8c-0.2-0.1-0.4-0.3-0.4-0.6
						c0-0.3,0.2-0.5,0.5-0.7l1.5-0.9c0.5-0.3,1.1-0.3,1.5-0.1l1.3,0.8c0.2,0.1,0.4,0.3,0.4,0.6c0,0.3-0.2,0.5-0.5,0.7l-1.5,0.9
						C226.2,114.1,225.9,114.2,225.6,114.2z M226,111.5c-0.2,0-0.4,0-0.6,0.1l-1.5,0.9c-0.1,0.1-0.2,0.1-0.2,0.1c0,0,0,0,0.1,0
						l1.3,0.8c0.2,0.1,0.7,0.1,0.9-0.1l1.5-0.9c0.1-0.1,0.2-0.1,0.2-0.1c0,0,0,0-0.1,0l-1.3-0.8C226.3,111.6,226.2,111.5,226,111.5z
						"/>
				</g>
				<g id="XMLID_471_">
					<path id="XMLID_716_" class="st0" d="M228.2,115.6l-1.3-0.8c-0.3-0.2-0.3-0.5,0.1-0.7l1.5-0.9c0.4-0.2,0.9-0.2,1.2-0.1l1.3,0.8
						c0.3,0.2,0.3,0.5-0.1,0.7l-1.5,0.9C229.1,115.8,228.5,115.8,228.2,115.6z"/>
					<path id="XMLID_718_" class="st1" d="M228.8,116c-0.3,0-0.5-0.1-0.7-0.2l-1.3-0.8c-0.2-0.1-0.4-0.3-0.4-0.6
						c0-0.3,0.2-0.5,0.5-0.7l1.5-0.9c0.5-0.3,1.1-0.3,1.5-0.1l1.3,0.8c0.2,0.1,0.4,0.3,0.4,0.6c0,0.3-0.2,0.5-0.5,0.7l-1.5,0.9
						C229.4,116,229.1,116,228.8,116z M229.2,113.4c-0.2,0-0.4,0-0.6,0.1l-1.5,0.9c-0.1,0.1-0.2,0.1-0.2,0.1c0,0,0,0,0.1,0l1.3,0.8
						c0.2,0.1,0.7,0.1,0.9-0.1l1.5-0.9c0.1-0.1,0.2-0.1,0.2-0.1c0,0,0,0-0.1,0l-1.3-0.8C229.5,113.4,229.4,113.4,229.2,113.4z"/>
				</g>
				<g id="XMLID_470_">
					<path id="XMLID_711_" class="st0" d="M231.4,117.4l-1.3-0.8c-0.3-0.2-0.3-0.5,0.1-0.7l1.5-0.9c0.4-0.2,0.9-0.2,1.2-0.1l1.3,0.8
						c0.3,0.2,0.3,0.5-0.1,0.7l-1.5,0.9C232.2,117.6,231.7,117.6,231.4,117.4z"/>
					<path id="XMLID_712_" class="st1" d="M231.9,117.8c-0.3,0-0.5-0.1-0.7-0.2l-1.3-0.8c-0.2-0.1-0.4-0.3-0.4-0.6
						c0-0.3,0.2-0.5,0.5-0.7l1.5-0.9c0.5-0.3,1.1-0.3,1.5-0.1l1.3,0.8c0.2,0.1,0.4,0.3,0.4,0.6c0,0.3-0.2,0.5-0.5,0.7l-1.5,0.9
						C232.5,117.8,232.2,117.8,231.9,117.8z M232.4,115.2c-0.2,0-0.4,0-0.6,0.1l-1.5,0.9c-0.1,0.1-0.2,0.1-0.2,0.1c0,0,0,0,0.1,0
						l1.3,0.8c0.2,0.1,0.7,0.1,0.9-0.1l1.5-0.9c0.1-0.1,0.2-0.1,0.2-0.1c0,0,0,0-0.1,0l-1.3-0.8
						C232.6,115.2,232.5,115.2,232.4,115.2z"/>
				</g>
				<g id="XMLID_468_">
					<path id="XMLID_707_" class="st0" d="M234.5,119.2l-1.3-0.8c-0.3-0.2-0.3-0.5,0.1-0.7l1.5-0.9c0.4-0.2,0.9-0.2,1.2-0.1l1.3,0.8
						c0.3,0.2,0.3,0.5-0.1,0.7l-1.5,0.9C235.4,119.4,234.8,119.4,234.5,119.2z"/>
					<path id="XMLID_708_" class="st1" d="M235,119.7c-0.3,0-0.5-0.1-0.7-0.2l-1.3-0.8c-0.2-0.1-0.4-0.3-0.4-0.6
						c0-0.3,0.2-0.5,0.5-0.7l1.5-0.9c0.5-0.3,1.1-0.3,1.5-0.1l1.3,0.8c0.2,0.1,0.4,0.3,0.4,0.6c0,0.3-0.2,0.5-0.5,0.7l-1.5,0.9
						C235.6,119.6,235.3,119.7,235,119.7z M235.5,117c-0.2,0-0.4,0-0.6,0.1l-1.5,0.9c-0.1,0.1-0.2,0.1-0.2,0.1c0,0,0,0,0.1,0
						l1.3,0.8c0.2,0.1,0.7,0.1,0.9-0.1l1.5-0.9c0.1-0.1,0.2-0.1,0.2-0.1c0,0,0,0-0.1,0l-1.3-0.8C235.8,117,235.6,117,235.5,117z"/>
				</g>
				<g id="XMLID_455_">
					<path id="XMLID_703_" class="st0" d="M234,123.2l-1.3-0.8c-0.3-0.2-0.3-0.5,0.1-0.7l5.2-3c0.4-0.2,0.9-0.2,1.2-0.1l1.3,0.8
						c0.3,0.2,0.3,0.5-0.1,0.7l-5.2,3C234.9,123.3,234.3,123.4,234,123.2z"/>
					<path id="XMLID_704_" class="st1" d="M234.5,123.6c-0.3,0-0.5-0.1-0.7-0.2l-1.3-0.8c-0.2-0.1-0.4-0.3-0.4-0.6
						c0-0.3,0.2-0.5,0.5-0.7l5.2-3c0.5-0.3,1.1-0.3,1.5-0.1l1.3,0.8c0.2,0.1,0.4,0.3,0.4,0.6c0,0.3-0.2,0.5-0.5,0.7l-5.2,3
						C235.1,123.5,234.8,123.6,234.5,123.6z M234.2,122.9c0.2,0.1,0.7,0.1,0.9-0.1l5.2-3c0.1-0.1,0.2-0.1,0.2-0.1c0,0,0,0-0.1,0
						l-1.3-0.8c-0.2-0.1-0.7-0.1-0.9,0.1l-5.2,3c-0.1,0.1-0.2,0.1-0.2,0.1c0,0,0,0,0.1,0L234.2,122.9z"/>
				</g>
			</g>
			<g id="XMLID_414_">
				<g id="XMLID_453_">
					<path id="XMLID_699_" class="st0" d="M193,99.6l-1.3-0.8c-0.3-0.2-0.3-0.5,0.1-0.7l1.5-0.9c0.4-0.2,0.9-0.2,1.2-0.1l1.3,0.8
						c0.3,0.2,0.3,0.5-0.1,0.7l-1.5,0.9C193.9,99.7,193.3,99.8,193,99.6z"/>
					<path id="XMLID_700_" class="st1" d="M193.6,100c-0.3,0-0.5-0.1-0.7-0.2l-1.3-0.8c-0.2-0.1-0.4-0.3-0.4-0.6
						c0-0.3,0.2-0.5,0.5-0.7l1.5-0.9c0.5-0.3,1.1-0.3,1.5-0.1l1.3,0.8c0.2,0.1,0.4,0.3,0.4,0.6c0,0.3-0.2,0.5-0.5,0.7l-1.5,0.9
						C194.2,99.9,193.9,100,193.6,100z M193.2,99.3c0.2,0.1,0.7,0.1,0.9-0.1l1.5-0.9c0.1-0.1,0.2-0.1,0.2-0.1c0,0,0,0-0.1,0
						l-1.3-0.8c-0.2-0.1-0.7-0.1-0.9,0.1l-1.5,0.9c-0.1,0.1-0.2,0.1-0.2,0.1c0,0,0,0,0.1,0L193.2,99.3z"/>
				</g>
				<g id="XMLID_452_">
					<path id="XMLID_695_" class="st0" d="M196.2,101.4l-1.3-0.8c-0.3-0.2-0.3-0.5,0.1-0.7l1.5-0.9c0.4-0.2,0.9-0.2,1.2-0.1l1.3,0.8
						c0.3,0.2,0.3,0.5-0.1,0.7l-1.5,0.9C197,101.5,196.5,101.6,196.2,101.4z"/>
					<path id="XMLID_696_" class="st1" d="M196.7,101.8c-0.3,0-0.5-0.1-0.7-0.2l-1.3-0.8c-0.2-0.1-0.4-0.3-0.4-0.6
						c0-0.3,0.2-0.5,0.5-0.7l1.5-0.9c0.5-0.3,1.1-0.3,1.5-0.1l1.3,0.8c0.2,0.1,0.4,0.3,0.4,0.6c0,0.3-0.2,0.5-0.5,0.7l-1.5,0.9
						C197.3,101.7,197,101.8,196.7,101.8z M196.3,101.1c0.2,0.1,0.7,0.1,0.9-0.1l1.5-0.9c0.1-0.1,0.2-0.1,0.2-0.1c0,0,0,0-0.1,0
						l-1.3-0.8c-0.2-0.1-0.7-0.1-0.9,0.1l-1.5,0.9c-0.1,0.1-0.2,0.1-0.2,0.1c0,0,0,0,0.1,0L196.3,101.1z"/>
				</g>
				<g id="XMLID_449_">
					<path id="XMLID_668_" class="st0" d="M199.3,103.2l-1.3-0.8c-0.3-0.2-0.3-0.5,0.1-0.7l1.5-0.9c0.4-0.2,0.9-0.2,1.2-0.1l1.3,0.8
						c0.3,0.2,0.3,0.5-0.1,0.7l-1.5,0.9C200.2,103.4,199.7,103.4,199.3,103.2z"/>
					<path id="XMLID_692_" class="st1" d="M199.9,103.6c-0.3,0-0.5-0.1-0.7-0.2l-1.3-0.8c-0.2-0.1-0.4-0.3-0.4-0.6
						c0-0.3,0.2-0.5,0.5-0.7l1.5-0.9c0.5-0.3,1.1-0.3,1.5-0.1l1.3,0.8c0.2,0.1,0.4,0.3,0.4,0.6c0,0.3-0.2,0.5-0.5,0.7l-1.5,0.9
						C200.5,103.6,200.2,103.6,199.9,103.6z M199.5,103c0.2,0.1,0.7,0.1,0.9-0.1l1.5-0.9c0.1-0.1,0.2-0.1,0.2-0.1c0,0,0,0-0.1,0
						l-1.3-0.8c-0.2-0.1-0.7-0.1-0.9,0.1l-1.5,0.9c-0.1,0.1-0.2,0.1-0.2,0.1c0,0,0,0,0.1,0L199.5,103z"/>
				</g>
				<g id="XMLID_448_">
					<path id="XMLID_664_" class="st0" d="M202.5,105l-1.3-0.8c-0.3-0.2-0.3-0.5,0.1-0.7l1.5-0.9c0.4-0.2,0.9-0.2,1.2-0.1l1.3,0.8
						c0.3,0.2,0.3,0.5-0.1,0.7l-1.5,0.9C203.4,105.2,202.8,105.2,202.5,105z"/>
					<path id="XMLID_665_" class="st1" d="M203,105.4c-0.3,0-0.5-0.1-0.7-0.2l-1.3-0.8c-0.2-0.1-0.4-0.3-0.4-0.6
						c0-0.3,0.2-0.5,0.5-0.7l1.5-0.9c0.5-0.3,1.1-0.3,1.5-0.1l1.3,0.8c0.2,0.1,0.4,0.3,0.4,0.6c0,0.3-0.2,0.5-0.5,0.7l-1.5,0.9
						C203.6,105.4,203.3,105.4,203,105.4z M202.6,104.8c0.2,0.1,0.7,0.1,0.9-0.1l1.5-0.9c0.1-0.1,0.2-0.1,0.2-0.1c0,0,0,0-0.1,0
						l-1.3-0.8c-0.2-0.1-0.7-0.1-0.9,0.1l-1.5,0.9c-0.1,0.1-0.2,0.1-0.2,0.1c0,0,0,0,0.1,0L202.6,104.8z"/>
				</g>
				<g id="XMLID_447_">
					<path id="XMLID_660_" class="st0" d="M215.1,112.3l-10.8-6.2c-0.3-0.2-0.3-0.5,0.1-0.7l1.5-0.9c0.4-0.2,0.9-0.2,1.2-0.1
						l10.8,6.2c0.3,0.2,0.3,0.5-0.1,0.7l-1.5,0.9C216,112.4,215.4,112.5,215.1,112.3z"/>
					<path id="XMLID_661_" class="st1" d="M215.6,112.7c-0.3,0-0.5-0.1-0.7-0.2l-10.8-6.2c-0.2-0.1-0.4-0.3-0.4-0.6
						c0-0.3,0.2-0.5,0.5-0.7l1.5-0.9c0.5-0.3,1.1-0.3,1.5-0.1l10.8,6.2c0.2,0.1,0.4,0.3,0.4,0.6c0,0.3-0.2,0.5-0.5,0.7l-1.5,0.9
						C216.2,112.6,215.9,112.7,215.6,112.7z M215.3,112c0.2,0.1,0.7,0.1,0.9-0.1l1.5-0.9c0.1-0.1,0.2-0.1,0.2-0.1c0,0,0,0-0.1,0
						l-10.8-6.2c-0.2-0.1-0.7-0.1-0.9,0.1l-1.5,0.9c-0.1,0.1-0.2,0.1-0.2,0.1c0,0,0,0,0.1,0L215.3,112z"/>
				</g>
				<g id="XMLID_419_">
					<path id="XMLID_656_" class="st0" d="M218.2,114.1l-1.3-0.8c-0.3-0.2-0.3-0.5,0.1-0.7l1.5-0.9c0.4-0.2,0.9-0.2,1.2-0.1l1.3,0.8
						c0.3,0.2,0.3,0.5-0.1,0.7l-1.5,0.9C219.1,114.3,218.6,114.3,218.2,114.1z"/>
					<path id="XMLID_657_" class="st1" d="M218.8,114.5c-0.3,0-0.5-0.1-0.7-0.2l-1.3-0.8c-0.2-0.1-0.4-0.3-0.4-0.6
						c0-0.3,0.2-0.5,0.5-0.7l1.5-0.9c0.5-0.3,1.1-0.3,1.5-0.1l1.3,0.8c0.2,0.1,0.4,0.3,0.4,0.6c0,0.3-0.2,0.5-0.5,0.7l-1.5,0.9
						C219.4,114.4,219.1,114.5,218.8,114.5z M218.4,113.8c0.2,0.1,0.7,0.1,0.9-0.1l1.5-0.9c0.1-0.1,0.2-0.1,0.2-0.1c0,0,0,0-0.1,0
						l-1.3-0.8c-0.2-0.1-0.7-0.1-0.9,0.1l-1.5,0.9C217,113,217,113,217,113c0,0,0,0,0.1,0L218.4,113.8z"/>
				</g>
				<g id="XMLID_418_">
					<path id="XMLID_649_" class="st0" d="M221.4,115.9l-1.3-0.8c-0.3-0.2-0.3-0.5,0.1-0.7l1.5-0.9c0.4-0.2,0.9-0.2,1.2-0.1l1.3,0.8
						c0.3,0.2,0.3,0.5-0.1,0.7l-1.5,0.9C222.3,116.1,221.7,116.1,221.4,115.9z"/>
					<path id="XMLID_650_" class="st1" d="M221.9,116.3c-0.3,0-0.5-0.1-0.7-0.2l-1.3-0.8c-0.2-0.1-0.4-0.3-0.4-0.6
						c0-0.3,0.2-0.5,0.5-0.7l1.5-0.9c0.5-0.3,1.1-0.3,1.5-0.1l1.3,0.8c0.2,0.1,0.4,0.3,0.4,0.6c0,0.3-0.2,0.5-0.5,0.7l-1.5,0.9
						C222.5,116.3,222.2,116.3,221.9,116.3z M221.5,115.6c0.2,0.1,0.7,0.1,0.9-0.1l1.5-0.9c0.1-0.1,0.2-0.1,0.2-0.1c0,0,0,0-0.1,0
						l-1.3-0.8c-0.2-0.1-0.7-0.1-0.9,0.1l-1.5,0.9c-0.1,0.1-0.2,0.1-0.2,0.1c0,0,0,0,0.1,0L221.5,115.6z"/>
				</g>
				<g id="XMLID_417_">
					<path id="XMLID_645_" class="st0" d="M224.6,117.7l-1.3-0.8c-0.3-0.2-0.3-0.5,0.1-0.7l1.5-0.9c0.4-0.2,0.9-0.2,1.2-0.1l1.3,0.8
						c0.3,0.2,0.3,0.5-0.1,0.7l-1.5,0.9C225.4,117.9,224.9,117.9,224.6,117.7z"/>
					<path id="XMLID_646_" class="st1" d="M225.1,118.2c-0.3,0-0.5-0.1-0.7-0.2l-1.3-0.8c-0.2-0.1-0.4-0.3-0.4-0.6
						c0-0.3,0.2-0.5,0.5-0.7l1.5-0.9c0.5-0.3,1.1-0.3,1.5-0.1l1.3,0.8c0.2,0.1,0.4,0.3,0.4,0.6c0,0.3-0.2,0.5-0.5,0.7l-1.5,0.9
						C225.7,118.1,225.4,118.2,225.1,118.2z M224.7,117.5c0.2,0.1,0.7,0.1,0.9-0.1l1.5-0.9c0.1-0.1,0.2-0.1,0.2-0.1c0,0,0,0-0.1,0
						l-1.3-0.8c-0.2-0.1-0.7-0.1-0.9,0.1l-1.5,0.9c-0.1,0.1-0.2,0.1-0.2,0.1c0,0,0,0,0.1,0L224.7,117.5z"/>
				</g>
				<g id="XMLID_416_">
					<path id="XMLID_640_" class="st0" d="M227.7,119.5l-1.3-0.8c-0.3-0.2-0.3-0.5,0.1-0.7l1.5-0.9c0.4-0.2,0.9-0.2,1.2-0.1l1.3,0.8
						c0.3,0.2,0.3,0.5-0.1,0.7l-1.5,0.9C228.6,119.7,228,119.7,227.7,119.5z"/>
					<path id="XMLID_642_" class="st1" d="M228.2,120c-0.3,0-0.5-0.1-0.7-0.2l-1.3-0.8c-0.2-0.1-0.4-0.3-0.4-0.6
						c0-0.3,0.2-0.5,0.5-0.7l1.5-0.9c0.5-0.3,1.1-0.3,1.5-0.1l1.3,0.8c0.2,0.1,0.4,0.3,0.4,0.6c0,0.3-0.2,0.5-0.5,0.7l-1.5,0.9
						C228.8,119.9,228.5,120,228.2,120z M227.8,119.3c0.2,0.1,0.7,0.1,0.9-0.1l1.5-0.9c0.1-0.1,0.2-0.1,0.2-0.1c0,0,0,0-0.1,0
						l-1.3-0.8c-0.2-0.1-0.7-0.1-0.9,0.1l-1.5,0.9c-0.1,0.1-0.2,0.1-0.2,0.1c0,0,0,0,0.1,0L227.8,119.3z"/>
				</g>
				<g id="XMLID_415_">
					<path id="XMLID_64_" class="st0" d="M230.8,121.4l-1.3-0.8c-0.3-0.2-0.3-0.5,0.1-0.7l1.5-0.9c0.4-0.2,0.9-0.2,1.2-0.1l1.3,0.8
						c0.3,0.2,0.3,0.5-0.1,0.7l-1.5,0.9C231.7,121.5,231.2,121.5,230.8,121.4z"/>
					<path id="XMLID_635_" class="st1" d="M231.4,121.8c-0.3,0-0.5-0.1-0.7-0.2l-1.3-0.8c-0.2-0.1-0.4-0.3-0.4-0.6
						c0-0.3,0.2-0.5,0.5-0.7l1.5-0.9c0.5-0.3,1.1-0.3,1.5-0.1l1.3,0.8c0.2,0.1,0.4,0.3,0.4,0.6c0,0.3-0.2,0.5-0.5,0.7l-1.5,0.9
						C232,121.7,231.7,121.8,231.4,121.8z M231.8,119.1c-0.2,0-0.4,0-0.6,0.1l-1.5,0.9c-0.1,0.1-0.2,0.1-0.2,0.1c0,0,0,0,0.1,0
						l1.3,0.8c0.2,0.1,0.7,0.1,0.9-0.1l1.5-0.9c0.1-0.1,0.2-0.1,0.2-0.1c0,0,0,0-0.1,0l-1.3-0.8C232.1,119.1,232,119.1,231.8,119.1z
						"/>
				</g>
			</g>
		</g>
		<g id="XMLID_825_">
			<ellipse id="XMLID_129_" class="st0" cx="212.6" cy="88.1" rx="1.1" ry="0.7"/>
			<path id="XMLID_130_" class="st1" d="M212.6,89.1c-0.8,0-1.4-0.5-1.4-1c0-0.6,0.6-1,1.4-1c0.8,0,1.4,0.5,1.4,1
				C214,88.7,213.4,89.1,212.6,89.1z M212.6,87.7c-0.5,0-0.8,0.2-0.8,0.4c0,0.2,0.4,0.4,0.8,0.4c0.5,0,0.8-0.2,0.8-0.4
				C213.4,87.9,213,87.7,212.6,87.7z"/>
		</g>
		<g id="XMLID_915_">
			<ellipse id="XMLID_6_" class="st0" cx="214.7" cy="89.3" rx="1.1" ry="0.7"/>
			<path id="XMLID_7_" class="st1" d="M214.7,90.4c-0.8,0-1.4-0.5-1.4-1c0-0.6,0.6-1,1.4-1c0.8,0,1.4,0.5,1.4,1
				C216.1,89.9,215.5,90.4,214.7,90.4z M214.7,88.9c-0.5,0-0.8,0.2-0.8,0.4c0,0.2,0.4,0.4,0.8,0.4c0.5,0,0.8-0.2,0.8-0.4
				C215.5,89.1,215.1,88.9,214.7,88.9z"/>
		</g>
	</g>
	<g id="_x31_1">
		<g id="XMLID_147_">
			<path id="XMLID_1398_" class="st0" d="M142.6,67.1v63.6c0,0.7-0.3,1.3-0.7,1.7l0,0l0,0c-0.2,0.2-0.4,0.3-0.6,0.5l-3.4,2.4
				l-1.5-3.9l-53.3-30.6c-1.4-0.8-2.2-2.2-2.2-3.8l12.2-33L142.6,67.1z"/>
			<path id="XMLID_1399_" class="st1" d="M137.6,136.2l-1.7-4.3l-53.1-30.5c-1.5-0.9-2.5-2.5-2.5-4.2l0-0.2l12.3-33.4l50.3,3.1v64.1
				c0,0.7-0.2,1.3-0.6,1.8l0,0.1l-0.3,0.2c-0.2,0.2-0.4,0.4-0.7,0.5L137.6,136.2z M81.4,97.2c0,1.4,0.8,2.6,2,3.3l53.4,30.7l1.3,3.4
				l2.8-2.1c0.2-0.1,0.4-0.2,0.5-0.4l0-0.1c0.3-0.3,0.6-0.7,0.6-1.4V67.6l-48.6-3L81.4,97.2z"/>
		</g>
		<path id="XMLID_1386_" class="st1" d="M97.4,63.5L76.9,99.5v0.1c0,1.7,0.9,3.3,2.3,4.2l19.4,34.6l29.4-6.6l7.1,4.1
			c0.9,0.5,2.1,0.5,3,0c0.9-0.5,1.5-1.5,1.5-2.6V69.1L97.4,63.5z"/>
		<g id="XMLID_145_">
			<path id="XMLID_1390_" class="st0" d="M101.1,91.3v63.6c0,0.7-0.3,1.3-0.7,1.7l0,0l0,0c-0.2,0.2-0.4,0.3-0.6,0.5l-3.4,2.4
				l-1.5-3.9l-53.3-30.6c-1.4-0.8-2.2-2.2-2.2-3.8l13.4-35L101.1,91.3z"/>
			<path id="XMLID_1391_" class="st1" d="M96.1,160.4l-1.7-4.3l-53.1-30.5c-1.5-0.9-2.5-2.5-2.5-4.2l0-0.2l13.6-35.3l49.1,5v64.1
				c0,0.7-0.2,1.3-0.6,1.8l0,0l-0.3,0.3c-0.1,0.2-0.4,0.3-0.7,0.5L96.1,160.4z M39.9,121.4c0,1.4,0.8,2.6,2,3.3l53.4,30.7l1.3,3.4
				l2.8-2.1c0.2-0.1,0.4-0.3,0.6-0.4l0,0c0.3-0.3,0.6-0.7,0.6-1.4V91.7l-47.4-4.9L39.9,121.4z"/>
		</g>
		<path id="XMLID_1403_" class="st1" d="M67.8,85.8l-32.3,37.7l-0.1,0.1v0.2c0,1.7,0.9,3.4,2.5,4.2l20.1,11.5v35.2l2.4-2.9
			l21.9-18.4l11.4,6.5c0.9,0.5,2.1,0.5,3,0c0.9-0.5,1.5-1.5,1.5-2.6v-64L67.8,85.8z"/>
		<g id="XMLID_143_">
			<path id="XMLID_1382_" class="st0" d="M60,113v63.6c0,0.7-0.3,1.3-0.7,1.7l0,0l0,0c-0.2,0.2-0.4,0.3-0.6,0.5l-3.4,2.4l-1.5-3.9
				l-31-17.9c-1.4-0.8-2.2-2.2-2.2-3.8v-49.9L60,113z"/>
			<path id="XMLID_1383_" class="st1" d="M56,181.3l-2.7-3.6l-30.9-17.8c-1.5-0.9-2.5-2.5-2.5-4.2v-50.5l40.4,7.4v64.1
				c0,0.7-0.2,1.4-0.7,1.9l0,0l-0.2,0.3c-0.2,0.2-0.4,0.4-0.7,0.5L56,181.3z M21,106.4v49.3c0,1.4,0.7,2.7,2,3.4l31.2,18l1.3,3.4
				l2.8-2.1c0.2-0.1,0.4-0.3,0.5-0.4l0,0c0.3-0.3,0.6-0.7,0.6-1.4v-63.2L21,106.4z"/>
		</g>
		<path id="XMLID_146_" class="st1" d="M16.6,100.2v57.9c0,1.7,0.9,3.4,2.5,4.2l33.5,19.3c0.5,0.3,1,0.4,1.5,0.4
			c0.5,0,1-0.1,1.5-0.4c0.9-0.5,1.5-1.5,1.5-2.6v-64L16.6,100.2z"/>
		<g id="XMLID_141_">
			<path id="XMLID_1374_" class="st0" d="M11.5,107.8c0-0.1,0-0.2,0-0.3l0-3.1l7.2-2.5l93-54.2c2.2-1.3,6-1.1,8.5,0.3L146.7,63
				l3-0.9v4.4c0,0,0,0,0,0c-0.1,0.7-0.6,1.4-1.4,1.9l-98.8,57.7c-2.2,1.3-6,1.1-8.5-0.3l-27.2-15.5
				C12.3,109.6,11.6,108.7,11.5,107.8L11.5,107.8L11.5,107.8z"/>
			<path id="XMLID_1375_" class="st1" d="M45.6,127.6c-1.7,0-3.6-0.4-5-1.3l-27.2-15.5c-1.2-0.7-1.9-1.5-2.2-2.4l0,0l-0.1-0.5
				c0-0.1,0-0.2,0-0.3l0-3.6l7.6-2.6l92.9-54.2c2.4-1.4,6.3-1.2,9,0.3l26.2,14.9l3.3-0.2l0.1,4.2L150,67c-0.2,0.6-0.6,1.3-1.6,1.9
				l-98.8,57.7C48.5,127.2,47.1,127.6,45.6,127.6z M12,107.7L12,107.7c0.1,0.8,0.8,1.5,1.8,2.2L41,125.4c2.4,1.4,6,1.5,8,0.3
				L147.9,68c0.7-0.4,1.1-0.9,1.2-1.5l0-0.2v-3.4l-2.5,0.7L120,48.4c-2.4-1.4-6-1.5-8-0.3l-93,54.2l-7,2.4l0,2.8L12,107.7
				C12,107.7,12,107.7,12,107.7z"/>
		</g>
		<g id="XMLID_140_">
			<path id="XMLID_1370_" class="st0" d="M49.3,122.8L148.1,65c2.2-1.3,1.9-3.5-0.6-4.9l-27.2-15.5c-2.5-1.4-6.4-1.6-8.5-0.3
				L12.9,102c-2.2,1.3-1.9,3.5,0.6,4.9l27.2,15.5C43.3,123.9,47.2,124,49.3,122.8z"/>
			<path id="XMLID_144_" class="st0" d="M49.2,124.1L148,66.4c2.2-1.3,1.9-3.5-0.6-4.9l-27.2-15.5c-2.5-1.4-6.4-1.6-8.5-0.3
				l-97.7,57.1c-2.2,1.3-3,4.1-0.4,5.5l27.2,15.5C43.2,125.3,47,125.4,49.2,124.1z"/>
			<path id="XMLID_1371_" class="st1" d="M45.6,124.1c-1.7,0-3.6-0.4-5-1.3l-27.2-15.5c-1.5-0.9-2.4-2-2.4-3.2c0-1,0.6-1.9,1.7-2.6
				l98.8-57.7c2.4-1.4,6.3-1.2,9,0.3l27.2,15.5c1.5,0.9,2.4,2,2.4,3.2c0,1-0.6,1.9-1.7,2.6l-98.8,57.7
				C48.5,123.8,47.1,124.1,45.6,124.1z M115.5,43.9c-1.3,0-2.6,0.3-3.5,0.8l-98.8,57.7c-0.8,0.5-1.2,1.1-1.2,1.7
				c0,0.8,0.7,1.7,1.9,2.3L41,122c2.4,1.4,6,1.5,8,0.3l98.8-57.7c0.8-0.5,1.2-1.1,1.2-1.7c0-0.8-0.7-1.7-1.9-2.3L120,45
				C118.7,44.2,117.1,43.9,115.5,43.9z"/>
		</g>
		<g id="XMLID_107_">
			<g id="XMLID_139_">
				<polygon id="XMLID_1366_" class="st0" points="94.9,99.5 94.9,116.4 60,136.4 60,119.8 				"/>
				<path id="XMLID_1367_" class="st1" d="M59.6,137v-17.4l0.2-0.1l35.5-20.7v17.7l-0.2,0.1L59.6,137z M60.3,120v15.8l34.2-19.7
					v-16.1L60.3,120z"/>
			</g>
		</g>
		<g id="XMLID_103_">
			<g id="XMLID_106_">
				<polygon id="XMLID_1362_" class="st0" points="94.9,117.9 94.9,134.8 60,154.9 60,138.3 				"/>
				<path id="XMLID_1363_" class="st1" d="M59.6,155.5v-17.4l0.2-0.1l35.5-20.7V135l-0.2,0.1L59.6,155.5z M60.3,138.5v15.8
					l34.2-19.7v-16.1L60.3,138.5z"/>
			</g>
		</g>
		<g id="XMLID_98_">
			<g id="XMLID_102_">
				<polygon id="XMLID_1358_" class="st0" points="94.9,136.4 94.9,153.3 60,173.4 60,156.8 				"/>
				<path id="XMLID_1359_" class="st1" d="M59.6,174v-17.4l0.2-0.1l35.5-20.7v17.7l-0.2,0.1L59.6,174z M60.3,157v15.8l34.2-19.7V137
					L60.3,157z"/>
			</g>
		</g>
		<g id="XMLID_94_">
			<g id="XMLID_97_">
				<polygon id="XMLID_1354_" class="st0" points="136,75.5 136,92.4 101.1,112.5 101.1,95.9 				"/>
				<path id="XMLID_1355_" class="st1" d="M100.7,113.1V95.7l35.6-20.8v17.7L100.7,113.1z M101.4,96.1v15.8l34.2-19.7V76.1
					L101.4,96.1z"/>
			</g>
		</g>
		<g id="XMLID_90_">
			<g id="XMLID_93_">
				<polygon id="XMLID_1349_" class="st0" points="136,93.8 136,110.7 101.1,130.8 101.1,114.2 				"/>
				<path id="XMLID_1350_" class="st1" d="M100.7,131.4V114l0.2-0.1l35.5-20.7v17.7l-0.2,0.1L100.7,131.4z M101.4,114.4v15.8
					l34.2-19.7V94.4L101.4,114.4z"/>
			</g>
		</g>
		<g id="XMLID_86_">
			<g id="XMLID_89_">
				<polygon id="XMLID_1341_" class="st0" points="136,112.3 136,129.2 101.1,149.2 101.1,132.6 				"/>
				<path id="XMLID_1342_" class="st1" d="M100.7,149.8v-17.4l0.2-0.1l35.5-20.7v17.7l-0.2,0.1L100.7,149.8z M101.4,132.8v15.8
					l34.2-19.7v-16.1L101.4,132.8z"/>
			</g>
		</g>
	</g>
	<g id="_x31_0_1_">
		<g id="XMLID_2159_">
			<path id="XMLID_1340_" class="st1" d="M237.4,75.5v9.1l0,0.3c0,0.5-0.2,2.4-1.3,3c-0.6,0.4-3.2,1.9-5.4,3.2l-2.6,0.4v1.8l0,0.2
				l0,0c0.1,0.4,0.4,0.8,0.9,1.1l7.4,4.2c0.5,0.3,1.1,0.5,1.7,0.5c0.6,0,1.2-0.2,1.8-0.5c2-1.1,6.5-3.8,7.3-4.4
				c1.1-0.7,1.4-2.4,1.5-3.3l0,0v-9.2L237.4,75.5z"/>
			<g id="XMLID_2160_">
				<path id="XMLID_1343_" class="st0" d="M247.3,90.3l0-8.7l-10.9-6.3l0,8.7l0,0.3c0,0.7-0.3,2.5-1.4,3.3c-0.8,0.5-4.1,2.5-6.1,3.6
					c-0.7,0.4-0.6,1.3,0.4,1.9l7.4,4.2c1,0.6,2.2,0.6,3.2,0c2-1.1,5.1-3,6-3.5C247.1,92.9,247.2,90.8,247.3,90.3L247.3,90.3z"/>
				<path id="XMLID_1344_" class="st1" d="M238.3,97.9c-0.6,0-1.2-0.2-1.7-0.5l-7.4-4.2c-0.6-0.4-1-0.9-1-1.4c0-0.4,0.2-0.8,0.6-1
					c3.4-2,5.5-3.2,6.1-3.6c1-0.7,1.2-2.3,1.3-3l0-0.3l0-9.2l11.5,6.6l0,9.4l0,0c-0.1,0.9-0.4,2.5-1.5,3.3c-0.8,0.5-4.1,2.5-6,3.5
					C239.5,97.8,238.9,97.9,238.3,97.9z M236.7,75.7l0,8.2l0,0.3c-0.1,0.8-0.3,2.7-1.6,3.5c-0.6,0.4-2.7,1.7-6.1,3.6
					c-0.2,0.1-0.3,0.3-0.3,0.5c0,0.3,0.2,0.7,0.7,0.9l7.4,4.2c0.9,0.5,2,0.5,2.9,0c1.9-1.1,5.1-3,6-3.5c1.1-0.7,1.3-2.8,1.3-3.2
					l0-0.2l0-8.3L236.7,75.7z"/>
			</g>
		</g>
		<g id="XMLID_2155_">
			<path id="XMLID_1352_" class="st1" d="M276.6,36.3l-62.5-36c-0.5-0.3-1-0.4-1.4-0.3l0-0.1l-3.2,1.8l1.8,2.6l0,53
				c0,1.8,1.1,3.8,2.4,4.6l60.9,37.3l0.2,0.1l0.9-0.4l2.3-1.3l0.2-0.1v0c0.5-0.4,0.7-1.1,0.7-1.9l0.1-54.8
				C279,39.1,278,37.1,276.6,36.3z"/>
			<g id="XMLID_2157_">
				<path id="XMLID_1335_" class="st0" d="M274.1,99l-62.5-36c-1.2-0.7-2.2-2.6-2.2-4.2l0-55.1c0-1.6,1-2.4,2.2-1.7l62.5,36
					c1.2,0.7,2.2,2.6,2.2,4.2l0,53.5C276.3,97.3,275.3,99.7,274.1,99z"/>
				<path id="XMLID_1336_" class="st1" d="M274.6,99.5c-0.2,0-0.4-0.1-0.7-0.2l-62.5-36c-1.4-0.8-2.4-2.8-2.4-4.6l0-55.1
					c0-1,0.4-1.8,1-2.2c0.5-0.3,1.2-0.3,1.9,0.1l62.5,36c1.4,0.8,2.4,2.8,2.4,4.6l0,53.5c0,1.3-0.6,3.1-1.6,3.7
					C275,99.5,274.8,99.5,274.6,99.5z M274.4,98.6c0.1,0.1,0.3,0.1,0.4,0c0.6-0.3,1.1-1.7,1.1-2.9l0-53.5c0-1.4-0.9-3.2-2-3.8
					l-62.5-36c-0.3-0.2-0.7-0.3-1-0.1c-0.3,0.2-0.5,0.7-0.5,1.4l0,55.1c0,1.4,0.9,3.2,2,3.8L274.4,98.6z"/>
			</g>
			<g id="XMLID_2156_">
				<path id="XMLID_1331_" class="st2" d="M272.6,94.3L213.1,60c-0.5-0.3-1-1.1-1-1.8l0-50.9c0-0.7,0.4-1,1-0.7l59.5,34.3
					c0.5,0.3,1,1.1,1,1.8l0,50.9C273.5,94.3,273.1,94.6,272.6,94.3z"/>
				<path id="XMLID_1332_" class="st1" d="M273,94.9c-0.2,0-0.4-0.1-0.6-0.2l-59.5-34.3c-0.7-0.4-1.2-1.4-1.2-2.2l0-50.9
					c0-0.5,0.2-1,0.6-1.2c0.3-0.2,0.7-0.2,1.1,0l59.5,34.3c0.7,0.4,1.2,1.4,1.2,2.2l0,50.9c0,0.5-0.2,1-0.6,1.2
					C273.3,94.8,273.1,94.9,273,94.9z M272.8,93.9C272.9,94,273,94,273,94c0,0,0.1-0.2,0.1-0.4l0-50.9c0-0.5-0.3-1.2-0.7-1.5
					L212.9,6.9c-0.1-0.1-0.2-0.1-0.2-0.1c0,0-0.1,0.1-0.1,0.4l0,50.9c0,0.5,0.3,1.2,0.7,1.5L272.8,93.9z"/>
			</g>
		</g>
	</g>
	<g id="_x39_">
		<g id="XMLID_673_">
			<polygon id="XMLID_683_" class="st0" points="69.7,190 69.7,195.4 71,197.7 73.1,207.1 76.5,209.2 76.2,193.5 70.7,190.9 			"/>
			<polygon id="XMLID_682_" class="st0" points="73.7,193 73.7,199 75.4,208.5 81.2,209.2 82,199.9 82,194.6 			"/>
			<path id="XMLID_681_" class="st0" d="M92.5,177.5L92.5,177.5l-7.6-41.3h0c-0.4-2.7-2.7-4.8-5.6-4.8c-2.8,0-5.2,2.1-5.6,4.8h-0.1
				l-7.1,41.2h0c-0.3,1.1-0.5,2.2-0.5,3.3c0,7.4,6,13.4,13.4,13.4c7.4,0,13.4-6,13.4-13.4C93,179.7,92.8,178.6,92.5,177.5z"/>
			<g id="XMLID_679_">
				<path id="XMLID_680_" class="st0" d="M91.2,176.9L91.2,176.9L85,139.1h0c-0.3-2.5-2.2-4.4-4.5-4.4c-2.3,0-4.2,1.9-4.5,4.4h-0.1
					L70,176.9h0c-0.2,1-0.4,2-0.4,3c0,6.8,4.9,12.3,11,12.3c6,0,11-5.5,11-12.3C91.6,178.8,91.4,177.8,91.2,176.9z"/>
			</g>
			<path id="XMLID_674_" class="st1" d="M93.5,180.8c0-0.9-0.1-1.8-0.3-2.8h0l-7.8-41.9l-0.1-0.5h0c-0.7-2.8-3.1-4.8-6-4.8
				c-2.9,0-5.4,2-6,4.8l0,0l-7.3,41.7l-0.2,0.9c-0.3,1.1-0.3,1.5-0.3,2.5c0,3.7,1.4,7,3.7,9.5v4.5c0,1,0.4,2,1.2,2.8l1.6,7.9
				c0,2.4,3.2,4.3,7.3,4.3c4.1,0,7.3-1.9,7.2-4.2l1.6-8c0.8-0.8,1.2-1.8,1.2-2.8l0-3.9C91.9,188.3,93.5,184.8,93.5,180.8z
				 M66.6,180.8c0-1,0.1-2,0.4-3.2l0.1-0.7l0.3-2.2l6.6-37.9l0.2-0.5l0,0c0.3-2.1,1.9-3.8,3.9-4.2c1.4,0.8,2.3,1.7,2.3,3.8l3.3,38.4
				l0.1,1.1c0.1,1.4,0,2.4,0,3.6c0,7.4-2.9,12.7-10.3,12.7c-0.3,0-0.6,0-1,0C69,189.4,66.6,185.4,66.6,180.8z M70.4,194.8v-3.4
				c2.5,2.1,5.7,3.4,9.2,3.4c0.9,0,1.7-0.1,2.5-0.2v4.6c-0.9,0.2-1.8,0.2-2.8,0.2C74.4,199.5,70.4,197.3,70.4,194.8z M73.1,205.4
				l-1.3-6.7c1.8,1.2,4.5,1.9,7.5,1.9c1,0,1.8-0.1,2.7-0.2l-0.7,8c-0.6,0.1-1.3,0.2-2.1,0.2C75.9,208.6,73.1,207.2,73.1,205.4z"/>
		</g>
		<g id="XMLID_671_">
			<path id="XMLID_672_" class="st0" d="M82,195.8v-1.2c0,0,1.9-0.4,3.8-1.4c2.8-1.3,3.4-2.4,3.4-2.4l0,1.4c0,0,0,0.6-2.9,2
				C84.2,195.3,82.1,195.8,82,195.8z"/>
		</g>
		<g id="XMLID_669_">
			<path id="XMLID_670_" class="st0" d="M82,200.4l0-1.1c0.4-0.1,1.6-0.3,3.3-0.8c1.7-0.5,2.6-0.8,2.8-0.9l-0.3,1.3
				c0,0-0.8,0.3-2.4,0.7C83.6,200.1,82,200.4,82,200.4z"/>
		</g>
	</g>
	<g id="_x38_">
		<path id="XMLID_33_" class="st0" d="M313.9,142.2l-10.9-6.3c-0.8-0.4-1.5-0.5-2-0.2l0,0l0,0c0,0,0,0,0,0l-44.1,25.4l15.1,57.3
			l43.9-25.3c0.7-0.4,1.2-1.3,1.2-2.6l0.1-42.2C317.1,145.9,315.6,143.2,313.9,142.2z"/>
		<path id="XMLID_38_" class="st0" d="M313.9,146.6l-10.9-6.3c-0.8-0.4-1.5-0.5-2-0.2l0,0l0,0c0,0,0,0,0,0l-44.1,25.4l14.7,53.7
			l44.4-25.7c0.7-0.4,1.2-1.3,1.2-2.6l-0.1-38.1C317.1,150.4,315.6,147.6,313.9,146.6z"/>
		<path id="XMLID_34_" class="st1" d="M271.5,219.2l-15.3-58.3l0.3-0.2l44.1-25.4c0.8-0.4,1.7-0.3,2.6,0.2l10.9,6.3
			c1.9,1.1,3.4,4,3.4,6.6l-0.1,42.2c0,1.5-0.6,2.6-1.5,3.1L271.5,219.2z M257.3,161.3l14.8,56.3l43.4-25c0.6-0.3,1-1.1,1-2.2
			l0.1-42.2c0-2.2-1.3-4.8-2.9-5.7l-10.9-6.3c-0.4-0.2-1-0.5-1.6-0.2L257.3,161.3z"/>
		<path id="XMLID_29_" class="st0" d="M269.8,218.2l-10.9-6.3c-1.8-1-3.2-3.8-3.2-6.1l0.1-42.2c0-2.4,1.4-3.4,3.2-2.4l10.9,6.3
			c1.8,1,3.2,3.8,3.2,6.1l-0.1,42.2C273,218.2,271.6,219.3,269.8,218.2z"/>
		<path id="XMLID_26_" class="st1" d="M317.1,146.4c0,0-2.8-4.6-1.4-1.4c0.7,1.5,0.5,2.9-0.4,4.1c-0.8,1.1-1.9,2-3,2.7L273.6,174
			l0-0.4c0-2.6-1.5-5.4-3.4-6.6l-10.9-6.3c-0.9-0.5-1.9-0.6-2.6-0.2c-0.9,0.5-1.4,1.6-1.4,3l-0.1,42.2c0,2.6,1.5,5.4,3.4,6.6
			l10.9,6.3c0.5,0.3,1,0.5,1.5,0.5c0.4,0,0.7-0.1,1.1-0.3c0.5-0.3,0.8-0.7,1-1.3l0,0l42.6-24.5l1.3-1.3l0-37.2L317.1,146.4z
			 M272.5,215.8c0,1.1-0.3,1.8-0.9,2.2c-0.5,0.3-1.2,0.1-1.6-0.2l-10.9-6.3c-1.6-0.9-2.9-3.5-2.9-5.7l0.1-42.2
			c0-1.1,0.3-1.8,0.9-2.2c0.5-0.3,1.2-0.1,1.6,0.2l10.9,6.3c1.6,0.9,2.9,3.5,2.9,5.7L272.5,215.8z"/>
		<path id="XMLID_25_" class="st0" d="M269.8,174.6c0-1.5-0.9-3.3-2.1-3.9l-6.3-3.7c-0.6-0.3-1.2-0.4-1.7-0.1
			c-0.6,0.3-0.9,1-0.9,1.9l0,34.1c0,0.4,0.1,0.8,0.2,1.2c0.3,1.2,1,2.3,1.9,2.8l6.3,3.7c0.3,0.2,0.7,0.3,1,0.3
			c0.2,0,0.5-0.1,0.7-0.2c0.6-0.3,0.9-1,0.9-1.9l0-1.2l0,0L269.8,174.6z"/>
		<path id="XMLID_42_" class="st1" d="M270,174.4c0-1.6-1-3.5-2.2-4.2l-6.8-3.9c-0.6-0.4-1.3-0.4-1.8-0.1c-0.6,0.3-0.9,1.1-0.9,2
			l0,36.6c0,0.4,0.1,0.8,0.2,1.3c0.3,1.3,1.1,2.4,2.1,3l6.8,3.9c0.4,0.2,0.7,0.3,1,0.3c0.3,0,0.5-0.1,0.8-0.2c0.6-0.3,0.9-1.1,0.9-2
			l0-1.3l0,0L270,174.4z M269,174.4l0,34.8l-4.7-2.7c-0.9-0.5-1.7-2.1-1.7-3.4l0-34.8l4.7,2.7C268.2,171.6,269,173.1,269,174.4z"/>
	</g>
	<g id="_x37_">
		<g id="XMLID_61_">
			<g id="XMLID_39_">
				<g id="XMLID_56_">
					<path id="XMLID_87_" class="st0" d="M188.8,217.4c-0.8-0.4-1.5-0.5-1.5-0.5l0,0c-0.4-0.1-0.9,0-1.5,0.4
						c-1.5,0.8-2.6,2.8-2.6,4.4c0,0.4,0.1,0.7,0.2,1l0,0c0,0,0.2,0.7,1.1,1.2c0.8,0.5,1.9,0.8,1.9,0.8l3.9-6.1
						C190.1,218.5,189.6,217.8,188.8,217.4z"/>
					<path id="XMLID_297_" class="st1" d="M186.5,225.1l-0.3-0.1c0,0-1.2-0.3-2-0.8c-1-0.6-1.3-1.4-1.3-1.5
						c-0.1-0.3-0.2-0.7-0.2-1.1c0-1.8,1.3-3.9,2.9-4.8c0.5-0.3,1-0.4,1.5-0.4l0,0l0.3,0c0,0,0.8,0.1,1.7,0.5l0,0
						c0.9,0.5,1.5,1.2,1.6,1.3l0.2,0.3L186.5,225.1z M183.8,222.5c0.1,0.2,0.3,0.5,0.8,0.9c0.5,0.3,1.1,0.5,1.4,0.6l3.5-5.4
						c-0.2-0.2-0.6-0.5-1-0.7h0c-0.5-0.2-0.9-0.4-1.2-0.4l-0.2,0c-0.3-0.1-0.7,0-1.2,0.3c-1.3,0.7-2.4,2.6-2.4,4
						c0,0.3,0,0.5,0.1,0.7L183.8,222.5z"/>
				</g>
				<path id="XMLID_49_" class="st1" d="M190.2,217.9c-0.7-0.4-1.5-0.3-2.4,0.2c-1.6,0.9-2.9,3.1-2.9,4.8c0,0.9,0.3,1.6,1,2
					c0.3,0.2,0.6,0.2,0.9,0.2c0.5,0,1-0.2,1.5-0.4c1.6-0.9,2.9-3.1,2.9-4.8v0C191.2,218.9,190.8,218.2,190.2,217.9z"/>
				<g id="XMLID_71_">
					<path id="XMLID_76_" class="st0" d="M187.3,223.5c-0.2,0-0.4,0-0.5-0.1c-0.3-0.2-0.5-0.6-0.5-1.1c0-1,0.7-2.2,1.6-2.7
						c0.5-0.3,1-0.3,1.3-0.1c0.3,0.2,0.5,0.6,0.5,1.1l0,0c0,1-0.7,2.2-1.6,2.7C187.9,223.4,187.6,223.5,187.3,223.5z M188.7,219.8
						c-0.2,0-0.4,0.1-0.6,0.2c-0.7,0.4-1.4,1.5-1.4,2.3c0,0.3,0.1,0.6,0.3,0.7c0.2,0.1,0.5,0.1,0.8-0.1c0.7-0.4,1.4-1.5,1.4-2.3l0,0
						c0-0.3-0.1-0.6-0.3-0.7C188.9,219.8,188.8,219.8,188.7,219.8z"/>
				</g>
			</g>
			<g id="XMLID_27_">
				<g id="XMLID_73_">
					<path id="XMLID_62_" class="st0" d="M145.3,192.3c-0.8-0.4-1.5-0.5-1.5-0.5l0,0c-0.4-0.1-0.9,0-1.5,0.4
						c-1.5,0.8-2.6,2.8-2.6,4.4c0,0.4,0.1,0.7,0.2,1l0,0c0,0,0.2,0.7,1.1,1.2c0.8,0.5,1.9,0.8,1.9,0.8l3.9-6.1
						C146.7,193.4,146.2,192.7,145.3,192.3z"/>
					<path id="XMLID_68_" class="st1" d="M143.1,200.1l-0.4-0.1c0,0-1.1-0.3-2-0.8c-1-0.6-1.3-1.4-1.3-1.5c-0.1-0.3-0.2-0.7-0.2-1.1
						c0-1.8,1.3-3.9,2.9-4.8c0.5-0.3,1-0.5,1.5-0.4l0,0l0.3,0c0,0,0.8,0.1,1.7,0.5c0.9,0.5,1.5,1.2,1.6,1.3l0.2,0.3L143.1,200.1z
						 M140.4,197.5c0.1,0.2,0.3,0.5,0.8,0.8c0.5,0.3,1.1,0.5,1.4,0.6l3.5-5.4c-0.2-0.2-0.6-0.5-1-0.7h0c-0.5-0.2-0.9-0.4-1.2-0.4
						l-0.2,0c-0.3,0-0.7,0-1.2,0.3c-1.3,0.7-2.4,2.6-2.4,4c0,0.3,0,0.5,0.1,0.7L140.4,197.5z"/>
				</g>
				<path id="XMLID_72_" class="st1" d="M146.7,192.8c-0.7-0.4-1.5-0.3-2.4,0.2c-1.6,0.9-2.9,3.1-2.9,4.8c0,0.9,0.3,1.6,1,2
					c0.3,0.2,0.6,0.2,0.9,0.2c0.5,0,1-0.2,1.5-0.4c1.6-0.9,2.9-3.1,2.9-4.8C147.7,193.9,147.4,193.2,146.7,192.8z"/>
				<g id="XMLID_75_">
					<path id="XMLID_305_" class="st0" d="M143.9,198.4c-0.2,0-0.4,0-0.5-0.1c-0.3-0.2-0.5-0.6-0.5-1.1c0-1,0.7-2.2,1.6-2.7
						c0.5-0.3,1-0.3,1.3-0.1c0.3,0.2,0.5,0.6,0.5,1.1l0,0c0,1-0.7,2.2-1.6,2.7C144.4,198.3,144.1,198.4,143.9,198.4z M145.3,194.7
						c-0.2,0-0.4,0.1-0.6,0.2c-0.7,0.4-1.4,1.5-1.4,2.3c0,0.3,0.1,0.6,0.3,0.7c0.2,0.1,0.5,0.1,0.8-0.1c0.7-0.4,1.4-1.5,1.4-2.3
						c0-0.3-0.1-0.6-0.3-0.7C145.5,194.8,145.4,194.7,145.3,194.7z"/>
				</g>
			</g>
			<g id="XMLID_37_">
				<g id="XMLID_77_">
					<path id="XMLID_53_" class="st0" d="M146.5,217.4c-0.8-0.4-1.5-0.5-1.5-0.5l0,0c-0.4-0.1-0.9,0-1.5,0.4
						c-1.5,0.8-2.6,2.8-2.6,4.4c0,0.4,0.1,0.7,0.2,1l0,0c0,0,0.2,0.7,1.1,1.2s1.9,0.8,1.9,0.8l3.9-6.1
						C147.8,218.5,147.3,217.8,146.5,217.4z"/>
					<path id="XMLID_54_" class="st1" d="M144.2,225.2l-0.4-0.1c0,0-1.1-0.3-2-0.8c-1-0.6-1.3-1.4-1.3-1.5c-0.1-0.3-0.2-0.7-0.2-1.1
						c0-1.8,1.3-3.9,2.9-4.8c0.5-0.3,1-0.4,1.5-0.4c0,0,0,0,0,0l0,0l0.3,0c0,0,0.8,0.1,1.7,0.5c0.9,0.5,1.5,1.2,1.6,1.3l0.2,0.3
						L144.2,225.2z M141.5,222.6c0.1,0.2,0.3,0.5,0.8,0.8c0.5,0.3,1.1,0.5,1.4,0.6l3.5-5.4c-0.2-0.2-0.6-0.5-1-0.7
						c-0.5-0.2-0.9-0.4-1.2-0.4l-0.2,0c-0.3-0.1-0.7,0-1.2,0.3c-1.3,0.7-2.4,2.6-2.4,4c0,0.3,0,0.5,0.1,0.7L141.5,222.6z"/>
				</g>
				<path id="XMLID_58_" class="st1" d="M147.9,217.9c-0.7-0.4-1.5-0.3-2.4,0.2c-1.6,0.9-2.9,3.1-2.9,4.8c0,0.9,0.3,1.6,1,2
					c0.3,0.2,0.6,0.2,0.9,0.2c0.5,0,1-0.2,1.5-0.4c1.6-0.9,2.9-3.1,2.9-4.8C148.9,219,148.5,218.3,147.9,217.9z"/>
				<g id="XMLID_82_">
					<path id="XMLID_301_" class="st0" d="M145,223.5c-0.2,0-0.4,0-0.5-0.1c-0.3-0.2-0.5-0.6-0.5-1.1c0-1,0.7-2.2,1.6-2.7
						c0.5-0.3,1-0.3,1.3-0.1c0.3,0.2,0.5,0.6,0.5,1.1c0,1-0.7,2.2-1.6,2.7C145.6,223.4,145.3,223.5,145,223.5z M146.4,219.9
						c-0.2,0-0.4,0.1-0.6,0.2c-0.7,0.4-1.4,1.5-1.4,2.3c0,0.3,0.1,0.6,0.3,0.7c0.2,0.1,0.5,0.1,0.8-0.1c0.7-0.4,1.4-1.5,1.4-2.3
						c0-0.3-0.1-0.6-0.3-0.7C146.6,219.9,146.5,219.9,146.4,219.9z"/>
				</g>
			</g>
			<g id="XMLID_43_">
				<g id="XMLID_108_">
					<path id="XMLID_45_" class="st0" d="M188.8,192.8c-0.8-0.4-1.5-0.5-1.5-0.5l0,0c-0.4-0.1-0.9,0-1.5,0.4
						c-1.5,0.8-2.6,2.8-2.6,4.4c0,0.4,0.1,0.7,0.2,1l0,0c0,0,0.2,0.7,1.1,1.2c0.8,0.5,1.9,0.8,1.9,0.8l3.9-6.1
						C190.1,193.9,189.6,193.2,188.8,192.8z"/>
					<path id="XMLID_46_" class="st1" d="M186.5,200.6l-0.3-0.1c0,0-1.2-0.3-2-0.8c-1-0.6-1.3-1.4-1.3-1.5c-0.1-0.3-0.2-0.7-0.2-1.1
						c0-1.8,1.3-3.9,2.9-4.8c0.5-0.3,1-0.5,1.5-0.4l0,0l0.3,0c0,0,0.8,0.1,1.7,0.5c0.9,0.5,1.5,1.2,1.6,1.3l0.2,0.3L186.5,200.6z
						 M183.8,198c0.1,0.2,0.3,0.5,0.8,0.9c0.5,0.3,1.1,0.5,1.4,0.6l3.5-5.4c-0.2-0.2-0.6-0.5-1-0.7h0c-0.5-0.2-0.9-0.4-1.2-0.4
						l-0.2,0c-0.3-0.1-0.7,0-1.2,0.3c-1.3,0.7-2.4,2.6-2.4,4c0,0.3,0,0.5,0.1,0.7L183.8,198z"/>
				</g>
				<path id="XMLID_50_" class="st1" d="M190.2,193.4c-0.7-0.4-1.5-0.3-2.4,0.2c-1.6,0.9-2.9,3.1-2.9,4.8c0,0.9,0.3,1.6,1,2
					c0.3,0.2,0.6,0.2,0.9,0.2c0.5,0,1-0.2,1.5-0.4c1.6-0.9,2.9-3.1,2.9-4.8v0C191.2,194.4,190.8,193.7,190.2,193.4z"/>
				<g id="XMLID_110_">
					<path id="XMLID_30_" class="st0" d="M187.3,198.9c-0.2,0-0.4,0-0.5-0.1c-0.3-0.2-0.5-0.6-0.5-1.1c0-1,0.7-2.2,1.6-2.7
						c0.5-0.3,1-0.3,1.3-0.1c0.3,0.2,0.5,0.6,0.5,1.1l0,0c0,1-0.7,2.2-1.6,2.7C187.9,198.9,187.6,198.9,187.3,198.9z M188.7,195.3
						c-0.2,0-0.4,0.1-0.6,0.2c-0.7,0.4-1.4,1.5-1.4,2.3c0,0.3,0.1,0.6,0.3,0.7c0.2,0.1,0.5,0.1,0.8-0.1c0.7-0.4,1.4-1.5,1.4-2.3l0,0
						c0-0.3-0.1-0.6-0.3-0.7C188.9,195.3,188.8,195.3,188.7,195.3z"/>
				</g>
			</g>
			<g id="XMLID_112_">
				<path id="XMLID_80_" class="st0" d="M167.8,199.1l20.7,18.2c1,0.9,2.2,4.8-3.3,1.9l0,0l-41.1-23.5l0,0c-6.2-3.8-1.6-4.8,0.5-4.1
					l20.4,7.1C165.8,199,167.1,198.6,167.8,199.1z"/>
				<path id="XMLID_114_" class="st0" d="M168.5,197.2l20.7,18.2c1,0.9,2.2,4.8-3.3,1.9l0,0l-41.1-23.5l0,0
					c-6.2-3.8-1.6-4.8,0.5-4.1l20.4,7.1C166.6,197.1,167.9,196.7,168.5,197.2z"/>
				<path id="XMLID_81_" class="st1" d="M188.3,220.8c-0.8,0-1.9-0.4-3.3-1.1l-41.1-23.5c-2.7-1.7-3.8-3-3.2-4.1
					c0.6-1.2,2.8-1.3,4.1-0.8l20.4,7.1c0.2,0.1,0.6,0.1,1,0.1c0.6,0,1.4,0,1.9,0.4l0,0l20.7,18.2c0.6,0.5,1.5,2.2,0.8,3.2
					C189.3,220.6,188.9,220.8,188.3,220.8z M143.2,191.9c-0.8,0-1.5,0.2-1.6,0.5c-0.1,0.3,0.3,1.3,2.8,2.8l41.1,23.5
					c2.3,1.2,3.2,1.1,3.4,0.8c0.3-0.4-0.2-1.5-0.6-1.9l-20.7-18.2c-0.2-0.2-0.8-0.2-1.2-0.2c-0.5,0-0.9,0-1.3-0.1l-20.4-7.1
					C144.1,192,143.6,191.9,143.2,191.9z"/>
			</g>
			<g id="XMLID_113_">
				<path id="XMLID_85_" class="st0" d="M162.6,199.1l-20.7,18.2c-1,0.9-2.2,4.8,3.3,1.9l0,0l41.1-23.5l0,0c6.2-3.8,1.6-4.8-0.5-4.1
					l-20.4,7.1C164.6,199,163.3,198.6,162.6,199.1z"/>
				<path id="XMLID_74_" class="st0" d="M161.8,197.2L141,215.4c-1,0.9-2.2,4.8,3.3,1.9l0,0l41.1-23.5l0,0c6.2-3.8,1.6-4.8-0.5-4.1
					l-20.4,7.1C163.7,197.1,162.4,196.7,161.8,197.2z"/>
				<path id="XMLID_109_" class="st1" d="M142.1,220.8c-0.6,0-1.1-0.2-1.3-0.6c-0.6-0.9,0.1-2.6,0.8-3.2l20.7-18.2
					c0.5-0.4,1.2-0.4,1.9-0.4c0.4,0,0.8,0,1-0.1l20.4-7.1c1.3-0.5,3.6-0.3,4.1,0.8c0.5,1.1-0.5,2.5-3.2,4.1l-41.1,23.5
					C144,220.4,142.9,220.8,142.1,220.8z M162.9,199.5l-20.7,18.2c-0.5,0.4-0.9,1.5-0.6,1.9c0.2,0.3,1.1,0.4,3.4-0.8l41-23.5
					c2.5-1.6,3-2.5,2.8-2.8c-0.2-0.5-1.8-0.7-2.9-0.3l-20.4,7.1c-0.4,0.1-0.9,0.1-1.3,0.1C163.7,199.3,163.2,199.3,162.9,199.5z"/>
			</g>
			<path id="XMLID_308_" class="st1" d="M164.6,195.2c-4.2,0-7.6,4.5-7.6,7.4c0,2.9,3.4,5.2,7.6,5.2c4.2,0,7.6-2.3,7.6-5.2
				C172.3,199.7,168.8,195.2,164.6,195.2z"/>
			<g id="XMLID_115_">
				<ellipse id="XMLID_44_" class="st0" cx="164.6" cy="199.1" rx="5.2" ry="3.4"/>
				<path id="XMLID_51_" class="st1" d="M164.6,203.1c-3.2,0-5.7-1.8-5.7-3.9c0-2.2,2.5-3.9,5.7-3.9c3.2,0,5.7,1.7,5.7,3.9
					C170.4,201.3,167.8,203.1,164.6,203.1z M164.6,196.2c-2.6,0-4.7,1.3-4.7,2.9c0,1.6,2.2,2.9,4.7,2.9c2.6,0,4.7-1.3,4.7-2.9
					C169.4,197.5,167.2,196.2,164.6,196.2z"/>
			</g>
			<path id="XMLID_60_" class="st0" d="M164.6,199.1L164.6,199.1c-1.8,0-3.2-1.4-3.2-3.2v-30.6c0-1.8,1.4-3.2,3.2-3.2l0,0
				c1.8,0,3.2,1.4,3.2,3.2V196C167.8,197.7,166.4,199.1,164.6,199.1z"/>
			<path id="XMLID_311_" class="st1" d="M164.6,161.7c-2,0-3.7,1.7-3.7,3.7V196c0,2,1.7,3.7,3.7,3.7c2,0,3.7-1.7,3.7-3.7v-30.6
				C168.3,163.3,166.7,161.7,164.6,161.7z M161.9,196v-30.6c0-1.3,0.9-2.3,2.1-2.6c0.8,0.6,1.4,1.5,1.4,2.6V196c0,1.1-0.5,2-1.4,2.6
				C162.8,198.3,161.9,197.2,161.9,196z"/>
		</g>
		<g id="XMLID_117_">
			<g id="XMLID_63_">
				<g id="XMLID_118_">
					<path id="XMLID_313_" class="st0" d="M192.4,156.3l-3.1-0.2c-0.4-0.3-0.9-0.6-1.4-0.9l-7.5-4c-6.5-3.5-17.7-2.8-25,1.7l-10,6.1
						l-7.8,2.5l0,4.9c0,0,0,0,0,0c0,1.4,0.8,2.7,2.6,3.7l16.8,9.3c3.8,2.1,10.4,1.6,14.7-1l14.8-8.8c3.7-2.3,5.7-5.1,5.9-7.7
						c0,0,0,0,0,0V156.3z"/>
					<path id="XMLID_314_" class="st1" d="M163,181.1c-2.3,0-4.5-0.4-6.2-1.3l-16.8-9.3c-1.7-0.9-2.7-2.3-2.9-3.9l0,0l0-0.3l0-5.3
						l8.1-2.6l10-6.1c7.4-4.5,18.9-5.3,25.5-1.7l7.5,4c0.4,0.2,0.9,0.5,1.3,0.8l3.5,0.3v6.4l-0.1,0c-0.4,2.8-2.5,5.6-6.1,7.7
						l-14.8,8.8C169.5,180.3,166.1,181.1,163,181.1z M138.1,166.1L138.1,166.1l0,0.3c0,1.3,0.8,2.4,2.3,3.3l16.8,9.3
						c3.7,2,10.1,1.5,14.2-1l14.8-8.8c3.5-2.1,5.5-4.7,5.6-7.3l0-0.3v-4.7l-2.8-0.2l-0.1-0.1c-0.5-0.3-0.9-0.6-1.3-0.8l-7.5-4
						c-6.4-3.4-17.4-2.7-24.5,1.7l-10.1,6.2l-7.4,2.4L138.1,166.1z"/>
				</g>
				<g id="XMLID_119_">
					<path id="XMLID_116_" class="st0" d="M157,174.6l-16.8-9.3c-3.8-2.1-3.5-5.9,0.8-8.5l14.3-8.8c7.3-4.4,18.5-5.2,25-1.7l7.5,4
						c6.5,3.5,5.9,10-1.4,14.4l-14.8,8.8C167.5,176.2,160.9,176.7,157,174.6z"/>
					<path id="XMLID_318_" class="st0" d="M157.2,176.2l-16.8-9.3c-3.8-2.1-3.5-5.9,0.8-8.5l14.3-8.8c7.3-4.4,18.5-5.2,25-1.7l7.5,4
						c6.5,3.5,5.9,10-1.4,14.4l-14.8,8.8C167.6,177.8,161.1,178.3,157.2,176.2z"/>
				</g>
			</g>
			<path id="XMLID_322_" class="st1" d="M192.9,156.5c-0.1-2.6-1.8-4.9-4.8-6.6l-7.5-4c-6.6-3.6-18.1-2.8-25.5,1.7l-14.3,8.8
				c-2.4,1.5-3.8,3.4-3.7,5.3c0,1.6,1.1,3,2.9,4l16.8,9.3l0,0c1.7,0.9,3.9,1.3,6.2,1.3c1.4,0,2.8-0.2,4.2-0.5
				c-0.1,0.5-0.3,1.2-0.6,2.2c-0.6,1.8-4.6,2.5-4.6,2.5h2.7l6.8-2.1l15.1-9l5.4-4.8l0.7-4v-2.1C192.8,157.9,192.9,157.2,192.9,156.5
				z M157.3,174.2l-16.8-9.3c-1.5-0.8-2.4-1.9-2.4-3.2c0-1.5,1.1-3.2,3.2-4.4l14.3-8.8c7.2-4.4,18.2-5.1,24.5-1.7l7.5,4
				c2.7,1.4,4.2,3.5,4.2,5.7c0.1,2.7-2,5.6-5.7,7.8l-14.8,8.8C167.3,175.7,161,176.1,157.3,174.2z"/>
		</g>
		<g id="XMLID_324_">
			<path id="XMLID_3_" class="st1" d="M153.6,173c-0.4-1.2-1.7-1.9-3-1.7c-1,0.2-1.9,0.1-2.5-0.2c-0.7-0.3-1-0.9-1.1-1.2v-13
				c0-1.4-1.2-2.6-2.6-2.6c-1.5,0-2.6,1.2-2.6,2.6l0,13.5l0.1,0.6c0.1,0.3,0.9,3.2,3.8,4.8c1.2,0.6,2.5,1,4,1c0.6,0,1.3-0.1,2-0.2
				c0.8-0.1,1.5-0.6,1.9-1.3C153.7,174.6,153.8,173.8,153.6,173z"/>
		</g>
		<g id="XMLID_609_">
			<path id="XMLID_319_" class="st0" d="M154.3,105.1l-8.2-4.7c-3-1.7-5.7-1.9-7.8-1l0,0l-0.2,0.1c-0.1,0-0.1,0.1-0.2,0.1l-4.7,2.2
				l1,2.3c-0.6,1.6-0.9,3.6-0.9,5.8l0,26.4c0,5.5,3.4,12,7.6,14.4l16.9,9.7l1.7,4l5-2.4v-0.1c1.7-0.9,2.8-3,2.8-6.1l0-26.4
				C167.1,120.2,161.4,109.2,154.3,105.1z"/>
			<path id="XMLID_323_" class="st1" d="M159,165.2l-1.8-4.3l-16.8-9.6c-4.3-2.5-7.8-9.1-7.8-14.8l0-26.4c0-2.2,0.3-4.1,0.9-5.8
				l-1.1-2.6l5.1-2.4c0,0,0.1,0,0.1-0.1l0.7-0.3l0,0c2.3-0.9,5.1-0.5,7.9,1.1l8.2,4.7c7.2,4.2,13.1,15.3,13.1,24.9l0,26.4
				c0,3-1,5.3-2.8,6.4v0l-0.3,0.2L159,165.2z M133.8,102.1l0.9,2.1l-0.1,0.2c-0.6,1.6-0.9,3.5-0.9,5.7l0,26.4c0,5.4,3.3,11.6,7.3,14
				l17.1,9.8l1.5,3.6l4.3-2.1l0.2-0.2c1.6-0.8,2.5-2.9,2.5-5.7l0-26.4c0-9.2-5.6-20-12.6-24l-8.2-4.7c-2.7-1.6-5.3-1.9-7.4-0.9
				l-0.4,0.2L133.8,102.1z"/>
		</g>
		<path id="XMLID_328_" class="st0" d="M153.8,106.4l-8.2-4.7c-2.7-1.6-5.3-1.9-7.4-0.9l-0.4,0.2l-2.8,1.3l3.5,0.3l9.4,5.1l4.8,3.5
			l4.3,5.4l4.2-2.4C159.2,110.8,156.6,108,153.8,106.4z"/>
		<path id="XMLID_122_" class="st0" d="M154.6,164l-18.8-10.8c-4.2-2.4-7.6-8.8-7.6-14.4l0-26.4c0-9.4,5.8-13.7,12.9-9.7l8.2,4.7
			c7.1,4.1,12.9,15,12.8,24.4l0,26.4C162.2,163.9,158.8,166.4,154.6,164z"/>
		<path id="XMLID_331_" class="st1" d="M165.9,121.5l-4.3,2.5c-2.1-7.2-6.6-13.9-11.9-17l-8.2-4.7c-3.3-1.9-6.4-2.1-8.9-0.7
			c-3,1.7-4.7,5.6-4.7,10.8l0,26.4c0,5.7,3.5,12.3,7.8,14.8l18.8,10.8c1.1,0.6,2.2,1,3.3,1c0.8,0,1.5-0.2,2.2-0.6
			c0.5-0.3,1-0.7,1.4-1.3l3.6-1.2l2.1-4.5L167,127L165.9,121.5z M159.4,164c-1.2,0.7-2.8,0.6-4.5-0.4l-18.8-10.8
			c-4-2.3-7.3-8.6-7.3-13.9l0-26.4c0-4.8,1.5-8.4,4.2-9.9c0.9-0.5,2-0.8,3.1-0.8c1.5,0,3.2,0.5,4.9,1.5l8.2,4.7
			c7,4,12.6,14.8,12.6,24l0,26.4C161.7,161.1,160.8,163.1,159.4,164z"/>
	</g>
	<g id="_x35_">
		<path id="XMLID_1217_" class="st0" d="M176.8,61.8v23.3c0,2.1,2.9,3.8,6.6,3.8c3.6,0,6.6-1.7,6.6-3.8V61.8H176.8z"/>
		<path id="XMLID_1225_" class="st1" d="M176.3,61.3v23.8c0,2.4,3.1,4.3,7.1,4.3c4,0,7.1-1.9,7.1-4.3V61.3H176.3z M189.4,85.1
			c0,0.9-0.7,1.8-1.9,2.4l0-22.8l-4.2,1.1v22.6h0c-3.3,0-6.1-1.5-6.1-3.3V62.3h12.2V85.1z"/>
		<g id="XMLID_568_">
			<ellipse id="XMLID_946_" class="st0" cx="183.4" cy="62" rx="6.6" ry="3.8"/>
			<path id="XMLID_947_" class="st1" d="M183.4,66.3c-4,0-7.1-1.9-7.1-4.3c0-2.4,3.1-4.3,7.1-4.3c4,0,7.1,1.9,7.1,4.3
				C190.4,64.4,187.3,66.3,183.4,66.3z M183.4,58.7c-3.3,0-6.1,1.5-6.1,3.3c0,1.8,2.8,3.3,6.1,3.3s6.1-1.5,6.1-3.3
				C189.4,60.2,186.7,58.7,183.4,58.7z"/>
		</g>
		<g id="XMLID_564_">
			<g id="XMLID_566_">
				<path id="XMLID_941_" class="st0" d="M179.9,54.7v6.6c0,1.1,1.5,2,3.5,2c1.9,0,3.5-0.9,3.5-2v-6.6H179.9z"/>
				<path id="XMLID_943_" class="st1" d="M183.4,63.8c-2.2,0-4-1.1-4-2.5v-7.1h7.9v7.1C187.3,62.7,185.6,63.8,183.4,63.8z
					 M180.4,55.2v6.1c0,0.7,1.2,1.5,3,1.5c1.7,0,3-0.8,3-1.5v-6.1H180.4z"/>
			</g>
			<g id="XMLID_101_">
				<ellipse id="XMLID_937_" class="st0" cx="183.4" cy="54.8" rx="3.5" ry="2"/>
				<path id="XMLID_938_" class="st1" d="M183.4,57.3c-2.2,0-4-1.1-4-2.5c0-1.4,1.7-2.5,4-2.5c2.2,0,4,1.1,4,2.5
					C187.3,56.2,185.6,57.3,183.4,57.3z M183.4,53.2c-1.7,0-3,0.8-3,1.5s1.2,1.5,3,1.5c1.7,0,3-0.8,3-1.5S185.1,53.2,183.4,53.2z"/>
			</g>
		</g>
	</g>
	<g id="_x34_">
		<path id="XMLID_1411_" class="st0" d="M30.2,156.2v23.3c0,2.1,2.9,3.8,6.6,3.8c3.6,0,6.6-1.7,6.6-3.8v-23.3H30.2z"/>
		<path id="XMLID_1408_" class="st1" d="M29.7,155.7v23.8c0,2.4,3.1,4.3,7.1,4.3c4,0,7.1-1.9,7.1-4.3v-23.8H29.7z M42.9,179.5
			c0,0.9-0.7,1.8-1.9,2.4l0-22.8l-4.2,1.1v22.6h0c-3.3,0-6.1-1.5-6.1-3.3v-22.8h12.2V179.5z"/>
		<g id="XMLID_1402_">
			<ellipse id="XMLID_1407_" class="st0" cx="36.8" cy="156.4" rx="6.6" ry="3.8"/>
			<path id="XMLID_1404_" class="st1" d="M36.8,160.7c-4,0-7.1-1.9-7.1-4.3c0-2.4,3.1-4.3,7.1-4.3c4,0,7.1,1.9,7.1,4.3
				C43.9,158.8,40.8,160.7,36.8,160.7z M36.8,153c-3.3,0-6.1,1.5-6.1,3.3c0,1.8,2.8,3.3,6.1,3.3c3.3,0,6.1-1.5,6.1-3.3
				C42.9,154.6,40.1,153,36.8,153z"/>
		</g>
		<g id="XMLID_1378_">
			<g id="XMLID_1389_">
				<path id="XMLID_1397_" class="st0" d="M33.4,149.1v6.6c0,1.1,1.5,2,3.5,2c1.9,0,3.5-0.9,3.5-2v-6.6H33.4z"/>
				<path id="XMLID_1394_" class="st1" d="M36.8,158.2c-2.2,0-4-1.1-4-2.5v-7.1h7.9v7.1C40.8,157.1,39,158.2,36.8,158.2z
					 M33.9,149.6v6.1c0,0.7,1.2,1.5,3,1.5c1.7,0,3-0.8,3-1.5v-6.1H33.9z"/>
			</g>
			<g id="XMLID_1379_">
				<ellipse id="XMLID_1388_" class="st0" cx="36.8" cy="149.1" rx="3.5" ry="2"/>
				<path id="XMLID_1380_" class="st1" d="M36.8,151.7c-2.2,0-4-1.1-4-2.5c0-1.4,1.7-2.5,4-2.5c2.2,0,4,1.1,4,2.5
					C40.8,150.6,39,151.7,36.8,151.7z M36.8,147.6c-1.7,0-3,0.8-3,1.5c0,0.7,1.2,1.5,3,1.5c1.7,0,3-0.8,3-1.5
					C39.8,148.4,38.6,147.6,36.8,147.6z"/>
			</g>
		</g>
	</g>
	<g id="_x33_">
		<g id="_x36__14_">
			<g id="XMLID_762_">
				<g id="XMLID_764_">
					<path id="XMLID_1427_" class="st0" d="M55.7,75.7v26.8c0,4.2-5.7,7.5-12.8,7.5c-7.1,0-12.8-3.4-12.8-7.5V75.7H55.7z"/>
					<path id="XMLID_1428_" class="st1" d="M42.9,110.6c-7.4,0-13.3-3.6-13.3-8V76.7c0-0.8,0.7-1.5,1.5-1.5h24
						c0.7,0,1.2,0.5,1.2,1.2v26.1C56.2,107,50.3,110.6,42.9,110.6z M30.6,76.2v26.3c0,3.9,5.5,7,12.3,7c6.8,0,12.3-3.2,12.3-7V76.2
						H30.6z"/>
				</g>
				<g id="XMLID_763_">
					<ellipse id="XMLID_1423_" class="st0" cx="42.9" cy="76.3" rx="12.8" ry="7.5"/>
					<path id="XMLID_1424_" class="st1" d="M42.9,84.3c-7.4,0-13.3-3.6-13.3-8c0-4.4,6-8,13.3-8c7.4,0,13.3,3.6,13.3,8
						C56.2,80.7,50.3,84.3,42.9,84.3z M42.9,69.2c-6.8,0-12.3,3.2-12.3,7c0,3.9,5.5,7,12.3,7c6.8,0,12.3-3.2,12.3-7
						C55.2,72.4,49.7,69.2,42.9,69.2z"/>
				</g>
			</g>
		</g>
		<g id="XMLID_758_">
			<ellipse id="XMLID_1419_" class="st0" cx="42.9" cy="77.2" rx="8.9" ry="4.7"/>
			<path id="XMLID_1420_" class="st1" d="M42.9,80.9c-5.3,0-9.4-2.3-9.4-5.2c0-2.9,4.1-5.2,9.4-5.2c5.3,0,9.4,2.3,9.4,5.2
				C52.3,78.7,48.2,80.9,42.9,80.9z M42.9,71.6c-4.6,0-8.4,1.9-8.4,4.2c0,2.3,3.9,4.2,8.4,4.2c4.6,0,8.4-1.9,8.4-4.2
				C51.3,73.5,47.5,71.6,42.9,71.6z"/>
		</g>
		<g id="XMLID_1431_">
			<path id="XMLID_1432_" class="st0" d="M34,92.3v10.4c0,2.8,4,5,8.9,5c4.9,0,8.9-2.2,8.9-5V92.6c-0.1,0-0.1-0.1-0.2-0.1
				c-3.3-1.7-5.5-0.7-7.8,0.3c-1.2,0.5-2.4,1.1-3.7,1.2C37.5,94.3,35.2,93.1,34,92.3z"/>
		</g>
		<g id="XMLID_91_">
			<path id="XMLID_1414_" class="st1" d="M42.9,106.5c-5.5,0-9.9-2.6-9.9-6V88l0.8,0.7c0,0,2.9,2.4,6.1,2.1c1.2-0.1,2.3-0.6,3.4-1.1
				c2.3-1,4.9-2.2,8.7-0.3c0.1,0.1,0.2,0.1,0.3,0.1l0.5,0.2v10.8C52.8,103.8,48.5,106.5,42.9,106.5z M34,90v10.4c0,2.8,4,5,8.9,5
				c4.9,0,8.9-2.2,8.9-5V90.3c-0.1,0-0.1-0.1-0.2-0.1c-3.3-1.7-5.5-0.7-7.8,0.3c-1.2,0.5-2.4,1.1-3.7,1.2C37.5,92,35.2,90.8,34,90z"
				/>
		</g>
	</g>
	<g id="_x32_">
		<path id="XMLID_1490_" class="st0" d="M113.8,60.5L90,46.5c-0.5-0.3-0.9-0.3-1.2-0.1l0,0l0,0c0,0,0,0,0,0l-26.1,15l26.2,25.7
			l26-15c0.4-0.2,0.7-0.8,0.7-1.6l0-6.4C115.7,62.7,114.8,61.1,113.8,60.5z"/>
		<path id="XMLID_341_" class="st0" d="M112.8,59.8L90,46.3c-0.5-0.3-0.9-0.3-1.2-0.1c0,0,0,0,0,0L63.6,60.7
			C63.1,61,63,61.6,63.4,62l3.7,3.6c0.1,0.1,0.1,0.1,0.2,0.2l19.9,9.3c0.2,0.1,0.5,0.1,0.8,0l25.7-14.6
			C113.8,59.7,112.7,60.6,112.8,59.8z"/>
		<path id="XMLID_1491_" class="st1" d="M88.4,87.3L62.6,62c-0.4-0.3-0.3-0.9,0.2-1.2l25.8-14.9c0.5-0.3,1.1-0.2,1.7,0.1l23.8,14
			c1.2,0.7,2.1,2.5,2.1,4.1l0,6.4c0,1-0.4,1.7-1,2L89.3,87.4C89.1,87.6,88.7,87.5,88.4,87.3z M64.2,62.2L88.6,86
			c0.2,0.2,0.6,0.3,0.9,0.1l25.2-14.5c0.3-0.1,0.5-0.6,0.5-1.1l0-6.4c0-1.2-0.7-2.7-1.6-3.2l0,0l-23.8-14c-0.2-0.1-0.5-0.2-0.7-0.1
			L64.4,61C63.9,61.3,63.9,61.8,64.2,62.2z"/>
		<path id="XMLID_1486_" class="st0" d="M87.7,86.9L64,72.9c-1-0.6-1.9-2.2-1.9-3.6l0-6.4c0-1.4,0.9-2,1.9-1.4l23.8,14
			c1,0.6,1.9,2.2,1.9,3.6l0,6.4C89.6,86.9,88.8,87.6,87.7,86.9z"/>
		<path id="XMLID_1482_" class="st0" d="M85.9,83.5l-20.3-12c-0.6-0.4-1.1-1.4-1.1-2.2l0-3.5c0-0.8,0.5-1.2,1.2-0.9l20.3,12
			c0.6,0.4,1.1,1.4,1.1,2.2l0,3.5C87,83.5,86.5,83.8,85.9,83.5z"/>
		<path id="XMLID_344_" class="st1" d="M87.5,81.8v-2.7c0-1-0.6-2.2-1.4-2.6L66.8,65v0l-0.7-0.4l-0.3-0.2c-0.4-0.2-0.9-0.3-1.2-0.1
			c-0.4,0.2-0.6,0.7-0.6,1.3v3.5c0,0.5,0.2,1,0.4,1.5c0.2,0.5,0.6,0.9,1,1.1l20.3,12c0.2,0.1,0.5,0.2,0.7,0.2c0.2,0,0.4,0,0.5-0.1
			c0.4-0.2,0.6-0.7,0.6-1.3L87.5,81.8L87.5,81.8z M85.6,77.3c0.5,0.3,0.9,1.1,0.9,1.8v2.2L67.7,70.1l0,0c-0.5-0.3-0.9-1.1-0.9-1.8
			v-2.1L85.6,77.3z"/>
		<path id="XMLID_337_" class="st1" d="M90.1,78.8c-0.1-1.5-1-3.1-2.1-3.8L64.3,61c-0.6-0.4-1.2-0.4-1.7-0.1c-0.6,0.3-0.9,1-0.9,2
			l0,6.4c0,1.6,0.9,3.4,2.1,4.1l23.8,14l0,0c0.3,0.2,0.7,0.3,1,0.3c0.3,0,0.5-0.1,0.7-0.2c0.3-0.2,0.6-0.6,0.7-1L114.4,73l1.1-1.5
			l0.2-7.3L90.1,78.8z M89.1,85.5c0,0.5-0.2,1-0.4,1.1c-0.2,0.1-0.6,0-0.7-0.1l-23.8-14c-0.9-0.5-1.6-2-1.6-3.2l0-6.4
			c0-0.5,0.2-1,0.4-1.1c0.2-0.1,0.6,0,0.7,0.1l23.8,14c0.9,0.5,1.6,2,1.6,3.2L89.1,85.5z"/>
		<g id="XMLID_478_">
			<g id="XMLID_354_">
				<g id="XMLID_355_">
					<path id="XMLID_1450_" class="st0" d="M112.6,68.1L112.6,68.1c-0.1-0.5,0.2-1,0.7-1.1l3.9-1c0.5-0.1,1,0.2,1.1,0.7l0,0
						c0.1,0.5-0.2,1-0.7,1.1l-3.9,1C113.2,68.9,112.7,68.6,112.6,68.1z"/>
					<path id="XMLID_1453_" class="st1" d="M113.1,68c0.1,0.2,0.3,0.4,0.5,0.3l3.9-1c0.2-0.1,0.4-0.3,0.3-0.5c0-0.1-0.1-0.2-0.2-0.3
						c-0.1-0.1-0.2-0.1-0.3-0.1l-3.9,1c-0.1,0-0.2,0.1-0.3,0.2C113.1,67.7,113,67.9,113.1,68z"/>
				</g>
			</g>
			<g id="XMLID_350_">
				<circle id="XMLID_1446_" class="st0" cx="119.1" cy="66.4" r="2"/>
				<path id="XMLID_1447_" class="st1" d="M119.1,68.9c-1.4,0-2.5-1.1-2.5-2.5c0-1.4,1.1-2.5,2.5-2.5c1.4,0,2.5,1.1,2.5,2.5
					C121.5,67.8,120.4,68.9,119.1,68.9z M119.1,64.9c-0.8,0-1.5,0.7-1.5,1.5c0,0.8,0.7,1.5,1.5,1.5c0.8,0,1.5-0.7,1.5-1.5
					C120.5,65.6,119.9,64.9,119.1,64.9z"/>
			</g>
			<g id="XMLID_348_">
				<g id="XMLID_352_">
					<path id="XMLID_1442_" class="st0" d="M120.4,37.1h-2.6l-0.3,27.6c0,0.6,0.7,1,1.6,1c0.9,0,1.6-0.5,1.6-1L120.4,37.1z"/>
					<path id="XMLID_1443_" class="st1" d="M119.1,66.3c-1.2,0-2.1-0.7-2.1-1.5l0.3-28.1h3.6l0.3,28.1
						C121.2,65.6,120.3,66.3,119.1,66.3z M118.3,37.6l-0.3,27.1c0,0.2,0.5,0.5,1.1,0.5c0.7,0,1.1-0.3,1.1-0.5l-0.3-27.1H118.3z"/>
				</g>
				<g id="XMLID_346_">
					<path id="XMLID_10_" class="st0" d="M120.4,37c0,0.4-0.6,0.8-1.3,0.8c-0.7,0-1.3-0.4-1.3-0.8c0-0.4,0.6-1.5,1.3-1.5
						C119.8,35.5,120.4,36.6,120.4,37z"/>
					<path id="XMLID_1435_" class="st1" d="M119.1,38.3c-1,0-1.8-0.6-1.8-1.3c0-0.6,0.7-2,1.8-2c1.1,0,1.8,1.4,1.8,2
						C120.9,37.7,120.1,38.3,119.1,38.3z M119.1,36c-0.4,0-0.8,0.8-0.8,1c0,0.1,0.3,0.3,0.8,0.3c0.5,0,0.8-0.2,0.8-0.3
						C119.9,36.8,119.4,36,119.1,36z"/>
				</g>
			</g>
		</g>
	</g>
	<g>
		<path class="st3" d="M240.4,41.2l-1.9,2.6l-3.5,4.7l-1.2,1.7l-0.7,0.9c0,0,0,0-0.1,0.1c-0.8,1-2.6,0.9-4.6-0.2l-7.7-4.2l1.9-2.6
			l5.3,2.9c0.4,0.2,0.7,0.2,0.9,0l0,0l4.7-6.4l-4.8-2.6l1.6-2.2L240.4,41.2z"/>
		<path class="st3" d="M237.1,52.1l-2,2.5l-2-3.4c0,0,0,0,0.1-0.1l0.7-0.9l1.2-1.7L237.1,52.1z"/>
		<g>
			<g>
				<path class="st3" d="M244,44.5l0.8,1.4l1.3,2.1l-6.3,8.5l-3.5-1.9l1.5-1.8l0.3-0.4l0,0l0,0L244,44.5 M243.8,43.1l-6.4,8.6
					l-0.3,0.4l-2,2.5l5.3,2.9l6.7-9l-1.5-2.6L243.8,43.1L243.8,43.1z"/>
			</g>
		</g>
		<polygon class="st3" points="249.7,49.9 246.2,54.7 246.2,54.7 244.2,57.3 244.2,57.3 243,58.9 240.3,57.5 247,48.5 245.4,45.9 
			246.5,44.5 		"/>
		<polygon class="st3" points="248.2,58.2 246.2,60.7 244.2,57.3 246.2,54.7 		"/>
		<polygon class="st3" points="260.4,52.1 251.8,63.7 246.2,60.7 246.2,60.7 248.2,58.2 248.6,57.8 255,49.2 		"/>
	</g>
</g>
</svg>
