<?xml version="1.0" encoding="utf-8"?>
<!-- Generator: Adobe Illustrator 21.1.0, SVG Export Plug-In . SVG Version: 6.00 Build 0)  -->
<svg version="1.1" id="Capa_1" xmlns="http://www.w3.org/2000/svg" xmlns:xlink="http://www.w3.org/1999/xlink" x="0px" y="0px"
	 viewBox="0 0 464 464" style="enable-background:new 0 0 464 464;" xml:space="preserve">
<style type="text/css">
	.st0{fill:#F4DD38;}
	.st1{fill:#25212A;}
</style>
<circle class="st0" cx="216.1" cy="200" r="160"/>
<g>
	<path class="st1" d="M357.5,309.4c76.1-76.1,77.9-198.7,5.5-277l17.1-17.1c3.1-3.1,3.1-8.2,0-11.3s-8.2-3.1-11.3,0l-22.6,22.6
		c-3.1,3.1-3.1,8.2,0,11.3c71.7,71.7,71.7,188.5,0,260.2c-71.8,71.7-188.5,71.7-260.2,0c-3.1-3.1-8.2-3.1-11.3,0L52,320.7
		c-3.1,3.1-3.1,8.2,0,11.3c1.6,1.6,3.6,2.3,5.7,2.3s4.1-0.8,5.7-2.3l17.1-17.1c36.1,33.4,81.6,51,127.6,52.8V448h-56
		c-4.4,0-8,3.6-8,8s3.6,8,8,8h128c4.4,0,8-3.6,8-8s-3.6-8-8-8h-56v-80.3C272.6,365.8,320.5,346.4,357.5,309.4z"/>
	<path class="st1" d="M216.1,336c92.6,0,168-75.4,168-168S308.7,0,216.1,0s-168,75.4-168,168S123.4,336,216.1,336z M68.2,202.7
		c17.8,14.2,46.5,25.4,81.5,31.6c6.3,35,17.5,63.6,31.6,81.5C125.4,302.7,81.4,258.7,68.2,202.7z M216.1,16
		c19,0,39.4,32.1,49.5,83.1c-15.6-2-32.2-3.1-49.5-3.1s-33.9,1.1-49.5,3.1C176.7,48.1,197.1,16,216.1,16z M216.1,112
		c18.8,0,36.3,1.4,52.3,3.7c2.3,16.1,3.7,33.6,3.7,52.3s-1.4,36.3-3.7,52.3c-16.1,2.3-33.6,3.7-52.3,3.7s-36.3-1.4-52.3-3.7
		c-2.3-16.1-3.7-33.6-3.7-52.3s1.4-36.3,3.7-52.3C179.8,113.4,197.3,112,216.1,112z M285,118.5c51,10.1,83.1,30.6,83.1,49.5
		S336,207.4,285,217.5c2-15.6,3.1-32.2,3.1-49.5S287,134.1,285,118.5z M216.1,320c-19,0-39.4-32.1-49.5-83.1
		c15.6,2,32.2,3.1,49.5,3.1s33.9-1.1,49.5-3.1C255.5,287.9,235,320,216.1,320z M147.1,217.5c-51-10.1-83.1-30.6-83.1-49.5
		s32.1-39.4,83.1-49.5c-2,15.6-3.1,32.2-3.1,49.5S145.1,201.9,147.1,217.5z M250.8,315.8c14.2-17.8,25.4-46.5,31.6-81.5
		c35-6.3,63.6-17.5,81.5-31.6C350.8,258.7,306.7,302.7,250.8,315.8z M363.9,133.3c-17.8-14.2-46.5-25.4-81.5-31.6
		c-6.3-35-17.5-63.6-31.6-81.5C306.7,33.3,350.8,77.3,363.9,133.3z M181.4,20.2C167.2,38,156,66.6,149.7,101.6
		c-35,6.3-63.6,17.5-81.5,31.6C81.4,77.3,125.4,33.3,181.4,20.2z"/>
</g>
</svg>
