<?xml version="1.0" encoding="utf-8"?>
<!-- Generator: Adobe Illustrator 21.1.0, SVG Export Plug-In . SVG Version: 6.00 Build 0)  -->
<svg version="1.1" id="Capa_1" xmlns="http://www.w3.org/2000/svg" xmlns:xlink="http://www.w3.org/1999/xlink" x="0px" y="0px"
	 viewBox="0 0 464 464" style="enable-background:new 0 0 464 464;" xml:space="preserve">
<style type="text/css">
	.st0{fill:#F4DD38;}
	.st1{fill:#25212A;}
</style>
<g>
	<path class="st0" d="M104,400V208c-52.8,0-96,43.2-96,96S51.2,400,104,400z"/>
	<path class="st0" d="M360,208v192c52.8,0,96-43.2,96-96S412.8,208,360,208z"/>
</g>
<path class="st1" d="M232,8C104,8,0,112,0,240v32c0,54.4,42.4,99.2,96,103.2v8.8c0,13.6,10.4,24,24,24s24-10.4,24-24V160
	c0-13.6-10.4-24-24-24s-24,10.4-24,24v8.8c-32.8,2.4-60.8,20-78.4,45.6C30.4,107.2,121.6,24,232,24s201.6,83.2,214.4,190.4
	c-17.6-25.6-45.6-43.2-78.4-45.6V160c0-13.6-10.4-24-24-24s-24,10.4-24,24v224c0,13.6,10.4,24,24,24s24-10.4,24-24v-8.8
	c33.6-2.4,63.2-21.6,80-48.8V368c0,16.8-4.8,30.4-14.4,40c-16,16-41.6,16-41.6,16H270.4c-3.2-9.6-12-16-22.4-16h-32
	c-13.6,0-24,10.4-24,24s10.4,24,24,24h32c10.4,0,19.2-6.4,22.4-16H392l0,0c3.2,0,32-0.8,52.8-20.8c12.8-12.8,19.2-29.6,19.2-51.2
	v-96v-32C464,112,360,8,232,8z M112,160c0-4.8,3.2-8,8-8s8,3.2,8,8v224c0,4.8-3.2,8-8,8s-8-3.2-8-8v-16V176V160z M96,184v176
	c-30.4-2.4-56.8-21.6-70.4-48H40c4.8,0,8-3.2,8-8s-3.2-8-8-8H19.2c-1.6-4.8-2.4-10.4-3.2-16h56c4.8,0,8-3.2,8-8s-3.2-8-8-8H16
	c0.8-5.6,1.6-11.2,3.2-16H40c4.8,0,8-3.2,8-8s-3.2-8-8-8H25.6C39.2,205.6,65.6,187.2,96,184z M248,440h-32c-4.8,0-8-3.2-8-8
	s3.2-8,8-8h32c4.8,0,8,3.2,8,8S252.8,440,248,440z M352,384c0,4.8-3.2,8-8,8s-8-3.2-8-8V160c0-4.8,3.2-8,8-8s8,3.2,8,8v16v192V384z
	 M368,360V184c30.4,2.4,56.8,21.6,70.4,48H424c-4.8,0-8,3.2-8,8s3.2,8,8,8h20.8c1.6,4.8,2.4,10.4,3.2,16h-56c-4.8,0-8,3.2-8,8
	s3.2,8,8,8h56c-0.8,5.6-1.6,11.2-3.2,16H424c-4.8,0-8,3.2-8,8s3.2,8,8,8h14.4C424.8,338.4,398.4,356.8,368,360z"/>
</svg>
