<?xml version="1.0" encoding="utf-8"?>
<!-- Generator: Adobe Illustrator 21.1.0, SVG Export Plug-In . SVG Version: 6.00 Build 0)  -->
<svg version="1.1" id="Layer_1" xmlns="http://www.w3.org/2000/svg" xmlns:xlink="http://www.w3.org/1999/xlink" x="0px" y="0px"
	 viewBox="0 0 409 342.7" style="enable-background:new 0 0 409 342.7;" xml:space="preserve">
<style type="text/css">
	.st0{fill:#FFFFFF;}
	.st1{fill:#16110D;}
	.st2{fill:#F4DD38;}
	.st3{display:none;}
	.st4{display:inline;}
	.st5{enable-background:new    ;}
	.st6{fill:#25212A;}
	.st7{fill:#191410;}
</style>
<g id="XMLID_6_">
	<g id="_x34__3_">
		<g id="XMLID_156_">
			<path id="XMLID_162_" class="st0" d="M398.4,117.5L194.7,1.3c-2.6-1.5-4.9-1.4-6.5-0.1l-10,6l7.4,10.5v158
				c0,6.6,4.1,14.3,9.1,17.2L385,301.4l9.8,13.9l9.4-5.7c2.1-1,3.4-3.6,3.4-7.4V134.7C407.5,128.1,403.5,120.4,398.4,117.5z"/>
			<path id="XMLID_161_" class="st0" d="M350.2,109.1L180.9,14.4l-2.7-6.2l7.5-4.5c1.7-1.3,4-1.4,6.5,0.1L396,120
				c2.8,1.6,5.3,4.7,7,8.2l0.3,1l-12.1,7.2L350.2,109.1z"/>
			<polygon id="XMLID_160_" class="st0" points="404.5,135.3 393.6,141.9 394.5,146 404.5,139.8 			"/>
			<path id="XMLID_157_" class="st1" d="M187.6,0.4c2-1.6,4.8-1.6,7.6,0L399,116.6c5.3,3,9.6,11.1,9.6,18v167.6c0,4-1.4,7-3.8,8.2
				l-10.2,6.1L384.4,302L194.2,193.7c-5.3-3-9.6-11.1-9.6-18V18l-7.8-11.1L187.6,0.4z M186.5,17.4v158.3c0,6.3,3.9,13.6,8.6,16.3
				l190.3,108.5L395,314l2-1.2l0.4-3l7.4-4.6c1-0.6,1.7-1.7,1.7-2.9l0,0V134.7c0-6.3-3.9-13.6-8.6-16.3L194.2,2.1
				c-2.1-1.2-4-1.3-5.5-0.1l-9.1,5.4L186.5,17.4z"/>
		</g>
		<g id="_x31_8_2_">
			<path id="XMLID_155_" class="st1" d="M244.1,260.3l41.3-23.5c4-2.3,10.7-2,15.3,0.6l25.1,14.3l11.9,5.3v5.5h-0.1
				c-0.3,1.4-1.3,2.7-2.9,3.6L283.8,295c-1.8,1-4.2,1.6-6.7,1.6c-3,0-6.1-0.7-8.6-2.1l-33.1-18.9c-2.4-1.4-3.8-3.2-4-5.3
				c0-0.2,0-0.3,0-0.4v-4.4L244.1,260.3z"/>
			<g id="XMLID_149_">
				<path id="XMLID_154_" class="st0" d="M334.4,261.1L283.5,290c-3.7,2.1-10.1,1.8-14.3-0.6L236,270.6c-4.2-2.4-4.7-6.1-1-8.2
					l50.9-28.9c3.7-2.1,10.1-1.8,14.3,0.6l33.1,18.9C337.6,255.3,338.1,259,334.4,261.1z"/>
				<path id="XMLID_153_" class="st0" d="M240.6,266.6l13.8-8.2c4.5-2.7,10.1-2.7,14.7-0.1l34.7,19.8l-21,11.9
					c-3.7,2.1-10.1,1.8-14.3-0.6l-26.8-14.6C237.4,272.4,236.9,268.7,240.6,266.6z"/>
				<path id="XMLID_150_" class="st1" d="M277.2,292.4c2.5,0,4.9-0.5,6.7-1.6l50.9-28.9c1.9-1.1,3-2.7,3-4.4c0-2-1.5-4-4-5.5
					l-33.1-18.9c-4.6-2.6-11.3-2.9-15.3-0.6l-50.9,28.9c-1.9,1.1-3,2.7-3,4.4c0,2,1.5,4,4,5.5l33.1,18.9
					C271.1,291.7,274.2,292.4,277.2,292.4z M333.9,260.3L283,289.2c-3.4,1.9-9.4,1.7-13.4-0.6l-33.1-18.9c-1.9-1.1-3-2.5-3-3.8
					s1.1-2.2,2-2.7l50.9-28.9c3.4-1.9,9.4-1.7,13.4,0.6l33.1,18.9c1.9,1.1,3,2.5,3,3.8S334.8,259.7,333.9,260.3L333.9,260.3z"/>
			</g>
		</g>
		<path id="XMLID_148_" class="st1" d="M178.2,6c2-1.1,4.4-1,7,0.5L389,122.7c5.3,3,9.6,11.1,9.6,18v167.6c0,3.7-1.5,5.4-2.8,6.2
			c-0.8,0.5-1.8,0.7-2.9,0.7c-1.7,0-3.7-0.6-5.8-1.8L184.2,199.7c-5.3-3-9.6-11.1-9.6-18V14.1C174.6,10.3,175.9,7.3,178.2,6z"/>
		<g id="XMLID_51_">
			<path id="XMLID_147_" class="st0" d="M175.5,162.2v20.3c0,6.2,4.4,13.7,9.8,16.7l202.4,115.4c5.4,3.1,9.8,0.6,9.8-5.6v-20.3
				L175.5,162.2z"/>
			<path id="XMLID_59_" class="st1" d="M392.1,317c1.1,0,2.1-0.3,3.1-0.8c2.1-1.2,3.3-3.8,3.3-7.1v-20.9L398,288L174.6,160.6v22
				c0,6.5,4.6,14.3,10.3,17.6l202.4,115.4C388.9,316.5,390.6,317,392.1,317z M396.5,289.4v19.8c0,2.6-0.8,4.5-2.4,5.4
				c-1.5,0.9-3.7,0.7-6-0.7L185.8,198.4c-5.1-2.9-9.3-10.1-9.3-15.9v-18.7L396.5,289.4z"/>
		</g>
		<g id="XMLID_48_">
			<path id="XMLID_50_" class="st0" d="M384.3,268.6L188.8,157.1c-1.8-1-3.2-3.7-3.2-6.1V23c0-2.3,1.4-3.4,3.2-2.4l195.5,111.5
				c1.8,1,3.2,3.7,3.2,6.1v128C387.5,268.5,386,269.6,384.3,268.6z"/>
		</g>
	</g>
	<g id="XMLID_13_">
		<path id="XMLID_17_" class="st2" d="M329.8,198.9l-91.8-53c-11.1-6.4-20.1-23.7-20.1-38.5l0,0c0-14.8,9-21.7,20.1-15.2l91.8,53
			c11.1,6.4,20.1,23.7,20.1,38.5l0,0C349.9,198.5,340.9,205.3,329.8,198.9z"/>
		<path id="XMLID_14_" class="st1" d="M333,193.7c-2.7,0-5.6-0.9-8.6-2.6l-91.8-53c-11.4-6.6-20.7-24.3-20.7-39.4
			c0-8.2,2.7-14.5,7.5-17.2c4-2.3,9.1-1.9,14.3,1.1l91.8,53c11.4,6.6,20.7,24.3,20.7,39.4c0,8.2-2.7,14.5-7.5,17.2
			C337,193.2,335.1,193.7,333,193.7z M225.2,82.1c-1.7,0-3.2,0.4-4.6,1.2c-4.1,2.4-6.4,7.9-6.4,15.3c0,14.5,8.8,31.3,19.6,37.5
			l91.8,53c4.5,2.6,8.8,3,12.1,1.1c4.1-2.4,6.4-7.9,6.4-15.3c0-14.5-8.8-31.3-19.6-37.5l-91.8-53C230,82.9,227.5,82.1,225.2,82.1z"
			/>
	</g>
	<g id="XMLID_33_">
		<path id="XMLID_12_" class="st0" d="M330.9,175.6v32.2c0,1.3,1.3,2.7,2.1,2.3l4.2-2c0.6-0.3,1.5,0.5,1.8,1.5l4.1,13.4
			c0.4,1.3,1.5,2.5,2.5,2.5l3.5,0.1c0.9,0,1.3-1,0.9-2.2l-4.3-13.8c-0.3-1,0.2-1.7,1-1.3l5.7,2.7c1.1,0.5,1.6-0.8,0.8-2.1
			l-20.3-33.2C332.1,174.5,330.9,174.4,330.9,175.6z"/>
		<path id="XMLID_9_" class="st1" d="M348.9,226.7C348.8,226.7,348.8,226.7,348.9,226.7l-3.6-0.1c-1.4,0-2.9-1.4-3.5-3.3l-4.1-13.4
			c-0.1-0.4-0.4-0.7-0.5-0.8l-4,1.9c-0.6,0.3-1.3,0.2-2-0.2c-0.9-0.5-1.7-1.8-1.7-3.1v-32.2c0-1.1,0.6-1.7,1.2-1.8
			c0.9-0.3,2,0.3,2.7,1.4l20.3,33.2c0.7,1.2,0.8,2.6,0.1,3.3c-0.4,0.5-1.2,0.8-2.2,0.3l-5-2.4l4.2,13.4c0.4,1.1,0.3,2.2-0.3,2.9
			C350.1,226.4,349.5,226.7,348.9,226.7z M337.2,207c0.3,0,0.5,0.1,0.8,0.2c0.8,0.4,1.5,1.2,1.8,2.2l4.1,13.4c0.3,1,1.1,1.7,1.4,1.7
			l3.5,0.1c-0.1,0,0-0.3-0.2-0.8l-4.3-13.7c-0.3-1-0.1-1.9,0.5-2.4c0.5-0.5,1.3-0.5,2-0.2l5.2,2.5c0-0.1-0.1-0.2-0.2-0.3l-20.2-33
			V208c0,0.5,0.4,1.1,0.7,1.3l4.1-1.9C336.7,207,336.9,207,337.2,207z"/>
	</g>
	<g id="XMLID_7_" class="st3">
		<path id="XMLID_30_" class="st4" d="M235,122.2c-0.5-0.3-0.7-0.7-0.7-1.2v-16.7c0-0.5,0.2-0.7,0.7-0.4l3.5,2
			c5.8,3.3,8.1,7.3,8.1,13.9s-2.3,7.8-8.1,4.5L235,122.2z M238.5,122.5c4.6,2.6,6.4,1.6,6.4-3.7c0-5.3-1.8-8.4-6.4-11.1l-2.6-1.5
			V121L238.5,122.5z"/>
		<path id="XMLID_28_" class="st4" d="M250,130.9c-0.5-0.3-0.7-0.7-0.7-1.2V113c0-0.5,0.2-0.7,0.7-0.4l7.8,4.5
			c0.5,0.3,0.7,0.7,0.7,1.2v0.2c0,0.5-0.2,0.7-0.7,0.4l-6.9-4v5.1l6.5,3.7c0.5,0.3,0.7,0.7,0.7,1.2v0.2c0,0.5-0.2,0.7-0.7,0.4
			l-6.5-3.7v7.8l6.9,4c0.5,0.3,0.7,0.7,0.7,1.2v0.2c0,0.5-0.2,0.7-0.7,0.4L250,130.9z"/>
		<path id="XMLID_26_" class="st4" d="M262.6,138.1c-0.5-0.3-0.7-0.7-0.7-1.2v-16.7c0-0.5,0.2-0.7,0.7-0.4l0.2,0.1
			c0.5,0.3,0.7,0.7,0.7,1.2v15.7l6.6,3.8c0.5,0.3,0.7,0.7,0.7,1.2v0.2c0,0.5-0.2,0.7-0.7,0.4L262.6,138.1z"/>
		<path id="XMLID_24_" class="st4" d="M274,144.7c-0.5-0.3-0.7-0.7-0.7-1.2v-16.7c0-0.5,0.2-0.7,0.7-0.4l0.2,0.1
			c0.5,0.3,0.7,0.7,0.7,1.2v16.7c0,0.5-0.2,0.7-0.7,0.4L274,144.7z"/>
		<path id="XMLID_22_" class="st4" d="M284,150.5c-0.4-0.2-0.7-0.6-0.8-1.1l-6.1-20.3c-0.2-0.7,0-1,0.5-0.6l0.3,0.2
			c0.4,0.2,0.7,0.6,0.8,1.1l5.6,18.5l5.6-12.1c0.2-0.3,0.4-0.4,0.8-0.2l0.3,0.2c0.5,0.3,0.8,0.8,0.5,1.3l-6.1,13.2
			c-0.2,0.3-0.4,0.4-0.8,0.2L284,150.5z"/>
		<path id="XMLID_20_" class="st4" d="M294.4,156.5c-0.5-0.3-0.7-0.7-0.7-1.2v-16.7c0-0.5,0.2-0.7,0.7-0.4l7.8,4.5
			c0.5,0.3,0.7,0.7,0.7,1.2v0.2c0,0.5-0.2,0.7-0.7,0.4l-6.9-4v5.1l6.5,3.7c0.5,0.3,0.7,0.7,0.7,1.2v0.2c0,0.5-0.2,0.7-0.7,0.4
			l-6.5-3.7v7.8l6.9,4c0.5,0.3,0.7,0.7,0.7,1.2v0.2c0,0.5-0.2,0.7-0.7,0.4L294.4,156.5z"/>
		<path id="XMLID_8_" class="st4" d="M306.5,163.5c-0.5-0.3-0.7-0.7-0.7-1.2v-16.7c0-0.5,0.2-0.7,0.7-0.4l4.5,2.6
			c3,1.7,5.1,5.2,5.1,8.6c0,2.9-1.4,4.1-3.7,3.4l4.2,8.5c0.4,0.8,0.2,1.1-0.4,0.8l-0.5-0.3c-0.4-0.2-0.6-0.5-0.9-1l-4.4-9l-3-1.7
			v6.1c0,0.5-0.2,0.7-0.7,0.4L306.5,163.5z M311,157.3c2,1.2,3.4,0.4,3.4-2c0-2.3-1.3-4.7-3.4-5.9l-3.6-2.1v7.8L311,157.3z"/>
	</g>
	<g class="st5">
		<path d="M244.3,112.2c0.8,0.5,1.4,1.1,1.9,2c0.5,0.9,0.8,1.7,0.8,2.5c0,0.8-0.3,1.4-0.8,1.6c-0.5,0.3-1.2,0.1-1.9-0.3l-1.4-0.8
			l0,2.9l-1.6-0.9l0-8.7L244.3,112.2z M244.2,116.4c0.3,0.2,0.6,0.2,0.8,0.1c0.2-0.1,0.3-0.4,0.3-0.7c0-0.4-0.1-0.8-0.3-1.1
			c-0.2-0.4-0.5-0.7-0.8-0.9l-1.4-0.8l0,2.6L244.2,116.4z"/>
		<path d="M249.5,122.4l3.3,2l0,1.6l-4.9-2.9l0-8.7l4.8,2.9l0,1.6l-3.3-2l0,1.9l3,1.8l0,1.6l-3-1.8L249.5,122.4z"/>
		<path d="M258.4,120.7l0,1.6l-2.9-1.8l0,7.1l-1.6-0.9l0-8.7L258.4,120.7z"/>
		<path d="M263.8,132.7l0-5.3l-3.4,3.3l-1.2-0.7l0-8.7l1.6,0.9l0,5.3l3.4-3.3l1.2,0.7l0,8.7L263.8,132.7z"/>
		<path d="M270.6,137c-1.2-0.7-2.2-1.7-2.9-3.1c-0.8-1.3-1.2-2.6-1.1-3.9c0-1.3,0.4-2.1,1.2-2.5c0.8-0.4,1.8-0.2,2.9,0.5
			c0.7,0.4,1.4,1,2,1.7c0.6,0.7,1.1,1.5,1.4,2.4l-1.3,0c-0.2-0.5-0.5-1-0.8-1.4c-0.4-0.4-0.8-0.8-1.2-1.1c-0.8-0.5-1.4-0.6-1.9-0.3
			s-0.7,0.8-0.7,1.6c0,0.8,0.2,1.7,0.7,2.5c0.5,0.8,1.1,1.5,1.8,1.9c0.5,0.3,0.9,0.4,1.2,0.4c0.4,0,0.6-0.1,0.8-0.4l1.3,1.7
			c-0.3,0.4-0.8,0.6-1.4,0.7C271.9,137.6,271.3,137.4,270.6,137z"/>
		<path d="M280.1,133.8l0,1.6l-2.1-1.3l0,7.1l-1.6-0.9l0-7.1l-2.1-1.3l0-1.6L280.1,133.8z"/>
		<path d="M283.9,136.1c0.8,0.5,1.4,1.1,1.9,2c0.5,0.9,0.8,1.7,0.8,2.5c0,0.8-0.3,1.4-0.8,1.6c-0.5,0.3-1.2,0.1-1.9-0.3l-1.4-0.8
			l0,2.9l-1.6-0.9l0-8.7L283.9,136.1z M283.9,140.4c0.3,0.2,0.6,0.2,0.8,0.1c0.2-0.1,0.3-0.4,0.3-0.7c0-0.4-0.1-0.8-0.3-1.1
			c-0.2-0.4-0.5-0.7-0.8-0.9l-1.4-0.8l0,2.6L283.9,140.4z"/>
		<path d="M291.9,149.6l-0.5-1.9l-3.1-1.9l-0.5,1.3l-1.7-1l2.8-7.1l1.9,1.2l2.7,10.4L291.9,149.6z M288.8,144.6l2.2,1.3l-1.1-4.2
			L288.8,144.6z"/>
		<path d="M300.2,153l0.8,0.5l0,3.3l-1.6-0.9l0-1.7l-5.2-3.1l0-8.7l1.6,0.9l0,7.1l2.8,1.7l0-7.1l1.6,0.9L300.2,153z"/>
		<path d="M306.7,158.6l0-5.3l-3.4,3.3l-1.2-0.7l0-8.7l1.6,0.9l0,5.3l3.4-3.3l1.2,0.7l0,8.7L306.7,158.6z"/>
		<path d="M315.3,155l0,8.7l-1.6-0.9l0-3l-0.9-0.5l-1.8,1.9l-1.7-1.1l1.9-2.1c-0.5-0.5-0.9-1.1-1.2-1.8s-0.5-1.3-0.5-1.9
			c0-0.8,0.3-1.3,0.8-1.6c0.5-0.3,1.1-0.2,1.9,0.3L315.3,155z M312.1,157.3l1.6,1l0-2.6l-1.6-1c-0.3-0.2-0.5-0.2-0.8-0.1
			c-0.2,0.1-0.3,0.4-0.3,0.7c0,0.4,0.1,0.7,0.3,1.1C311.6,156.8,311.8,157.1,312.1,157.3z"/>
	</g>
</g>
<g id="XMLID_4_">
	<g id="XMLID_129_">
		<path id="XMLID_2850_" class="st6" d="M149.8,275.4c-1.4-0.8-2.6-0.7-3.7-0.1l0,0l0,0c-3.6,1.7-6.7,12.4-8.5,20.2
			c-0.5,2.4-1.5,3.8-2.6,4.7l0,0l21.6-12.7C154.9,281.8,152.8,277.1,149.8,275.4z"/>
		<g id="XMLID_130_">
			<path id="XMLID_144_" class="st0" d="M155.7,269.5c-5.5-7.4-8.5-22.4-11.3-36.7c-3.1-15.7-7.8-37.3-18-42.9
				c-3.5-1.9-6.4-2.1-8.8-0.7l-39.7,22.9c2.3-1.2,5.1-0.9,8.4,0.9c4.9,2.7,8.4,9,11.2,16.6l0,0c3,8.3,5.1,18,6.7,26.2
				c3.1,15.7,6.5,32.3,13.1,38.7c3.4,3.3,9.5,5.5,9.5,5.5s8.7,5,10.9-4.6c1.8-7.8,4.5-18.8,8.9-20.6L155.7,269.5L155.7,269.5z"/>
			<path id="XMLID_143_" class="st0" d="M73.2,216.8L73.2,216.8L73.2,216.8c-0.4-0.2-1.5-0.8-5.3-2.8c-5.3-2.9-7-3.8-10.5-2.5
				c-3.5,1.4-7.1-0.7-7.1-0.7l-9.5-5.5L0.9,228l9.5,5.5c0,0,3.6,2.1,7.1,0.7c3.5-1.4,5.2-0.4,10.5,2.5s5.3,2.9,5.3,2.9h0.2l14.7,8.5
				c1.8,1,3.5,2.2,5.3,3.3c2.9,2,9.9,4.4,13.3-12.9C68.7,228.6,70.7,221.3,73.2,216.8L73.2,216.8z"/>
			<path id="XMLID_142_" class="st6" d="M86.2,212.8c-2.6-1.4-4.8-1.9-6.8-1.5c-0.6,0.3-1.2,0.5-1.6,0.8c-3,2-4.6,4.4-4.6,4.4l0,0
				c-2.6,4.5-4.6,11.7-6.6,21.7c-1.7,8.5-4.2,12.2-6.7,13.6v0.1l37.3-22.4C94.6,221.8,91.1,215.5,86.2,212.8z"/>
			<path id="XMLID_141_" class="st0" d="M215.5,305.9c-5.8-3.3-11.9-9.3-14.2-21.2c-2.3-11.8-4.9-28.7-11.2-32.3
				c-1.2-0.7-2.3-0.7-3.3-0.3l0,0l-31,17.6l-9.8,5.6l0,0c1.1-0.7,2.4-0.7,3.7,0.1c6.3,3.6,8.9,20.5,11.2,32.3s8.5,17.8,14.2,21.2
				c5.8,3.3,16.2,9.3,16.2,9.3l40.3-23C231.7,315.2,221.3,309.2,215.5,305.9z"/>
			<path id="XMLID_140_" class="st0" d="M57.3,214.1c-3.5,1.4-7.1-0.7-7.1-0.7l-9.5-5.5L3.1,229.2l7.5,4.4c0,0,3.6,2.1,7.1,0.7
				c3.5-1.4,5.2-0.4,10.5,2.5s5.3,2.9,5.3,2.9h0.2l14.7,8.5c1.8,1,3.5,2.2,5.3,3.3c2.9,2,9.9,4.4,13.3-12.9c1.7-8.5,3.4-15,5.5-19.5
				c-0.7-0.4-2-1.1-4.6-2.5C62.5,213.7,60.8,212.7,57.3,214.1z"/>
			<path id="XMLID_139_" class="st0" d="M124.9,193.3c-3.5-1.9-6.4-2.1-8.8-0.7l-32.9,19c0.9,0.3,1.9,0.7,3,1.3
				c4.9,2.7,8.4,9,11.2,16.6c3,8.3,5.1,18,6.7,26.2c3.1,15.7,6.5,32.3,13.1,38.7c3.4,3.3,9.5,5.5,9.5,5.5s6.3,3.6,9.5-1.2
				c1.1-4.6,2.5-10.3,4.4-14.5c1.5-4.5,3.5-8.4,5.9-9.4l6.6-3.7c-4.7-7.9-7.5-21.6-10.1-34.7C139.9,220.5,135.2,198.9,124.9,193.3z"
				/>
			<path id="XMLID_138_" class="st0" d="M160.9,307.7c2.3,11.8,8.5,17.8,14.2,21.2c5.8,3.3,16.2,9.3,16.2,9.3l35.8-20.4
				c-3.5-2-9.4-5.4-13.2-7.6c-5.8-3.3-11.9-9.3-14.2-21.2c-2.3-11.8-4.9-28.7-11.2-32.3c-1.2-0.7-2.3-0.7-3.3-0.3l0,0l-31,17.6
				l-3.6,2C156.3,280.7,158.7,296.5,160.9,307.7z"/>
			<path id="XMLID_131_" class="st6" d="M215.7,305.5c-7.5-4.3-12.2-11.3-14-20.9c-0.2-1.2-0.5-2.4-0.7-3.6
				c-2.2-11.4-4.8-25.6-10.7-29c-1.3-0.7-2.5-0.8-3.7-0.3L156,269.2c-5.6-7.7-8.7-23.6-11.2-36.4c-2.5-13-7.3-37.2-18.3-43.2
				c-3.6-2-6.7-2.2-9.2-0.7l-39.1,22.6c-0.2,0.1-0.4,0.2-0.6,0.3l0,0l0,0l0,0c-2.8,1.8-4.3,4-4.6,4.4l-5-2.7
				c-5.2-2.8-7-3.8-10.6-2.4c-3.2,1.3-6.7-0.6-6.8-0.7l-9.7-5.7L0,228l10.2,5.9c0.2,0.1,3.9,2.1,7.5,0.7c3.2-1.3,4.8-0.4,9.9,2.3
				l5.5,3l14.8,8.5c1.8,1.1,3.6,2.2,5.2,3.3c1.1,0.7,2.6,1.5,4.3,1.5c0.7,0,1.4-0.1,2.2-0.4c0.7-0.3,1.4-0.7,2-1.3L97,230.2
				c2.8,7.8,4.8,17,6.5,25.8c2.8,14.4,6.3,32.3,13.2,39c3.4,3.3,9.4,5.5,9.6,5.6c0.1,0.1,2.4,1.4,5,1.4c0.8,0,1.7-0.1,2.5-0.5
				c0.4-0.2,0.7-0.4,1.2-0.7l21.2-12.5c1.4,5,2.5,10.8,3.5,16c0.2,1.2,0.5,2.5,0.7,3.6c1.9,9.8,6.8,17,14.5,21.4l16.4,9.5l41.2-23.5
				L215.7,305.5z M78,212.5c2.2-1.1,4.8-0.8,8,0.9c4.1,2.2,7.6,7.3,10.8,15.8l-33.4,20.1c1.6-2.4,2.9-6.1,3.8-10.8
				c2.1-10.6,4.1-17.4,6.5-21.5l0.1-0.3l0.2-0.3l0,0C74.4,215.8,75.7,214.1,78,212.5z M53.7,251c-1.7-1.1-3.4-2.3-5.3-3.4l-14.9-8.5
				l0,0l-5.5-2.9c-5.2-2.8-7-3.8-10.6-2.4c-3.3,1.3-6.7-0.6-6.8-0.7L1.8,228l39-22.2l9.3,5.4c0.2,0.1,3.9,2.1,7.5,0.7
				c3.2-1.3,4.8-0.4,9.9,2.3l5.1,2.7c-2.3,4.3-4.2,10.9-6.3,21.1c-1.4,7.2-3.6,11.7-6.4,13.3l-0.4,0.3l0,0c-0.1,0,0,0-0.1,0
				C57.2,252.6,55.1,251.9,53.7,251z M133.7,300.5c-3,1.3-6.7-0.8-6.8-0.9c-0.1,0-6.1-2.2-9.4-5.4c-6.7-6.5-10.2-24.2-13-38.5
				c-1.7-8.9-3.7-18.2-6.5-26.2l0,0l-0.1-0.3c-3.3-9.1-7-14.4-11.4-16.8c-2-1.1-3.7-1.6-5.4-1.7l36.7-21.2c2.3-1.3,5-1.1,8.4,0.7
				c10.6,5.8,15.3,29.7,17.8,42.6c2.5,12.8,5.6,28.7,11.2,36.5l-8.8,5c-4.2,1.7-6.9,10.8-9,19.9c-0.1,0.3-0.2,0.7-0.2,1
				c-0.1,0.3-0.3,1-0.3,1.1c-0.1,0.2-0.1,0.4-0.2,0.5c0,0.1-0.1,0.2-0.1,0.3c-0.1,0.2-0.1,0.3-0.2,0.5c0,0.1-0.1,0.1-0.1,0.2
				c-0.1,0.2-0.4,0.7-0.5,0.8c-0.1,0.1-0.4,0.5-0.5,0.6s-0.2,0.2-0.3,0.3c-0.1,0.1-0.1,0.1-0.2,0.2
				C134.4,300.1,134.1,300.4,133.7,300.5z M156.1,287.3l-19.2,11.3l0,0c0.1-0.1,0.1-0.2,0.2-0.3c0.1-0.2,0.2-0.3,0.2-0.5
				c0-0.1,0.1-0.2,0.1-0.3c0.1-0.2,0.1-0.4,0.2-0.6c0-0.1,0.1-0.2,0.1-0.3c0.1-0.3,0.2-0.6,0.3-0.9c2.6-11.4,5.6-18.6,8.3-19.9
				c0.1-0.1,0.2-0.1,0.3-0.1s0.1-0.1,0.2-0.1c0.1,0,0.1-0.1,0.2-0.1c0.1,0,0.1,0,0.2-0.1c0.1,0,0.3-0.1,0.4-0.1c0.1,0,0.1,0,0.2,0
				c0.1,0,0.3,0,0.4,0c0,0,0.3,0.1,0.4,0.1h0.1c0.1,0,0.4,0.1,0.4,0.2c0.1,0.1,0.2,0.1,0.4,0.2c0,0,0,0,0.1,0
				c0.2,0.1,0.3,0.2,0.5,0.3l0.1,0.1c0.1,0.1,0.2,0.2,0.3,0.3c0.1,0.1,0.1,0.1,0.2,0.2c0.1,0.1,0.2,0.2,0.2,0.2
				c0.1,0.1,0.2,0.2,0.2,0.3c0.1,0.1,0.1,0.1,0.2,0.2c0.1,0.1,0.2,0.2,0.3,0.3c0,0.1,0.1,0.1,0.1,0.2c0.1,0.1,0.2,0.3,0.3,0.4
				l0.1,0.1c0.1,0.2,0.3,0.4,0.4,0.6l0,0C153.9,281,155,283.8,156.1,287.3z M175.4,328.5c-7.5-4.3-12.2-11.3-14-20.9
				c-0.2-1.2-0.5-2.4-0.7-3.6c-1-5.3-2.1-11.1-3.6-16.3l0,0l-0.1-0.3c-1.5-5-3.1-8.5-5-10.6l0,0c-0.1-0.2-0.3-0.3-0.4-0.5l0,0
				c-0.1-0.1-0.3-0.3-0.4-0.4c0,0,0,0-0.1-0.1s-0.3-0.2-0.4-0.4c0,0,0,0-0.1-0.1c-0.2-0.1-0.4-0.2-0.5-0.3c-0.2-0.1-0.5-0.2-0.7-0.3
				c-0.1,0-0.1,0-0.2-0.1c-0.2-0.1-0.4-0.1-0.6-0.2h-0.1l38.5-21.9c0.9-0.4,1.9-0.3,2.9,0.3c5.5,3.2,8.1,17.2,10.3,28.4
				c0.2,1.2,0.5,2.5,0.7,3.6c1.9,9.8,6.8,17,14.5,21.4l15.5,9l-39.4,22.5L175.4,328.5z"/>
		</g>
	</g>
	<g id="XMLID_2824_">
		<g id="XMLID_127_">
			<polygon id="XMLID_128_" points="194.7,312.6 182.2,319.8 180.2,318.7 192.8,311.5 			"/>
		</g>
		<g id="XMLID_125_">
			<polygon id="XMLID_126_" points="180.4,320.9 176.6,323.1 174.6,322 178.4,319.8 			"/>
		</g>
		<g id="XMLID_123_">
			<polygon id="XMLID_124_" points="198.2,314.7 180.1,325.1 178.2,324 196.2,313.5 			"/>
		</g>
		<g id="XMLID_121_">
			<polygon id="XMLID_122_" points="190.8,322.9 183.5,327.1 181.5,326 188.9,321.8 			"/>
		</g>
	</g>
	<g id="XMLID_95_">
		<path id="XMLID_2821_" d="M192,330.9c-0.7,0.4-1.5,0.3-2.3-0.1c-0.8-0.5-0.9-0.9-0.2-1.3s1.5-0.3,2.3,0.1
			C192.6,330.1,192.7,330.5,192,330.9z M189.7,329.6c-0.5,0.3-0.4,0.7,0.2,1c0.6,0.4,1.3,0.5,1.8,0.1c0.5-0.3,0.4-0.7-0.2-1
			C190.9,329.4,190.3,329.3,189.7,329.6z"/>
		<path id="XMLID_119_" d="M194.3,329.6c-0.7,0.4-1.5,0.3-2.3-0.1c-0.8-0.5-0.9-0.9-0.2-1.3s1.5-0.3,2.3,0.1
			C194.9,328.7,195,329.2,194.3,329.6z M192,328.3c-0.5,0.3-0.4,0.7,0.2,1c0.6,0.4,1.3,0.5,1.8,0.1c0.5-0.3,0.4-0.7-0.2-1
			C193.2,328,192.6,328,192,328.3z"/>
		<path id="XMLID_116_" d="M196.6,328.3c-0.7,0.4-1.5,0.3-2.3-0.1c-0.8-0.5-0.9-0.9-0.2-1.3s1.5-0.3,2.3,0.1
			C197.2,327.4,197.3,327.9,196.6,328.3z M194.3,326.9c-0.5,0.3-0.4,0.7,0.2,1c0.6,0.4,1.3,0.5,1.8,0.1c0.5-0.3,0.4-0.7-0.2-1
			C195.5,326.7,194.9,326.6,194.3,326.9z"/>
		<path id="XMLID_113_" d="M198.9,326.9c-0.7,0.4-1.5,0.3-2.3-0.1c-0.8-0.5-0.9-0.9-0.2-1.3s1.5-0.3,2.3,0.1
			C199.5,326.1,199.6,326.5,198.9,326.9z M196.6,325.6c-0.5,0.3-0.4,0.7,0.2,1c0.6,0.4,1.3,0.5,1.8,0.1c0.5-0.3,0.4-0.7-0.2-1
			C197.8,325.4,197.2,325.3,196.6,325.6z"/>
		<path id="XMLID_110_" d="M201.2,325.6c-0.7,0.4-1.5,0.3-2.3-0.1c-0.8-0.5-0.9-0.9-0.2-1.3s1.5-0.3,2.3,0.1
			S201.9,325.2,201.2,325.6z M198.9,324.3c-0.5,0.3-0.4,0.7,0.2,1c0.6,0.4,1.3,0.5,1.8,0.1c0.5-0.3,0.4-0.7-0.2-1
			S199.5,324,198.9,324.3z"/>
		<path id="XMLID_107_" d="M203.5,324.3c-0.7,0.4-1.5,0.3-2.3-0.1c-0.8-0.5-0.9-0.9-0.2-1.3s1.5-0.3,2.3,0.1
			S204.2,323.9,203.5,324.3z M201.2,322.9c-0.5,0.3-0.4,0.7,0.2,1c0.6,0.4,1.3,0.5,1.8,0.1c0.5-0.3,0.4-0.7-0.2-1
			C202.4,322.7,201.8,322.6,201.2,322.9z"/>
		<path id="XMLID_104_" d="M206.9,322.3c-0.7,0.4-1.5,0.3-2.3-0.1c-0.8-0.5-0.9-0.9-0.2-1.3s1.5-0.3,2.3,0.1
			C207.4,321.5,207.6,321.9,206.9,322.3z M204.6,321c-0.5,0.3-0.4,0.7,0.2,1c0.6,0.4,1.3,0.5,1.8,0.1c0.5-0.3,0.4-0.7-0.2-1
			C205.7,320.8,205.1,320.7,204.6,321z"/>
		<path id="XMLID_101_" d="M209.2,321c-0.7,0.4-1.5,0.3-2.3-0.1c-0.8-0.5-0.9-0.9-0.2-1.3s1.5-0.3,2.3,0.1
			C209.7,320.1,209.9,320.6,209.2,321z M206.9,319.7c-0.5,0.3-0.4,0.7,0.2,1c0.6,0.4,1.3,0.5,1.8,0.1c0.5-0.3,0.4-0.7-0.2-1
			C208.1,319.5,207.4,319.4,206.9,319.7z"/>
		<path id="XMLID_98_" d="M211.5,319.7c-0.7,0.4-1.5,0.3-2.3-0.1c-0.8-0.5-0.9-0.9-0.2-1.3s1.5-0.3,2.3,0.1
			C212,318.8,212.2,319.3,211.5,319.7z M209.2,318.4c-0.5,0.3-0.4,0.7,0.2,1c0.6,0.4,1.3,0.5,1.8,0.1c0.5-0.3,0.4-0.7-0.2-1
			C210.4,318.1,209.7,318,209.2,318.4z"/>
		<path id="XMLID_96_" d="M214.1,318.1c-0.1,0-0.1,0-0.2,0l-2.1-1.2l-0.2,0.1c-0.1,0-0.2,0-0.2,0l0,0c-0.1,0-0.1-0.1,0-0.1l0.3-0.2
			c0.1,0,0.1,0,0.2,0l2.2,1.3C214.2,318,214.2,318,214.1,318.1L214.1,318.1z"/>
	</g>
	<g id="XMLID_93_">
		<polygon id="XMLID_94_" points="30.2,219.1 12.1,229.5 10.2,228.4 28.2,217.9 		"/>
	</g>
	<g id="XMLID_91_">
		<polygon id="XMLID_92_" points="37.1,215.1 32,218 30,216.9 35.1,214 		"/>
	</g>
	<g id="XMLID_89_">
		<polygon id="XMLID_90_" points="22.8,227.3 15.5,231.5 13.5,230.4 20.9,226.2 		"/>
	</g>
	<g id="XMLID_87_">
		<polygon id="XMLID_88_" points="40.5,217.1 24.6,226.3 22.7,225.1 38.5,216 		"/>
	</g>
	<g id="XMLID_85_">
		<polygon id="XMLID_86_" points="50.4,223.4 37.9,230.6 35.9,229.5 48.5,222.3 		"/>
	</g>
	<g id="XMLID_83_">
		<polygon id="XMLID_84_" points="36.1,231.7 32.3,233.9 30.3,232.8 34.1,230.6 		"/>
	</g>
	<g id="XMLID_81_">
		<polygon id="XMLID_82_" points="53.9,225.5 35.8,235.9 33.8,234.8 51.9,224.4 		"/>
	</g>
	<g id="XMLID_79_">
		<polygon id="XMLID_80_" points="46.8,237.8 43,240 41,238.9 44.8,236.7 		"/>
	</g>
	<g id="XMLID_77_">
		<polygon id="XMLID_78_" points="56.5,236.2 46.5,242 44.5,240.9 54.5,235.1 		"/>
	</g>
	<g id="XMLID_75_">
		<polygon id="XMLID_76_" points="46.5,233.7 39.2,238 37.2,236.8 44.5,232.6 		"/>
	</g>
	<g id="XMLID_73_">
		<polygon id="XMLID_74_" points="64.2,223.5 48.3,232.7 46.4,231.5 62.2,222.4 		"/>
	</g>
	<g id="XMLID_71_">
		<polygon id="XMLID_72_" points="101.7,227.7 101,225.2 130.4,208.5 131,211 		"/>
	</g>
	<g id="XMLID_69_">
		<polygon id="XMLID_70_" points="103.3,232.4 102.6,229.9 111.3,224.9 112,227.4 		"/>
	</g>
	<g id="XMLID_67_">
		<polygon id="XMLID_68_" points="114.8,225.8 114.2,223.3 131.7,213.5 132.3,216 		"/>
	</g>
	<g id="XMLID_65_">
		<polygon id="XMLID_66_" points="104.5,237.3 103.8,234.8 121.3,225 121.9,227.5 		"/>
	</g>
	<g id="XMLID_63_">
		<polygon id="XMLID_64_" points="105.8,242.2 105.1,239.7 110,236.9 110.7,239.4 		"/>
	</g>
	<g id="XMLID_61_">
		<polygon id="XMLID_62_" points="112.8,238.1 112.2,235.5 128.4,226.5 129,229.1 		"/>
	</g>
	<g id="XMLID_58_">
		<polygon id="XMLID_60_" points="109.5,261.5 108.8,258.8 136.9,242.8 137.6,245.4 		"/>
	</g>
	<g id="XMLID_56_">
		<polygon id="XMLID_57_" points="110.3,266.4 109.6,263.7 117.9,259 118.6,261.6 		"/>
	</g>
	<g id="XMLID_54_">
		<polygon id="XMLID_55_" points="121.3,260.1 120.7,257.4 137.4,248 138,250.7 		"/>
	</g>
	<g id="XMLID_52_">
		<polygon id="XMLID_53_" points="159.1,281.1 158.3,278.7 166.9,273.9 167.6,276.3 		"/>
	</g>
	<g id="XMLID_44_">
		<polygon id="XMLID_49_" points="170.5,274.7 169.7,272.2 186.9,262.6 187.6,265 		"/>
	</g>
	<g id="XMLID_5_">
		<polygon id="XMLID_2851_" points="160.6,285.9 159.9,283.4 177.1,273.8 177.8,276.2 		"/>
	</g>
</g>
<g id="XMLID_34_">
	<g id="XMLID_1357_">
		<g id="XMLID_1888_">
			<path id="XMLID_1896_" class="st0" d="M81.3,304.7c-3.7-6.3-13.4-10.8-24.9-10.8s-21.2,4.5-24.9,10.8H30v5.5
				c0,9,11.8,16.3,26.5,16.3c14.6,0,26.5-7.3,26.5-16.3v-5.5H81.3z"/>
			<path id="XMLID_1889_" class="st6" d="M56.4,327c-14.8,0-26.9-7.5-26.9-16.8v-5.9h1.8c3.9-6.5,14-10.8,25.1-10.8
				s21.2,4.3,25.1,10.8h1.8v5.9C83.3,319.5,71.2,327,56.4,327z M30.4,305.1v5.1c0,8.8,11.7,15.9,26,15.9c14.4,0,26-7.1,26-15.9v-5.1
				H81l-0.1-0.2c-3.7-6.4-13.5-10.6-24.5-10.6s-20.8,4.3-24.5,10.6l-0.1,0.2H30.4z"/>
		</g>
		<g id="XMLID_1882_">
			<ellipse id="XMLID_1887_" class="st2" cx="56.4" cy="304.7" rx="26.5" ry="16.3"/>
			<ellipse id="XMLID_1886_" class="st0" cx="56.4" cy="306" rx="26.5" ry="16.3"/>
			<path id="XMLID_1883_" class="st6" d="M56.4,321.5c-14.8,0-26.9-7.5-26.9-16.8c0-9.2,12.1-16.8,26.9-16.8s26.9,7.5,26.9,16.8
				S71.2,321.5,56.4,321.5z M56.4,288.8c-14.4,0-26,7.1-26,15.9s11.7,15.9,26,15.9c14.4,0,26-7.1,26-15.9
				C82.5,295.9,70.8,288.8,56.4,288.8z"/>
		</g>
		<g id="XMLID_1719_">
			<ellipse id="XMLID_1825_" class="st2" cx="56.4" cy="304" rx="21.1" ry="12.3"/>
			<path id="XMLID_1720_" class="st6" d="M56.4,316.7c-11.9,0-21.5-5.7-21.5-12.7s9.7-12.7,21.5-12.7C68.3,291.3,78,297,78,304
				S68.3,316.7,56.4,316.7z M56.4,292.1c-11.4,0-20.7,5.3-20.7,11.9s9.3,11.9,20.7,11.9s20.7-5.3,20.7-11.9S67.8,292.1,56.4,292.1z"
				/>
		</g>
		<g id="XMLID_1714_">
			<path id="XMLID_1718_" class="st2" d="M56.4,291.7c-11.7,0-21.1,5.5-21.1,12.3c0,0.6,0.1,1.2,0.2,1.8
				c1.5-5.9,10.3-10.5,20.9-10.5s19.4,4.6,20.9,10.5c0.1-0.6,0.2-1.2,0.2-1.8C77.6,297.2,68.1,291.7,56.4,291.7z"/>
			<path id="XMLID_1715_" class="st6" d="M77.1,306.7l-0.2-0.8c-1.5-5.8-10.3-10.2-20.5-10.2s-19,4.4-20.5,10.2l-0.2,0.9l-0.6-0.9
				c-0.2-0.7-0.3-1.3-0.3-1.9c0-7,9.7-12.7,21.5-12.7c12,0,21.7,5.7,21.7,12.7c0,0.6-0.1,1.2-0.3,1.9L77.1,306.7z M56.4,292.1
				c-11.4,0-20.7,5.3-20.7,11.9c0,0,0,0,0,0.1c2.6-5.4,10.9-9.2,20.7-9.2s18.1,3.8,20.7,9.2c0,0,0,0,0-0.1
				C77.1,297.4,67.8,292.1,56.4,292.1z"/>
		</g>
		<polygon id="XMLID_1713_" class="st7" points="52.9,292 52.9,295.4 47,296.6 41.2,299 37,302.7 35.6,305.8 35.3,302.7 37.1,299 
			40.3,296.1 45.5,293.5 51.9,292 		"/>
		<g id="XMLID_1365_">
			<g id="XMLID_1403_">
				<path id="XMLID_1581_" class="st2" d="M67.7,310.2c0.8-0.8,1.2-1.6,1.3-2.4l0,0v-2.4l-1.6-0.7c-0.3-0.3-0.7-0.5-1.1-0.7
					c-1.5-0.8-3.1-1.3-4.8-1.3c-1.7-0.1-4,0.4-6.7,1.3l-5.4-3c1.3-0.3,2.5-0.2,3.8,0.3l3-2.3v-2.2l-3.8,1.3l0,0c-0.4,0-0.8,0-1.1,0
					c-1.7,0-3.3,0.4-4.9,1.2l-0.7-0.4l0.3-0.2v-1l-2.9-0.2v3.4l0.9-0.7l0.4,0.2c-0.4,0.3-0.8,0.7-1.1,1c-0.5-0.2-0.9-0.3-0.9-0.3
					v2.5c0.1,1.1,0.9,2.1,2.4,2.9s3.2,1.3,5,1.4c1.9,0.1,3.9-0.2,6.2-1l5.7,3.2c-0.7,0.2-1.5,0.2-2.5,0.1c-0.6,0-1.2-0.1-1.7-0.3
					l0.1-0.5l-4.2,0.3v2.2c2.1,0.8,4.1,1.3,6,1.2c2,0,3.8-0.4,5.6-1.3l2.5,1.4l2-1.2v-2.2L67.7,310.2z M49.8,305
					c-0.7-0.1-1.3-0.2-1.8-0.5s-0.9-0.7-1-1.1s0-0.9,0.3-1.3l4.7,2.7C51.3,305,50.5,305.1,49.8,305z M64,309.1l-5.4-3
					c1-0.3,2-0.5,2.8-0.5s1.5,0.2,2.1,0.6c0.7,0.4,1.1,0.8,1.2,1.4C64.7,308.2,64.5,308.7,64,309.1z"/>
				<path id="XMLID_1422_" class="st6" d="M67.6,313.9l-2.5-1.4c-1.7,0.8-3.6,1.2-5.5,1.2c-2,0-4.1-0.4-6.2-1.3l-0.3-0.1v-2.9
					l5.2-0.4l-0.2,0.6c0.4,0.1,0.8,0.2,1.2,0.2s0.8,0,1.1,0l-4.5-2.5c-2.2,0.7-4.3,1.1-6.2,1s-3.7-0.6-5.2-1.4
					c-1.6-0.9-2.5-2-2.6-3.3V301l0.6-0.3V297l3.7,0.2v1.5c1.6-0.7,3.2-1.1,4.9-1.1c0.3,0,0.7,0,1,0l4.3-1.5v3l-3.3,2.6l-0.2-0.1
					c-0.8-0.3-1.6-0.4-2.3-0.4l4.1,2.3c2.7-0.9,5-1.4,6.7-1.3c1.8,0.1,3.5,0.5,5,1.4c0.4,0.2,0.8,0.5,1.1,0.7l1.8,0.7v2.6l-0.1,0.6
					c-0.1,0.5-0.3,0.9-0.7,1.4l1.3-0.1v2.9L67.6,313.9z M65.1,311.6l2.5,1.4l1.5-0.9v-1.5l-2.5,0.1l0.8-0.8c0.7-0.7,1.1-1.4,1.2-2.2
					v-0.6v-1.4l-1.4-0.6c-0.3-0.2-0.7-0.5-1.1-0.7c-1.4-0.8-3-1.2-4.6-1.3c-1.7-0.1-3.9,0.4-6.6,1.3l-0.2,0.1l-6.5-3.6l1-0.3
					c1.3-0.3,2.5-0.2,3.8,0.2l2.6-2v-1.4l-2.8,1l0.1,0.2h-0.7c-0.4,0-0.7,0-1.1,0c-1.6,0-3.2,0.4-4.7,1.2l-0.2,0.1l-1.4-0.8l0.6-0.5
					v-0.4l-1.9,0.3l-0.2,1.7l0.5-0.4l1.2,0.7l-0.5,0.4c-0.4,0.3-0.7,0.6-1,0.9l-0.2,0.2l-0.6-0.2v1.9c0.1,0.9,0.8,1.8,2.2,2.6
					c1.4,0.8,3,1.2,4.8,1.3c1.8,0.1,3.8-0.2,6-1l0.2-0.1l6.9,3.8l-1.1,0.2c-0.8,0.2-1.6,0.2-2.6,0.2c-0.6,0-1.1-0.1-1.8-0.3
					l-0.4-0.1L57,310l-3.2,0.3v1.5c1.9,0.7,3.8,1.1,5.6,1.1c1.9,0,3.7-0.4,5.4-1.2L65.1,311.6z M64,309.7l-6.4-3.6l0.9-0.3
					c1.1-0.4,2.1-0.5,2.9-0.5c0.9,0,1.6,0.2,2.3,0.6c0.8,0.4,1.3,1,1.4,1.7s-0.2,1.3-0.8,1.9L64,309.7z M59.7,306.3l4.2,2.3
					c0.3-0.3,0.4-0.6,0.3-0.9c-0.1-0.4-0.4-0.8-0.9-1.1c-0.6-0.3-1.2-0.5-1.9-0.5C60.9,306.1,60.3,306.1,59.7,306.3z M50.3,305.5
					c-0.2,0-0.4,0-0.5,0l0,0c-0.8-0.1-1.4-0.3-2-0.5c-0.6-0.4-1-0.8-1.2-1.3c-0.1-0.4-0.1-1,0.4-1.7l0.2-0.3l6,3.3l-1,0.3
					C51.6,305.4,50.9,305.5,50.3,305.5z M49.9,304.6c0.3,0,0.7,0,1,0l-3.4-1.9c-0.1,0.3-0.1,0.5-0.1,0.6c0.1,0.3,0.4,0.6,0.8,0.8
					C48.7,304.4,49.2,304.5,49.9,304.6L49.9,304.6z"/>
			</g>
			<g id="XMLID_1366_">
				<g id="XMLID_1367_">
					<path id="XMLID_1394_" class="st2" d="M61.8,308l-5.7-3.2c-2.3,0.8-4.3,1.1-6.2,1s-3.5-0.5-5-1.4c-1.5-0.8-2.3-1.8-2.4-2.9
						c-0.1-1.1,0.6-2.2,1.9-3.2l-1.4-0.8l2-1.2l1.4,0.8c1.6-0.8,3.2-1.2,4.9-1.2s3.3,0.2,4.9,0.9l-3,2.3c-1.3-0.5-2.6-0.6-3.8-0.3
						l5.4,3c2.7-1,5-1.4,6.7-1.3s3.3,0.5,4.8,1.3c1.7,0.9,2.6,2,2.7,3.2c0.2,1.2-0.5,2.4-2,3.6l2.6,1.4l-2,1.2l-2.5-1.4
						c-1.7,0.8-3.6,1.2-5.6,1.3c-2,0-4-0.4-6-1.2l3.1-2.3c0.9,0.3,1.8,0.5,2.7,0.6C60.3,308.2,61.1,308.2,61.8,308z M47.4,300
						c-0.3,0.4-0.5,0.8-0.3,1.3c0.1,0.4,0.5,0.8,1,1.1c0.5,0.3,1.1,0.4,1.8,0.5s1.5,0,2.3-0.2L47.4,300z M64,307
						c0.5-0.5,0.8-1,0.7-1.5c-0.1-0.5-0.5-1-1.2-1.4c-0.6-0.3-1.3-0.5-2.1-0.6c-0.8,0-1.7,0.1-2.8,0.5L64,307z"/>
					<path id="XMLID_1385_" class="st0" d="M61.7,309l-5.7-3.2c-2.3,0.8-4.3,1.1-6.2,1s-3.5-0.5-5-1.4c-1.5-0.8-2-1.8-2-2.9
						c-0.1-1.1,0.2-2.2,1.6-3.3l-0.6-1l1.2-1l1.4,0.8c1.6-0.8,3.2-1.2,4.9-1.2s3,0.5,4.6,1.1l-2.7,2.1c-1.3-0.5-2.6-0.6-3.8-0.3
						l5.4,3c2.7-1,5-1.4,6.7-1.3s3.3,0.5,4.8,1.3c1.7,0.9,2.6,2,2.7,3.2c0.2,1.2-0.5,2.4-2,3.6l2.3,1.6l-1.7,1l-2.5-1.4
						c-1.7,0.8-3.6,1.2-5.6,1.3c-2,0-3.5-0.2-5.6-1.1l2.7-2.5c0.9,0.3,1.8,0.5,2.7,0.6C60.1,309.2,61,309.2,61.7,309z M47.3,301
						c-0.3,0.4-0.5,0.8-0.3,1.3c0.1,0.4,0.5,0.8,1,1.1c0.5,0.3,1.1,0.4,1.8,0.5s1.5,0,2.3-0.2L47.3,301z M63.8,308
						c0.5-0.5,0.8-1,0.7-1.5s-0.5-1-1.2-1.4c-0.6-0.3-1.3-0.5-2.1-0.6c-0.8,0-1.7,0.1-2.8,0.5L63.8,308z"/>
					<path id="XMLID_1373_" class="st6" d="M67.6,311.7l-2.5-1.4c-1.7,0.8-3.6,1.2-5.5,1.2c-2,0-4.1-0.4-6.2-1.3l-0.3-0.1v-0.7
						l1.2-0.7l2.3-1.7l0.2,0.1c0.8,0.3,1.7,0.5,2.6,0.6c0.4,0,0.8,0,1.1,0l-4.5-2.5c-2.2,0.7-4.3,1.1-6.2,1s-3.7-0.6-5.2-1.4
						c-1.6-0.9-2.5-2-2.6-3.3c-0.1-1.1,0.4-2.2,1.6-3.2l-1.4-0.8l2.8-1.7l1.4,0.8c1.6-0.7,3.2-1.1,4.9-1.1s3.7,0.1,5.3,0.7l0,0v0.8
						l-3.3,2.6l-0.2-0.1c-0.8-0.3-1.6-0.4-2.3-0.4l4.1,2.3c2.7-0.9,5-1.4,6.7-1.3c1.8,0.1,3.5,0.5,5,1.4c1.8,1,2.8,2.2,2.9,3.5
						c0.2,1.2-0.4,2.4-1.7,3.6l2.2,1.1v0.7L67.6,311.7z M65.1,309.4l2.5,1.4l1.3-0.8l-2.6-1.3l0.5-0.4c1.4-1.1,2-2.2,1.9-3.2
						c-0.1-1.1-1-2-2.5-2.9c-1.4-0.8-3-1.2-4.6-1.3c-1.7-0.1-3.9,0.4-6.6,1.3l-0.2,0.1l-6.5-3.6l1-0.3c1.3-0.3,2.5-0.2,3.8,0.2
						l2.3-1.8c-1.3-0.4-2.8-0.5-4.2-0.4c-1.6,0-3.2,0.4-4.7,1.2l-0.2,0.1L45,297l-1.1,0.7l1.3,0.7l-0.5,0.4
						c-1.3,0.9-1.8,1.9-1.8,2.8c0.1,1,0.8,1.8,2.2,2.6c1.4,0.8,3,1.2,4.8,1.3c1.8,0.1,3.8-0.2,6-1l0.2-0.1l6.9,3.8l-1.1,0.2
						c-0.8,0.2-1.6,0.2-2.6,0.2c-0.9-0.1-1.8-0.2-2.6-0.5l-2.3,1.7c1.8,0.6,3.5,1,5.2,0.9c1.9,0,3.7-0.4,5.4-1.2L65.1,309.4z
						 M64,307.5l-6.4-3.6l0.9-0.3c1.1-0.4,2.1-0.5,2.9-0.5c0.9,0,1.6,0.2,2.3,0.6c0.8,0.4,1.3,1,1.4,1.7s-0.2,1.3-0.8,1.9L64,307.5z
						 M59.7,304.1l4.2,2.3c0.3-0.3,0.4-0.6,0.3-0.9c-0.1-0.4-0.4-0.8-0.9-1.1c-0.6-0.3-1.2-0.5-1.9-0.5
						C60.9,303.9,60.3,304,59.7,304.1z M50.3,303.3c-0.2,0-0.4,0-0.5,0c-0.8-0.1-1.4-0.3-2-0.5c-0.6-0.4-1-0.8-1.2-1.3
						c-0.1-0.4-0.1-1,0.4-1.7l0.2-0.3l6,3.3l-1,0.3C51.6,303.2,50.9,303.3,50.3,303.3z M47.5,300.5c-0.1,0.3-0.1,0.5-0.1,0.6
						c0.1,0.3,0.4,0.6,0.8,0.8c0.4,0.2,1,0.4,1.6,0.4c0.3,0,0.7,0,1,0L47.5,300.5z"/>
				</g>
			</g>
		</g>
		<polygon id="XMLID_1364_" class="st6" points="59.4,321 59.4,326.6 65.7,325.5 71.7,323.8 78,319.8 81.8,315 82.9,311.7 
			82.8,307.4 79.8,312.9 73.9,317 65.1,320.2 		"/>
		<polygon id="XMLID_1358_" class="st6" points="55.5,321.1 55.5,326.6 52.9,326.4 52.9,320.6 		"/>
	</g>
	<g id="XMLID_35_">
		<g id="XMLID_1347_">
			<path id="XMLID_1356_" class="st0" d="M81.3,296.7c-3.7-6.3-13.4-10.8-24.9-10.8s-21.2,4.5-24.9,10.8H30v5.5
				c0,9,11.8,16.3,26.5,16.3S83,311.2,83,302.2v-5.5H81.3z"/>
			<path id="XMLID_1348_" class="st6" d="M56.4,319c-14.8,0-26.9-7.5-26.9-16.8v-5.9h1.8c3.9-6.5,14-10.8,25.1-10.8
				s21.2,4.3,25.1,10.8h1.8v5.9C83.3,311.4,71.2,319,56.4,319z M30.4,297.1v5.1c0,8.8,11.7,15.9,26,15.9c14.4,0,26-7.1,26-15.9v-5.1
				H81l-0.1-0.2c-3.7-6.4-13.5-10.6-24.5-10.6s-20.8,4.3-24.5,10.6l-0.1,0.2H30.4z"/>
		</g>
		<g id="XMLID_1325_">
			<ellipse id="XMLID_1341_" class="st0" cx="56.4" cy="296.7" rx="26.5" ry="16.3"/>
			<ellipse id="XMLID_1340_" class="st0" cx="56.4" cy="298" rx="26.5" ry="16.3"/>
			<path id="XMLID_1332_" class="st6" d="M56.4,313.5c-14.8,0-26.9-7.5-26.9-16.8c0-9.2,12.1-16.8,26.9-16.8s26.9,7.5,26.9,16.8
				C83.3,305.9,71.2,313.5,56.4,313.5z M56.4,280.8c-14.4,0-26,7.1-26,15.9s11.7,15.9,26,15.9c14.4,0,26-7.1,26-15.9
				C82.5,287.9,70.8,280.8,56.4,280.8z"/>
		</g>
		<g id="XMLID_1203_">
			<ellipse id="XMLID_1324_" class="st0" cx="56.4" cy="296" rx="21.1" ry="12.3"/>
			<path id="XMLID_1205_" class="st6" d="M56.4,308.7c-11.9,0-21.5-5.7-21.5-12.7s9.7-12.7,21.5-12.7c11.9,0,21.5,5.7,21.5,12.7
				C78,303,68.3,308.7,56.4,308.7z M56.4,284.1c-11.4,0-20.7,5.3-20.7,11.9c0,6.5,9.3,11.9,20.7,11.9s20.7-5.3,20.7-11.9
				C77.1,289.4,67.8,284.1,56.4,284.1z"/>
		</g>
		<g id="XMLID_1198_">
			<path id="XMLID_1202_" class="st0" d="M56.4,283.7c-11.7,0-21.1,5.5-21.1,12.3c0,0.6,0.1,1.2,0.2,1.8
				c1.5-5.9,10.3-10.5,20.9-10.5s19.4,4.6,20.9,10.5c0.1-0.6,0.2-1.2,0.2-1.8C77.6,289.2,68.1,283.7,56.4,283.7z"/>
			<path id="XMLID_1199_" class="st6" d="M77.1,298.6l-0.2-0.8c-1.5-5.8-10.3-10.2-20.5-10.2s-19,4.4-20.5,10.2l-0.2,0.9l-0.6-0.9
				c-0.2-0.7-0.3-1.3-0.3-1.9c0-7,9.7-12.7,21.5-12.7c11.9,0,21.5,5.7,21.5,12.7c0,0.6-0.1,1.2-0.3,1.9L77.1,298.6z M56.4,284.1
				c-11.4,0-20.7,5.3-20.7,11.9c0,0,0,0,0,0.1c2.6-5.4,10.9-9.2,20.7-9.2s18.1,3.8,20.7,9.2c0,0,0,0,0-0.1
				C77.1,289.4,67.8,284.1,56.4,284.1z"/>
		</g>
		<polygon id="XMLID_1182_" class="st7" points="52.9,283.9 52.9,287.4 47,288.5 41.2,291 37,294.7 35.6,297.7 35.3,294.7 37.1,291 
			40.3,288 45.5,285.4 51.9,283.9 		"/>
		<g id="XMLID_38_">
			<g id="XMLID_1170_">
				<path id="XMLID_1178_" class="st2" d="M67.7,302.1c0.8-0.8,1.2-1.6,1.3-2.4l0,0v-2.4l-1.6-0.7c-0.3-0.3-0.7-0.5-1.1-0.7
					c-1.5-0.8-3.1-1.3-4.8-1.3c-1.7-0.1-4,0.4-6.7,1.3l-5.4-3c1.3-0.3,2.5-0.2,3.8,0.3l3-2.3v-2.2l-3.8,1.3l0,0c-0.4,0-0.8,0-1.1,0
					c-1.7,0-3.3,0.4-4.9,1.2l-0.7-0.4l0.3-0.2v-1l-2.9-0.2v3.4l0.9-0.7l0.4,0.2c-0.4,0.3-0.8,0.7-1.1,1c-0.5-0.2-0.9-0.3-0.9-0.3
					v2.5c0.1,1.1,0.9,2.1,2.4,2.9s3.2,1.3,5,1.4c1.9,0.1,3.9-0.2,6.2-1l5.7,3.2c-0.7,0.2-1.5,0.2-2.5,0.1c-0.6,0-1.2-0.1-1.7-0.3
					l0.1-0.5l-4.2,0.3v2.2c2.1,0.8,4.1,1.3,6,1.2c2,0,3.8-0.4,5.6-1.3l2.5,1.4l2-1.2v-2.2L67.7,302.1z M49.8,297
					c-0.7-0.1-1.3-0.2-1.8-0.5s-0.9-0.7-1-1.1s0-0.9,0.3-1.3l4.7,2.7C51.3,297,50.5,297.1,49.8,297z M64,301.1l-5.4-3
					c1-0.3,2-0.5,2.8-0.5s1.5,0.2,2.1,0.6c0.7,0.4,1.1,0.8,1.2,1.4C64.7,300.1,64.5,300.6,64,301.1z"/>
				<path id="XMLID_1171_" class="st6" d="M67.6,305.9l-2.5-1.4c-1.7,0.8-3.6,1.2-5.5,1.2c-2,0-4.1-0.4-6.2-1.3l-0.3-0.1v-2.9
					l5.2-0.4l-0.2,0.6c0.4,0.1,0.8,0.2,1.2,0.2s0.8,0,1.1,0l-4.5-2.5c-2.2,0.7-4.3,1.1-6.2,1s-3.7-0.6-5.2-1.4
					c-1.6-0.9-2.5-2-2.6-3.3V293l0.6-0.3V289l3.7,0.2v1.5c1.6-0.7,3.2-1.1,4.9-1.1c0.3,0,0.7,0,1,0l4.3-1.5v3l-3.3,2.6l-0.2-0.1
					c-0.8-0.3-1.6-0.4-2.3-0.4l4.1,2.3c2.7-0.9,5-1.4,6.7-1.3c1.8,0.1,3.5,0.5,5,1.4c0.4,0.2,0.8,0.5,1.1,0.7l1.8,0.7v2.6l-0.1,0.6
					c-0.1,0.5-0.3,0.9-0.7,1.4l1.3-0.1v2.9L67.6,305.9z M65.1,303.5l2.5,1.4l1.5-0.9v-1.5l-2.5,0.1l0.8-0.8c0.7-0.7,1.1-1.4,1.2-2.2
					V299v-1.4l-1.4-0.6c-0.3-0.2-0.7-0.5-1.1-0.7c-1.4-0.8-3-1.2-4.6-1.3c-1.7-0.1-3.9,0.4-6.6,1.3l-0.2,0.1l-6.5-3.6l1-0.3
					c1.3-0.3,2.5-0.2,3.8,0.2l2.6-2v-1.4l-2.8,1l0.1,0.2h-0.7c-0.4,0-0.7,0-1.1,0c-1.6,0-3.2,0.4-4.7,1.2l-0.2,0.1l-1.4-0.8l0.6-0.5
					v-0.4l-1.9,0.3l-0.2,1.7l0.5-0.4l1.2,0.7l-0.5,0.4c-0.4,0.3-0.7,0.6-1,0.9l-0.2,0.2l-0.6-0.2v1.9c0.1,0.9,0.8,1.8,2.2,2.6
					c1.4,0.8,3,1.2,4.8,1.3c1.8,0.1,3.8-0.2,6-1l0.2-0.1l6.9,3.8l-1.1,0.2c-0.8,0.2-1.6,0.2-2.6,0.2c-0.6,0-1.1-0.1-1.8-0.3
					l-0.4-0.1l0.1-0.3l-3.2,0.2v1.5c1.9,0.7,3.8,1.1,5.6,1.1c1.9,0,3.7-0.4,5.4-1.2L65.1,303.5z M64,301.6l-6.4-3.6l0.9-0.3
					c1.1-0.4,2.1-0.5,2.9-0.5c0.9,0,1.6,0.2,2.3,0.6c0.8,0.4,1.3,1,1.4,1.7s-0.2,1.3-0.8,1.9L64,301.6z M59.7,298.3l4.2,2.3
					c0.3-0.3,0.4-0.6,0.3-0.9c-0.1-0.4-0.4-0.8-0.9-1.1c-0.6-0.3-1.2-0.5-1.9-0.5C60.9,298.1,60.3,298.1,59.7,298.3z M50.3,297.4
					c-0.2,0-0.4,0-0.5,0l0,0c-0.8-0.1-1.4-0.3-2-0.5c-0.6-0.4-1-0.8-1.2-1.3c-0.1-0.4-0.1-1,0.4-1.7l0.2-0.3l6,3.3l-1,0.3
					C51.6,297.4,50.9,297.4,50.3,297.4z M49.9,296.6c0.3,0,0.7,0,1,0l-3.4-1.9c-0.1,0.3-0.1,0.5-0.1,0.6c0.1,0.3,0.4,0.6,0.8,0.8
					C48.7,296.4,49.2,296.5,49.9,296.6L49.9,296.6z"/>
			</g>
			<g id="XMLID_39_">
				<g id="XMLID_40_">
					<path id="XMLID_1163_" class="st0" d="M61.8,300l-5.7-3.2c-2.3,0.8-4.3,1.1-6.2,1s-3.5-0.5-5-1.4c-1.5-0.8-2.3-1.8-2.4-2.9
						c-0.1-1.1,0.6-2.2,1.9-3.2l-1.4-0.8l2-1.2l1.4,0.8c1.6-0.8,3.2-1.2,4.9-1.2s3.3,0.2,4.9,0.9l-3,2.3c-1.3-0.5-2.6-0.6-3.8-0.3
						l5.4,3c2.7-1,5-1.4,6.7-1.3s3.3,0.5,4.8,1.3c1.7,0.9,2.6,2,2.7,3.2c0.2,1.2-0.5,2.4-2,3.6l2.6,1.4l-2,1.2l-2.5-1.4
						c-1.7,0.8-3.6,1.2-5.6,1.3c-2,0-4-0.4-6-1.2l3.1-2.3c0.9,0.3,1.8,0.5,2.7,0.6C60.3,300.2,61.1,300.1,61.8,300z M47.4,292
						c-0.3,0.4-0.5,0.8-0.3,1.3c0.1,0.4,0.5,0.8,1,1.1c0.5,0.3,1.1,0.4,1.8,0.5s1.5,0,2.3-0.2L47.4,292z M64,298.9
						c0.5-0.5,0.8-1,0.7-1.5c-0.1-0.5-0.5-1-1.2-1.4c-0.6-0.3-1.3-0.5-2.1-0.6c-0.8,0-1.7,0.1-2.8,0.5L64,298.9z"/>
					<path id="XMLID_1159_" class="st0" d="M61.7,301l-5.7-3.2c-2.3,0.8-4.3,1.1-6.2,1s-3.5-0.5-5-1.4c-1.5-0.8-2-1.8-2-2.9
						c-0.1-1.1,0.2-2.2,1.6-3.3l-0.6-1l1.2-1l1.4,0.8c1.6-0.8,3.2-1.2,4.9-1.2s2.9,0.5,4.5,1.1l-2.6,2.1c-1.3-0.5-2.6-0.6-3.8-0.3
						l5.4,3c2.7-1,5-1.4,6.7-1.3s3.3,0.5,4.8,1.3c1.7,0.9,2.6,2,2.7,3.2c0.2,1.2-0.5,2.4-2,3.6l2.3,1.6l-1.7,1l-2.5-1.4
						c-1.7,0.8-3.6,1.2-5.6,1.3c-2,0-3.4-0.3-5.5-1.1l2.6-2.4c0.9,0.3,1.8,0.5,2.7,0.6C60.1,301.2,61,301.2,61.7,301z M47.3,293
						c-0.3,0.4-0.5,0.8-0.3,1.3c0.1,0.4,0.5,0.8,1,1.1c0.5,0.3,1.1,0.4,1.8,0.5s1.5,0,2.3-0.2L47.3,293z M63.8,300
						c0.5-0.5,0.8-1,0.7-1.5s-0.5-1-1.2-1.4c-0.6-0.3-1.3-0.5-2.1-0.6c-0.8,0-1.7,0.1-2.8,0.5L63.8,300z"/>
					<path id="XMLID_41_" class="st6" d="M67.6,303.7l-2.5-1.4c-1.7,0.8-3.6,1.2-5.5,1.2c-2,0-4.1-0.4-6.2-1.3l-0.3-0.1v-0.7
						l1.2-0.7l2.3-1.7l0.2,0.1c0.8,0.3,1.7,0.5,2.6,0.5c0.4,0,0.8,0,1.1,0l-4.5-2.5c-2.2,0.7-4.3,1.1-6.2,1s-3.7-0.6-5.2-1.4
						c-1.6-0.9-2.5-2-2.6-3.3c-0.1-1.1,0.4-2.2,1.6-3.2l-1.4-0.8l2.8-1.7l1.4,0.8c1.6-0.7,3.2-1.1,4.9-1.1s3.7,0.1,5.3,0.7l0,0v0.8
						l-3.3,2.6l-0.2-0.1c-0.8-0.3-1.6-0.4-2.3-0.4l4.1,2.3c2.7-0.9,5-1.4,6.7-1.3c1.8,0.1,3.5,0.5,5,1.4c1.8,1,2.8,2.2,2.9,3.5
						c0.2,1.2-0.4,2.4-1.7,3.6l2.2,1.1v0.7L67.6,303.7z M65.1,301.4l2.5,1.4l1.3-0.8l-2.6-1.3l0.5-0.4c1.4-1.1,2-2.2,1.9-3.2
						c-0.1-1.1-1-2-2.5-2.9c-1.4-0.8-3-1.2-4.6-1.3c-1.7-0.1-3.9,0.4-6.6,1.3l-0.2,0.1l-6.5-3.6l1-0.3c1.3-0.3,2.5-0.2,3.8,0.2
						l2.3-1.8c-1.3-0.4-2.8-0.5-4.2-0.4c-1.6,0-3.2,0.4-4.7,1.2l-0.2,0.1L45,289l-1.1,0.7l1.3,0.7l-0.5,0.4
						c-1.3,0.9-1.8,1.9-1.8,2.8c0.1,1,0.8,1.8,2.2,2.6c1.4,0.8,3,1.2,4.8,1.3c1.8,0.1,3.8-0.2,6-1l0.2-0.1l6.9,3.8l-1.1,0.2
						c-0.8,0.2-1.6,0.2-2.6,0.2c-0.9-0.1-1.8-0.2-2.6-0.5l-2.3,1.7c1.8,0.6,3.5,1,5.2,0.9c1.9,0,3.7-0.4,5.4-1.2L65.1,301.4z
						 M64,299.5l-6.4-3.6l0.9-0.3c1.1-0.4,2.1-0.5,2.9-0.5c0.9,0,1.6,0.2,2.3,0.6c0.8,0.4,1.3,1,1.4,1.7s-0.2,1.3-0.8,1.9L64,299.5z
						 M59.7,296.1l4.2,2.3c0.3-0.3,0.4-0.6,0.3-0.9c-0.1-0.4-0.4-0.8-0.9-1.1c-0.6-0.3-1.2-0.5-1.9-0.5
						C60.9,295.9,60.3,295.9,59.7,296.1z M50.3,295.3c-0.2,0-0.4,0-0.5,0c-0.8-0.1-1.4-0.3-2-0.5c-0.6-0.4-1-0.8-1.2-1.3
						c-0.1-0.4-0.1-1,0.4-1.7l0.2-0.3l6,3.3l-1,0.3C51.6,295.2,50.9,295.3,50.3,295.3z M47.5,292.5c-0.1,0.3-0.1,0.5-0.1,0.6
						c0.1,0.3,0.4,0.6,0.8,0.8c0.4,0.2,1,0.4,1.6,0.4c0.3,0,0.7,0,1,0L47.5,292.5z"/>
				</g>
			</g>
		</g>
		<polygon id="XMLID_37_" class="st6" points="59.4,312.9 59.4,318.5 65.7,317.5 71.7,315.7 78,311.8 81.8,307 82.9,303.7 
			82.8,299.3 79.8,304.9 73.9,308.9 65.1,312.1 		"/>
		<polygon id="XMLID_36_" class="st6" points="55.5,313.1 55.5,318.6 52.9,318.4 52.9,312.6 		"/>
	</g>
</g>
<g id="XMLID_163_">
	<g id="XMLID_165_">
		<g id="XMLID_193_">
			<g id="XMLID_206_">
				<path id="XMLID_210_" class="st0" d="M52.6,108.5c0,0,4.6-57.6,14.2-63.1c9.6-5.6,15.1,57,15.1,57L72,136.9l-14.4,7.5
					L52.6,108.5z"/>
				<path id="XMLID_207_" class="st1" d="M56.7,146.1l-5.3-37.6v-0.1c0.5-6,4.9-58.4,14.7-64c1.1-0.6,2.2-0.7,3.3-0.1
					c8.5,4.4,13,52.5,13.5,58v0.2l-10,35.2L56.7,146.1z M53.7,108.4l4.8,34.3l12.6-6.5l9.7-33.9c-1.9-21-6.7-53.1-12.3-56
					c-0.4-0.2-0.7-0.2-1.2,0.1C59.9,50.6,55,92.5,53.7,108.4z"/>
			</g>
			<g id="XMLID_204_">
				
					<rect id="XMLID_205_" x="50.4" y="57.3" transform="matrix(0.469 -0.8832 0.8832 0.469 -17.4349 87.2073)" class="st1" width="26.8" height="1.7"/>
			</g>
			<g id="XMLID_202_">
				
					<rect id="XMLID_203_" x="44.8" y="68" transform="matrix(0.4684 -0.8835 0.8835 0.4684 -26.9037 93.0381)" class="st1" width="38.2" height="1.7"/>
			</g>
			<g id="XMLID_200_">
				
					<rect id="XMLID_201_" x="48.5" y="74" transform="matrix(0.4674 -0.884 0.884 0.4674 -30.7528 98.7069)" class="st1" width="36.1" height="1.7"/>
			</g>
			<g id="XMLID_198_">
				
					<rect id="XMLID_199_" x="54.1" y="78.8" transform="matrix(0.47 -0.8827 0.8827 0.47 -33.307 103.8617)" class="st1" width="31.5" height="1.7"/>
			</g>
			<g id="XMLID_196_">
				
					<rect id="XMLID_197_" x="61" y="85.2" transform="matrix(0.47 -0.8827 0.8827 0.47 -37.651 109.4453)" class="st1" width="22.6" height="1.7"/>
			</g>
			<g id="XMLID_194_">
				
					<rect id="XMLID_195_" x="68.8" y="94.4" transform="matrix(0.4782 -0.8783 0.8783 0.4782 -45.2471 114.4083)" class="st1" width="9.8" height="1.7"/>
			</g>
		</g>
		<g id="XMLID_185_">
			<path id="XMLID_192_" class="st0" d="M110,37.7c0.7-4.3,1.5-8.8,1.5-8.8l-10.2-6.5c0,0-0.2-0.1-0.7-0.3c-1.6-0.7-3.3-0.6-5.1,0.5
				C74.9,34.4,72.7,139.8,72.7,139.8s-0.5-6.2-1.7-14.1l0.7-1.4L68.5,97l-5.2-3.2c-1.5-0.9-2.9-2-4.3-3c-1.8-1.3-3.9-1.4-6.2,0
				c-15.1,9.3-21.2,81.3-21.2,81.3l10.9,6.7l10-18.7l69-39.4C121.5,120.8,118.9,65.8,110,37.7z"/>
			<g id="XMLID_189_">
				<path id="XMLID_191_" class="st0" d="M93,116.3l28.5-17.1c-1.7-18.1-4.7-41.7-9.6-57.2c0.7-4.3,1.5-8.8,1.5-8.8l-10.2-6.5
					c0,0-0.2-0.1-0.7-0.3c-1.6-0.7-3.3-0.6-5.1,0.5c-12.3,7.1-18,47.3-20.7,78.6L93,116.3z"/>
				<path id="XMLID_190_" class="st0" d="M46.9,171l22.9-53.4l1.9-5.1l-1.3-11.2l-5.2-3.2c-1.5-0.9-2.9-2-4.3-3
					c-1.8-1.3-3.9-1.4-6.2,0c-11.1,6.8-17.3,47.5-19.8,68.6L46.9,171z"/>
			</g>
			<path id="XMLID_186_" class="st1" d="M42.4,180.2l-12-7.5l0.1-0.7c0.2-3,6.2-72.7,21.7-82.2c2.5-1.6,5.1-1.5,7.4,0
				c0.5,0.4,1.1,0.7,1.6,1.1c0.9,0.6,1.8,1.3,2.7,1.9l5.7,3.5l2.8,23.9c1.7-31.3,7-89.7,22.6-98.7c2-1.2,4.1-1.4,6.1-0.5
				c0.4,0.2,0.6,0.3,0.7,0.3l11,7l-0.1,0.7c0,0-0.7,4.3-1.4,8.6c8.7,28,11.4,82.5,11.4,83.1v0.7L53.3,161l-10,18.6L42.4,180.2z
				 M32.8,171.5l9.3,5.7l9.6-17.9l68.7-39.2C120,113.7,117.1,64,109,38l-0.1-0.3v-0.3c0.6-3.3,1.1-6.6,1.3-8.1l-9.5-6.1
				c0,0-0.3-0.1-0.7-0.3c-1.2-0.5-2.5-0.4-3.9,0.5C76.2,35,73.8,138.7,73.8,139.8l-2.2,0.1c0-0.1-0.5-6.2-1.7-14.1l-0.1-0.4l0.7-1.4
				l-3.1-26.4l-4.7-2.9c-1-0.6-1.9-1.3-2.8-2c-0.5-0.4-1-0.7-1.5-1.1c-1.6-1.1-3.2-1.1-5,0C39.6,100.2,33.4,164.2,32.8,171.5z"/>
		</g>
		<g id="XMLID_180_">
			<path id="XMLID_184_" class="st0" d="M42.5,178.9c0,0,6-72,21.2-81.3c15.1-9.3,20,49,20,49s2.2-105.3,22.8-117.3
				c20.7-11.9,26,98.3,26,98.3L42.5,178.9z"/>
			<path id="XMLID_181_" class="st1" d="M42.5,180.1l-1.2-0.7c0.2-3,6.3-73.3,21.8-82.8c2.3-1.4,4.5-1.5,6.6-0.5
				c7.2,3.7,11.3,22.5,13.4,36.1c1.4-29.5,6.4-94.4,22.9-103.9c2.3-1.3,4.6-1.4,6.7-0.2c16.4,8.9,20.7,95.7,20.9,99.4v0.7
				L42.5,180.1z M66.8,97.6c-0.8,0-1.7,0.3-2.6,0.8c-13.1,8-19.3,66.4-20.4,78.3l87.4-49.9c-1.5-31-7.6-90.2-19.7-96.9
				c-1.4-0.8-2.9-0.7-4.5,0.2c-19.9,11.5-22.2,114-22.2,115.1l-2.3,1.3c-1-12-5.4-44.2-13.9-48.5C68,97.8,67.4,97.6,66.8,97.6z"/>
		</g>
		<g id="XMLID_166_">
			<g id="XMLID_174_">
				<path id="XMLID_179_" class="st0" d="M130.8,109.5l1.9-2.9l-8.4-4.3l-0.8-0.5c-3-1.4-6.6-1.5-10.8,1
					c-18.5,10.7-17.8,36.4-37.1,51.7s-27.3,10.1-27.3,10.1l-2.2,15.6l9.5,4.9L83,165.6l54.2-37.5
					C137.2,128.2,135.4,117.5,130.8,109.5z"/>
				<path id="XMLID_178_" class="st0" d="M133.1,113.1l1.9-2.9l-8.4-4.3l-0.8-0.5c-3-1.4-6.6-1.5-10.8,1
					c-18.5,10.7-17.8,36.4-37.1,51.7c-19.2,15.3-27.3,10.1-27.3,10.1l-1.4,10.4l13.1-2.2l21.8-12.8l55.4-31.8
					C139.5,131.8,137.7,121.1,133.1,113.1z"/>
				<path id="XMLID_175_" class="st1" d="M55.3,186.3l-10.4-5.4l2.5-18.1l1.5,1c0.1,0,7.8,4.4,26-10.1c9.1-7.3,13.7-17,18.1-26.4
					c4.8-10.2,9.3-19.8,19.1-25.4c4.2-2.4,8.2-2.8,11.9-1l0,0c0.3,0.1,0.6,0.3,0.9,0.5l9.5,4.8l-2.2,3.4c4.4,8,6.1,18,6.2,18.5
					l0.1,0.7l-54.8,37.9L55.3,186.3z M47.3,179.6l8.2,4.2l26.9-19.1l53.6-37.1c-0.5-2.5-2.4-11-6.2-17.6l-0.3-0.6l1.6-2.4l-7.3-3.7
					c-0.1,0-0.5-0.3-0.7-0.4l-0.1-0.1c-3-1.4-6.2-1.1-9.8,0.9C104,109,99.6,118.3,95,128.1c-4.5,9.6-9.2,19.6-18.7,27.2
					c-15.2,12.1-23.8,11.7-27.1,10.8L47.3,179.6z"/>
			</g>
			<path id="XMLID_173_" class="st0" d="M146.8,132.9c0,0-6.1-36.1-24.6-25.4s-17.8,36.4-37.1,51.7c-19.2,15.3-27.3,10.1-27.3,10.1
				L55.7,185L146.8,132.9z"/>
			<g id="XMLID_167_">
				<polygon id="XMLID_172_" class="st0" points="48.3,164.7 57.9,169.3 55.6,185.2 46.1,180.3 				"/>
				<path id="XMLID_168_" class="st1" d="M56.7,185.7l91.4-52.2l-0.1-0.8c-0.2-0.9-3.9-22.2-14.5-27.3c-3.6-1.7-7.6-1.3-11.8,1.1
					c-9.8,5.7-14.3,15.3-19.1,25.4c-4.4,9.4-9,19.1-18.1,26.4c-16.4,13.1-24.3,10.8-25.7,10.2l-0.3-0.2l-1.4-0.9l-9.6-4.5L45,180.8
					l9.5,4.9l1.1,0.5L56.7,185.7z M49.2,166.3l7.4,3.6l-1.9,13.5l-7.4-3.8L49.2,166.3z M85.9,160.1c9.6-7.6,14.2-17.6,18.7-27.2
					c4.6-9.8,9-19.1,18.2-24.4c3.6-2.1,6.7-2.4,9.7-1c8.5,4,12.3,21,13.1,24.8l-88.4,50.5l1.7-11.9C62,171.8,70.6,172.2,85.9,160.1z
					"/>
			</g>
		</g>
	</g>
	<path id="XMLID_164_" class="st1" d="M150.6,137.1c0,0-6.1-36.1-24.6-25.4s-17.8,36.4-37.1,51.7c-19.2,15.3-27.3,10.1-27.3,10.1
		l-2.2,15.6L150.6,137.1z"/>
</g>
</svg>
