<?xml version="1.0" encoding="utf-8"?>
<!-- Generator: Adobe Illustrator 21.1.0, SVG Export Plug-In . SVG Version: 6.00 Build 0)  -->
<svg version="1.1" id="Layer_1" xmlns="http://www.w3.org/2000/svg" xmlns:xlink="http://www.w3.org/1999/xlink" x="0px" y="0px"
	 viewBox="0 0 409 342.7" style="enable-background:new 0 0 409 342.7;" xml:space="preserve">
<style type="text/css">
	.st0{fill:#FFFFFF;}
	.st1{fill:#25212A;}
	.st2{fill:#16110D;}
	.st3{fill:#F4DD38;}
	.st4{display:none;}
	.st5{display:inline;}
	.st6{fill:#191410;}
</style>
<g id="XMLID_2396_">
	<g id="XMLID_2424_">
		<path id="XMLID_2431_" class="st0" d="M102.3,118.4v-15.3l20.6,11.9v15.3L102.3,118.4z"/>
		<polygon id="XMLID_2430_" class="st0" points="102.4,103.1 121.1,92.3 141.7,104.2 122.9,115 		"/>
		<polygon id="XMLID_2429_" class="st0" points="102.6,108.1 121.1,97.5 141.7,109.4 122.7,119.7 		"/>
		<path id="XMLID_2425_" class="st1" d="M121.1,91.3l-19.7,11.3v16.3l21.4,12.4l19.7-11.3v-16.3L121.1,91.3z M122,128.8l-18.8-10.9
			v-13.3l18.8,10.9V128.8z M104.1,103.1l17-9.8l18.8,10.9l-17,9.8L104.1,103.1z"/>
	</g>
	<g id="XMLID_2415_">
		<path id="XMLID_2422_" class="st0" d="M75.4,134.3V98.2L96,110.1v36.1L75.4,134.3z"/>
		<polygon id="XMLID_2421_" class="st0" points="75.4,98.2 94.1,87.4 114.7,99.3 95.9,110.1 		"/>
		<polygon id="XMLID_2420_" class="st0" points="75.7,103.2 94.1,92.6 114.7,104.5 95.8,114.8 		"/>
		<path id="XMLID_2416_" class="st1" d="M94.2,86.4L74.5,97.7v37.1l21.4,12.4l19.7-11.3V98.8L94.2,86.4z M95.1,144.6l-18.8-10.9v-34
			l18.8,10.9C95.1,110.6,95.1,144.6,95.1,144.6z M77.1,98.2l17-9.8L113,99.3l-17,9.8L77.1,98.2z"/>
	</g>
	<g id="XMLID_2406_">
		<path id="XMLID_2413_" class="st0" d="M48.5,149.3v-21.5L69,139.7v21.5L48.5,149.3z"/>
		<polygon id="XMLID_2412_" class="st0" points="48.5,127.8 67.3,117 87.8,128.9 69,139.7 		"/>
		<polygon id="XMLID_2411_" class="st0" points="48.8,132.9 67.3,122.2 87.8,134.1 68.9,144.4 		"/>
		<path id="XMLID_2407_" class="st1" d="M67.3,116l-19.7,11.3v22.5L69,162.1l19.7-11.3v-22.5L67.3,116z M68.2,159.6l-18.8-10.9
			v-19.4l18.8,10.9V159.6z M50.2,127.8l17-9.8L86,128.9l-17,9.8L50.2,127.8z"/>
	</g>
	<g id="XMLID_2397_">
		<path id="XMLID_2404_" class="st0" d="M21.4,164.5V155L42,166.9v9.5L21.4,164.5z"/>
		<polygon id="XMLID_2403_" class="st0" points="21.4,155 40.2,144.2 60.7,156.1 41.9,166.9 		"/>
		<polygon id="XMLID_2402_" class="st0" points="21.7,160.1 40.2,149.4 60.7,161.3 41.8,171.6 		"/>
		<path id="XMLID_2398_" class="st1" d="M40.2,143.2l-19.7,11.3V165l21.4,12.4l19.7-11.3v-10.5L40.2,143.2z M41.1,174.9L22.2,164
			v-7.5L41,167.4L41.1,174.9z M23.1,155l17-9.8L59,156.1l-17,9.8L23.1,155z"/>
	</g>
</g>
<g id="XMLID_2131_">
	<g id="_x34__2_">
		<g id="XMLID_3305_">
			<path id="XMLID_3311_" class="st0" d="M399,116.8L197.7,2c-2.5-1.4-4.8-1.4-6.4-0.1l-9.9,5.9l7.3,10.4v156.1c0,6.5,4,14.1,9,17
				l188,107.2l9.7,13.8l9.3-5.6c2-1,3.3-3.6,3.3-7.3V133.8C408,127.3,404,119.7,399,116.8z"/>
			<path id="XMLID_3310_" class="st0" d="M351.4,108.6L184,14.9l-2.7-6.1l7.4-4.5c1.6-1.3,3.9-1.3,6.4,0.1l201.4,114.8
				c2.8,1.6,5.2,4.6,6.9,8.1l0.2,1l-11.9,7.2L351.4,108.6z"/>
			<polygon id="XMLID_3309_" class="st0" points="405.1,134.5 394.2,140.9 395.2,145 405.1,138.9 			"/>
			<path id="XMLID_3306_" class="st2" d="M190.6,1.2c2-1.6,4.7-1.6,7.5,0L399.5,116c5.2,3,9.5,11,9.5,17.8v165.6
				c0,4-1.4,6.9-3.8,8.1l-10.1,6L385,299.3L197.2,192.2c-5.2-3-9.5-11-9.5-17.8V18.5l-7.7-11L190.6,1.2z M189.6,17.9v156.4
				c0,6.2,3.8,13.5,8.5,16.2l188,107.2l9.5,13.3l2-1.2l0.4-3l7.4-4.5c1-0.6,1.7-1.7,1.7-2.9l0,0V133.8c0-6.2-3.8-13.5-8.5-16.2
				L197.2,2.8c-2.1-1.2-4-1.2-5.5-0.1l-9,5.4L189.6,17.9z"/>
		</g>
		<g id="_x31_8_1_">
			<path id="XMLID_3304_" class="st2" d="M246.5,257.9l40.8-23.2c4-2.3,10.6-2,15.1,0.6l24.8,14.2l11.8,5.3v5.4h-0.1
				c-0.3,1.4-1.3,2.6-2.9,3.5l-50.3,28.6c-1.8,1-4.2,1.5-6.6,1.5c-2.9,0-6-0.7-8.5-2.1l-32.7-18.6c-2.4-1.4-3.8-3.2-3.9-5.2
				c0-0.2,0-0.3,0-0.4v-4.4L246.5,257.9z"/>
			<g id="XMLID_3281_">
				<path id="XMLID_3303_" class="st0" d="M335.7,258.8l-50.3,28.6c-3.6,2.1-10,1.8-14.2-0.6l-32.7-18.6c-4.2-2.4-4.7-6-1-8.1
					l50.3-28.6c3.6-2.1,10-1.8,14.2,0.6l32.7,18.6C338.9,253.1,339.4,256.7,335.7,258.8z"/>
				<path id="XMLID_3302_" class="st0" d="M243,264.2l13.7-8.1c4.5-2.6,10-2.7,14.5-0.1l34.2,19.6l-20.7,11.8
					c-3.6,2.1-10,1.8-14.2-0.6L244,272.3C239.9,269.9,239.4,266.3,243,264.2z"/>
				<path id="XMLID_3282_" class="st2" d="M279.2,289.7c2.5,0,4.8-0.5,6.6-1.5l50.3-28.6c1.9-1.1,2.9-2.6,2.9-4.3c0-2-1.4-4-4-5.4
					l-32.7-18.6c-4.5-2.6-11.2-2.8-15.1-0.6l-50.3,28.6c-1.9,1.1-2.9,2.6-2.9,4.3c0,2,1.4,4,4,5.4l32.7,18.6
					C273.2,289,276.3,289.7,279.2,289.7z M335.3,257.9L285,286.5c-3.4,1.9-9.3,1.7-13.2-0.6L239,267.3c-1.9-1.1-3-2.4-3-3.7
					c0-1.3,1.1-2.2,2-2.7l50.3-28.6c3.4-1.9,9.3-1.7,13.2,0.6l32.7,18.6c1.9,1.1,3,2.4,3,3.7C337.2,256.5,336.2,257.4,335.3,257.9
					L335.3,257.9z"/>
			</g>
		</g>
		<path id="XMLID_3280_" class="st2" d="M181.4,6.7c1.9-1.1,4.4-1,6.9,0.4L389.6,122c5.2,3,9.5,11,9.5,17.8v165.6
			c0,3.7-1.5,5.4-2.8,6.1c-0.8,0.5-1.8,0.7-2.9,0.7c-1.7,0-3.7-0.6-5.7-1.8L187.3,198.1c-5.2-3-9.5-11-9.5-17.8V14.7
			C177.8,10.9,179.1,8,181.4,6.7z"/>
		<g id="XMLID_3273_">
			<path id="XMLID_3278_" class="st0" d="M178.8,161v20.1c0,6.1,4.3,13.5,9.7,16.5l200,114.1c5.3,3,9.7,0.6,9.7-5.5v-20.1L178.8,161
				z"/>
			<path id="XMLID_3274_" class="st2" d="M392.8,314c1.1,0,2.1-0.3,3-0.8c2.1-1.2,3.3-3.7,3.3-7v-20.6l-0.5-0.3L177.8,159.4v21.7
				c0,6.4,4.6,14.2,10.1,17.4l200,114.1C389.7,313.5,391.3,314,392.8,314z M397.2,286.7v19.5c0,2.6-0.8,4.5-2.3,5.3
				c-1.5,0.9-3.6,0.7-5.9-0.7L189,196.7c-5.1-2.9-9.2-9.9-9.2-15.7v-18.4L397.2,286.7z"/>
		</g>
		<g id="XMLID_2536_">
			<path id="XMLID_3272_" class="st0" d="M385,266.2L191.8,156c-1.8-1-3.2-3.7-3.2-6V23.5c0-2.3,1.4-3.4,3.2-2.4L385,131.3
				c1.8,1,3.2,3.7,3.2,6v126.5C388.2,266.1,386.8,267.2,385,266.2z"/>
		</g>
	</g>
	<g id="XMLID_2477_">
		<path id="XMLID_2482_" class="st3" d="M331.2,197.3l-90.8-52.4c-11-6.3-19.9-23.4-19.9-38l0,0c0-14.7,8.9-21.4,19.9-15l90.8,52.4
			c11,6.3,19.9,23.4,19.9,38l0,0C351.1,196.9,342.2,203.7,331.2,197.3z"/>
		<path id="XMLID_2478_" class="st2" d="M334.4,192.1c-2.7,0-5.5-0.8-8.5-2.5l-90.8-52.4c-11.3-6.5-20.4-24-20.4-39
			c0-8.1,2.7-14.3,7.4-17c4-2.3,9-1.9,14.1,1.1l90.8,52.4c11.3,6.5,20.4,24,20.4,39c0,8.1-2.7,14.3-7.4,17
			C338.3,191.6,336.4,192.1,334.4,192.1z M227.8,81.9c-1.7,0-3.2,0.4-4.6,1.2c-4,2.3-6.3,7.9-6.3,15.2c0,14.3,8.7,30.9,19.4,37.1
			l90.8,52.4c4.4,2.6,8.7,2.9,11.9,1c4-2.3,6.3-7.9,6.3-15.2c0-14.3-8.7-30.9-19.4-37.1l-90.8-52.4
			C232.6,82.6,230.1,81.9,227.8,81.9z"/>
	</g>
	<g id="XMLID_2469_">
		<path id="XMLID_2476_" class="st0" d="M332.3,174.2v31.9c0,1.3,1.3,2.7,2.1,2.3l4.2-2c0.6-0.3,1.5,0.5,1.8,1.5l4,13.3
			c0.4,1.3,1.5,2.4,2.4,2.5l3.5,0.1c0.9,0,1.3-1,0.9-2.2l-4.3-13.6c-0.3-1,0.2-1.7,0.9-1.3l5.6,2.7c1.1,0.5,1.6-0.8,0.7-2.1
			L334,174.5C333.5,173.2,332.3,173.1,332.3,174.2z"/>
		<path id="XMLID_2473_" class="st2" d="M350,224.8L350,224.8l-3.5-0.1c-1.4,0-2.9-1.4-3.4-3.2l-4-13.3c-0.1-0.4-0.4-0.6-0.5-0.8
			l-4,1.9c-0.6,0.3-1.3,0.2-1.9-0.2c-0.9-0.5-1.7-1.8-1.7-3.1v-31.9c0-1.1,0.6-1.6,1.2-1.8c0.9-0.3,2,0.3,2.6,1.4l20.1,32.8
			c0.7,1.2,0.8,2.5,0.1,3.3c-0.4,0.5-1.2,0.8-2.2,0.3l-5-2.4L352,221c0.3,1.1,0.2,2.1-0.3,2.8C351.3,224.5,350.7,224.8,350,224.8z
			 M338.5,205.2c0.3,0,0.5,0.1,0.8,0.2c0.8,0.3,1.5,1.2,1.8,2.1l4,13.3c0.3,1,1.1,1.7,1.4,1.7l3.4,0.1c-0.1,0,0-0.3-0.2-0.8
			l-4.3-13.6c-0.3-1-0.1-1.9,0.5-2.4c0.5-0.5,1.3-0.5,2-0.2l5.1,2.5c0-0.1-0.1-0.2-0.2-0.3l-19.9-32.6v31c0,0.5,0.4,1.1,0.7,1.2
			l4-1.9C338,205.3,338.3,205.2,338.5,205.2z"/>
	</g>
	<g id="XMLID_2132_" class="st4">
		<path id="XMLID_1_" class="st5" d="M237.5,121.5c-0.5-0.3-0.7-0.7-0.7-1.2v-16.5c0-0.5,0.2-0.7,0.7-0.4l3.5,2
			c5.7,3.3,8,7.2,8,13.7s-2.3,7.8-8,4.5L237.5,121.5z M241,121.8c4.5,2.6,6.3,1.6,6.3-3.6s-1.8-8.3-6.3-10.9l-2.6-1.5v14.6
			L241,121.8z"/>
		<path id="XMLID_2394_" class="st5" d="M252.4,130.1c-0.5-0.3-0.7-0.7-0.7-1.2v-16.5c0-0.5,0.2-0.7,0.7-0.4l7.7,4.4
			c0.5,0.3,0.7,0.7,0.7,1.2v0.2c0,0.5-0.2,0.7-0.7,0.4l-6.8-3.9v5.1l6.4,3.7c0.5,0.3,0.7,0.7,0.7,1.2v0.2c0,0.5-0.2,0.7-0.7,0.4
			l-6.4-3.7v7.7l6.8,3.9c0.5,0.3,0.7,0.7,0.7,1.2v0.2c0,0.5-0.2,0.7-0.7,0.4L252.4,130.1z"/>
		<path id="XMLID_2392_" class="st5" d="M264.8,137.3c-0.5-0.3-0.7-0.7-0.7-1.2v-16.5c0-0.5,0.2-0.7,0.7-0.4l0.2,0.1
			c0.5,0.3,0.7,0.7,0.7,1.2V136l6.5,3.8c0.5,0.3,0.7,0.7,0.7,1.2v0.2c0,0.5-0.2,0.7-0.7,0.4L264.8,137.3z"/>
		<path id="XMLID_2390_" class="st5" d="M276,143.8c-0.5-0.3-0.7-0.7-0.7-1.2V126c0-0.5,0.2-0.7,0.7-0.4l0.2,0.1
			c0.5,0.3,0.7,0.7,0.7,1.2v16.5c0,0.5-0.2,0.7-0.7,0.4L276,143.8z"/>
		<path id="XMLID_2388_" class="st5" d="M285.9,149.5c-0.4-0.2-0.7-0.6-0.8-1.1l-6.1-20.1c-0.2-0.7,0-0.9,0.5-0.6l0.3,0.2
			c0.4,0.2,0.7,0.6,0.8,1.1l5.5,18.3l5.5-11.9c0.2-0.3,0.4-0.4,0.8-0.2l0.3,0.2c0.5,0.3,0.7,0.8,0.5,1.2l-6.1,13.1
			c-0.2,0.3-0.4,0.4-0.8,0.2L285.9,149.5z"/>
		<path id="XMLID_2386_" class="st5" d="M296.2,155.4c-0.5-0.3-0.7-0.7-0.7-1.2v-16.5c0-0.5,0.2-0.7,0.7-0.4l7.7,4.4
			c0.5,0.3,0.7,0.7,0.7,1.2v0.2c0,0.5-0.2,0.7-0.7,0.4l-6.8-3.9v5.1l6.4,3.7c0.5,0.3,0.7,0.7,0.7,1.2v0.2c0,0.5-0.2,0.7-0.7,0.4
			l-6.4-3.7v7.7l6.8,3.9c0.5,0.3,0.7,0.7,0.7,1.2v0.2c0,0.5-0.2,0.7-0.7,0.4L296.2,155.4z"/>
		<path id="XMLID_2384_" class="st5" d="M308.2,162.3c-0.5-0.3-0.7-0.7-0.7-1.2v-16.5c0-0.5,0.2-0.7,0.7-0.4l4.4,2.6
			c3,1.7,5,5.2,5,8.5c0,2.8-1.4,4.1-3.6,3.4l4.1,8.4c0.4,0.8,0.2,1.1-0.4,0.8l-0.5-0.3c-0.4-0.2-0.6-0.5-0.9-1l-4.4-8.9L309,156v6
			c0,0.5-0.2,0.7-0.7,0.4L308.2,162.3z M312.6,156.2c2,1.2,3.3,0.4,3.3-1.9c0-2.3-1.3-4.6-3.3-5.8l-3.5-2v7.7L312.6,156.2z"/>
	</g>
	<g>
		<path d="M238.5,106.9v8.6l-1.5-0.9v-7l-2.8-1.7v7l-1.5-0.9v-8.6L238.5,106.9z"/>
		<path d="M246.5,119.2c-0.8,0.4-1.7,0.2-2.9-0.4c-1.1-0.7-2.1-1.7-2.9-3c-0.8-1.3-1.2-2.6-1.2-3.9s0.4-2.1,1.2-2.5s1.7-0.2,2.9,0.4
			c1.1,0.7,2.1,1.7,2.9,3c0.8,1.3,1.2,2.6,1.2,3.9S247.3,118.8,246.5,119.2z M241.8,115.3c0.5,0.8,1.1,1.4,1.8,1.9
			c0.7,0.4,1.3,0.5,1.8,0.3s0.7-0.8,0.7-1.6c0-0.8-0.2-1.6-0.7-2.5c-0.5-0.8-1.1-1.5-1.8-1.9s-1.3-0.5-1.8-0.3s-0.7,0.8-0.7,1.6
			S241.3,114.4,241.8,115.3z"/>
		<path d="M247.7,121.1v-1.6c0.5,0.4,0.8,0.5,1,0.3s0.3-0.6,0.4-1.4v-5.1l5.3,3.2v8.6l-1.5-0.9v-7l-2.2-1.4v3.4
			c0,0.7-0.1,1.3-0.3,1.7c-0.2,0.4-0.4,0.7-0.7,0.7c-0.3,0.1-0.6,0.1-0.9-0.1S248.1,121.4,247.7,121.1z"/>
		<path d="M260.1,120l1.5,0.9l-2.4,4.8c-0.6,1.3-1.7,1.5-3.1,0.5v-1.6c0.4,0.3,0.8,0.4,1,0.4c0.3,0,0.5-0.2,0.6-0.4l-2.5-7.6
			l1.5,0.9l1.7,5.2L260.1,120z"/>
		<path d="M266.6,123.8l1.5,0.9v8.6l-1.5-0.9v-3.2c-0.5-0.1-1-0.3-1.5-0.6c-0.8-0.5-1.4-1.1-1.9-1.9s-0.8-1.6-0.8-2.4v-3.1l1.5,0.9
			v2.9c0,0.4,0.1,0.8,0.3,1.2c0.2,0.4,0.5,0.7,0.9,0.9c0.5,0.3,1,0.5,1.5,0.5V123.8z"/>
		<path d="M274,137v-5.3l-3.4,3.2l-1.2-0.7v-8.6l1.5,0.9v5.3l3.4-3.3l1.2,0.7v8.6L274,137z"/>
		<path d="M282.2,133.3v1.6l-2.1-1.3v7l-1.5-0.9v-7l-2.1-1.3v-1.6L282.2,133.3z"/>
		<path d="M286,138.4c0.8,0.5,1.4,1.1,1.9,2s0.8,1.7,0.8,2.5s-0.3,1.3-0.8,1.6c-0.5,0.2-1.1,0.1-1.9-0.3l-2.9-1.8v-8.6l1.5,0.9v2.8
			L286,138.4z M285.9,142.6c0.3,0.2,0.6,0.2,0.8,0.1c0.2-0.1,0.3-0.4,0.3-0.7c0-0.4-0.1-0.7-0.3-1.1s-0.5-0.7-0.8-0.9l-1.4-0.8v2.6
			L285.9,142.6z"/>
		<path d="M295.4,144.5c0.8,0.5,1.4,1.1,1.9,1.9c0.5,0.8,0.7,1.6,0.7,2.4c0,0.8-0.2,1.3-0.7,1.5s-1.1,0.1-1.9-0.4l-3-1.8v-8.6l4.9,3
			v1.6l-3.4-2v1.6L295.4,144.5z M295.4,148.3c0.3,0.2,0.6,0.2,0.8,0.2c0.2-0.1,0.3-0.3,0.3-0.6s-0.1-0.7-0.3-1s-0.5-0.6-0.8-0.7
			l-1.4-0.9v2.2L295.4,148.3z"/>
		<path d="M305.4,154.8c-0.8,0.4-1.7,0.2-2.9-0.4c-1.1-0.7-2.1-1.7-2.9-3s-1.2-2.6-1.2-3.9c0-1.3,0.4-2.1,1.2-2.5
			c0.8-0.4,1.7-0.2,2.9,0.4c1.1,0.7,2.1,1.7,2.9,3s1.2,2.6,1.2,3.9C306.6,153.6,306.2,154.4,305.4,154.8z M300.7,150.8
			c0.5,0.8,1.1,1.4,1.8,1.9c0.7,0.4,1.3,0.5,1.8,0.3s0.7-0.8,0.7-1.6s-0.2-1.6-0.7-2.5c-0.5-0.8-1.1-1.5-1.8-1.9
			c-0.7-0.4-1.3-0.5-1.8-0.3s-0.7,0.8-0.7,1.6C300,149.2,300.3,150,300.7,150.8z"/>
		<path d="M312.1,151.3l1.5,0.9v8.6l-1.5-0.9v-3.6l-2.9-1.7v3.6l-1.5-0.9v-8.6l1.5,0.9v3.4l2.9,1.7V151.3z"/>
		<path d="M319.4,155.7l1.5,0.9l-2.4,4.8c-0.6,1.3-1.7,1.5-3.1,0.5v-1.6c0.4,0.3,0.8,0.4,1,0.4c0.3,0,0.5-0.2,0.6-0.4l-2.5-7.6
			l1.5,0.9l1.7,5.2L319.4,155.7z"/>
		<path d="M325,167.9c-1.2-0.7-2.1-1.7-2.9-3s-1.1-2.6-1.1-3.9c0-1.3,0.4-2.1,1.2-2.5c0.8-0.4,1.7-0.2,2.9,0.5c0.7,0.4,1.4,1,2,1.7
			s1.1,1.5,1.4,2.3H327c-0.2-0.5-0.5-1-0.8-1.4c-0.4-0.4-0.8-0.8-1.2-1.1c-0.8-0.5-1.4-0.6-1.8-0.3c-0.5,0.2-0.7,0.8-0.7,1.6
			s0.2,1.6,0.7,2.4c0.5,0.8,1.1,1.4,1.8,1.9c0.4,0.3,0.8,0.4,1.2,0.4c0.4,0,0.6-0.1,0.8-0.4l1.3,1.6c-0.3,0.4-0.8,0.6-1.4,0.6
			S325.7,168.3,325,167.9z"/>
	</g>
</g>
<g id="XMLID_4_">
	<g id="XMLID_129_">
		<path id="XMLID_2850_" class="st1" d="M149.8,279.4c-1.4-0.8-2.6-0.7-3.7-0.1l0,0l0,0c-3.6,1.7-6.7,12.4-8.5,20.2
			c-0.5,2.4-1.5,3.8-2.6,4.7l0,0l21.6-12.7C154.9,285.8,152.8,281.1,149.8,279.4z"/>
		<g id="XMLID_130_">
			<path id="XMLID_144_" class="st0" d="M155.7,273.5c-5.5-7.4-8.5-22.4-11.3-36.7c-3.1-15.7-7.8-37.3-18-42.9
				c-3.5-1.9-6.4-2.1-8.8-0.7l-39.7,22.9c2.3-1.2,5.1-0.9,8.4,0.9c4.9,2.7,8.4,9,11.2,16.6l0,0c3,8.3,5.1,18,6.7,26.2
				c3.1,15.7,6.5,32.3,13.1,38.7c3.4,3.3,9.5,5.5,9.5,5.5s8.7,5,10.9-4.6c1.8-7.8,4.5-18.8,8.9-20.6L155.7,273.5L155.7,273.5z"/>
			<path id="XMLID_143_" class="st0" d="M73.2,220.8L73.2,220.8L73.2,220.8c-0.4-0.2-1.5-0.8-5.3-2.8c-5.3-2.9-7-3.8-10.5-2.5
				c-3.5,1.4-7.1-0.7-7.1-0.7l-9.5-5.5L0.9,232l9.5,5.5c0,0,3.6,2.1,7.1,0.7c3.5-1.4,5.2-0.4,10.5,2.5s5.3,2.9,5.3,2.9h0.2l14.7,8.5
				c1.8,1,3.5,2.2,5.3,3.3c2.9,2,9.9,4.4,13.3-12.9C68.7,232.6,70.7,225.3,73.2,220.8L73.2,220.8z"/>
			<path id="XMLID_142_" class="st1" d="M86.2,216.8c-2.6-1.4-4.8-1.9-6.8-1.5c-0.6,0.3-1.2,0.5-1.6,0.8c-3,2-4.6,4.4-4.6,4.4l0,0
				c-2.6,4.5-4.6,11.7-6.6,21.7c-1.7,8.5-4.2,12.2-6.7,13.6v0.1l37.3-22.4C94.6,225.8,91.1,219.5,86.2,216.8z"/>
			<path id="XMLID_141_" class="st0" d="M215.5,309.9c-5.8-3.3-11.9-9.3-14.2-21.2c-2.3-11.8-4.9-28.7-11.2-32.3
				c-1.2-0.7-2.3-0.7-3.3-0.3l0,0l-31,17.6l-9.8,5.6l0,0c1.1-0.7,2.4-0.7,3.7,0.1c6.3,3.6,8.9,20.5,11.2,32.3s8.5,17.8,14.2,21.2
				c5.8,3.3,16.2,9.3,16.2,9.3l40.3-23C231.7,319.2,221.3,313.2,215.5,309.9z"/>
			<path id="XMLID_140_" class="st0" d="M57.3,218.1c-3.5,1.4-7.1-0.7-7.1-0.7l-9.5-5.5L3.1,233.2l7.5,4.4c0,0,3.6,2.1,7.1,0.7
				c3.5-1.4,5.2-0.4,10.5,2.5s5.3,2.9,5.3,2.9h0.2l14.7,8.5c1.8,1,3.5,2.2,5.3,3.3c2.9,2,9.9,4.4,13.3-12.9c1.7-8.5,3.4-15,5.5-19.5
				c-0.7-0.4-2-1.1-4.6-2.5C62.5,217.7,60.8,216.7,57.3,218.1z"/>
			<path id="XMLID_139_" class="st0" d="M124.9,197.3c-3.5-1.9-6.4-2.1-8.8-0.7l-32.9,19c0.9,0.3,1.9,0.7,3,1.3
				c4.9,2.7,8.4,9,11.2,16.6c3,8.3,5.1,18,6.7,26.2c3.1,15.7,6.5,32.3,13.1,38.7c3.4,3.3,9.5,5.5,9.5,5.5s6.3,3.6,9.5-1.2
				c1.1-4.6,2.5-10.3,4.4-14.5c1.5-4.5,3.5-8.4,5.9-9.4l6.6-3.7c-4.7-7.9-7.5-21.6-10.1-34.7C139.9,224.5,135.2,202.9,124.9,197.3z"
				/>
			<path id="XMLID_138_" class="st0" d="M160.9,311.7c2.3,11.8,8.5,17.8,14.2,21.2c5.8,3.3,16.2,9.3,16.2,9.3l35.8-20.4
				c-3.5-2-9.4-5.4-13.2-7.6c-5.8-3.3-11.9-9.3-14.2-21.2c-2.3-11.8-4.9-28.7-11.2-32.3c-1.2-0.7-2.3-0.7-3.3-0.3l0,0l-31,17.6
				l-3.6,2C156.3,284.7,158.7,300.5,160.9,311.7z"/>
			<path id="XMLID_131_" class="st1" d="M215.7,309.5c-7.5-4.3-12.2-11.3-14-20.9c-0.2-1.2-0.5-2.4-0.7-3.6
				c-2.2-11.4-4.8-25.6-10.7-29c-1.3-0.7-2.5-0.8-3.7-0.3L156,273.2c-5.6-7.7-8.7-23.6-11.2-36.4c-2.5-13-7.3-37.2-18.3-43.2
				c-3.6-2-6.7-2.2-9.2-0.7l-39.1,22.6c-0.2,0.1-0.4,0.2-0.6,0.3l0,0l0,0l0,0c-2.8,1.8-4.3,4-4.6,4.4l-5-2.7
				c-5.2-2.8-7-3.8-10.6-2.4c-3.2,1.3-6.7-0.6-6.8-0.7l-9.7-5.7L0,232l10.2,5.9c0.2,0.1,3.9,2.1,7.5,0.7c3.2-1.3,4.8-0.4,9.9,2.3
				l5.5,3l14.8,8.5c1.8,1.1,3.6,2.2,5.2,3.3c1.1,0.7,2.6,1.5,4.3,1.5c0.7,0,1.4-0.1,2.2-0.4c0.7-0.3,1.4-0.7,2-1.3L97,234.2
				c2.8,7.8,4.8,17,6.5,25.8c2.8,14.4,6.3,32.3,13.2,39c3.4,3.3,9.4,5.5,9.6,5.6c0.1,0.1,2.4,1.4,5,1.4c0.8,0,1.7-0.1,2.5-0.5
				c0.4-0.2,0.7-0.4,1.2-0.7l21.2-12.5c1.4,5,2.5,10.8,3.5,16c0.2,1.2,0.5,2.5,0.7,3.6c1.9,9.8,6.8,17,14.5,21.4l16.4,9.5l41.2-23.5
				L215.7,309.5z M78,216.5c2.2-1.1,4.8-0.8,8,0.9c4.1,2.2,7.6,7.3,10.8,15.8l-33.4,20.1c1.6-2.4,2.9-6.1,3.8-10.8
				c2.1-10.6,4.1-17.4,6.5-21.5l0.1-0.3l0.2-0.3l0,0C74.4,219.8,75.7,218.1,78,216.5z M53.7,255c-1.7-1.1-3.4-2.3-5.3-3.4l-14.9-8.5
				l0,0l-5.5-2.9c-5.2-2.8-7-3.8-10.6-2.4c-3.3,1.3-6.7-0.6-6.8-0.7L1.8,232l39-22.2l9.3,5.4c0.2,0.1,3.9,2.1,7.5,0.7
				c3.2-1.3,4.8-0.4,9.9,2.3l5.1,2.7c-2.3,4.3-4.2,10.9-6.3,21.1c-1.4,7.2-3.6,11.7-6.4,13.3l-0.4,0.3l0,0c-0.1,0,0,0-0.1,0
				C57.2,256.6,55.1,255.9,53.7,255z M133.7,304.5c-3,1.3-6.7-0.8-6.8-0.9c-0.1,0-6.1-2.2-9.4-5.4c-6.7-6.5-10.2-24.2-13-38.5
				c-1.7-8.9-3.7-18.2-6.5-26.2l0,0l-0.1-0.3c-3.3-9.1-7-14.4-11.4-16.8c-2-1.1-3.7-1.6-5.4-1.7l36.7-21.2c2.3-1.3,5-1.1,8.4,0.7
				c10.6,5.8,15.3,29.7,17.8,42.6c2.5,12.8,5.6,28.7,11.2,36.5l-8.8,5c-4.2,1.7-6.9,10.8-9,19.9c-0.1,0.3-0.2,0.7-0.2,1
				c-0.1,0.3-0.3,1-0.3,1.1c-0.1,0.2-0.1,0.4-0.2,0.5c0,0.1-0.1,0.2-0.1,0.3c-0.1,0.2-0.1,0.3-0.2,0.5c0,0.1-0.1,0.1-0.1,0.2
				c-0.1,0.2-0.4,0.7-0.5,0.8c-0.1,0.1-0.4,0.5-0.5,0.6s-0.2,0.2-0.3,0.3c-0.1,0.1-0.1,0.1-0.2,0.2
				C134.4,304.1,134.1,304.4,133.7,304.5z M156.1,291.3l-19.2,11.3l0,0c0.1-0.1,0.1-0.2,0.2-0.3c0.1-0.2,0.2-0.3,0.2-0.5
				c0-0.1,0.1-0.2,0.1-0.3c0.1-0.2,0.1-0.4,0.2-0.6c0-0.1,0.1-0.2,0.1-0.3c0.1-0.3,0.2-0.6,0.3-0.9c2.6-11.4,5.6-18.6,8.3-19.9
				c0.1-0.1,0.2-0.1,0.3-0.1s0.1-0.1,0.2-0.1c0.1,0,0.1-0.1,0.2-0.1c0.1,0,0.1,0,0.2-0.1c0.1,0,0.3-0.1,0.4-0.1c0.1,0,0.1,0,0.2,0
				c0.1,0,0.3,0,0.4,0c0,0,0.3,0.1,0.4,0.1h0.1c0.1,0,0.4,0.1,0.4,0.2c0.1,0.1,0.2,0.1,0.4,0.2c0,0,0,0,0.1,0
				c0.2,0.1,0.3,0.2,0.5,0.3l0.1,0.1c0.1,0.1,0.2,0.2,0.3,0.3c0.1,0.1,0.1,0.1,0.2,0.2c0.1,0.1,0.2,0.2,0.2,0.2
				c0.1,0.1,0.2,0.2,0.2,0.3c0.1,0.1,0.1,0.1,0.2,0.2c0.1,0.1,0.2,0.2,0.3,0.3c0,0.1,0.1,0.1,0.1,0.2c0.1,0.1,0.2,0.3,0.3,0.4
				l0.1,0.1c0.1,0.2,0.3,0.4,0.4,0.6l0,0C153.9,285,155,287.8,156.1,291.3z M175.4,332.5c-7.5-4.3-12.2-11.3-14-20.9
				c-0.2-1.2-0.5-2.4-0.7-3.6c-1-5.3-2.1-11.1-3.6-16.3l0,0l-0.1-0.3c-1.5-5-3.1-8.5-5-10.6l0,0c-0.1-0.2-0.3-0.3-0.4-0.5l0,0
				c-0.1-0.1-0.3-0.3-0.4-0.4c0,0,0,0-0.1-0.1s-0.3-0.2-0.4-0.4c0,0,0,0-0.1-0.1c-0.2-0.1-0.4-0.2-0.5-0.3c-0.2-0.1-0.5-0.2-0.7-0.3
				c-0.1,0-0.1,0-0.2-0.1c-0.2-0.1-0.4-0.1-0.6-0.2h-0.1l38.5-21.9c0.9-0.4,1.9-0.3,2.9,0.3c5.5,3.2,8.1,17.2,10.3,28.4
				c0.2,1.2,0.5,2.5,0.7,3.6c1.9,9.8,6.8,17,14.5,21.4l15.5,9l-39.4,22.5L175.4,332.5z"/>
		</g>
	</g>
	<g id="XMLID_2824_">
		<g id="XMLID_127_">
			<polygon id="XMLID_128_" points="194.7,316.6 182.2,323.8 180.2,322.7 192.8,315.5 			"/>
		</g>
		<g id="XMLID_125_">
			<polygon id="XMLID_126_" points="180.4,324.9 176.6,327.1 174.6,326 178.4,323.8 			"/>
		</g>
		<g id="XMLID_123_">
			<polygon id="XMLID_124_" points="198.2,318.7 180.1,329.1 178.2,328 196.2,317.5 			"/>
		</g>
		<g id="XMLID_121_">
			<polygon id="XMLID_122_" points="190.8,326.9 183.5,331.1 181.5,330 188.9,325.8 			"/>
		</g>
	</g>
	<g id="XMLID_95_">
		<path id="XMLID_2821_" d="M192,334.9c-0.7,0.4-1.5,0.3-2.3-0.1c-0.8-0.5-0.9-0.9-0.2-1.3s1.5-0.3,2.3,0.1
			C192.6,334.1,192.7,334.5,192,334.9z M189.7,333.6c-0.5,0.3-0.4,0.7,0.2,1c0.6,0.4,1.3,0.5,1.8,0.1c0.5-0.3,0.4-0.7-0.2-1
			C190.9,333.4,190.3,333.3,189.7,333.6z"/>
		<path id="XMLID_119_" d="M194.3,333.6c-0.7,0.4-1.5,0.3-2.3-0.1c-0.8-0.5-0.9-0.9-0.2-1.3s1.5-0.3,2.3,0.1
			C194.9,332.7,195,333.2,194.3,333.6z M192,332.3c-0.5,0.3-0.4,0.7,0.2,1c0.6,0.4,1.3,0.5,1.8,0.1c0.5-0.3,0.4-0.7-0.2-1
			C193.2,332,192.6,332,192,332.3z"/>
		<path id="XMLID_116_" d="M196.6,332.3c-0.7,0.4-1.5,0.3-2.3-0.1c-0.8-0.5-0.9-0.9-0.2-1.3s1.5-0.3,2.3,0.1
			C197.2,331.4,197.3,331.9,196.6,332.3z M194.3,330.9c-0.5,0.3-0.4,0.7,0.2,1c0.6,0.4,1.3,0.5,1.8,0.1c0.5-0.3,0.4-0.7-0.2-1
			C195.5,330.7,194.9,330.6,194.3,330.9z"/>
		<path id="XMLID_113_" d="M198.9,330.9c-0.7,0.4-1.5,0.3-2.3-0.1c-0.8-0.5-0.9-0.9-0.2-1.3s1.5-0.3,2.3,0.1
			C199.5,330.1,199.6,330.5,198.9,330.9z M196.6,329.6c-0.5,0.3-0.4,0.7,0.2,1c0.6,0.4,1.3,0.5,1.8,0.1c0.5-0.3,0.4-0.7-0.2-1
			C197.8,329.4,197.2,329.3,196.6,329.6z"/>
		<path id="XMLID_110_" d="M201.2,329.6c-0.7,0.4-1.5,0.3-2.3-0.1c-0.8-0.5-0.9-0.9-0.2-1.3s1.5-0.3,2.3,0.1
			S201.9,329.2,201.2,329.6z M198.9,328.3c-0.5,0.3-0.4,0.7,0.2,1c0.6,0.4,1.3,0.5,1.8,0.1c0.5-0.3,0.4-0.7-0.2-1
			S199.5,328,198.9,328.3z"/>
		<path id="XMLID_107_" d="M203.5,328.3c-0.7,0.4-1.5,0.3-2.3-0.1c-0.8-0.5-0.9-0.9-0.2-1.3s1.5-0.3,2.3,0.1
			S204.2,327.9,203.5,328.3z M201.2,326.9c-0.5,0.3-0.4,0.7,0.2,1c0.6,0.4,1.3,0.5,1.8,0.1c0.5-0.3,0.4-0.7-0.2-1
			C202.4,326.7,201.8,326.6,201.2,326.9z"/>
		<path id="XMLID_104_" d="M206.9,326.3c-0.7,0.4-1.5,0.3-2.3-0.1c-0.8-0.5-0.9-0.9-0.2-1.3s1.5-0.3,2.3,0.1
			C207.4,325.5,207.6,325.9,206.9,326.3z M204.6,325c-0.5,0.3-0.4,0.7,0.2,1c0.6,0.4,1.3,0.5,1.8,0.1c0.5-0.3,0.4-0.7-0.2-1
			C205.7,324.8,205.1,324.7,204.6,325z"/>
		<path id="XMLID_101_" d="M209.2,325c-0.7,0.4-1.5,0.3-2.3-0.1c-0.8-0.5-0.9-0.9-0.2-1.3s1.5-0.3,2.3,0.1
			C209.7,324.1,209.9,324.6,209.2,325z M206.9,323.7c-0.5,0.3-0.4,0.7,0.2,1c0.6,0.4,1.3,0.5,1.8,0.1c0.5-0.3,0.4-0.7-0.2-1
			C208.1,323.5,207.4,323.4,206.9,323.7z"/>
		<path id="XMLID_98_" d="M211.5,323.7c-0.7,0.4-1.5,0.3-2.3-0.1c-0.8-0.5-0.9-0.9-0.2-1.3s1.5-0.3,2.3,0.1
			C212,322.8,212.2,323.3,211.5,323.7z M209.2,322.4c-0.5,0.3-0.4,0.7,0.2,1c0.6,0.4,1.3,0.5,1.8,0.1c0.5-0.3,0.4-0.7-0.2-1
			C210.4,322.1,209.7,322,209.2,322.4z"/>
		<path id="XMLID_96_" d="M214.1,322.1c-0.1,0-0.1,0-0.2,0l-2.1-1.2l-0.2,0.1c-0.1,0-0.2,0-0.2,0l0,0c-0.1,0-0.1-0.1,0-0.1l0.3-0.2
			c0.1,0,0.1,0,0.2,0l2.2,1.3C214.2,322,214.2,322,214.1,322.1L214.1,322.1z"/>
	</g>
	<g id="XMLID_93_">
		<polygon id="XMLID_94_" points="30.2,223.1 12.1,233.5 10.2,232.4 28.2,221.9 		"/>
	</g>
	<g id="XMLID_91_">
		<polygon id="XMLID_92_" points="37.1,219.1 32,222 30,220.9 35.1,218 		"/>
	</g>
	<g id="XMLID_89_">
		<polygon id="XMLID_90_" points="22.8,231.3 15.5,235.5 13.5,234.4 20.9,230.2 		"/>
	</g>
	<g id="XMLID_87_">
		<polygon id="XMLID_88_" points="40.5,221.1 24.6,230.3 22.7,229.1 38.5,220 		"/>
	</g>
	<g id="XMLID_85_">
		<polygon id="XMLID_86_" points="50.4,227.4 37.9,234.6 35.9,233.5 48.5,226.3 		"/>
	</g>
	<g id="XMLID_83_">
		<polygon id="XMLID_84_" points="36.1,235.7 32.3,237.9 30.3,236.8 34.1,234.6 		"/>
	</g>
	<g id="XMLID_81_">
		<polygon id="XMLID_82_" points="53.9,229.5 35.8,239.9 33.8,238.8 51.9,228.4 		"/>
	</g>
	<g id="XMLID_79_">
		<polygon id="XMLID_80_" points="46.8,241.8 43,244 41,242.9 44.8,240.7 		"/>
	</g>
	<g id="XMLID_77_">
		<polygon id="XMLID_78_" points="56.5,240.2 46.5,246 44.5,244.9 54.5,239.1 		"/>
	</g>
	<g id="XMLID_75_">
		<polygon id="XMLID_76_" points="46.5,237.7 39.2,242 37.2,240.8 44.5,236.6 		"/>
	</g>
	<g id="XMLID_73_">
		<polygon id="XMLID_74_" points="64.2,227.5 48.3,236.7 46.4,235.5 62.2,226.4 		"/>
	</g>
	<g id="XMLID_71_">
		<polygon id="XMLID_72_" points="101.7,231.7 101,229.2 130.4,212.5 131,215 		"/>
	</g>
	<g id="XMLID_69_">
		<polygon id="XMLID_70_" points="103.3,236.4 102.6,233.9 111.3,228.9 112,231.4 		"/>
	</g>
	<g id="XMLID_67_">
		<polygon id="XMLID_68_" points="114.8,229.8 114.2,227.3 131.7,217.5 132.3,220 		"/>
	</g>
	<g id="XMLID_65_">
		<polygon id="XMLID_66_" points="104.5,241.3 103.8,238.8 121.3,229 121.9,231.5 		"/>
	</g>
	<g id="XMLID_63_">
		<polygon id="XMLID_64_" points="105.8,246.2 105.1,243.7 110,240.9 110.7,243.4 		"/>
	</g>
	<g id="XMLID_61_">
		<polygon id="XMLID_62_" points="112.8,242.1 112.2,239.5 128.4,230.5 129,233.1 		"/>
	</g>
	<g id="XMLID_58_">
		<polygon id="XMLID_60_" points="109.5,265.5 108.8,262.8 136.9,246.8 137.6,249.4 		"/>
	</g>
	<g id="XMLID_56_">
		<polygon id="XMLID_57_" points="110.3,270.4 109.6,267.7 117.9,263 118.6,265.6 		"/>
	</g>
	<g id="XMLID_54_">
		<polygon id="XMLID_55_" points="121.3,264.1 120.7,261.4 137.4,252 138,254.7 		"/>
	</g>
	<g id="XMLID_52_">
		<polygon id="XMLID_53_" points="159.1,285.1 158.3,282.7 166.9,277.9 167.6,280.3 		"/>
	</g>
	<g id="XMLID_44_">
		<polygon id="XMLID_49_" points="170.5,278.7 169.7,276.2 186.9,266.6 187.6,269 		"/>
	</g>
	<g id="XMLID_5_">
		<polygon id="XMLID_2851_" points="160.6,289.9 159.9,287.4 177.1,277.8 177.8,280.2 		"/>
	</g>
</g>
<g id="XMLID_34_">
	<g id="XMLID_1357_">
		<g id="XMLID_1888_">
			<path id="XMLID_1896_" class="st0" d="M65.3,308.7c-3.7-6.3-13.4-10.8-24.9-10.8s-21.2,4.5-24.9,10.8H14v5.5
				c0,9,11.8,16.3,26.5,16.3c14.6,0,26.5-7.3,26.5-16.3v-5.5H65.3z"/>
			<path id="XMLID_1889_" class="st1" d="M40.4,331c-14.8,0-26.9-7.5-26.9-16.8v-5.9h1.8c3.9-6.5,14-10.8,25.1-10.8
				s21.2,4.3,25.1,10.8h1.8v5.9C67.3,323.5,55.2,331,40.4,331z M14.4,309.1v5.1c0,8.8,11.7,15.9,26,15.9c14.4,0,26-7.1,26-15.9v-5.1
				H65l-0.1-0.2c-3.7-6.4-13.5-10.6-24.5-10.6s-20.8,4.3-24.5,10.6l-0.1,0.2H14.4z"/>
		</g>
		<g id="XMLID_1882_">
			<ellipse id="XMLID_1887_" class="st3" cx="40.4" cy="308.7" rx="26.5" ry="16.3"/>
			<ellipse id="XMLID_1886_" class="st0" cx="40.4" cy="310" rx="26.5" ry="16.3"/>
			<path id="XMLID_1883_" class="st1" d="M40.4,325.5c-14.8,0-26.9-7.5-26.9-16.8c0-9.2,12.1-16.8,26.9-16.8s26.9,7.5,26.9,16.8
				S55.2,325.5,40.4,325.5z M40.4,292.8c-14.4,0-26,7.1-26,15.9s11.7,15.9,26,15.9c14.4,0,26-7.1,26-15.9
				C66.5,299.9,54.8,292.8,40.4,292.8z"/>
		</g>
		<g id="XMLID_1719_">
			<ellipse id="XMLID_1825_" class="st3" cx="40.4" cy="308" rx="21.1" ry="12.3"/>
			<path id="XMLID_1720_" class="st1" d="M40.4,320.7c-11.9,0-21.5-5.7-21.5-12.7s9.7-12.7,21.5-12.7C52.3,295.3,62,301,62,308
				S52.3,320.7,40.4,320.7z M40.4,296.1c-11.4,0-20.7,5.3-20.7,11.9s9.3,11.9,20.7,11.9s20.7-5.3,20.7-11.9S51.8,296.1,40.4,296.1z"
				/>
		</g>
		<g id="XMLID_1714_">
			<path id="XMLID_1718_" class="st3" d="M40.4,295.7c-11.7,0-21.1,5.5-21.1,12.3c0,0.6,0.1,1.2,0.2,1.8
				c1.5-5.9,10.3-10.5,20.9-10.5s19.4,4.6,20.9,10.5c0.1-0.6,0.2-1.2,0.2-1.8C61.6,301.2,52.1,295.7,40.4,295.7z"/>
			<path id="XMLID_1715_" class="st1" d="M61.1,310.7l-0.2-0.8c-1.5-5.8-10.3-10.2-20.5-10.2s-19,4.4-20.5,10.2l-0.2,0.9l-0.6-0.9
				c-0.2-0.7-0.3-1.3-0.3-1.9c0-7,9.7-12.7,21.5-12.7c12,0,21.7,5.7,21.7,12.7c0,0.6-0.1,1.2-0.3,1.9L61.1,310.7z M40.4,296.1
				c-11.4,0-20.7,5.3-20.7,11.9c0,0,0,0,0,0.1c2.6-5.4,10.9-9.2,20.7-9.2s18.1,3.8,20.7,9.2c0,0,0,0,0-0.1
				C61.1,301.4,51.8,296.1,40.4,296.1z"/>
		</g>
		<polygon id="XMLID_1713_" class="st6" points="36.9,296 36.9,299.4 31,300.6 25.2,303 21,306.7 19.6,309.8 19.3,306.7 21.1,303 
			24.3,300.1 29.5,297.5 35.9,296 		"/>
		<g id="XMLID_1365_">
			<g id="XMLID_1403_">
				<path id="XMLID_1581_" class="st3" d="M51.7,314.2c0.8-0.8,1.2-1.6,1.3-2.4l0,0v-2.4l-1.6-0.7c-0.3-0.3-0.7-0.5-1.1-0.7
					c-1.5-0.8-3.1-1.3-4.8-1.3c-1.7-0.1-4,0.4-6.7,1.3l-5.4-3c1.3-0.3,2.5-0.2,3.8,0.3l3-2.3v-2.2l-3.8,1.3l0,0c-0.4,0-0.8,0-1.1,0
					c-1.7,0-3.3,0.4-4.9,1.2l-0.7-0.4l0.3-0.2v-1l-2.9-0.2v3.4l0.9-0.7l0.4,0.2c-0.4,0.3-0.8,0.7-1.1,1c-0.5-0.2-0.9-0.3-0.9-0.3
					v2.5c0.1,1.1,0.9,2.1,2.4,2.9s3.2,1.3,5,1.4c1.9,0.1,3.9-0.2,6.2-1l5.7,3.2c-0.7,0.2-1.5,0.2-2.5,0.1c-0.6,0-1.2-0.1-1.7-0.3
					l0.1-0.5l-4.2,0.3v2.2c2.1,0.8,4.1,1.3,6,1.2c2,0,3.8-0.4,5.6-1.3l2.5,1.4l2-1.2v-2.2L51.7,314.2z M33.8,309
					c-0.7-0.1-1.3-0.2-1.8-0.5s-0.9-0.7-1-1.1s0-0.9,0.3-1.3l4.7,2.7C35.3,309,34.5,309.1,33.8,309z M48,313.1l-5.4-3
					c1-0.3,2-0.5,2.8-0.5s1.5,0.2,2.1,0.6c0.7,0.4,1.1,0.8,1.2,1.4C48.7,312.2,48.5,312.7,48,313.1z"/>
				<path id="XMLID_1422_" class="st1" d="M51.6,317.9l-2.5-1.4c-1.7,0.8-3.6,1.2-5.5,1.2c-2,0-4.1-0.4-6.2-1.3l-0.3-0.1v-2.9
					l5.2-0.4l-0.2,0.6c0.4,0.1,0.8,0.2,1.2,0.2s0.8,0,1.1,0l-4.5-2.5c-2.2,0.7-4.3,1.1-6.2,1c-1.9-0.1-3.7-0.6-5.2-1.4
					c-1.6-0.9-2.5-2-2.6-3.3V305l0.6-0.3V301l3.7,0.2v1.5c1.6-0.7,3.2-1.1,4.9-1.1c0.3,0,0.7,0,1,0l4.3-1.5v3l-3.3,2.6l-0.2-0.1
					c-0.8-0.3-1.6-0.4-2.3-0.4l4.1,2.3c2.7-0.9,5-1.4,6.7-1.3c1.8,0.1,3.5,0.5,5,1.4c0.4,0.2,0.8,0.5,1.1,0.7l1.8,0.7v2.6l-0.1,0.6
					c-0.1,0.5-0.3,0.9-0.7,1.4l1.3-0.1v2.9L51.6,317.9z M49.1,315.6l2.5,1.4l1.5-0.9v-1.5l-2.5,0.1l0.8-0.8c0.7-0.7,1.1-1.4,1.2-2.2
					v-0.6v-1.4l-1.4-0.6c-0.3-0.2-0.7-0.5-1.1-0.7c-1.4-0.8-3-1.2-4.6-1.3c-1.7-0.1-3.9,0.4-6.6,1.3l-0.2,0.1l-6.5-3.6l1-0.3
					c1.3-0.3,2.5-0.2,3.8,0.2l2.6-2v-1.4l-2.8,1l0.1,0.2h-0.7c-0.4,0-0.7,0-1.1,0c-1.6,0-3.2,0.4-4.7,1.2l-0.2,0.1l-1.4-0.8l0.6-0.5
					v-0.4l-1.9,0.3l-0.2,1.7l0.5-0.4l1.2,0.7l-0.5,0.4c-0.4,0.3-0.7,0.6-1,0.9l-0.2,0.2l-0.6-0.2v1.9c0.1,0.9,0.8,1.8,2.2,2.6
					c1.4,0.8,3,1.2,4.8,1.3c1.8,0.1,3.8-0.2,6-1l0.2-0.1l6.9,3.8l-1.1,0.2c-0.8,0.2-1.6,0.2-2.6,0.2c-0.6,0-1.1-0.1-1.8-0.3
					l-0.4-0.1L41,314l-3.2,0.3v1.5c1.9,0.7,3.8,1.1,5.6,1.1c1.9,0,3.7-0.4,5.4-1.2L49.1,315.6z M48,313.7l-6.4-3.6l0.9-0.3
					c1.1-0.4,2.1-0.5,2.9-0.5c0.9,0,1.6,0.2,2.3,0.6c0.8,0.4,1.3,1,1.4,1.7c0.1,0.7-0.2,1.3-0.8,1.9L48,313.7z M43.7,310.3l4.2,2.3
					c0.3-0.3,0.4-0.6,0.3-0.9c-0.1-0.4-0.4-0.8-0.9-1.1c-0.6-0.3-1.2-0.5-1.9-0.5C44.9,310.1,44.3,310.1,43.7,310.3z M34.3,309.5
					c-0.2,0-0.4,0-0.5,0l0,0c-0.8-0.1-1.4-0.3-2-0.5c-0.6-0.4-1-0.8-1.2-1.3c-0.1-0.4-0.1-1,0.4-1.7l0.2-0.3l6,3.3l-1,0.3
					C35.6,309.4,34.9,309.5,34.3,309.5z M33.9,308.6c0.3,0,0.7,0,1,0l-3.4-1.9c-0.1,0.3-0.1,0.5-0.1,0.6c0.1,0.3,0.4,0.6,0.8,0.8
					C32.7,308.4,33.2,308.5,33.9,308.6L33.9,308.6z"/>
			</g>
			<g id="XMLID_1366_">
				<g id="XMLID_1367_">
					<path id="XMLID_1394_" class="st3" d="M45.8,312l-5.7-3.2c-2.3,0.8-4.3,1.1-6.2,1c-1.9-0.1-3.5-0.5-5-1.4
						c-1.5-0.8-2.3-1.8-2.4-2.9s0.6-2.2,1.9-3.2l-1.4-0.8l2-1.2l1.4,0.8c1.6-0.8,3.2-1.2,4.9-1.2s3.3,0.2,4.9,0.9l-3,2.3
						c-1.3-0.5-2.6-0.6-3.8-0.3l5.4,3c2.7-1,5-1.4,6.7-1.3s3.3,0.5,4.8,1.3c1.7,0.9,2.6,2,2.7,3.2c0.2,1.2-0.5,2.4-2,3.6l2.6,1.4
						l-2,1.2l-2.5-1.4c-1.7,0.8-3.6,1.2-5.6,1.3c-2,0-4-0.4-6-1.2l3.1-2.3c0.9,0.3,1.8,0.5,2.7,0.6C44.3,312.2,45.1,312.2,45.8,312z
						 M31.4,304c-0.3,0.4-0.5,0.8-0.3,1.3c0.1,0.4,0.5,0.8,1,1.1c0.5,0.3,1.1,0.4,1.8,0.5s1.5,0,2.3-0.2L31.4,304z M48,311
						c0.5-0.5,0.8-1,0.7-1.5s-0.5-1-1.2-1.4c-0.6-0.3-1.3-0.5-2.1-0.6c-0.8,0-1.7,0.1-2.8,0.5L48,311z"/>
					<path id="XMLID_1385_" class="st0" d="M45.7,313l-5.7-3.2c-2.3,0.8-4.3,1.1-6.2,1c-1.9-0.1-3.5-0.5-5-1.4c-1.5-0.8-2-1.8-2-2.9
						c-0.1-1.1,0.2-2.2,1.6-3.3l-0.6-1l1.2-1l1.4,0.8c1.6-0.8,3.2-1.2,4.9-1.2s3,0.5,4.6,1.1l-2.7,2.1c-1.3-0.5-2.6-0.6-3.8-0.3
						l5.4,3c2.7-1,5-1.4,6.7-1.3s3.3,0.5,4.8,1.3c1.7,0.9,2.6,2,2.7,3.2c0.2,1.2-0.5,2.4-2,3.6l2.3,1.6l-1.7,1l-2.5-1.4
						c-1.7,0.8-3.6,1.2-5.6,1.3c-2,0-3.5-0.2-5.6-1.1l2.7-2.5c0.9,0.3,1.8,0.5,2.7,0.6C44.1,313.2,45,313.2,45.7,313z M31.3,305
						c-0.3,0.4-0.5,0.8-0.3,1.3c0.1,0.4,0.5,0.8,1,1.1c0.5,0.3,1.1,0.4,1.8,0.5s1.5,0,2.3-0.2L31.3,305z M47.8,312
						c0.5-0.5,0.8-1,0.7-1.5s-0.5-1-1.2-1.4c-0.6-0.3-1.3-0.5-2.1-0.6c-0.8,0-1.7,0.1-2.8,0.5L47.8,312z"/>
					<path id="XMLID_1373_" class="st1" d="M51.6,315.7l-2.5-1.4c-1.7,0.8-3.6,1.2-5.5,1.2c-2,0-4.1-0.4-6.2-1.3l-0.3-0.1v-0.7
						l1.2-0.7l2.3-1.7l0.2,0.1c0.8,0.3,1.7,0.5,2.6,0.6c0.4,0,0.8,0,1.1,0l-4.5-2.5c-2.2,0.7-4.3,1.1-6.2,1
						c-1.9-0.1-3.7-0.6-5.2-1.4c-1.6-0.9-2.5-2-2.6-3.3c-0.1-1.1,0.4-2.2,1.6-3.2l-1.4-0.8l2.8-1.7l1.4,0.8c1.6-0.7,3.2-1.1,4.9-1.1
						s3.7,0.1,5.3,0.7l0,0v0.8l-3.3,2.6l-0.2-0.1c-0.8-0.3-1.6-0.4-2.3-0.4l4.1,2.3c2.7-0.9,5-1.4,6.7-1.3c1.8,0.1,3.5,0.5,5,1.4
						c1.8,1,2.8,2.2,2.9,3.5c0.2,1.2-0.4,2.4-1.7,3.6l2.2,1.1v0.7L51.6,315.7z M49.1,313.4l2.5,1.4l1.3-0.8l-2.6-1.3l0.5-0.4
						c1.4-1.1,2-2.2,1.9-3.2c-0.1-1.1-1-2-2.5-2.9c-1.4-0.8-3-1.2-4.6-1.3c-1.7-0.1-3.9,0.4-6.6,1.3l-0.2,0.1l-6.5-3.6l1-0.3
						c1.3-0.3,2.5-0.2,3.8,0.2l2.3-1.8c-1.3-0.4-2.8-0.5-4.2-0.4c-1.6,0-3.2,0.4-4.7,1.2l-0.2,0.1L29,301l-1.1,0.7l1.3,0.7l-0.5,0.4
						c-1.3,0.9-1.8,1.9-1.8,2.8c0.1,1,0.8,1.8,2.2,2.6c1.4,0.8,3,1.2,4.8,1.3c1.8,0.1,3.8-0.2,6-1l0.2-0.1l6.9,3.8l-1.1,0.2
						c-0.8,0.2-1.6,0.2-2.6,0.2c-0.9-0.1-1.8-0.2-2.6-0.5l-2.3,1.7c1.8,0.6,3.5,1,5.2,0.9c1.9,0,3.7-0.4,5.4-1.2L49.1,313.4z
						 M48,311.5l-6.4-3.6l0.9-0.3c1.1-0.4,2.1-0.5,2.9-0.5c0.9,0,1.6,0.2,2.3,0.6c0.8,0.4,1.3,1,1.4,1.7c0.1,0.7-0.2,1.3-0.8,1.9
						L48,311.5z M43.7,308.1l4.2,2.3c0.3-0.3,0.4-0.6,0.3-0.9c-0.1-0.4-0.4-0.8-0.9-1.1c-0.6-0.3-1.2-0.5-1.9-0.5
						C44.9,307.9,44.3,308,43.7,308.1z M34.3,307.3c-0.2,0-0.4,0-0.5,0c-0.8-0.1-1.4-0.3-2-0.5c-0.6-0.4-1-0.8-1.2-1.3
						c-0.1-0.4-0.1-1,0.4-1.7l0.2-0.3l6,3.3l-1,0.3C35.6,307.2,34.9,307.3,34.3,307.3z M31.5,304.5c-0.1,0.3-0.1,0.5-0.1,0.6
						c0.1,0.3,0.4,0.6,0.8,0.8c0.4,0.2,1,0.4,1.6,0.4c0.3,0,0.7,0,1,0L31.5,304.5z"/>
				</g>
			</g>
		</g>
		<polygon id="XMLID_1364_" class="st1" points="43.4,325 43.4,330.6 49.7,329.5 55.7,327.8 62,323.8 65.8,319 66.9,315.7 
			66.8,311.4 63.8,316.9 57.9,321 49.1,324.2 		"/>
		<polygon id="XMLID_1358_" class="st1" points="39.5,325.1 39.5,330.6 36.9,330.4 36.9,324.6 		"/>
	</g>
	<g id="XMLID_35_">
		<g id="XMLID_1347_">
			<path id="XMLID_1356_" class="st0" d="M65.3,300.7c-3.7-6.3-13.4-10.8-24.9-10.8s-21.2,4.5-24.9,10.8H14v5.5
				c0,9,11.8,16.3,26.5,16.3S67,315.2,67,306.2v-5.5H65.3z"/>
			<path id="XMLID_1348_" class="st1" d="M40.4,323c-14.8,0-26.9-7.5-26.9-16.8v-5.9h1.8c3.9-6.5,14-10.8,25.1-10.8
				s21.2,4.3,25.1,10.8h1.8v5.9C67.3,315.4,55.2,323,40.4,323z M14.4,301.1v5.1c0,8.8,11.7,15.9,26,15.9c14.4,0,26-7.1,26-15.9v-5.1
				H65l-0.1-0.2c-3.7-6.4-13.5-10.6-24.5-10.6s-20.8,4.3-24.5,10.6l-0.1,0.2H14.4z"/>
		</g>
		<g id="XMLID_1325_">
			<ellipse id="XMLID_1341_" class="st0" cx="40.4" cy="300.7" rx="26.5" ry="16.3"/>
			<ellipse id="XMLID_1340_" class="st0" cx="40.4" cy="302" rx="26.5" ry="16.3"/>
			<path id="XMLID_1332_" class="st1" d="M40.4,317.5c-14.8,0-26.9-7.5-26.9-16.8c0-9.2,12.1-16.8,26.9-16.8s26.9,7.5,26.9,16.8
				C67.3,309.9,55.2,317.5,40.4,317.5z M40.4,284.8c-14.4,0-26,7.1-26,15.9s11.7,15.9,26,15.9c14.4,0,26-7.1,26-15.9
				C66.5,291.9,54.8,284.8,40.4,284.8z"/>
		</g>
		<g id="XMLID_1203_">
			<ellipse id="XMLID_1324_" class="st0" cx="40.4" cy="300" rx="21.1" ry="12.3"/>
			<path id="XMLID_1205_" class="st1" d="M40.4,312.7c-11.9,0-21.5-5.7-21.5-12.7s9.7-12.7,21.5-12.7c11.9,0,21.5,5.7,21.5,12.7
				C62,307,52.3,312.7,40.4,312.7z M40.4,288.1c-11.4,0-20.7,5.3-20.7,11.9c0,6.5,9.3,11.9,20.7,11.9s20.7-5.3,20.7-11.9
				C61.1,293.4,51.8,288.1,40.4,288.1z"/>
		</g>
		<g id="XMLID_1198_">
			<path id="XMLID_1202_" class="st0" d="M40.4,287.7c-11.7,0-21.1,5.5-21.1,12.3c0,0.6,0.1,1.2,0.2,1.8
				c1.5-5.9,10.3-10.5,20.9-10.5s19.4,4.6,20.9,10.5c0.1-0.6,0.2-1.2,0.2-1.8C61.6,293.2,52.1,287.7,40.4,287.7z"/>
			<path id="XMLID_1199_" class="st1" d="M61.1,302.6l-0.2-0.8c-1.5-5.8-10.3-10.2-20.5-10.2s-19,4.4-20.5,10.2l-0.2,0.9l-0.6-0.9
				c-0.2-0.7-0.3-1.3-0.3-1.9c0-7,9.7-12.7,21.5-12.7c11.9,0,21.5,5.7,21.5,12.7c0,0.6-0.1,1.2-0.3,1.9L61.1,302.6z M40.4,288.1
				c-11.4,0-20.7,5.3-20.7,11.9c0,0,0,0,0,0.1c2.6-5.4,10.9-9.2,20.7-9.2s18.1,3.8,20.7,9.2c0,0,0,0,0-0.1
				C61.1,293.4,51.8,288.1,40.4,288.1z"/>
		</g>
		<polygon id="XMLID_1182_" class="st6" points="36.9,287.9 36.9,291.4 31,292.5 25.2,295 21,298.7 19.6,301.7 19.3,298.7 21.1,295 
			24.3,292 29.5,289.4 35.9,287.9 		"/>
		<g id="XMLID_38_">
			<g id="XMLID_1170_">
				<path id="XMLID_1178_" class="st3" d="M51.7,306.1c0.8-0.8,1.2-1.6,1.3-2.4l0,0v-2.4l-1.6-0.7c-0.3-0.3-0.7-0.5-1.1-0.7
					c-1.5-0.8-3.1-1.3-4.8-1.3c-1.7-0.1-4,0.4-6.7,1.3l-5.4-3c1.3-0.3,2.5-0.2,3.8,0.3l3-2.3v-2.2l-3.8,1.3l0,0c-0.4,0-0.8,0-1.1,0
					c-1.7,0-3.3,0.4-4.9,1.2l-0.7-0.4l0.3-0.2v-1l-2.9-0.2v3.4l0.9-0.7l0.4,0.2c-0.4,0.3-0.8,0.7-1.1,1c-0.5-0.2-0.9-0.3-0.9-0.3
					v2.5c0.1,1.1,0.9,2.1,2.4,2.9s3.2,1.3,5,1.4c1.9,0.1,3.9-0.2,6.2-1l5.7,3.2c-0.7,0.2-1.5,0.2-2.5,0.1c-0.6,0-1.2-0.1-1.7-0.3
					l0.1-0.5l-4.2,0.3v2.2c2.1,0.8,4.1,1.3,6,1.2c2,0,3.8-0.4,5.6-1.3l2.5,1.4l2-1.2v-2.2L51.7,306.1z M33.8,301
					c-0.7-0.1-1.3-0.2-1.8-0.5s-0.9-0.7-1-1.1s0-0.9,0.3-1.3l4.7,2.7C35.3,301,34.5,301.1,33.8,301z M48,305.1l-5.4-3
					c1-0.3,2-0.5,2.8-0.5s1.5,0.2,2.1,0.6c0.7,0.4,1.1,0.8,1.2,1.4C48.7,304.1,48.5,304.6,48,305.1z"/>
				<path id="XMLID_1171_" class="st1" d="M51.6,309.9l-2.5-1.4c-1.7,0.8-3.6,1.2-5.5,1.2c-2,0-4.1-0.4-6.2-1.3l-0.3-0.1v-2.9
					l5.2-0.4l-0.2,0.6c0.4,0.1,0.8,0.2,1.2,0.2s0.8,0,1.1,0l-4.5-2.5c-2.2,0.7-4.3,1.1-6.2,1c-1.9-0.1-3.7-0.6-5.2-1.4
					c-1.6-0.9-2.5-2-2.6-3.3V297l0.6-0.3V293l3.7,0.2v1.5c1.6-0.7,3.2-1.1,4.9-1.1c0.3,0,0.7,0,1,0l4.3-1.5v3l-3.3,2.6l-0.2-0.1
					c-0.8-0.3-1.6-0.4-2.3-0.4l4.1,2.3c2.7-0.9,5-1.4,6.7-1.3c1.8,0.1,3.5,0.5,5,1.4c0.4,0.2,0.8,0.5,1.1,0.7l1.8,0.7v2.6l-0.1,0.6
					c-0.1,0.5-0.3,0.9-0.7,1.4l1.3-0.1v2.9L51.6,309.9z M49.1,307.5l2.5,1.4l1.5-0.9v-1.5l-2.5,0.1l0.8-0.8c0.7-0.7,1.1-1.4,1.2-2.2
					V303v-1.4l-1.4-0.6c-0.3-0.2-0.7-0.5-1.1-0.7c-1.4-0.8-3-1.2-4.6-1.3c-1.7-0.1-3.9,0.4-6.6,1.3l-0.2,0.1l-6.5-3.6l1-0.3
					c1.3-0.3,2.5-0.2,3.8,0.2l2.6-2v-1.4l-2.8,1l0.1,0.2h-0.7c-0.4,0-0.7,0-1.1,0c-1.6,0-3.2,0.4-4.7,1.2l-0.2,0.1l-1.4-0.8l0.6-0.5
					v-0.4l-1.9,0.3l-0.2,1.7l0.5-0.4l1.2,0.7l-0.5,0.4c-0.4,0.3-0.7,0.6-1,0.9l-0.2,0.2l-0.6-0.2v1.9c0.1,0.9,0.8,1.8,2.2,2.6
					c1.4,0.8,3,1.2,4.8,1.3c1.8,0.1,3.8-0.2,6-1l0.2-0.1l6.9,3.8l-1.1,0.2c-0.8,0.2-1.6,0.2-2.6,0.2c-0.6,0-1.1-0.1-1.8-0.3
					l-0.4-0.1l0.1-0.3l-3.2,0.2v1.5c1.9,0.7,3.8,1.1,5.6,1.1c1.9,0,3.7-0.4,5.4-1.2L49.1,307.5z M48,305.6l-6.4-3.6l0.9-0.3
					c1.1-0.4,2.1-0.5,2.9-0.5c0.9,0,1.6,0.2,2.3,0.6c0.8,0.4,1.3,1,1.4,1.7c0.1,0.7-0.2,1.3-0.8,1.9L48,305.6z M43.7,302.3l4.2,2.3
					c0.3-0.3,0.4-0.6,0.3-0.9c-0.1-0.4-0.4-0.8-0.9-1.1c-0.6-0.3-1.2-0.5-1.9-0.5C44.9,302.1,44.3,302.1,43.7,302.3z M34.3,301.4
					c-0.2,0-0.4,0-0.5,0l0,0c-0.8-0.1-1.4-0.3-2-0.5c-0.6-0.4-1-0.8-1.2-1.3c-0.1-0.4-0.1-1,0.4-1.7l0.2-0.3l6,3.3l-1,0.3
					C35.6,301.4,34.9,301.4,34.3,301.4z M33.9,300.6c0.3,0,0.7,0,1,0l-3.4-1.9c-0.1,0.3-0.1,0.5-0.1,0.6c0.1,0.3,0.4,0.6,0.8,0.8
					C32.7,300.4,33.2,300.5,33.9,300.6L33.9,300.6z"/>
			</g>
			<g id="XMLID_39_">
				<g id="XMLID_40_">
					<path id="XMLID_1163_" class="st0" d="M45.8,304l-5.7-3.2c-2.3,0.8-4.3,1.1-6.2,1c-1.9-0.1-3.5-0.5-5-1.4
						c-1.5-0.8-2.3-1.8-2.4-2.9s0.6-2.2,1.9-3.2l-1.4-0.8l2-1.2l1.4,0.8c1.6-0.8,3.2-1.2,4.9-1.2s3.3,0.2,4.9,0.9l-3,2.3
						c-1.3-0.5-2.6-0.6-3.8-0.3l5.4,3c2.7-1,5-1.4,6.7-1.3s3.3,0.5,4.8,1.3c1.7,0.9,2.6,2,2.7,3.2c0.2,1.2-0.5,2.4-2,3.6l2.6,1.4
						l-2,1.2l-2.5-1.4c-1.7,0.8-3.6,1.2-5.6,1.3c-2,0-4-0.4-6-1.2l3.1-2.3c0.9,0.3,1.8,0.5,2.7,0.6C44.3,304.2,45.1,304.1,45.8,304z
						 M31.4,296c-0.3,0.4-0.5,0.8-0.3,1.3c0.1,0.4,0.5,0.8,1,1.1c0.5,0.3,1.1,0.4,1.8,0.5s1.5,0,2.3-0.2L31.4,296z M48,302.9
						c0.5-0.5,0.8-1,0.7-1.5s-0.5-1-1.2-1.4c-0.6-0.3-1.3-0.5-2.1-0.6c-0.8,0-1.7,0.1-2.8,0.5L48,302.9z"/>
					<path id="XMLID_1159_" class="st0" d="M45.7,305l-5.7-3.2c-2.3,0.8-4.3,1.1-6.2,1c-1.9-0.1-3.5-0.5-5-1.4c-1.5-0.8-2-1.8-2-2.9
						c-0.1-1.1,0.2-2.2,1.6-3.3l-0.6-1l1.2-1l1.4,0.8c1.6-0.8,3.2-1.2,4.9-1.2s2.9,0.5,4.5,1.1l-2.6,2.1c-1.3-0.5-2.6-0.6-3.8-0.3
						l5.4,3c2.7-1,5-1.4,6.7-1.3s3.3,0.5,4.8,1.3c1.7,0.9,2.6,2,2.7,3.2c0.2,1.2-0.5,2.4-2,3.6l2.3,1.6l-1.7,1l-2.5-1.4
						c-1.7,0.8-3.6,1.2-5.6,1.3c-2,0-3.4-0.3-5.5-1.1l2.6-2.4c0.9,0.3,1.8,0.5,2.7,0.6C44.1,305.2,45,305.2,45.7,305z M31.3,297
						c-0.3,0.4-0.5,0.8-0.3,1.3c0.1,0.4,0.5,0.8,1,1.1c0.5,0.3,1.1,0.4,1.8,0.5s1.5,0,2.3-0.2L31.3,297z M47.8,304
						c0.5-0.5,0.8-1,0.7-1.5s-0.5-1-1.2-1.4c-0.6-0.3-1.3-0.5-2.1-0.6c-0.8,0-1.7,0.1-2.8,0.5L47.8,304z"/>
					<path id="XMLID_41_" class="st1" d="M51.6,307.7l-2.5-1.4c-1.7,0.8-3.6,1.2-5.5,1.2c-2,0-4.1-0.4-6.2-1.3l-0.3-0.1v-0.7
						l1.2-0.7l2.3-1.7l0.2,0.1c0.8,0.3,1.7,0.5,2.6,0.5c0.4,0,0.8,0,1.1,0l-4.5-2.5c-2.2,0.7-4.3,1.1-6.2,1
						c-1.9-0.1-3.7-0.6-5.2-1.4c-1.6-0.9-2.5-2-2.6-3.3c-0.1-1.1,0.4-2.2,1.6-3.2l-1.4-0.8l2.8-1.7l1.4,0.8c1.6-0.7,3.2-1.1,4.9-1.1
						s3.7,0.1,5.3,0.7l0,0v0.8l-3.3,2.6l-0.2-0.1c-0.8-0.3-1.6-0.4-2.3-0.4l4.1,2.3c2.7-0.9,5-1.4,6.7-1.3c1.8,0.1,3.5,0.5,5,1.4
						c1.8,1,2.8,2.2,2.9,3.5c0.2,1.2-0.4,2.4-1.7,3.6l2.2,1.1v0.7L51.6,307.7z M49.1,305.4l2.5,1.4l1.3-0.8l-2.6-1.3l0.5-0.4
						c1.4-1.1,2-2.2,1.9-3.2c-0.1-1.1-1-2-2.5-2.9c-1.4-0.8-3-1.2-4.6-1.3c-1.7-0.1-3.9,0.4-6.6,1.3l-0.2,0.1l-6.5-3.6l1-0.3
						c1.3-0.3,2.5-0.2,3.8,0.2l2.3-1.8c-1.3-0.4-2.8-0.5-4.2-0.4c-1.6,0-3.2,0.4-4.7,1.2l-0.2,0.1L29,293l-1.1,0.7l1.3,0.7l-0.5,0.4
						c-1.3,0.9-1.8,1.9-1.8,2.8c0.1,1,0.8,1.8,2.2,2.6c1.4,0.8,3,1.2,4.8,1.3c1.8,0.1,3.8-0.2,6-1l0.2-0.1l6.9,3.8l-1.1,0.2
						c-0.8,0.2-1.6,0.2-2.6,0.2c-0.9-0.1-1.8-0.2-2.6-0.5l-2.3,1.7c1.8,0.6,3.5,1,5.2,0.9c1.9,0,3.7-0.4,5.4-1.2L49.1,305.4z
						 M48,303.5l-6.4-3.6l0.9-0.3c1.1-0.4,2.1-0.5,2.9-0.5c0.9,0,1.6,0.2,2.3,0.6c0.8,0.4,1.3,1,1.4,1.7c0.1,0.7-0.2,1.3-0.8,1.9
						L48,303.5z M43.7,300.1l4.2,2.3c0.3-0.3,0.4-0.6,0.3-0.9c-0.1-0.4-0.4-0.8-0.9-1.1c-0.6-0.3-1.2-0.5-1.9-0.5
						C44.9,299.9,44.3,299.9,43.7,300.1z M34.3,299.3c-0.2,0-0.4,0-0.5,0c-0.8-0.1-1.4-0.3-2-0.5c-0.6-0.4-1-0.8-1.2-1.3
						c-0.1-0.4-0.1-1,0.4-1.7l0.2-0.3l6,3.3l-1,0.3C35.6,299.2,34.9,299.3,34.3,299.3z M31.5,296.5c-0.1,0.3-0.1,0.5-0.1,0.6
						c0.1,0.3,0.4,0.6,0.8,0.8c0.4,0.2,1,0.4,1.6,0.4c0.3,0,0.7,0,1,0L31.5,296.5z"/>
				</g>
			</g>
		</g>
		<polygon id="XMLID_37_" class="st1" points="43.4,316.9 43.4,322.5 49.7,321.5 55.7,319.7 62,315.8 65.8,311 66.9,307.7 
			66.8,303.3 63.8,308.9 57.9,312.9 49.1,316.1 		"/>
		<polygon id="XMLID_36_" class="st1" points="39.5,317.1 39.5,322.6 36.9,322.4 36.9,316.6 		"/>
	</g>
</g>
</svg>
