<?xml version="1.0" encoding="utf-8"?>
<!-- Generator: Adobe Illustrator 21.1.0, SVG Export Plug-In . SVG Version: 6.00 Build 0)  -->
<svg version="1.1" id="Capa_1" xmlns="http://www.w3.org/2000/svg" xmlns:xlink="http://www.w3.org/1999/xlink" x="0px" y="0px"
	 viewBox="0 0 464.1 464.1" style="enable-background:new 0 0 464.1 464.1;" xml:space="preserve">
<style type="text/css">
	.st0{fill:#F4DD38;}
	.st1{fill:#25212A;}
</style>
<circle class="st0" cx="232" cy="328" r="96"/>
<g>
	<path class="st1" d="M77.6,461.6l26.4-26.4l26.4,26.4c3.2,3.2,8,3.2,11.2,0l26.4-26.4l26.4,26.4c3.2,3.2,8,3.2,11.2,0l26.4-26.4
		l26.4,26.4c3.2,3.2,8,3.2,11.2,0l26.4-26.4l26.4,26.4c3.2,3.2,8,3.2,11.2,0l26.4-26.4l26.4,26.4c1.6,1.6,3.2,2.4,5.6,2.4
		c0.8,0,2.4,0,3.2-0.8c3.2-1.6,4.8-4,4.8-7.2V8c0-3.2-1.6-6.4-4.8-7.2c-3.2-1.6-6.4-0.8-8.8,1.6L360,28.8L333.6,2.4
		c-3.2-3.2-8-3.2-11.2,0L296,28.8L269.6,2.4c-3.2-3.2-8-3.2-11.2,0L232,28.8L205.6,2.4c-3.2-3.2-8-3.2-11.2,0L168,28.8L141.6,2.4
		c-3.2-3.2-8-3.2-11.2,0L104,28.8L77.6,2.4C75.2,0,72-0.8,68.8,0.8C65.6,1.6,64,4.8,64,8v448c0,3.2,1.6,6.4,4.8,7.2
		C72,464.8,75.2,464,77.6,461.6z M80,27.2l18.4,18.4c3.2,3.2,8,3.2,11.2,0L136,19.2l26.4,26.4c3.2,3.2,8,3.2,11.2,0L200,19.2
		l26.4,26.4c3.2,3.2,8,3.2,11.2,0L264,19.2l26.4,26.4c3.2,3.2,8,3.2,11.2,0L328,19.2l26.4,26.4c3.2,3.2,8,3.2,11.2,0L384,27.2v409.6
		l-18.4-18.4c-3.2-3.2-8-3.2-11.2,0L328,444.8l-26.4-26.4c-1.6-1.6-3.2-2.4-5.6-2.4s-4,0.8-5.6,2.4L264,444.8l-26.4-26.4
		c-3.2-3.2-8-3.2-11.2,0L200,444.8l-26.4-26.4c-3.2-3.2-8-3.2-11.2,0L136,444.8l-26.4-26.4c-3.2-3.2-8-3.2-11.2,0L80,436.8L80,27.2
		L80,27.2z"/>
	<path class="st1" d="M232,400c57.6,0,104-46.4,104-104s-46.4-104-104-104s-104,46.4-104,104S174.4,400,232,400z M232,208
		c48.8,0,88,39.2,88,88s-39.2,88-88,88s-88-39.2-88-88S183.2,208,232,208z"/>
	<path class="st1" d="M136,80h128c4.8,0,8-3.2,8-8s-3.2-8-8-8H136c-4.8,0-8,3.2-8,8S131.2,80,136,80z"/>
	<path class="st1" d="M296,80h32c4.8,0,8-3.2,8-8s-3.2-8-8-8h-32c-4.8,0-8,3.2-8,8S291.2,80,296,80z"/>
	<path class="st1" d="M136,112h32c4.8,0,8-3.2,8-8s-3.2-8-8-8h-32c-4.8,0-8,3.2-8,8S131.2,112,136,112z"/>
	<path class="st1" d="M328,96H200c-4.8,0-8,3.2-8,8s3.2,8,8,8h128c4.8,0,8-3.2,8-8S332.8,96,328,96z"/>
	<path class="st1" d="M136,144h96c4.8,0,8-3.2,8-8s-3.2-8-8-8h-96c-4.8,0-8,3.2-8,8S131.2,144,136,144z"/>
	<path class="st1" d="M328,128h-64c-4.8,0-8,3.2-8,8s3.2,8,8,8h64c4.8,0,8-3.2,8-8S332.8,128,328,128z"/>
	<path class="st1" d="M248,320h-48c-4.8,0-8,3.2-8,8s3.2,8,8,8h24v24c0,4.8,3.2,8,8,8s8-3.2,8-8v-24h8c13.6,0,24-10.4,24-24
		s-10.4-24-24-24h-32c-4.8,0-8-3.2-8-8s3.2-8,8-8h48c4.8,0,8-3.2,8-8s-3.2-8-8-8h-24v-24c0-4.8-3.2-8-8-8s-8,3.2-8,8v24h-8
		c-13.6,0-24,10.4-24,24s10.4,24,24,24h32c4.8,0,8,3.2,8,8S252.8,320,248,320z"/>
	<path class="st1" d="M136,176h192c4.8,0,8-3.2,8-8s-3.2-8-8-8H136c-4.8,0-8,3.2-8,8S131.2,176,136,176z"/>
</g>
</svg>
