<?xml version="1.0" encoding="utf-8"?>
<!-- Generator: Adobe Illustrator 21.1.0, SVG Export Plug-In . SVG Version: 6.00 Build 0)  -->
<svg version="1.1" id="Layer_1" xmlns="http://www.w3.org/2000/svg" xmlns:xlink="http://www.w3.org/1999/xlink" x="0px" y="0px"
	 viewBox="0 0 1024 720" style="enable-background:new 0 0 1024 720;" xml:space="preserve">
<style type="text/css">
	.st0{fill:#25212A;}
</style>
<g>
	<path class="st0" d="M336.4,269.1L313,309.7l-42.1,72.9l-14.8,25.6l-7.9,13.7c-0.2,0.4-0.5,0.8-0.8,1.3
		c-9.8,15.9-27.1,25.6-45.8,25.6h-70.4l23.5-40.6h48.7c3.8-0.3,7.1-2.4,9-5.4c0,0,0.1-0.1,0.1-0.1l57.2-99.2h-44.3l19.9-34.4H336.4z
		"/>
	<path class="st0" d="M286.3,409.4l-24.1,39.5l-14.8-25.6c0.3-0.4,0.5-0.8,0.8-1.3l7.9-13.7l14.8-25.6L286.3,409.4z"/>
	<g>
		<g>
			<path class="st0" d="M367.6,283.1l6.2,10.7l9.2,15.9l-76.3,132.2h-31.9l17.6-28.8l4.1-6.7l0-0.1l0-0.1L367.6,283.1 M367.6,269.1
				l-77.2,133.6l-4.1,6.7l-24.1,39.5h48.4L391,309.7l-11.2-19.4L367.6,269.1L367.6,269.1z"/>
		</g>
	</g>
	<polygon class="st0" points="415.5,309.7 373.3,382.8 373.2,382.9 349.8,423.4 349.8,423.4 335.1,448.9 310.7,448.9 391,309.7 
		379.8,290.3 392,269.1 	"/>
	<polygon class="st0" points="388.6,409.3 364.6,448.7 349.8,423.4 373.2,382.9 	"/>
	<polygon class="st0" points="519.2,269.1 415.5,448.9 364.5,448.9 364.6,448.7 388.6,409.3 392.7,402.7 469.9,269.1 	"/>
	<g>
		<path class="st0" d="M550.6,350.2c-7.3-6.9-17.1-10.4-29.1-10.4c-28.3,0-50.4,24.4-50.4,55.6s22.1,55.6,50.4,55.6
			c12.1,0,21.9-3.5,29.1-10.4v7.5h33.6V342.7h-33.6L550.6,350.2L550.6,350.2z M527.6,419c-13.8,0-23-9.5-23-23.6s9.2-23.6,23-23.6
			s23,9.5,23,23.6C550.6,409.5,541.4,419,527.6,419z"/>
		<rect x="603.9" y="295.5" class="st0" width="33.6" height="152.5"/>
		<rect x="657.3" y="295.5" class="st0" width="33.6" height="152.5"/>
		<path class="st0" d="M762,339.8c-32.4,0-56,23.4-56,55.6c0,32.7,23.9,55.6,58.2,55.6c20,0,35.5-7.3,45.9-21.7l0.9-1.3l-26.9-15.5
			l-0.8,0.8c-4.2,4.6-11.1,7.3-18.6,7.3c-11.5,0-18.9-3.8-22.5-11.5H814l0.2-1.1c0.8-4,1.3-8.2,1.3-12.6
			C815.5,363.7,792.5,339.8,762,339.8z M761.8,369.9c5.8,0,15.7,1.8,19.8,13.4h-40.3C744.5,374.5,751.5,369.9,761.8,369.9z"/>
		<path class="st0" d="M892.9,375v-32.4h-21.1v-29.2l-33.6,10.1v19.1h-16.4V375h16.4v34.9c0,14.7,3.1,24.4,9.9,30.5
			c6.2,5.6,15.8,8.4,29.6,8.4c4.2,0,8.9-0.3,14-0.8l1.3-0.1v-30.7l-1.5,0.1c-8.7,0.5-15.1,0.3-17.8-2.3c-1.2-1.1-1.8-2.8-1.8-5.2
			V375L892.9,375L892.9,375z"/>
	</g>
</g>
</svg>
