<?xml version="1.0" encoding="utf-8"?>
<!-- Generator: Adobe Illustrator 21.1.0, SVG Export Plug-In . SVG Version: 6.00 Build 0)  -->
<svg version="1.1" id="content" xmlns="http://www.w3.org/2000/svg" xmlns:xlink="http://www.w3.org/1999/xlink" x="0px" y="0px"
	 viewBox="0 0 119.2 98.8" style="enable-background:new 0 0 119.2 98.8;" xml:space="preserve">
<style type="text/css">
	.st0{fill:#F4DD38;}
	.st1{fill:#FFFFFF;}
	.st2{fill:#FDBC38;}
</style>
<g id="XMLID_9467_">
	<g id="XMLID_10056_">
		<g id="XMLID_10277_">
			<path id="XMLID_10283_" class="st0" d="M103.9,74.5c0,0,4.6-27.3,2.3-39.8l-23.6,2.8c0,0-0.1,19.9-8.5,39.6l0,0
				c-0.5,1.2,0.1,2.7,2,3.8l4.8,2.7c2.6,1.5,6.6,1.7,8.9,0.4l12.6-7.3C103.4,76.1,103.9,75.3,103.9,74.5L103.9,74.5z"/>
			<path id="XMLID_10282_" class="st1" d="M98.6,59.9l-13.1-7.2c-0.4-0.2-1,0.1-1,0.6c0,2.6-0.8,10.2-7.3,25.4l0,0
				c-0.5,1.2,0.1,2.7,2,3.8l2,1.2c2.6,1.2,6.2,1.3,8.3,0.1l12.6-7.3c1-0.6,1.5-1.4,1.5-2.2c0,0,0.1-0.7,0.3-2
				C102.7,69.7,99.6,65.5,98.6,59.9z"/>
			<path id="XMLID_10281_" d="M89.6,84l12.6-7.3c1-0.6,1.5-1.4,1.5-2.2l0,0c0,0,4.6-27.3,2.3-39.8l-6.1,0.7l-6.4,3.3
				c0,0-0.1,26.3-8.4,45.9l0,0c0,0,0,0.1,0,0.1C86.7,85,88.4,84.7,89.6,84z"/>
			<path id="XMLID_10278_" d="M85.9,85.2c-1.8,0-3.7-0.4-5.2-1.3l-4.8-2.7c-1.7-1-2.6-2.4-2.3-3.7l0,0l0.2-0.5
				c8.2-19.4,8.5-39.3,8.5-39.5l0-0.3l24.1-2.9l0.1,0.3c2.3,12.2-2.1,38.9-2.3,39.9c0,1-0.6,1.8-1.7,2.5l-12.6,7.3
				C88.8,84.9,87.4,85.2,85.9,85.2z M74.6,76.8l-0.2,0.5c-0.5,1.1,0.2,2.4,1.9,3.4l4.8,2.7c2.6,1.5,6.4,1.6,8.6,0.4l12.6-7.3
				c0.9-0.5,1.4-1.2,1.4-2l0,0c0-0.3,4.5-27,2.3-39.4l-23,2.8C82.8,40.2,82.1,58.6,74.6,76.8L74.6,76.8z"/>
		</g>
		<g id="XMLID_10265_">
			<g id="XMLID_10271_">
				<path id="XMLID_10276_" class="st0" d="M118.9,22.4c0-7.5-5.3-16.7-11.8-20.5c-3.1-1.8-5.9-2-8-1l0,0l0,0
					c-0.3,0.1-0.5,0.3-0.8,0.5l-8.5,5l1.1,2.8l15.6,26.2l8.7-5.1c0.3-0.1,0.5-0.3,0.8-0.5l0,0v0C117.8,28.4,118.9,25.9,118.9,22.4z"
					/>
				<path id="XMLID_10275_" class="st1" d="M118.1,25.8c-0.6-7.2-5.6-15.5-11.8-19c-3.1-1.8-5.9-2-8-1l0,0l0,0
					c-0.3,0.1-0.5,0.3-0.8,0.5L91,10.1l15,25.3l8.7-5.1c0.3-0.1,0.5-0.3,0.8-0.5l0,0v0C116.7,28.9,117.6,27.6,118.1,25.8z"/>
				<path id="XMLID_10272_" d="M106.4,35.7L90.6,9.3l-1.2-3.1l8.7-5.1c0.2-0.2,0.5-0.3,0.8-0.5c2.3-1.1,5.2-0.7,8.3,1
					c6.6,3.8,12,13.1,12,20.7c0,3.5-1.1,6.2-3.2,7.6c-0.3,0.2-0.5,0.3-0.8,0.5L106.4,35.7z M90.2,6.5l1,2.6l15.4,25.8l8.4-5
					c0.3-0.1,0.5-0.3,0.8-0.4c1.9-1.3,2.9-3.9,2.9-7.1c0-7.4-5.2-16.5-11.7-20.2c-2.9-1.7-5.6-2-7.7-1c-0.3,0.1-0.5,0.3-0.7,0.4
					L90.2,6.5z"/>
			</g>
			<g id="XMLID_10266_">
				<path id="XMLID_10270_" class="st0" d="M110.2,27.5c0,7.5-5.3,10.6-11.8,6.8c-6.5-3.8-11.8-12.9-11.8-20.5s5.3-10.6,11.8-6.8
					C104.9,10.8,110.2,20,110.2,27.5z"/>
				<path id="XMLID_10267_" d="M103.6,36.3c-1.7,0-3.5-0.6-5.4-1.7c-6.6-3.8-12-13.1-12-20.7c0-3.8,1.3-6.6,3.6-7.9
					c2.3-1.3,5.4-1.1,8.7,0.8c6.6,3.8,12,13.1,12,20.7c0,3.8-1.3,6.6-3.6,7.9C105.9,36,104.8,36.3,103.6,36.3z M93.1,5.7
					C92,5.7,91,6,90.1,6.5c-2.1,1.2-3.3,3.9-3.3,7.4c0,7.4,5.2,16.5,11.7,20.2c3.1,1.8,5.9,2.1,8.1,0.8c2.1-1.2,3.3-3.9,3.3-7.4
					c0-7.4-5.2-16.5-11.7-20.2C96.4,6.3,94.6,5.7,93.1,5.7z"/>
			</g>
		</g>
		<g id="XMLID_10252_">
			<g id="XMLID_10258_">
				<path id="XMLID_10264_" class="st0" d="M106.8,28.1c0-6.8-4.8-15-10.6-18.4c-2.8-1.6-5.3-1.8-7.2-0.9l0,0
					c-0.2,0.1-0.5,0.3-0.7,0.4L65.2,22.4l1,2.5l14,23.5L94.5,40c0.2-0.1,9.4-5.2,9.6-5.3l0,0v0C105.8,33.5,106.8,31.3,106.8,28.1z"
					/>
				<path id="XMLID_10263_" class="st1" d="M106.2,31.5c-0.6-6.5-5.1-13.8-10.5-16.9c-2.8-1.6-5.3-1.8-7.2-0.9l0,0
					c-0.2,0.1-0.5,0.3-0.7,0.4l-21,12l13.3,22.3L94.4,40c0.2-0.1,9.4-5.2,9.6-5.3l0,0v0C105,34,105.8,32.9,106.2,31.5z"/>
				<path id="XMLID_10262_" d="M104.3,19L104.3,19L104.3,19c-0.2,0.2-9.4,5.2-9.6,5.3l-14.3,8.3l-7.4-0.9l-7.7-9.4l1,2.5l14,23.5
					L94.4,40c0.2-0.1,9.4-5.2,9.6-5.3l0,0l0,0c1.7-1.2,2.7-3.5,2.7-6.6C106.8,25.1,105.9,21.9,104.3,19
					C104.3,18.9,104.3,18.9,104.3,19z"/>
				<path id="XMLID_10259_" d="M80.1,48.8L66,25.1l-1.1-2.8L88.2,9c0.2-0.1,0.5-0.3,0.7-0.4c2.1-1,4.7-0.7,7.5,0.9
					c5.9,3.4,10.8,11.8,10.8,18.6c0,3.1-1,5.6-2.8,6.9c-0.3,0.2-9.6,5.3-9.7,5.3L80.1,48.8z M65.6,22.5l0.9,2.3L80.3,48l14-8.2
					c0.4-0.2,9.4-5.2,9.6-5.3c1.7-1.2,2.6-3.4,2.6-6.4c0-6.7-4.7-14.8-10.5-18.1c-2.6-1.5-5-1.8-6.9-0.9c-0.2,0.1-0.5,0.2-0.7,0.4
					L65.6,22.5z"/>
			</g>
			<g id="XMLID_10253_">
				<path id="XMLID_10257_" class="st0" d="M83.5,41.4c0,6.8-4.8,9.5-10.6,6.1C67,44.1,62.3,35.9,62.3,29.1S67,19.6,72.9,23
					C78.8,26.4,83.5,34.6,83.5,41.4z"/>
				<path id="XMLID_10254_" d="M77.6,49.3c-1.5,0-3.2-0.5-4.9-1.5C66.8,44.4,62,36,62,29.1c0-3.4,1.2-5.9,3.3-7.1
					c2.1-1.2,4.9-0.9,7.8,0.7c5.9,3.4,10.8,11.8,10.8,18.6c0,3.4-1.2,5.9-3.3,7.1C79.7,49,78.7,49.3,77.6,49.3z M68.2,21.9
					c-1,0-1.8,0.2-2.6,0.7c-1.9,1.1-3,3.5-3,6.6c0,6.7,4.7,14.8,10.5,18.1c2.7,1.6,5.3,1.8,7.2,0.7c1.9-1.1,3-3.5,3-6.6
					c0-6.7-4.7-14.8-10.5-18.1C71.1,22.3,69.6,21.9,68.2,21.9z"/>
			</g>
		</g>
		<g id="XMLID_10184_">
			<path id="XMLID_10251_" class="st0" d="M80.2,41.8c0-5.9-4.1-13-9.2-15.9c-3-1.7-5.6-1.6-7.3,0c-4.1,2.2-16,6.8-31.4-3.6
				c-1-0.6-2.2,0.3-1.8,1.4l23.3,57.5l4.6,0.9c2.5,0.5,4.8-1.6,4.6-4.1c-0.7-7.5,0-21.4,13.1-29.7C78.6,47.8,80.2,45.5,80.2,41.8z"
				/>
			<path id="XMLID_10250_" class="st1" d="M75.7,48.4c1.6-0.3,2.9-1.4,3.5-3.1c-0.7-5.5-4.5-11.5-9.1-14.1c-3-1.7-5.6-1.6-7.3,0
				c-4.1,2.2-15.8,6.7-31.1-3.4l21.7,53.5l4.6,0.9c1.6,0.3,3.1-0.4,3.9-1.6c-0.1-2.1,0-4.6,0.4-7.2C62.5,65.7,64.9,55.2,75.7,48.4z"
				/>
			<path id="XMLID_10185_" d="M59.2,82.5c-0.3,0-0.5,0-0.8-0.1l-4.7-0.9L30.3,23.8c-0.2-0.6-0.1-1.3,0.4-1.7
				c0.5-0.4,1.2-0.5,1.8-0.1c15.1,10.1,26.8,5.9,31.1,3.6c1.9-1.7,4.6-1.7,7.6,0c5.2,3,9.3,10.2,9.3,16.2c0,3.7-1.6,6.2-4.3,6.8
				c-13,8.2-13.7,21.9-13,29.4c0.1,1.3-0.4,2.6-1.3,3.5C61.1,82.1,60.2,82.5,59.2,82.5z M54,80.9l4.4,0.9c1.1,0.2,2.2-0.1,3.1-0.8
				c0.8-0.8,1.3-1.8,1.1-3c-0.7-7.6,0-21.6,13.3-29.9l0.1,0c2.4-0.5,3.9-2.8,3.9-6.2c0-5.8-4.1-12.8-9-15.7
				c-2.8-1.6-5.3-1.6-6.9-0.1l-0.1,0c-4.4,2.4-16.3,6.7-31.7-3.6c-0.4-0.3-0.8-0.2-1.1,0c-0.2,0.2-0.4,0.6-0.3,1L54,80.9z"/>
		</g>
		<g id="XMLID_10173_">
			<path id="XMLID_10182_" class="st0" d="M59.2,93.1c0.8-0.9,1.2-1.6,1.2-1.6l0,0c2.6-3.8,4.1-9,4.1-15.4c0-19.9-14-44-31.2-54
				c-8.1-4.7-15.4-5.4-21-2.7c-0.2,0.1-0.3,0.2-0.5,0.3c-0.1,0-0.2,0.1-0.2,0.1c-0.2,0.1-0.5,0.3-0.7,0.4c0,0-0.1,0.1-0.1,0.1
				c-0.2,0.1-0.5,0.3-0.7,0.5c-8.9,6.2-9.6,17.8-9.6,17.8L2.2,40c0,0,0,0,0,0.1c0,13.8,6.7,29.6,16.5,41.3c3.5,6.1,8,11.3,13.8,13.9
				C40.9,99,47,99,51.4,97.8c2.9-0.7,5.4-2.2,7.4-4.3C59,93.3,59.1,93.2,59.2,93.1C59.2,93.1,59.2,93.1,59.2,93.1z"/>
			<path id="XMLID_10181_" class="st1" d="M57.4,90.9c0.8-0.9,0.1-3.1,0.1-3.1l0.8,1.5c2.6-3.8,6.2-5.1,6.2-11.6
				c0-19.9-14-44-31.2-54c-8.1-4.7-15.4-5.4-21-2.7c-0.2,0.1-0.3,0.2-0.5,0.3c-0.1,0-0.2,0.1-0.2,0.1c-0.2,0.1-0.5,0.3-0.7,0.4
				c0,0-0.1,0.1-0.1,0.1c-0.2,0.1-0.5,0.3-0.7,0.5c-8.9,6.2-9.6,17.8-9.6,17.8l1.6,1.6c0,0,0,0,0,0.1c0,13.8,6.7,29.6,16.5,41.3
				c3.5,6.1,9.3,8,15.1,10.7c8.3,3.7,10.7,2.5,15.1,1.2c2.9-0.7,4.1-0.7,6.2-2.8C55.2,92,55.1,87.9,57.4,90.9
				C57.4,91,57.4,91,57.4,90.9z"/>
			<path id="XMLID_10179_" d="M64.5,76.2c0-6.6-1.5-13.6-4.2-20.4c-0.4,4.9-1.8,9-3.9,12l0,0c0,0-0.4,0.7-1.2,1.6c0,0,0,0-0.1,0.1
				c-0.1,0.1-0.2,0.2-0.3,0.3c-2,2.2-4.5,3.6-7.4,4.3c-4.4,1.3-10.6,1.2-18.9-2.5c-5.9-2.6-10.4-7.8-13.8-13.9
				C8.9,50.9,4.2,42.6,1.3,34.2c-0.7,2.6-0.8,4.4-0.8,4.4l1.6,1.6c0,0,0,0,0,0.1c0,13.8,6.7,29.6,16.5,41.3
				c3.5,6.1,8,11.3,13.8,13.9c8.3,3.7,14.5,3.7,18.9,2.5c2.9-0.7,5.4-2.2,7.4-4.3c0.1-0.1,0.2-0.2,0.3-0.3c0,0,0,0,0.1-0.1
				c0.8-0.9,1.2-1.6,1.2-1.6l0,0C63,87.9,64.5,82.7,64.5,76.2z"/>
			<path id="XMLID_10174_" d="M45.9,98.8c-4.1,0-8.6-1.1-13.5-3.3c-5.3-2.4-10-7.1-14-14.1C8.3,69.4,1.9,53.5,1.9,40.1l-1.6-1.6
				l0-0.1c0-0.1,0.8-11.8,9.7-18c0.2-0.2,0.5-0.3,0.7-0.5l0.1-0.1c0.2-0.1,0.5-0.3,0.7-0.4l0.1-0.1c0,0,0.1-0.1,0.1-0.1
				c0.2-0.1,0.4-0.2,0.5-0.3c5.8-2.8,13.4-1.8,21.2,2.8c17.3,10,31.3,34.3,31.3,54.2c0,6.2-1.4,11.6-4.1,15.5l0,0.1
				c0,0-0.4,0.7-1.3,1.6l0,0c-0.1,0.1-0.2,0.2-0.3,0.4c-2.1,2.2-4.6,3.7-7.6,4.4C49.7,98.6,47.9,98.8,45.9,98.8z M0.9,38.3l1.6,1.6
				V40c0,13.3,6.3,29.1,16.5,41.2c3.9,6.9,8.5,11.5,13.7,13.9c7.1,3.2,13.4,4,18.7,2.5c2.8-0.7,5.3-2.1,7.3-4.3
				c0.1-0.1,0.2-0.2,0.3-0.3l0.3,0.1L59,92.9c0.6-0.6,0.9-1.1,1.1-1.4l0,0l0.1-0.2c2.6-3.8,4-9.1,4-15.3c0-19.7-13.9-43.8-31-53.7
				c-7.7-4.4-15-5.4-20.7-2.7c-0.2,0.1-0.3,0.2-0.5,0.2L11.8,20c-0.2,0.1-0.5,0.3-0.7,0.4L11,20.4c-0.2,0.1-0.5,0.3-0.7,0.4
				C2.1,26.5,1,37,0.9,38.3z"/>
		</g>
		<g id="XMLID_10164_">
			<path id="XMLID_10171_" class="st0" d="M59.1,76.9c0,18.8-13.2,26.4-29.4,17C13.5,84.5,0.3,61.6,0.3,42.9
				c0-18.8,13.2-26.4,29.4-17C45.9,35.3,59.1,58.1,59.1,76.9z"/>
			<path id="XMLID_10170_" d="M37,54.1c8.8,5.1,16.7,14.1,22.1,24.3c0-0.5,0-1,0-1.5c0-18.8-13.2-41.6-29.4-50.9
				c-16.2-9.4-29.4-1.8-29.4,17c0,8.6,2.8,18,7.3,26.6C8.3,51.9,21.2,44.9,37,54.1z"/>
			<path id="XMLID_10165_" d="M42.8,98.2c-4.1,0-8.6-1.4-13.3-4.1C13.3,84.7,0,61.7,0,42.9c0-9.2,3.1-16,8.8-19.3
				c5.7-3.3,13.1-2.5,21.1,2.1C46.2,35.1,59.4,58,59.4,76.9c0,9.2-3.1,16-8.8,19.3C48.3,97.5,45.7,98.2,42.8,98.2z M16.6,22.2
				c-2.7,0-5.3,0.6-7.5,1.9c-5.5,3.2-8.5,9.8-8.5,18.8c0,18.6,13.1,41.4,29.3,50.7c7.8,4.5,15,5.2,20.5,2.1
				c5.5-3.2,8.5-9.8,8.5-18.8c0-18.6-13.1-41.4-29.3-50.7C25,23.5,20.5,22.2,16.6,22.2z"/>
		</g>
		<g id="XMLID_10155_">
			<path id="XMLID_10162_" class="st0" d="M27.1,49.9l10.1,17.2l18.6-7.6c-2.7-7.7-7.1-15.3-12.4-21.6L27.3,49.2
				C27.1,49.4,27,49.7,27.1,49.9z"/>
			<path id="XMLID_10161_" class="st1" d="M44.4,41.4L28.9,52.3l8.5,14.4l17.9-7.3C52.6,52.9,48.8,46.7,44.4,41.4z"/>
			<path id="XMLID_10157_" d="M37.1,67.4L26.9,50c-0.2-0.3-0.1-0.8,0.2-1l16.5-11.6l0.2,0.2c5.3,6.4,9.6,13.9,12.4,21.7l0.1,0.3
				L37.1,67.4z M27.4,49.7l10,17l18.1-7.4c-2.7-7.6-6.9-14.8-12-21l-16,11.2C27.4,49.5,27.3,49.6,27.4,49.7L27.4,49.7z"/>
		</g>
		<g id="XMLID_10138_">
			<g id="XMLID_10146_">
				<path id="XMLID_10154_" class="st0" d="M39.2,62.5c0-4.6-3.2-10.2-7.2-12.5c-2.3-1.3-4.4-1.3-5.7,0l0,0l0,0
					c-0.3,0.3-0.6,0.7-0.9,1.2l-1.5,2.1l1,1.7c0.3,4.2,3.1,8.9,6.5,11.3l1,1.7l3.1-0.3c0.2,0,0.3,0,0.5-0.1h0l0,0
					C37.9,67.3,39.2,65.4,39.2,62.5z"/>
				<path id="XMLID_10152_" class="st1" d="M31.9,52.4c-2.3-1.3-4.4-1.3-5.7,0l0,0l0,0c-0.3,0.3-0.6,0.7-0.9,1.2l-0.8,1.2l0.3,0.5
					c0.3,4.2,3.1,8.9,6.5,11.3l1,1.7l3.1-0.3c0.2,0,0.3,0,0.5-0.1h0c1.7-0.3,3-1.7,3.2-4C38.6,59.4,35.6,54.5,31.9,52.4z"/>
				<path id="XMLID_10148_" d="M32.2,68.3l-1.1-1.8c-3.5-2.4-6.2-7.2-6.6-11.4l-1-1.8l1.7-2.3c0.2-0.4,0.5-0.9,0.9-1.2l0.1-0.2
					L26,49.8c1.5-1.3,3.8-1.4,6.1,0c4.1,2.3,7.4,8.1,7.4,12.7c0,3-1.3,5-3.6,5.4c-0.2,0-0.3,0-0.5,0.1L32.2,68.3z M24.2,53.3
					l0.9,1.6c0.3,4.1,3,8.7,6.4,11l0.1,0l0.9,1.6l2.9-0.3c0.2,0,0.3,0,0.5-0.1c1.9-0.3,3.1-2.1,3.1-4.8c0-4.5-3.2-10-7.1-12.2
					c-2.1-1.2-4.1-1.3-5.4-0.1l0,0c-0.3,0.3-0.6,0.7-0.8,1.1L24.2,53.3z"/>
			</g>
			<g id="XMLID_10139_">
				<path id="XMLID_10145_" class="st0" d="M35.9,63.5c0,4-2.8,5.7-6.3,3.7c-3.5-2-6.3-6.9-6.3-11c0-4,2.8-5.7,6.3-3.7
					C33,54.5,35.9,59.4,35.9,63.5z"/>
				<path id="XMLID_10140_" d="M32.4,68.3c-0.9,0-1.9-0.3-3-0.9c-3.6-2.1-6.5-7.1-6.5-11.2c0-2.1,0.7-3.6,2-4.4
					c1.3-0.7,3-0.6,4.8,0.4c3.6,2.1,6.5,7.1,6.5,11.2c0,2.1-0.7,3.6-2,4.4C33.6,68.1,33,68.3,32.4,68.3z M26.7,51.9
					c-0.6,0-1.1,0.1-1.5,0.4c-1.1,0.6-1.7,2-1.7,3.8c0,3.9,2.8,8.7,6.2,10.7c1.6,0.9,3.1,1.1,4.2,0.4c1.1-0.6,1.7-2,1.7-3.8
					c0-3.9-2.8-8.7-6.2-10.7C28.4,52.2,27.5,51.9,26.7,51.9z"/>
			</g>
		</g>
		<g id="XMLID_10124_">
			<path id="XMLID_10134_" class="st0" d="M29.7,25.9c-16.2-9.4-29.4-1.8-29.4,17c0,18.8,13.2,41.6,29.4,50.9
				c16.2,9.4,29.4,1.8,29.4-17C59.1,58.1,45.9,35.3,29.7,25.9z M29.7,89.3C15.6,81.2,4.2,61.4,4.2,45.2c0-16.2,11.4-22.8,25.5-14.7
				c14.1,8.1,25.5,27.9,25.5,44.1C55.2,90.8,43.8,97.4,29.7,89.3z"/>
			<path id="XMLID_10130_" class="st1" d="M58.9,76.9c0-1.2-0.1-2.5-0.2-3.7c-2.8-17-14.6-35.4-28.8-43.6
				c-16.2-9.4-29.4-1.8-29.4,17c0,1.2,0.1,2.5,0.2,3.7c2.8,17,14.6,35.4,28.8,43.6C45.7,103.2,58.9,95.6,58.9,76.9z M4.6,51.7
				C4.2,49.5,4,47.3,4,45.2C4,29,15.4,22.4,29.5,30.5c13.2,7.6,24.1,25.6,25.4,41.2c0.4,2.2,0.6,4.4,0.6,6.5
				c0,16.2-11.4,22.8-25.5,14.7C16.7,85.3,5.8,67.4,4.6,51.7z"/>
			<path id="XMLID_10125_" d="M42.8,98.2c-4.1,0-8.6-1.4-13.3-4.1C13.3,84.7,0,61.7,0,42.9c0-9.2,3.1-16,8.8-19.3
				c5.7-3.3,13.1-2.5,21.1,2.1C46.2,35.1,59.4,58,59.4,76.9c0,9.2-3.1,16-8.8,19.3C48.3,97.5,45.7,98.2,42.8,98.2z M16.6,22.2
				c-2.7,0-5.3,0.6-7.5,1.9c-5.5,3.2-8.5,9.8-8.5,18.8c0,18.6,13.1,41.4,29.3,50.7c7.8,4.5,15,5.2,20.5,2.1
				c5.5-3.2,8.5-9.8,8.5-18.8c0-18.6-13.1-41.4-29.3-50.7C25,23.5,20.5,22.2,16.6,22.2z M41.1,93.1c-3.5,0-7.5-1.2-11.5-3.5
				C15.4,81.4,3.9,61.5,3.9,45.2c0-8,2.7-13.9,7.6-16.7c4.9-2.8,11.4-2.2,18.3,1.8C44,38.4,55.5,58.3,55.5,74.6
				c0,8-2.7,13.9-7.6,16.7C45.8,92.5,43.6,93.1,41.1,93.1z M18.3,27.3c-2.4,0-4.6,0.6-6.5,1.7c-4.7,2.7-7.3,8.5-7.3,16.2
				C4.5,61.3,15.9,81,29.9,89c6.7,3.9,13,4.5,17.7,1.8c4.7-2.7,7.3-8.5,7.3-16.2c0-16.1-11.4-35.8-25.3-43.9
				C25.6,28.4,21.8,27.3,18.3,27.3z"/>
		</g>
		<g id="XMLID_10057_">
			<g id="XMLID_10119_">
				<path id="XMLID_10123_" d="M101,29.1l-0.2-0.1c-0.2-0.2-0.5-0.2-0.9,0l-3.7,2.2c-0.7,0.4-1.2,1.4-1.2,2.3c0,0.5,0.1,0.8,0.3,0.9
					l0,0l1.6,1l2.4-2.2l2.1-2.2l0.8-1.2L101,29.1z"/>
				<path id="XMLID_10120_" class="st1" d="M96.9,35.7l-1.8-1.1c-0.3-0.2-0.5-0.6-0.5-1.1c0-1,0.6-2.1,1.4-2.6l3.7-2.2
					c0.4-0.3,0.9-0.2,1.2,0l0.2,0.1l1.5,0.9l-1,1.4l-2.1,2.2L96.9,35.7z M100.3,29.1c-0.1,0-0.2,0-0.3,0.1l-3.7,2.2
					c-0.6,0.3-1.1,1.3-1.1,2c0,0.5,0.2,0.6,0.2,0.7l0.1,0.1l1.4,0.8l2.2-2l2.1-2.1l0.6-0.9l-1.2-0.7
					C100.5,29.2,100.4,29.1,100.3,29.1z"/>
			</g>
			<g id="XMLID_10058_">
				<path id="XMLID_10118_" d="M101.5,33.2l-3.7,2.2c-0.7,0.4-1.2,0-1.2-0.9l0,0c0-0.9,0.5-1.9,1.2-2.3l3.7-2.2
					c0.7-0.4,1.2,0,1.2,0.9l0,0C102.7,31.7,102.1,32.8,101.5,33.2z"/>
				<path id="XMLID_10059_" class="st1" d="M97.3,35.8c-0.2,0-0.3,0-0.5-0.1c-0.4-0.2-0.6-0.7-0.6-1.2c0-1,0.6-2.1,1.4-2.6l3.7-2.2
					c0.4-0.2,0.8-0.2,1.1-0.1c0.4,0.2,0.6,0.7,0.6,1.2c0,1-0.6,2.1-1.4,2.6l-3.7,2.2C97.7,35.7,97.5,35.8,97.3,35.8z M101.9,30.1
					c-0.1,0-0.2,0.1-0.3,0.1l-3.7,2.2c-0.6,0.3-1.1,1.3-1.1,2c0,0.4,0.1,0.6,0.3,0.7c0.2,0.1,0.4,0,0.5-0.1l3.7-2.2
					c0.6-0.3,1.1-1.3,1.1-2c0-0.4-0.1-0.6-0.3-0.7C102,30.1,102,30.1,101.9,30.1z"/>
			</g>
		</g>
	</g>
	<g id="XMLID_9988_">
		<path id="XMLID_10037_" class="st0" d="M90.7,83.1c2.9-7.6,4.5-15.1,5.1-19c0.4-2.3,1.8-4.4,3.9-5.6l6.3-3.7l0.1-0.7L99.4,58
			c-2.2,1.3-3.7,3.5-4.1,6c-0.7,4-2.3,11.8-5.4,19.6L90.7,83.1z"/>
		<polygon id="XMLID_10036_" points="89.7,84 89.5,84.5 89.8,84.3 		"/>
	</g>
	<path id="XMLID_9486_" d="M78.2,33.9c0,0-14.7,5.1-19.6,16.5c-0.1,0.1-0.1,0.2-0.1,0.4c2.4,5.1,4.3,10.4,5.3,15.7
		c1.3-6.3,4.8-13.2,12.6-18.1c2.5-0.5,4.1-2.8,4.1-6.5C80.4,39.4,79.3,36.4,78.2,33.9z"/>
	<polygon id="XMLID_9472_" points="108.4,19.3 117.2,14.3 118.6,19.1 118.9,23.6 118.2,26.6 116.9,28.8 113.7,31.1 108,34.4 
		109.9,30.7 110.2,27 109.4,22.4 	"/>
	<path id="XMLID_9471_" class="st1" d="M94.2,39.8L93.9,40l0,0.7l0.6-0.4c0,0,4.8-2.6,7.6-4.2l-0.9-0.2
		C98.5,37.5,94.5,39.7,94.2,39.8z"/>
	<path id="XMLID_9470_" class="st2" d="M60.8,56.7l-0.2,1.2c1,2.9,1.9,5.8,2.4,8.7l0.3-1.4C62.7,62.4,61.9,59.6,60.8,56.7z"/>
	<path id="XMLID_9469_" d="M37.8,56.7l5.3-2.8c0,0,0.7-0.4,5.5-3c0,0,0,0,0.8,1.6c2,4.2,3.4,8.2,3.4,8.2l-15,5.9l1.1-1.6l0.4-2.4
		l-0.3-3.7L37.8,56.7z"/>
	<polygon id="XMLID_9468_" class="st0" points="52.3,60.7 48.4,62.3 48.8,62.7 52.5,61.2 	"/>
</g>
</svg>
