<?xml version="1.0" encoding="utf-8"?>
<!-- Generator: Adobe Illustrator 21.1.0, SVG Export Plug-In . SVG Version: 6.00 Build 0)  -->
<svg version="1.1" id="Isolation_Mode" xmlns="http://www.w3.org/2000/svg" xmlns:xlink="http://www.w3.org/1999/xlink" x="0px"
	 y="0px" viewBox="0 0 67.4 52.1" style="enable-background:new 0 0 67.4 52.1;" xml:space="preserve">
<style type="text/css">
	.st0{fill:#F4DD38;}
	.st1{fill:#25212A;}
	.st2{fill:#FFFFFF;}
</style>
<g id="XMLID_9348_">
	<g id="XMLID_9367_">
		<path id="XMLID_9371_" class="st0" d="M65.8,37.4c1.5-1.4,1.5-3,0.1-4.2c1.6-1.5,1.4-3.4-0.5-4.5L25.8,5.8
			c-2.4-1.4-6.6-1.2-9.4,0.4L2.7,14.1c-2.5,1.5-3,3.6-1.2,5c-1.4,1.4-1.4,3,0.1,4.2c-1.6,1.5-1.5,3.4,0.5,4.6l39.6,22.9
			c2.4,1.4,6.6,1.2,9.4-0.4l13.7-7.9C67.3,41,67.7,38.8,65.8,37.4z"/>
		<path id="XMLID_9370_" class="st1" d="M65.8,37.4c1.5-1.4,1.5-3,0.1-4.2c1.6-1.5,1.4-3.4-0.5-4.5l-1.4-0.8l-18.2,11v12.8
			c1.8,0,3.8-0.4,5.3-1.3l13.7-7.9C67.3,41,67.7,38.8,65.8,37.4z"/>
		<path id="XMLID_9369_" class="st0" d="M64.5,42.1L50.8,50c-1.5,0.8-3.3,1.3-5.1,1.3v0.9c1.9,0,3.9-0.5,5.5-1.4l13.7-7.9
			c1.6-0.9,2.5-2.2,2.5-3.4c0-0.8-0.3-1.5-1-2c0.6-0.7,1-1.4,1-2.2c0-0.7-0.3-1.4-0.9-2c0.6-0.7,0.9-1.4,0.9-2.1
			c0-0.9-0.5-1.7-1.3-2.3c-0.2,0.2-0.4,0.4-0.6,0.6c0.7,0.5,1.1,1.1,1.1,1.7c0,0.9-0.8,1.9-2.1,2.7l-13.7,7.9
			c-1.5,0.8-3.3,1.3-5.1,1.3v0.9c1.9,0,3.9-0.5,5.5-1.4l13.7-7.9c0.4-0.2,0.7-0.4,1-0.7c0.4,0.4,0.7,0.9,0.7,1.4
			c0,0.9-0.8,1.9-2.1,2.7l-13.7,7.9c-1.5,0.8-3.3,1.3-5.1,1.3v0.9c1.9,0,3.9-0.5,5.5-1.4l13.7-7.9c0.3-0.2,0.6-0.4,0.9-0.6
			c0.5,0.4,0.7,0.9,0.7,1.5C66.6,40.4,65.8,41.4,64.5,42.1z"/>
		<path id="XMLID_9368_" class="st1" d="M45.7,51.3c-1.4,0-2.8-0.3-3.9-0.9L2.3,27.6c-0.9-0.5-1.4-1.2-1.4-2c0-0.6,0.3-1.1,0.8-1.7
			c0.1,0,0.1,0.1,0.2,0.1l39.6,22.9c1.1,0.7,2.7,1,4.3,1c0,0,0,0,0,0V47c-1.4,0-2.8-0.3-3.9-0.9L2.3,23.3c-0.9-0.5-1.4-1.2-1.4-2
			c0-0.5,0.3-1.1,0.7-1.6c0.1,0.1,0.2,0.1,0.3,0.2l39.6,22.9c1.1,0.7,2.7,1,4.3,1c0,0,0,0,0,0v-0.9c-1.4,0-2.8-0.3-3.9-0.9L2.3,19.2
			c-0.9-0.5-1.4-1.2-1.4-2c0-0.7,0.4-1.4,1.1-2c-0.3-0.2-0.5-0.3-0.7-0.5C0.4,15.5,0,16.3,0,17.2c0,0.7,0.3,1.4,0.9,2
			C0.3,19.9,0,20.6,0,21.3c0,0.8,0.3,1.5,1,2.1c-0.6,0.7-1,1.4-1,2.2c0,1.1,0.7,2,1.8,2.7l39.6,22.9c1.1,0.7,2.7,1,4.3,1
			c0,0,0,0,0,0V51.3z"/>
	</g>
	<g id="XMLID_9349_">
		<g id="XMLID_9361_">
			<path id="XMLID_9366_" class="st0" d="M41.6,37.9L2.1,15.1c-2.4-1.4-2.1-3.8,0.7-5.4l13.7-7.9c2.8-1.6,7-1.8,9.4-0.4l39.6,22.9
				c2.4,1.4,2.1,3.8-0.7,5.4L51,37.5C48.2,39.1,44,39.3,41.6,37.9z"/>
			<path id="XMLID_9365_" class="st2" d="M65.1,25.9L25.5,3.1c-2.4-1.4-6.6-1.2-9.4,0.4L2.5,11.4c-1,0.6-1.7,1.3-2,2
				C0.6,14,1.1,14.6,2,15.1l39.6,22.9c2.4,1.4,6.6,1.2,9.4-0.4l13.7-7.9c1-0.6,1.7-1.3,2-2C66.4,27,65.9,26.4,65.1,25.9z"/>
			<path id="XMLID_9362_" class="st1" d="M45.7,39.3c-1.6,0-3.1-0.3-4.3-1L1.8,15.4C0.7,14.7,0,13.8,0,12.7c0-1.3,0.9-2.5,2.5-3.4
				l13.7-7.9C19.1-0.3,23.5-0.5,26,1l39.6,22.9c1.2,0.7,1.8,1.6,1.8,2.7c0,1.3-0.9,2.5-2.5,3.4l-13.7,7.9
				C49.6,38.8,47.6,39.3,45.7,39.3z M41.8,37.5c2.3,1.3,6.3,1.1,8.9-0.4l13.7-7.9c1.3-0.8,2.1-1.7,2.1-2.7c0-0.8-0.5-1.5-1.4-2
				L25.6,1.7c-2.3-1.3-6.3-1.1-8.9,0.4L2.9,10c-1.3,0.8-2.1,1.7-2.1,2.7c0,0.8,0.5,1.5,1.4,2L41.8,37.5z"/>
		</g>
		<g id="XMLID_9356_">
			<path id="XMLID_9360_" class="st0" d="M57.1,28.1c-2-1.2-2-3.1,0-4.3c0.2-0.1,0.4-0.2,0.7-0.3L26.7,5.6c-0.2,0.1-0.3,0.3-0.5,0.4
				c-2,1.2-5.4,1.2-7.4,0c-0.4-0.2-0.6-0.4-0.9-0.7l-9.1,5.2c0.4,0.1,0.8,0.3,1.2,0.5c2,1.2,2,3.1,0,4.3c-0.2,0.1-0.4,0.2-0.6,0.3
				l31.1,17.9c0.1-0.1,0.3-0.2,0.5-0.3c2-1.2,5.4-1.2,7.4,0c0.4,0.2,0.6,0.4,0.9,0.7l9.1-5.2C57.8,28.5,57.4,28.3,57.1,28.1z"/>
			<path id="XMLID_9357_" class="st1" d="M49.1,34.4l-0.2-0.2c-0.2-0.3-0.5-0.5-0.8-0.6c-1.9-1.1-5.1-1.1-7,0
				c-0.1,0.1-0.3,0.2-0.4,0.3L40.5,34l-0.3-0.1L8.5,15.5l0.8-0.3c0.2-0.1,0.4-0.2,0.5-0.3c0.9-0.5,1.3-1.1,1.3-1.8
				c0-0.6-0.5-1.3-1.3-1.8c-0.3-0.2-0.6-0.3-1.1-0.5l-0.9-0.3l10.2-5.9L18.2,5c0.2,0.3,0.5,0.5,0.8,0.6c1.9,1.1,5.1,1.1,7,0
				c0.2-0.1,0.3-0.2,0.5-0.3l0.2-0.2l32.1,18.5l-0.8,0.3c-0.2,0.1-0.4,0.2-0.6,0.3C56.4,24.7,56,25.3,56,26c0,0.6,0.5,1.3,1.3,1.8
				l0,0c0.3,0.2,0.6,0.3,1.1,0.5l0.9,0.3L49.1,34.4z M44.6,31.9c1.4,0,2.8,0.3,3.9,0.9c0.3,0.2,0.5,0.3,0.7,0.5l8-4.6
				c-0.1-0.1-0.3-0.1-0.4-0.2l0,0c-1.1-0.6-1.7-1.5-1.7-2.5c0-1,0.6-1.8,1.7-2.5L26.7,6.1c-0.1,0.1-0.2,0.2-0.4,0.2
				c-2.2,1.2-5.7,1.2-7.8,0C18.3,6.2,18,6,17.8,5.8l-8,4.6c0.2,0.1,0.3,0.1,0.4,0.2c1.1,0.7,1.7,1.5,1.7,2.5c0,0.9-0.6,1.8-1.6,2.4
				L40.4,33c0.1-0.1,0.2-0.1,0.3-0.2C41.8,32.2,43.2,31.9,44.6,31.9z"/>
		</g>
		<g id="XMLID_9350_">
			<path id="XMLID_9355_" class="st0" d="M39.7,22.5c-3.3,1.9-8.6,1.9-11.9,0c-3.3-1.9-3.3-5,0-6.9c3.3-1.9,8.6-1.9,11.9,0
				C43,17.5,43,20.6,39.7,22.5z"/>
			<path id="XMLID_9354_" class="st2" d="M39.7,24.1c-3.3,1.9-8.6,1.9-11.9,0c-3.3-1.9-3.3-5,0-6.9c3.3-1.9,8.6-1.9,11.9,0
				C43,19.1,43,22.2,39.7,24.1z"/>
			<path id="XMLID_9351_" class="st1" d="M33.7,24.3c-2.2,0-4.5-0.5-6.2-1.5c-1.7-1-2.7-2.4-2.7-3.8c0-1.5,1-2.8,2.7-3.8
				c3.4-2,8.9-2,12.4,0c1.7,1,2.7,2.4,2.7,3.8c0,1.5-1,2.8-2.7,3.8l0,0C38.2,23.8,35.9,24.3,33.7,24.3z M33.7,14.6
				c-2.1,0-4.2,0.5-5.8,1.4c-1.5,0.8-2.3,1.9-2.3,3.1c0,1.1,0.8,2.2,2.3,3.1c3.2,1.8,8.3,1.8,11.5,0c1.5-0.8,2.3-1.9,2.3-3.1
				c0-1.1-0.8-2.2-2.3-3.1C37.9,15.1,35.8,14.6,33.7,14.6z"/>
		</g>
	</g>
</g>
</svg>
