<?xml version="1.0" encoding="utf-8"?>
<!-- Generator: Adobe Illustrator 21.1.0, SVG Export Plug-In . SVG Version: 6.00 Build 0)  -->
<svg version="1.1" id="Capa_1" xmlns="http://www.w3.org/2000/svg" xmlns:xlink="http://www.w3.org/1999/xlink" x="0px" y="0px"
	 viewBox="0 0 464 464" style="enable-background:new 0 0 464 464;" xml:space="preserve">
<style type="text/css">
	.st0{fill:#F4DD38;}
	.st1{fill:#25212A;}
</style>
<path class="st0" d="M8,360c0,17.6,14.4,32,32,32h384c17.6,0,32-14.4,32-32v-64H8V360z"/>
<g>
	<path class="st1" d="M424,0H40C17.6,0,0,17.6,0,40v288c0,22.4,17.6,40,40,40h115.2l-24,48H120c-13.6,0-24,10.4-24,24
		c0,6.4,2.4,12.8,7.2,16.8c4.8,4.8,10.4,7.2,16.8,7.2h224c13.6,0,24-10.4,24-24c0-6.4-2.4-12.8-7.2-16.8c-4-4.8-10.4-7.2-16.8-7.2
		h-11.2l-24-48H424c22.4,0,40-17.6,40-40V40C464,17.6,446.4,0,424,0z M315.2,416H168c-4.8,0-8,3.2-8,8s3.2,8,8,8h160h16
		c2.4,0,4,0.8,5.6,2.4s2.4,3.2,2.4,5.6c0,4.8-3.2,8-8,8H120c-2.4,0-4-0.8-5.6-2.4s-2.4-3.2-2.4-5.6c0-4.8,3.2-8,8-8h16
		c3.2,0,5.6-1.6,7.2-4.8l13.6-27.2H200c4.8,0,8-3.2,8-8s-3.2-8-8-8h-35.2l8-16h118.4L315.2,416z M424,352H296H168H40
		c-13.6,0-24-10.4-24-24V40c0-13.6,10.4-24,24-24h384c13.6,0,24,10.4,24,24v216H40c-4.8,0-8,3.2-8,8s3.2,8,8,8h408v56
		C448,341.6,437.6,352,424,352z"/>
	<path class="st1" d="M232,288c-13.6,0-24,10.4-24,24s10.4,24,24,24s24-10.4,24-24S245.6,288,232,288z M232,320c-4.8,0-8-3.2-8-8
		s3.2-8,8-8s8,3.2,8,8S236.8,320,232,320z"/>
	<path class="st1" d="M40,112c2.4,0,4-0.8,5.6-2.4l64-64c3.2-3.2,3.2-8,0-11.2s-8-3.2-11.2,0l-64,64c-3.2,3.2-3.2,8,0,11.2
		C36,111.2,37.6,112,40,112z"/>
	<path class="st1" d="M40,80c2.4,0,4-0.8,5.6-2.4l32-32c3.2-3.2,3.2-8,0-11.2s-8-3.2-11.2,0l-32,32c-3.2,3.2-3.2,8,0,11.2
		C36,79.2,37.6,80,40,80z"/>
	<path class="st1" d="M98.4,66.4l-32,32c-3.2,3.2-3.2,8,0,11.2c1.6,1.6,4,2.4,5.6,2.4s4-0.8,5.6-2.4l32-32c3.2-3.2,3.2-8,0-11.2
		S101.6,63.2,98.4,66.4z"/>
	<path class="st1" d="M424,288c-4.8,0-8,3.2-8,8c0,22.4-20,24-24,24s-8,3.2-8,8s3.2,8,8,8c13.6,0,40-8,40-40
		C432,291.2,428.8,288,424,288z"/>
</g>
</svg>
