<?xml version="1.0" encoding="utf-8"?>
<!-- Generator: Adobe Illustrator 21.1.0, SVG Export Plug-In . SVG Version: 6.00 Build 0)  -->
<svg version="1.1" id="Capa_1" xmlns="http://www.w3.org/2000/svg" xmlns:xlink="http://www.w3.org/1999/xlink" x="0px" y="0px"
	 viewBox="0 0 464.1 464.1" style="enable-background:new 0 0 464.1 464.1;" xml:space="preserve">
<style type="text/css">
	.st0{fill:#F4DD38;}
	.st1{fill:#25212A;}
</style>
<g>
	<path class="st0" d="M238.5,40.1c-73.6-3.2-134.4,55.2-134.4,128v192c0-32.8,12-62.4,32-84.8V168.1c0-53.6,44-96.8,97.6-96
		c52.8,0.8,94.4,46.4,94.4,99.2v12.8c0,8.8,7.2,16,16,16c4,0,8-1.6,11.2-4.8s4.8-7.2,4.8-11.2v-12.8
		C360.1,102.5,307.3,43.3,238.5,40.1z"/>
	<path class="st0" d="M344.1,232.1c-8.8,0-16,7.2-16,16v27.2c20,22.4,32,52,32,84.8v-112c0-4.8-1.6-8.8-4.8-11.2
		C352.1,233.7,348.1,232.1,344.1,232.1z"/>
</g>
<g>
	<path class="st1" d="M238.5,0.1c-37.6-1.6-73.6,11.2-100.8,37.6c-26.4,25.6-41.6,60.8-41.6,98.4v192c0,75.2,60.8,136,136,136
		s136-60.8,136-136v-112c0-6.4-2.4-12.8-7.2-16.8c-4-4.8-10.4-7.2-16.8-7.2c-13.6,0-24,10.4-24,24v8.8c-24.8-20.8-55.2-32.8-88-32.8
		s-63.2,12-88,32.8v-88.8c0-24,9.6-46.4,26.4-62.4c16.8-16.8,39.2-25.6,63.2-25.6c48,0.8,86.4,41.6,86.4,91.2v12.8
		c0,13.6,10.4,24,24,24c6.4,0,12.8-2.4,16.8-7.2c4.8-4.8,7.2-10.4,7.2-16.8v-12C368.1,64.9,311.3,3.3,238.5,0.1z M336.1,216.1
		c0-4.8,3.2-8,8-8c2.4,0,4,0.8,5.6,2.4c1.6,1.6,2.4,3.2,2.4,5.6v48c-0.8-0.8-0.8-1.6-1.6-2.4c-1.6-2.4-2.4-4.8-4-7.2
		c-0.8-1.6-1.6-3.2-3.2-4c-1.6-2.4-3.2-4.8-5.6-7.2c-0.8-0.8-1.6-1.6-2.4-2.4v-24.8L336.1,216.1L336.1,216.1z M232.1,208.1
		c34.4,0,67.2,14.4,90.4,40.8c10.4,12,17.6,24.8,23.2,39.2h-17.6c-4.8,0-8,3.2-8,8s3.2,8,8,8h21.6c0.8,5.6,1.6,10.4,2.4,16h-56
		c-4.8,0-8,3.2-8,8s3.2,8,8,8h55.2c0,5.6-0.8,10.4-2.4,16h-20.8c-4.8,0-8,3.2-8,8s3.2,8,8,8h16.8c-16.8,46.4-60.8,80-112.8,80
		c-66.4,0-120-53.6-120-120c0-11.2,1.6-21.6,4-32c4.8-17.6,13.6-33.6,25.6-47.2C164.9,222.5,197.7,208.1,232.1,208.1z M352.1,152.1
		c0,2.4-0.8,4-2.4,5.6s-3.2,2.4-5.6,2.4c-4.8,0-8-3.2-8-8v-12.8c0-58.4-45.6-106.4-102.4-107.2c-28,0-54.4,10.4-74.4,29.6
		c-20,20-31.2,46.4-31.2,74.4v104c-0.8,0.8-1.6,1.6-2.4,3.2c-1.6,2.4-3.2,4.8-4.8,7.2c-0.8,1.6-1.6,3.2-3.2,4
		c-1.6,2.4-3.2,4.8-4,7.2c-0.8,0.8-0.8,1.6-1.6,2.4v-128c0-32.8,12.8-64,36.8-86.4c23.2-21.6,52-33.6,83.2-33.6c1.6,0,4,0,5.6,0
		c64,3.2,114.4,57.6,114.4,123.2L352.1,152.1L352.1,152.1z"/>
	<path class="st1" d="M192.1,328.1c0,19.2,13.6,35.2,32,39.2v24.8c0,4.8,3.2,8,8,8s8-3.2,8-8v-24.8c18.4-4,32-20,32-39.2
		c0-22.4-17.6-40-40-40S192.1,305.7,192.1,328.1z M256.1,328.1c0,13.6-10.4,24-24,24s-24-10.4-24-24s10.4-24,24-24
		S256.1,314.5,256.1,328.1z"/>
	<path class="st1" d="M136.1,336.1c4.8,0,8-3.2,8-8c0-48.8,39.2-88,88-88c4.8,0,8-3.2,8-8s-3.2-8-8-8c-57.6,0-104,46.4-104,104
		C128.1,332.9,131.3,336.1,136.1,336.1z"/>
</g>
</svg>
