<?xml version="1.0" encoding="utf-8"?>
<!-- Generator: Adobe Illustrator 21.1.0, SVG Export Plug-In . SVG Version: 6.00 Build 0)  -->
<svg version="1.1" id="Capa_1" xmlns="http://www.w3.org/2000/svg" xmlns:xlink="http://www.w3.org/1999/xlink" x="0px" y="0px"
	 viewBox="0 0 464 464" style="enable-background:new 0 0 464 464;" xml:space="preserve">
<style type="text/css">
	.st0{fill:#F4DD38;}
	.st1{fill:#25212A;}
</style>
<g>
	<circle class="st0" cx="232" cy="392" r="32"/>
	<path class="st0" d="M328,168v64h32v-64c0-35.2-14.4-67.2-37.6-90.4C299.2,54.4,267.2,40,232,40c-70.4,0-128,57.6-128,128v64h32
		v-64c0-52.8,43.2-96,96-96c26.4,0,50.4,10.4,68,28S328,141.6,328,168z"/>
</g>
<g>
	<path class="st1" d="M400,424V232c0-19.2-13.6-35.2-32-39.2V136c0-36-14.4-70.4-40-96S268,0,232,0C156.8,0,96,60.8,96,136v56.8
		c-18.4,4-32,20-32,39.2v192c0,22.4,17.6,40,40,40h256C382.4,464,400,446.4,400,424z M384,232v24h-56c-13.6,0-24-10.4-24-24v-24h24
		h32C373.6,208,384,218.4,384,232z M320,192H144v-56c0-48.8,39.2-88,88-88c23.2,0,45.6,8.8,62.4,25.6S320,112.8,320,136V192z
		 M112,136c0-66.4,53.6-120,120-120c32,0,62.4,12.8,84.8,35.2C339.2,73.6,352,104,352,136v56h-16v-56c0-28-11.2-53.6-30.4-73.6
		S260,32,232,32c-57.6,0-104,46.4-104,104v56h-16V136z M80,424v-88h24c4.8,0,8-3.2,8-8s-3.2-8-8-8H80v-16h56c4.8,0,8-3.2,8-8
		s-3.2-8-8-8H80v-16h24c4.8,0,8-3.2,8-8s-3.2-8-8-8H80v-24c0-13.6,10.4-24,24-24h32h152v24c0,22.4,17.6,40,40,40h56v80h-24
		c-4.8,0-8,3.2-8,8s3.2,8,8,8h24v16h-56c-4.8,0-8,3.2-8,8s3.2,8,8,8h56v16h-24c-4.8,0-8,3.2-8,8s3.2,8,8,8h22.4
		c-3.2,9.6-12,16-22.4,16H104C90.4,448,80,437.6,80,424z"/>
	<path class="st1" d="M240,320.8V264c0-4.8-3.2-8-8-8s-8,3.2-8,8v56.8c-18.4,4-32,20-32,39.2c0,22.4,17.6,40,40,40s40-17.6,40-40
		C272,340.8,258.4,324.8,240,320.8z M232,384c-13.6,0-24-10.4-24-24s10.4-24,24-24s24,10.4,24,24S245.6,384,232,384z"/>
</g>
</svg>
