<?xml version="1.0" encoding="utf-8"?>
<!-- Generator: Adobe Illustrator 21.1.0, SVG Export Plug-In . SVG Version: 6.00 Build 0)  -->
<svg version="1.1" id="Layer_1" xmlns="http://www.w3.org/2000/svg" xmlns:xlink="http://www.w3.org/1999/xlink" x="0px" y="0px"
	 viewBox="0 0 464 464" style="enable-background:new 0 0 464 464;" xml:space="preserve">
<style type="text/css">
	.st0{fill:#FFFFFF;}
	.st1{fill:#F4DD38;}
	.st2{fill:#25212A;}
</style>
<g>
	<path class="st0" d="M323.8,40.9C294.7,13.6,258.5,0,215.1,0H48v418h119.4V299.7h47.8c43.4,0,79.6-13.6,108.7-40.9
		c29.1-27.3,43.6-63.6,43.6-109C367.4,104.5,352.9,68.2,323.8,40.9z"/>
</g>
<path class="st1" d="M372.3,87.1C343.3,59.9,307,46.2,263.7,46.2H96.5v418h119.4V346h47.8c43.4,0,79.6-13.6,108.7-40.9
	c29.1-27.3,43.6-63.6,43.6-109C415.9,150.7,401.4,114.4,372.3,87.1z"/>
<g>
	<g>
		<path class="st2" d="M215.1,16.9c19.5,0,37.6,3.1,53.8,9.1c15.9,6,30.5,15.1,43.4,27.2c25.7,24.2,38.3,55.8,38.3,96.7
			c0,20.4-3.3,38.9-9.7,55c-6.3,15.8-15.9,29.8-28.6,41.7c-12.8,12-27.4,21.2-43.4,27.2c-16.1,6.1-34.2,9.1-53.8,9.1h-47.8h-16.9
			v16.9v101.3H64.8V16.9H215.1 M215.1,0H48v418h119.4V299.7h47.8c43.4,0,79.6-13.6,108.7-40.9c29.1-27.3,43.6-63.6,43.6-109
			c0-45.4-14.5-81.7-43.6-109C294.7,13.6,258.5,0,215.1,0L215.1,0z"/>
	</g>
</g>
<path class="st2" d="M245.4,118.4l-64,64c-3.2,3.2-3.2,8,0,11.2c1.6,1.6,4,2.4,5.6,2.4s4-0.8,5.6-2.4l64-64c3.2-3.2,3.2-8,0-11.2
	C253.4,115.2,248.6,115.2,245.4,118.4z"/>
<path class="st2" d="M187,164c2.4,0,4-0.8,5.6-2.4l32-32c3.2-3.2,3.2-8,0-11.2s-8-3.2-11.2,0l-32,32c-3.2,3.2-3.2,8,0,11.2
	C183,163.2,184.6,164,187,164z"/>
<path class="st2" d="M245.4,150.4l-32,32c-3.2,3.2-3.2,8,0,11.2c1.6,1.6,4,2.4,5.6,2.4s4-0.8,5.6-2.4l32-32c3.2-3.2,3.2-8,0-11.2
	C253.4,147.2,248.6,147.2,245.4,150.4z"/>
</svg>
