<?xml version="1.0" encoding="utf-8"?>
<!-- Generator: Adobe Illustrator 21.1.0, SVG Export Plug-In . SVG Version: 6.00 Build 0)  -->
<svg version="1.1" id="Capa_1" xmlns="http://www.w3.org/2000/svg" xmlns:xlink="http://www.w3.org/1999/xlink" x="0px" y="0px"
	 viewBox="0 0 464 464" style="enable-background:new 0 0 464 464;" xml:space="preserve">
<style type="text/css">
	.st0{fill:#F4DD38;}
	.st1{fill:#25212A;}
</style>
<path class="st0" d="M360,72c0-17.6-14.4-32-32-32H104c0,0,0,14.4,0,32v192h256V72z"/>
<g>
	<path class="st1" d="M40,464h32h320h32c22.4,0,40-17.6,40-40V264c0-22.4-17.6-40-40-40h-56V40c0-22.4-17.6-40-40-40H72
		C49.6,0,32,17.6,32,40v63.2c0,0.8-1.6,16.8,9.6,28.8c7.2,8,17.6,12,30.4,12h24v80H40c-22.4,0-40,17.6-40,40v160
		C0,446.4,17.6,464,40,464z M72,128c-8.8,0-14.4-2.4-18.4-6.4c-6.4-6.4-5.6-16.8-5.6-17.6V40c0-13.6,10.4-24,24-24s24,10.4,24,24v88
		H72z M112,135.2V40c0-8.8-3.2-17.6-8-24h224c13.6,0,24,10.4,24,24v184H112v-87.2V136V135.2z M16,264c0-12,8.8-22.4,20.8-24
		l29.6,29.6c1.6,1.6,3.2,2.4,5.6,2.4h288c4.8,0,8-3.2,8-8s-3.2-8-8-8H75.2l-16-16H104h256h44.8l-18.4,18.4c-3.2,3.2-3.2,8,0,11.2
		c1.6,1.6,4,2.4,5.6,2.4s4-0.8,5.6-2.4l29.6-29.6c12,1.6,20.8,11.2,20.8,24v24h-24c-4.8,0-8,3.2-8,8s3.2,8,8,8h24v16h-56
		c-4.8,0-8,3.2-8,8s3.2,8,8,8h56v16h-24c-4.8,0-8,3.2-8,8s3.2,8,8,8h24v56c0,13.6-10.4,24-24,24h-24v-24c0-22.4-17.6-40-40-40H136
		c-4.8,0-8,3.2-8,8s3.2,8,8,8h224c13.6,0,24,10.4,24,24v24H80v-24c0-13.6,10.4-24,24-24c4.8,0,8-3.2,8-8s-3.2-8-8-8
		c-22.4,0-40,17.6-40,40v24H40c-13.6,0-24-10.4-24-24V264z"/>
	<path class="st1" d="M72,336h32c4.8,0,8-3.2,8-8s-3.2-8-8-8H72c-4.8,0-8,3.2-8,8S67.2,336,72,336z"/>
	<path class="st1" d="M136,336h32c4.8,0,8-3.2,8-8s-3.2-8-8-8h-32c-4.8,0-8,3.2-8,8S131.2,336,136,336z"/>
	<path class="st1" d="M200,336h32c4.8,0,8-3.2,8-8s-3.2-8-8-8h-32c-4.8,0-8,3.2-8,8S195.2,336,200,336z"/>
	<path class="st1" d="M264,336h32c4.8,0,8-3.2,8-8s-3.2-8-8-8h-32c-4.8,0-8,3.2-8,8S259.2,336,264,336z"/>
	<path class="st1" d="M168,80h128c4.8,0,8-3.2,8-8s-3.2-8-8-8H168c-4.8,0-8,3.2-8,8S163.2,80,168,80z"/>
	<path class="st1" d="M168,112h32c4.8,0,8-3.2,8-8s-3.2-8-8-8h-32c-4.8,0-8,3.2-8,8S163.2,112,168,112z"/>
	<path class="st1" d="M296,96h-64c-4.8,0-8,3.2-8,8s3.2,8,8,8h64c4.8,0,8-3.2,8-8S300.8,96,296,96z"/>
	<path class="st1" d="M168,144h64c4.8,0,8-3.2,8-8s-3.2-8-8-8h-64c-4.8,0-8,3.2-8,8S163.2,144,168,144z"/>
	<path class="st1" d="M296,128h-32c-4.8,0-8,3.2-8,8s3.2,8,8,8h32c4.8,0,8-3.2,8-8S300.8,128,296,128z"/>
	<path class="st1" d="M168,176h128c4.8,0,8-3.2,8-8s-3.2-8-8-8H168c-4.8,0-8,3.2-8,8S163.2,176,168,176z"/>
	<path class="st1" d="M168,208h32c4.8,0,8-3.2,8-8s-3.2-8-8-8h-32c-4.8,0-8,3.2-8,8S163.2,208,168,208z"/>
	<path class="st1" d="M296,192h-64c-4.8,0-8,3.2-8,8s3.2,8,8,8h64c4.8,0,8-3.2,8-8S300.8,192,296,192z"/>
</g>
</svg>
