<?xml version="1.0" encoding="utf-8"?>
<!-- Generator: Adobe Illustrator 21.1.0, SVG Export Plug-In . SVG Version: 6.00 Build 0)  -->
<svg version="1.1" id="content" xmlns="http://www.w3.org/2000/svg" xmlns:xlink="http://www.w3.org/1999/xlink" x="0px" y="0px"
	 viewBox="0 0 32.6 32.5" style="enable-background:new 0 0 32.6 32.5;" xml:space="preserve">
<style type="text/css">
	.st0{fill:#25212A;}
	.st1{fill:#FFFFFF;}
</style>
<g>
	<g id="XMLID_99_">
		<g id="XMLID_2591_">
			<path id="XMLID_7838_" class="st0" d="M6,9.7c0,0,4.8-4.3,5-4.6C11,5,11.4,4.9,12,4.8c-0.2-1.4-0.4-2.9-0.7-4.3l5.9,3.4
				c1.1,3.4-0.1-2.1,1.3,5l-6.8,3.9l1.7,10.5L10,25.4L6,9.7z"/>
			<path id="XMLID_2814_" class="st0" d="M9.8,26l10.6-5.8l0,0l0.9-0.6l0-0.2C19.9,12.3,18.6,7,17.5,3.7l0-0.1L11.3,0l-0.4,0.2
				l0,0.3c0.2,1.4,0.4,2.7,0.6,4c-0.7,0.1-0.9,0.3-1,0.4c-0.2,0.3-1.4,3.5-4.1,6.4l-0.2,0.2L9.8,26z M20.4,19.3l-10.2,5.6L7.3,11.6
				c2-2.2,3.4-5.5,3.9-6.3c0.1,0,0.3-0.1,0.9-0.2l0.4-0.1l-0.1-0.4c-0.2-1.2-0.4-2.3-0.6-3.5l5,2.9C17.9,7.4,19.1,12.5,20.4,19.3
				L20.4,19.3z"/>
			<polygon id="XMLID_2813_" class="st1" points="17.2,3.8 6.3,9.7 0.4,6.4 11.3,0.4 			"/>
			<polygon id="XMLID_2812_" class="st1" points="15,5.2 6.1,9.6 7,12.1 1,8.8 3,7.8 11.5,3.1 			"/>
		</g>
		<path id="XMLID_5207_" class="st0" d="M10.4,25.3C9,18.5,7.8,13.3,6.7,9.9L17.6,4l-0.2-0.5L11.3,0L0,6.2c0,0,1.7,11,2.1,15.5
			l0,0.2l7.5,4.3l1.2-0.7l-0.4,0.1L10.4,25.3z M11.3,0.9l5.1,2.9L6.3,9.3L1.2,6.4L11.3,0.9z M3,21.3c0,0-0.2-2.7-0.8-6.5
			C1.6,11.1,1,7.4,1,7.4L5.7,10c0,0,0.8,2.5,1.6,6.2c0.9,3.7,1.8,8.8,1.8,8.8L3,21.3z"/>
	</g>
	<polygon id="XMLID_2555_" class="st1" points="11.5,13.1 13.8,27.7 20.7,31.8 17.5,16.1 	"/>
	<g id="XMLID_2556_">
		<g id="XMLID_2808_">
			<path id="XMLID_2817_" class="st0" d="M17.2,16.1c0,0,4.8-4.3,5-4.6c0.1-0.1,0.5-0.2,1.1-0.3c-0.2-1.4-0.4-2.9-0.7-4.3l5.9,3.4
				c1.1,3.4,2.3,8.6,3.7,15.7l-0.3,0.4l-0.2-0.1l-10.4,5.7L17.2,16.1z"/>
			<path id="XMLID_2811_" class="st0" d="M21.1,32.3l10.6-5.8l0,0l0.9-0.6l0-0.2c-1.4-7.1-2.7-12.4-3.7-15.7l0-0.1l-6.2-3.5
				l-0.4,0.2l0,0.3c0.2,1.4,0.4,2.7,0.6,4c-0.7,0.1-0.9,0.3-1,0.4c-0.2,0.3-1.4,3.5-4.1,6.4l-0.2,0.2L21.1,32.3z M31.7,25.7
				l-10.2,5.6L18.5,18c2-2.2,3.4-5.5,3.9-6.3c0.1,0,0.3-0.1,0.9-0.2l0.4-0.1l-0.1-0.4c-0.2-1.2-0.4-2.3-0.6-3.5l5,2.9
				C29.2,13.7,30.4,18.9,31.7,25.7L31.7,25.7z"/>
			<polygon id="XMLID_2810_" class="st1" points="28.4,10.2 17.5,16.1 11.7,12.8 22.6,6.8 			"/>
			<polygon id="XMLID_2809_" class="st1" points="26.3,11.6 17.4,15.9 18.3,18.5 12.2,15.2 14.3,14.1 22.7,9.5 			"/>
		</g>
		<path id="XMLID_2557_" class="st0" d="M21.6,31.7c-1.4-6.9-2.6-12.1-3.6-15.4l10.9-5.9l-0.2-0.5l-6.1-3.5l-11.3,6.2
			c0,0,1.7,11,2.1,15.5l0,0.2l7.5,4.3l1.2-0.7l-0.4,0.1L21.6,31.7z M22.6,7.3l5.1,2.9l-10.1,5.5l-5.1-2.9L22.6,7.3z M14.3,27.7
			c0,0-0.2-2.7-0.8-6.5c-0.6-3.8-1.2-7.5-1.2-7.5l4.7,2.6c0,0,0.8,2.5,1.6,6.2c0.9,3.7,1.8,8.8,1.8,8.8L14.3,27.7z"/>
	</g>
</g>
</svg>
