<?xml version="1.0" encoding="utf-8"?>
<!-- Generator: Adobe Illustrator 21.1.0, SVG Export Plug-In . SVG Version: 6.00 Build 0)  -->
<svg version="1.1" id="content" xmlns="http://www.w3.org/2000/svg" xmlns:xlink="http://www.w3.org/1999/xlink" x="0px" y="0px"
	 viewBox="0 0 67 67" style="enable-background:new 0 0 67 67;" xml:space="preserve">
<style type="text/css">
	.st0{fill:#F4DD38;}
	.st1{fill:#25212A;}
	.st2{fill:#FFFFFF;}
</style>
<circle class="st0" cx="33.5" cy="33.5" r="33.5"/>
<g id="XMLID_99_">
	<g id="XMLID_2591_">
		<path id="XMLID_7838_" class="st1" d="M23.4,25.9c0,0,4.8-4.3,5-4.6c0.1-0.1,0.5-0.2,1.1-0.3c-0.2-1.4-0.4-2.9-0.7-4.3l5.9,3.4
			c1.1,3.4-0.1-2.1,1.3,5L29.1,29l1.7,10.5l-3.4,2.2L23.4,25.9z"/>
		<path id="XMLID_2814_" class="st1" d="M27.2,42.1l10.6-5.8l0,0l0.9-0.6l0-0.2c-1.4-7.1-2.7-12.4-3.7-15.7l0-0.1l-6.2-3.5l-0.4,0.2
			l0,0.3c0.2,1.4,0.4,2.7,0.6,4c-0.7,0.1-0.9,0.3-1,0.4c-0.2,0.3-1.4,3.5-4.1,6.4l-0.2,0.2L27.2,42.1z M37.8,35.5l-10.2,5.6
			l-2.9-13.3c2-2.2,3.4-5.5,3.9-6.3c0.1,0,0.3-0.1,0.9-0.2l0.4-0.1l-0.1-0.4c-0.2-1.2-0.4-2.3-0.6-3.5l5,2.9
			C35.3,23.5,36.5,28.7,37.8,35.5L37.8,35.5z"/>
		<polygon id="XMLID_2813_" class="st0" points="34.6,20 23.7,25.9 17.8,22.6 28.7,16.6 		"/>
		<polygon id="XMLID_2812_" class="st2" points="32.4,21.4 23.5,25.7 24.4,28.3 18.4,25 20.4,24 28.9,19.3 		"/>
	</g>
	<path id="XMLID_5207_" class="st1" d="M27.8,41.5c-1.4-6.9-2.6-12.1-3.6-15.4L35,20.2l-0.2-0.5l-6.1-3.5l-11.3,6.2
		c0,0,1.7,11,2.1,15.5l0,0.2l7.5,4.3l1.2-0.7l-0.4,0.1L27.8,41.5z M28.7,17.1l5.1,2.9l-10.1,5.5l-5.1-2.9L28.7,17.1z M20.4,37.5
		c0,0-0.2-2.7-0.8-6.5c-0.6-3.8-1.2-7.5-1.2-7.5l4.7,2.6c0,0,0.8,2.5,1.6,6.2c0.9,3.7,1.8,8.8,1.8,8.8L20.4,37.5z"/>
</g>
<polygon id="XMLID_2555_" class="st0" points="28.9,29.3 31.2,43.9 38.1,48 34.9,32.3 "/>
<g id="XMLID_2556_">
	<g id="XMLID_2808_">
		<path id="XMLID_2817_" class="st1" d="M34.6,32.3c0,0,4.8-4.3,5-4.6c0.1-0.1,0.5-0.2,1.1-0.3c-0.2-1.4-0.4-2.9-0.7-4.3l5.9,3.4
			c1.1,3.4,2.3,8.6,3.7,15.7l-0.3,0.4l-0.2-0.1L38.7,48L34.6,32.3z"/>
		<path id="XMLID_2811_" class="st1" d="M38.5,48.5l10.6-5.8l0,0l0.9-0.6l0-0.2c-1.4-7.1-2.7-12.4-3.7-15.7l0-0.1L40,22.6l-0.4,0.2
			l0,0.3c0.2,1.4,0.4,2.7,0.6,4c-0.7,0.1-0.9,0.3-1,0.4c-0.2,0.3-1.4,3.5-4.1,6.4L35,34L38.5,48.5z M49.1,41.9l-10.2,5.6l-2.9-13.3
			c2-2.2,3.4-5.5,3.9-6.3c0.1,0,0.3-0.1,0.9-0.2l0.4-0.1L41,27.3c-0.2-1.2-0.4-2.3-0.6-3.5l5,2.9C46.5,29.9,47.8,35.1,49.1,41.9
			L49.1,41.9z"/>
		<polygon id="XMLID_2810_" class="st0" points="45.8,26.4 34.9,32.3 29.1,29 40,23 		"/>
		<polygon id="XMLID_2809_" class="st2" points="43.7,27.7 34.8,32.1 35.6,34.7 29.6,31.4 31.6,30.3 40.1,25.7 		"/>
	</g>
	<path id="XMLID_2557_" class="st1" d="M39,47.9c-1.4-6.9-2.6-12.1-3.6-15.4l10.9-5.9l-0.2-0.5L40,22.6l-11.3,6.2
		c0,0,1.7,11,2.1,15.5l0,0.2l7.5,4.3l1.2-0.7l-0.4,0.1L39,47.9z M40,23.5l5.1,2.9l-10.1,5.5L29.9,29L40,23.5z M31.6,43.9
		c0,0-0.2-2.7-0.8-6.5c-0.6-3.8-1.2-7.5-1.2-7.5l4.7,2.6c0,0,0.8,2.5,1.6,6.2c0.9,3.7,1.8,8.8,1.8,8.8L31.6,43.9z"/>
</g>
</svg>
