<?xml version="1.0" encoding="utf-8"?>
<!-- Generator: Adobe Illustrator 21.1.0, SVG Export Plug-In . SVG Version: 6.00 Build 0)  -->
<svg version="1.1" id="Capa_1" xmlns="http://www.w3.org/2000/svg" xmlns:xlink="http://www.w3.org/1999/xlink" x="0px" y="0px"
	 viewBox="0 0 488 488" style="enable-background:new 0 0 488 488;" xml:space="preserve">
<style type="text/css">
	.st0{fill:#F4DD38;}
	.st1{fill:#25212A;}
</style>
<path class="st0" d="M84,98.4v146.4c0,72.8,32.8,141.6,90.4,187.2l69.6,56l69.6-56c57.6-45.6,90.4-114.4,90.4-187.2V98.4
	c0-15.2-10.4-28-25.6-31.2L244,40L109.6,67.2C94.4,69.6,84,83.2,84,98.4z M116,116.8c0-7.2,4.8-13.6,12-15.2L244,72l116,28.8
	c7.2,1.6,12,8,12,15.2v116c0,70.4-33.6,136.8-89.6,179.2L244,440l-38.4-28.8C149.6,368.8,116,302.4,116,232V116.8z"/>
<g>
	<path class="st1" d="M245.6,0C245.6,0,244.8,0,245.6,0c-0.8,0-1.6,0-1.6,0h-0.8h-0.8L108,27.2c-18.4,4-32,20-32,39.2v146.4
		c0,76,33.6,146.4,92.8,193.6l69.6,56l0.8,0.8c0,0,0.8,0,0.8,0.8c0.8,0,1.6,0.8,3.2,0.8c0.8,0,1.6,0,3.2-0.8c0,0,0.8,0,0.8-0.8
		c0,0,0.8,0,0.8-0.8l69.6-56c60.8-47.2,94.4-117.6,94.4-193.6V66.4c0-19.2-13.6-35.2-32-39.2L245.6,0z M396,66.4v146.4
		c0,71.2-32,136.8-87.2,180.8L252,439.2V412l35.2-26.4C345.6,342.4,380,272.8,380,200v-64c0-4.8-3.2-8-8-8s-8,3.2-8,8v64
		c0,68-32,132-86.4,172.8l-38.4,28.8c-2.4,1.6-3.2,4-3.2,6.4v31.2l-56.8-45.6C124,349.6,92,283.2,92,212.8V66.4
		c0-11.2,8-21.6,19.2-23.2L236,17.6v16L126.4,60.8C115.2,64,108,73.6,108,84.8V200c0,72.8,34.4,142.4,92.8,185.6
		c1.6,0.8,3.2,1.6,4.8,1.6c2.4,0,4.8-0.8,6.4-3.2c2.4-3.2,1.6-8.8-1.6-11.2C156,332,124,268,124,200V84.8c0-4,2.4-7.2,6.4-8L244,48
		l113.6,28.8c3.2,0.8,6.4,4,6.4,8V104c0,4.8,3.2,8,8,8s8-3.2,8-8V84.8c0-11.2-7.2-20.8-18.4-23.2L252,33.6v-16l124.8,24.8
		C388,44.8,396,55.2,396,66.4z"/>
	<path class="st1" d="M270.4,162.4l-64,64c-3.2,3.2-3.2,8,0,11.2c1.6,1.6,4,2.4,5.6,2.4s4-0.8,5.6-2.4l64-64c3.2-3.2,3.2-8,0-11.2
		S273.6,159.2,270.4,162.4z"/>
	<path class="st1" d="M212,208c2.4,0,4-0.8,5.6-2.4l32-32c3.2-3.2,3.2-8,0-11.2s-8-3.2-11.2,0l-32,32c-3.2,3.2-3.2,8,0,11.2
		C208,207.2,209.6,208,212,208z"/>
	<path class="st1" d="M270.4,194.4l-32,32c-3.2,3.2-3.2,8,0,11.2c1.6,1.6,4,2.4,5.6,2.4s4-0.8,5.6-2.4l32-32c3.2-3.2,3.2-8,0-11.2
		S273.6,191.2,270.4,194.4z"/>
</g>
</svg>
