<?xml version="1.0" encoding="utf-8"?>
<!-- Generator: Adobe Illustrator 21.1.0, SVG Export Plug-In . SVG Version: 6.00 Build 0)  -->
<svg version="1.1" id="Layer_1" xmlns="http://www.w3.org/2000/svg" xmlns:xlink="http://www.w3.org/1999/xlink" x="0px" y="0px"
	 viewBox="0 0 34 34" style="enable-background:new 0 0 34 34;" xml:space="preserve">
<style type="text/css">
	.st0{fill:#FFFFFF;}
	.st1{fill:#00AFF0;}
</style>
<g>
	<circle class="st0" cx="17" cy="17" r="17"/>
</g>
<g>
	<path class="st1" d="M25.7,18.7c0.1-0.5,0.2-1.1,0.2-1.7c0-4.9-4-8.9-8.9-8.9c-0.6,0-1.1,0.1-1.7,0.2c-2-1.7-5-1.6-6.8,0.2
		c-1.9,1.9-2,4.9-0.2,6.8c-0.1,0.5-0.2,1.1-0.2,1.7c0,4.9,4,8.9,8.9,8.9c0.6,0,1.1-0.1,1.7-0.2c2,1.7,5,1.6,6.8-0.2
		C27.4,23.6,27.5,20.6,25.7,18.7z M17.2,22.5c-2.6,0-4.8-1.2-4.8-2.6c0-0.6,0.4-1.2,1.2-1.2c1.3,0,1.4,1.8,3.5,1.8
		c1,0,1.7-0.5,1.7-1.1c0-0.7-0.6-0.9-1.7-1.1l-1.7-0.4c-1.7-0.4-3-1.1-3-3.1c0-2.4,2.4-3.3,4.4-3.3c2.2,0,4.5,0.9,4.5,2.2
		c0,0.7-0.5,1.3-1.2,1.3c-1.1,0-1.2-1.3-3-1.3c-1,0-1.7,0.3-1.7,0.9c0,0.7,0.7,0.8,1.6,1l1.2,0.3c1.7,0.4,3.6,1.1,3.6,3.1
		C21.7,21.4,19.4,22.5,17.2,22.5z"/>
</g>
</svg>
