<?xml version="1.0" encoding="utf-8"?>
<!-- Generator: Adobe Illustrator 21.1.0, SVG Export Plug-In . SVG Version: 6.00 Build 0)  -->
<svg version="1.1" id="content" xmlns="http://www.w3.org/2000/svg" xmlns:xlink="http://www.w3.org/1999/xlink" x="0px" y="0px"
	 viewBox="0 0 74 65.9" style="enable-background:new 0 0 74 65.9;" xml:space="preserve">
<style type="text/css">
	.st0{fill:#F4DD38;}
	.st1{fill:#16110D;}
	.st2{fill:#FFFFFF;}
</style>
<g id="XMLID_10061_">
	<path id="XMLID_10116_" class="st0" d="M36.3,63.2l0.1-0.1l6-4.2l-2.1-2.8c0.3-1.6,0.4-3.4,0.3-5.4c-1-12.1-10.6-26.2-21.6-31.4
		c-1.8-0.9-3.5-1.4-5.2-1.7l-2-2.9l-5.9,4.1l0,0c-3.6,2.2-5.5,6.7-5,13.1c1,12.1,10.6,26.2,21.6,31.4C28.1,66,33,65.8,36.3,63.2z"/>
	<path id="XMLID_10113_" class="st1" d="M41,56c0.3-1.7,0.4-3.5,0.2-5.3c-1-12.3-10.9-26.7-22-32c-1.7-0.8-3.4-1.4-5.1-1.7l-2.3-3.3
		l-6.4,4.4c-3.9,2.4-5.9,7.4-5.4,13.7c1,12.3,10.9,26.7,22,32c2.9,1.4,5.6,2.1,8.1,2.1c2.5,0,4.7-0.7,6.5-2.1l6.7-4.7L41,56z
		 M6.2,19.3l5.3-3.7l1.8,2.6l0.3,0.1c1.6,0.3,3.3,0.8,5,1.6c10.8,5.1,20.3,19,21.2,30.9c0,0.3,0,0.6,0,0.8l-18.8-7.9L9.3,50.9
		C7.5,48.5,6,46,4.8,43.4l6-3.5l-2.2-5.3l-5.9,3.4c-0.6-2.1-1.1-4.3-1.3-6.3C1,25.9,2.7,21.4,6.2,19.3z"/>
	<g id="XMLID_10108_">
		<path id="XMLID_10112_" class="st0" d="M46.9,46.4c1,12.1-7.2,17.7-18.1,12.5c-11-5.2-20.7-19.3-21.6-31.4
			c-1-12.1,7.2-17.7,18.1-12.5C36.3,20.1,45.9,34.2,46.9,46.4z"/>
		<path id="XMLID_10109_" class="st1" d="M36.5,61.5c-2.5,0-5.2-0.7-8-2c-11.2-5.3-21-19.7-22-32C6,21.3,7.7,16.6,11.3,14.1
			c3.6-2.5,8.7-2.4,14.2,0.2c11.2,5.3,21,19.7,22,32l0,0c0.5,6.1-1.3,10.9-4.9,13.4C40.9,60.9,38.8,61.5,36.5,61.5z M17.5,13.6
			c-2.1,0-3.9,0.5-5.4,1.6c-3.2,2.2-4.7,6.5-4.3,12.1c0.9,11.9,10.5,25.7,21.2,30.9c5.1,2.4,9.6,2.5,12.9,0.3
			c3.2-2.2,4.7-6.5,4.3-12.1l0,0C45.3,34.5,35.7,20.7,25,15.5C22.3,14.3,19.8,13.6,17.5,13.6z"/>
	</g>
	<g id="XMLID_10103_">
		<path id="XMLID_10107_" class="st2" d="M42.1,45.6c0.7,8.6-5.1,12.6-12.9,8.9c-7.8-3.7-14.7-13.8-15.4-22.4
			c-0.7-8.6,5.1-12.6,12.9-8.9C34.5,26.9,41.4,36.9,42.1,45.6z"/>
		<path id="XMLID_10104_" class="st1" d="M34.8,54c-1.8,0-3.8-0.5-5.8-1.5c-8-3.8-15.1-14.1-15.8-23c-0.4-4.4,0.9-7.9,3.6-9.7
			c2.7-1.8,6.3-1.8,10.4,0.1c8,3.8,15.1,14.1,15.8,23l0,0c0.4,4.4-0.9,7.9-3.6,9.7C38.1,53.6,36.5,54,34.8,54z M21.3,19.9
			c-1.4,0-2.7,0.4-3.8,1.1c-2.2,1.5-3.3,4.5-3,8.5c0.7,8.4,7.4,18.2,15,21.8c3.6,1.7,6.7,1.8,9,0.2c2.2-1.5,3.3-4.5,3-8.5l0,0
			c-0.7-8.4-7.4-18.2-15-21.8C24.7,20.3,22.9,19.9,21.3,19.9z"/>
	</g>
	<g id="XMLID_10098_">
		<path id="XMLID_10102_" class="st0" d="M37.1,39.8c0.4,5.1-3,7.4-7.6,5.2c-4.6-2.2-8.7-8.1-9.1-13.2c-0.4-5.1,3-7.4,7.6-5.2
			C32.7,28.9,36.7,34.8,37.1,39.8z"/>
		<path id="XMLID_10099_" class="st1" d="M32.8,46.6c-1.1,0-2.3-0.3-3.5-0.9c-4.8-2.3-9-8.4-9.4-13.7c-0.2-2.7,0.6-4.8,2.2-6
			c1.6-1.1,3.9-1.1,6.4,0.1c4.8,2.3,9,8.4,9.4,13.7v0c0.2,2.7-0.6,4.8-2.2,6C34.8,46.3,33.8,46.6,32.8,46.6z M24.8,26.6
			c-0.8,0-1.5,0.2-2,0.6c-1.2,0.8-1.8,2.5-1.6,4.7c0.4,4.8,4.3,10.5,8.7,12.6c2,0.9,3.8,1,5,0.2c1.2-0.8,1.8-2.5,1.6-4.7v0
			c-0.4-4.8-4.3-10.5-8.7-12.6C26.7,26.8,25.7,26.6,24.8,26.6z"/>
	</g>
	<g id="XMLID_10093_">
		<path id="XMLID_10097_" class="st2" d="M32.1,39.9c0.1,1.8-1.1,2.7-2.7,1.9C27.7,41,26.2,38.8,26,37c-0.1-1.8,1.1-2.7,2.7-1.9
			C30.5,35.9,31.9,38,32.1,39.9z"/>
		<path id="XMLID_10094_" class="st1" d="M30.6,40.2c-0.5,0-1-0.1-1.5-0.4c-1.9-0.9-3.5-3.2-3.7-5.3c-0.1-1.1,0.3-2.1,1-2.6
			c0.7-0.5,1.7-0.5,2.7,0c1.9,0.9,3.5,3.2,3.7,5.3l0,0c0.1,1.1-0.3,2.1-1,2.6C31.5,40.1,31.1,40.2,30.6,40.2z M27.8,33
			c-0.2,0-0.4,0-0.5,0.1c-0.3,0.2-0.4,0.7-0.4,1.3c0.1,1.6,1.4,3.5,2.9,4.2c0.6,0.3,1.1,0.3,1.4,0.1c0.3-0.2,0.4-0.7,0.4-1.3l0,0
			c-0.1-1.6-1.4-3.5-2.9-4.2C28.3,33,28,33,27.8,33z"/>
	</g>
	<g id="XMLID_10062_">
		<g id="XMLID_10073_">
			
				<rect id="XMLID_10077_" x="32.8" y="18.6" transform="matrix(0.7961 -0.6052 0.6052 0.7961 -1.5801 34.6382)" class="st2" width="35.6" height="2.1"/>
			<path id="XMLID_10074_" d="M36.9,32.3l-2.1-2.8L64.3,7.1l2.1,2.8L36.9,32.3z M36.7,29.5l0.5,1L64.5,9.8l-0.5-1L36.7,29.5z"/>
		</g>
		<path id="XMLID_10072_" class="st0" d="M29.8,36.3L41,33.1l-4.6-2.7l-1.3-5.1L29,35.2C28.7,35.8,29.2,36.4,29.8,36.3z"/>
		<path id="XMLID_10071_" class="st2" d="M34.7,33.3l-1.3-5.1l-4.6,7.4c0.2,0.2,0.5,0.8,0.8,0.7l7.1-1.9L34.7,33.3z"/>
		<path id="XMLID_10068_" d="M29.6,37c-0.4,0-0.8-0.2-1.1-0.6c-0.4-0.5-0.4-1.1-0.1-1.6l6.9-11.2L37,30l5.7,3.3L30,36.9
			C29.9,37,29.8,37,29.6,37z M34.8,27.1l-5.2,8.5l0,0l9.6-2.7l-3.4-2L34.8,27.1z"/>
		<path id="XMLID_10067_" class="st0" d="M66.3,1.6l-6.9,5.2l-4,8.4c-0.2,0.5,0.2,1.1,0.7,1l9.2-1.7l6.9-5.2l-7-0.8L66.3,1.6z"/>
		<path id="XMLID_10066_" class="st2" d="M64.8,14.9l4.1-3.1l-4.9-0.5l1.1-6.4L58.2,10l-3.2,6.3c0.1,0.1,0.3,0.2,0.6,0.2L64.8,14.9z
			"/>
		<path id="XMLID_10063_" d="M66,8l1.3-8l-8.4,6.4L54.8,15c-0.2,0.5-0.2,1,0.1,1.4c0.3,0.3,0.7,0.5,1.1,0.5c0.1,0,0.2,0,0.2,0
			l9.3-1.7L74,8.8L66,8z M65,13.9l-9,1.7l4-8.3l1.3-1L60.5,11l1.4,0.2l1.1-6.2l2.5-1.9l-1,6l6,0.6L65,13.9z"/>
	</g>
</g>
</svg>
