<?xml version="1.0" encoding="utf-8"?>
<!-- Generator: Adobe Illustrator 21.1.0, SVG Export Plug-In . SVG Version: 6.00 Build 0)  -->
<svg version="1.1" id="content" xmlns="http://www.w3.org/2000/svg" xmlns:xlink="http://www.w3.org/1999/xlink" x="0px" y="0px"
	 viewBox="0 0 64.4 45" style="enable-background:new 0 0 64.4 45;" xml:space="preserve">
<style type="text/css">
	.st0{fill:#F4DD38;}
	.st1{fill:#25212A;}
	.st2{fill:#FFFFFF;}
</style>
<g id="XMLID_2203_">
	<g id="XMLID_2247_">
		<g id="XMLID_2257_">
			<path id="XMLID_2262_" class="st0" d="M0.4,26.2L0.4,26.2l0.1-7.7H64L63.9,26c0,0.2,0,0,0,0.2v0h0c-0.1,1.1-1,2.3-2.6,3.2
				L37.6,43.1c-3.2,1.8-7.9,2-10.7,0.4L2.3,29.2C0.9,28.4,0.3,27.4,0.4,26.2z"/>
			<path id="XMLID_2261_" class="st0" d="M0.4,26.2L0.4,26.2l0.1-7.7H64L63.9,26c0,0.2,0,0,0,0.2v0h0c-0.1,1.1-1,2.3-2.6,3.2
				L37.6,43.1c-3.2,1.8-7.9,2-10.7,0.4L2.3,29.2C0.9,28.4,0.3,27.4,0.4,26.2z"/>
			<path id="XMLID_2258_" class="st1" d="M31.6,45c-1.8,0-3.5-0.4-4.8-1.1L2.1,29.6c-1.5-0.8-2.2-2.1-2-3.4l0.1-7.5l64.3-0.6
				L64.3,26c0,0.1,0,0.2,0,0.3c-0.2,1.3-1.2,2.5-2.8,3.4L37.8,43.4C36,44.4,33.7,45,31.6,45z M1,19l-0.1,7.3c-0.1,1,0.4,1.9,1.6,2.6
				l24.7,14.3c2.6,1.5,7.2,1.3,10.3-0.4L61,29c1.4-0.8,2.3-1.8,2.4-2.9c0,0,0-0.1,0-0.1l0,0l0.1-7.1H1z"/>
		</g>
		<g id="XMLID_2251_">
			<path id="XMLID_2256_" class="st0" d="M2.4,21.7L27,36c2.7,1.6,7.5,1.4,10.7-0.4l23.6-13.7c3.2-1.8,3.5-4.6,0.8-6.2L37.4,1.5
				c-2.7-1.6-7.5-1.4-10.7,0.4L3.1,15.6C0,17.4-0.4,20.2,2.4,21.7z"/>
			<path id="XMLID_2255_" class="st2" d="M2.1,24.6l24.7,14.3c2.7,1.6,7.5,1.4,10.7-0.4l23.7-13.7c3.2-1.8,3.5-4.6,0.8-6.2L37.2,4.3
				c-2.7-1.6-7.5-1.4-10.7,0.4L2.9,18.4C-0.3,20.3-0.6,23,2.1,24.6z"/>
			<path id="XMLID_2252_" class="st1" d="M31.7,37.5c-1.8,0-3.5-0.4-4.8-1.1L2.1,22.1c-1.3-0.8-2.1-1.8-2.1-3c0-1.4,1-2.8,2.8-3.8
				L26.6,1.6c3.3-1.9,8.2-2.1,11.1-0.4l24.7,14.3c1.3,0.8,2.1,1.8,2.1,3c0,1.4-1,2.8-2.8,3.8L37.9,35.9C36.1,37,33.8,37.5,31.7,37.5
				z M32.8,0.8c-2,0-4.2,0.5-5.8,1.5L3.3,15.9c-1.5,0.9-2.4,2-2.4,3.1c0,0.9,0.6,1.7,1.6,2.3l24.7,14.3c2.6,1.5,7.2,1.3,10.3-0.4
				l23.7-13.7c1.5-0.9,2.4-2,2.4-3.1c0-0.9-0.6-1.7-1.6-2.3L37.2,1.8C36.1,1.1,34.5,0.8,32.8,0.8z"/>
		</g>
		<polygon id="XMLID_2250_" class="st1" points="31.7,37.1 31.7,44.6 35.4,44 40.1,41.8 62.6,28.5 64,26.8 64,18.5 63,20.9 
			58.2,23.8 35.5,36.5 		"/>
		<polygon id="XMLID_2249_" class="st1" points="28,36.5 28,44 25.2,42.7 25.2,35.2 		"/>
		<polygon id="XMLID_2248_" class="st1" points="1.9,21.6 1.9,28.8 0.8,27.9 0.1,23.1 0.4,19 1.9,21.6 		"/>
	</g>
	<g id="XMLID_2206_">
		<path id="XMLID_2202_" class="st0" d="M51.4,17.9c-3.2-0.9-8.3-1.9-11.5-0.1c-0.6,0.4-1.2,0.7-1.6,0.9l-2-0.9c0-0.7-0.3-1.4-1-2
			l0,0l-3.8-3.4c-0.1-0.1-0.2-0.2-0.3-0.3l-0.1-0.1l0,0c-0.2-0.2-0.5-0.4-0.8-0.5c-3-1.7-7.8-1.7-10.7,0c-3,1.7-3,4.5,0,6.2
			c0.3,0.2,0.6,0.3,0.9,0.4l0,0l0.1,0c0.2,0.1,0.4,0.1,0.5,0.2l5.9,2.2l0,0c1,0.4,2.3,0.6,3.5,0.6l1.5,1.1c-0.5,0.3-1,0.6-1.6,0.9
			c-3.2,1.9-1.5,4.8,0.1,6.7c0.7,0.8,2.7,1,3.8,0.4l8.7-5l0.4-0.2l8.7-5C53.1,19.4,52.8,18.3,51.4,17.9z"/>
		<g id="XMLID_3356_">
			<path id="XMLID_2201_" class="st1" d="M19.6,13.6c3-1.7,7.8-1.7,10.7,0c0.3,0.2,0.5,0.3,0.8,0.5l0,0l0.1,0.1
				c0.1,0.1,0.2,0.2,0.3,0.3l3.8,3.4l0,0c0.7,0.6,1,1.3,1,2l2,0.9c0.5-0.3,1-0.6,1.6-0.9c3.2-1.9,8.4-0.8,11.5,0.1
				c0.2,0.1,0.4,0.1,0.5,0.2l0.1-0.1c1.2-0.7,0.8-1.8-0.6-2.2c-3.2-0.9-8.3-1.9-11.5-0.1c-0.6,0.4-1.2,0.7-1.6,0.9l-2-0.9
				c0-0.7-0.3-1.4-1-2l0,0l-3.8-3.4c-0.1-0.1-0.2-0.2-0.3-0.3l-0.1-0.1l0,0c-0.2-0.2-0.5-0.4-0.8-0.5c-3-1.7-7.8-1.7-10.7,0
				c-1.9,1.1-2.6,2.7-2,4.1C17.9,14.9,18.5,14.2,19.6,13.6z"/>
			<g id="XMLID_3357_">
				<path id="XMLID_2200_" class="st0" d="M30.4,25.3c0.6-0.4,1.1-0.7,1.6-0.9l0-2c0,0-1.6,0.9-1.6,0.9c0,0,0,0,0,0
					c-1.8,1.1-2.1,2.5-1.6,3.8C29,26.4,29.5,25.8,30.4,25.3z"/>
				<path id="XMLID_2194_" class="st1" d="M51.5,17.6c-3.6-1-8.6-1.9-11.8,0l-1.5,0.8l-1.6-0.7c0-0.6-0.2-1.1-0.6-1.6
					c-0.1-0.2-0.3-0.3-0.5-0.5l-3.8-3.4c-0.1-0.1-0.2-0.2-0.3-0.3l-0.2-0.1l-0.1-0.1l0,0l0,0l0,0c-0.2-0.2-0.4-0.3-0.6-0.4
					c-3.1-1.8-8-1.8-11.1,0c-0.1,0.1-0.2,0.1-0.3,0.2c-0.1,0.1-0.2,0.1-0.3,0.2c-0.1,0.1-0.2,0.1-0.3,0.2c-0.1,0.1-0.2,0.2-0.3,0.3
					c-0.1,0.1-0.1,0.1-0.2,0.2c-0.3,0.3-0.6,0.7-0.8,1.1c0,0,0,0,0,0c-0.1,0.2-0.1,0.4-0.2,0.5c0,0,0,0.1,0,0.1
					c0,0.2-0.1,0.4-0.1,0.5c0,0,0,0,0,0c0,0,0,0.1,0,0.1c0,0.4,0.1,0.8,0.2,1.1c0,0,0,0,0,0l0.4,0.7l0,0c0.4,0.6,1,1.1,1.8,1.6
					c0.1,0.1,0.2,0.1,0.3,0.2l0,0l0.7,0.3c0.2,0.1,0.4,0.1,0.5,0.2l5.9,2.2c1,0.4,2.2,0.6,3.5,0.6l1,0.7c-0.1,0.1-0.2,0.1-0.3,0.2
					c-0.3,0.2-0.6,0.4-0.7,0.4l-0.1,0c-0.1,0-0.1,0.1-0.2,0.1c-0.1,0.1-0.2,0.1-0.3,0.2c-0.1,0.1-0.2,0.1-0.2,0.2
					c-0.1,0.1-0.2,0.2-0.3,0.3c-0.1,0.1-0.1,0.1-0.2,0.2c-0.1,0.1-0.2,0.2-0.2,0.3c0,0.1-0.1,0.1-0.1,0.2c-0.1,0.1-0.2,0.3-0.2,0.4
					c0,0,0,0.1,0,0.1c0,0.1-0.1,0.2-0.1,0.4c0,0.1,0,0.1,0,0.2c0,0,0,0,0,0.1c0,0,0,0.1,0,0.1c0,0.1,0,0.3,0,0.4c0,0.1,0,0.1,0,0.2
					c0,0.1,0,0.3,0.1,0.4c0,0.1,0,0.1,0.1,0.2c0,0.1,0,0.2,0.1,0.3l0.3,0.8l0,0c0.4,0.8,0.9,1.5,1.5,2.1c0.8,1,2.9,1.2,4.2,0.4
					l17.7-10.2c0.2-0.1,0.3-0.2,0.4-0.3c0.3-0.3,0.5-0.7,0.4-1.1c0-0.3-0.2-0.6-0.5-0.9C52.3,17.9,51.9,17.7,51.5,17.6z M17.7,14.7
					c0-0.1,0-0.2,0-0.3c0,0,0-0.1,0-0.1c0-0.1,0-0.2,0.1-0.3c0,0,0-0.1,0-0.1c0-0.1,0.1-0.1,0.1-0.2c0-0.1,0-0.1,0.1-0.2
					c0-0.1,0.1-0.1,0.1-0.2c0-0.1,0.1-0.2,0.1-0.2c0,0,0,0,0.1-0.1c0.3-0.5,0.8-0.9,1.5-1.2c2.9-1.7,7.5-1.6,10.4,0
					c0.2,0.1,0.5,0.3,0.7,0.5l0.1,0.1c0.1,0.1,0.2,0.2,0.3,0.2l3.8,3.5c0.1,0.1,0.3,0.3,0.4,0.4c0.3,0.4,0.5,0.9,0.5,1.3l0,0.2
					c-0.1-0.1-0.3-0.3-0.4-0.4l-3.8-3.4c-0.1-0.1-0.2-0.2-0.3-0.3l-0.3-0.2l0,0c-0.2-0.2-0.4-0.3-0.6-0.4c-3.1-1.8-8-1.8-11.1,0
					C18.7,13.7,18.1,14.2,17.7,14.7C17.7,14.8,17.7,14.7,17.7,14.7z M35.9,18.1l2.3,1l1.8-1c3.2-1.8,8.4-0.7,11.3,0.1
					c0.3,0.1,0.6,0.2,0.7,0.4c0.2,0.1,0.3,0.3,0.3,0.5c0,0.2-0.1,0.5-0.5,0.7c-0.1-0.1-0.3-0.1-0.4-0.1c-3.6-1-8.6-1.9-11.8,0
					l-1.5,0.8l-1.6-0.7C36.6,19.1,36.3,18.6,35.9,18.1z M28.9,25.6C28.9,25.6,28.9,25.6,28.9,25.6c0-0.2,0.1-0.3,0.1-0.4
					c0,0,0,0,0,0c0-0.1,0.1-0.2,0.1-0.3c0,0,0,0,0,0c0.1-0.1,0.1-0.2,0.2-0.3c0,0,0,0,0,0c0.1-0.1,0.2-0.2,0.3-0.3c0,0,0,0,0,0
					c0.2-0.2,0.5-0.4,0.8-0.6l1.1-0.6l0,1.2L30.2,25c-0.4,0.2-0.7,0.5-1,0.7c-0.1,0.1-0.2,0.2-0.3,0.4
					C28.9,25.9,28.9,25.8,28.9,25.6z M30.7,29.7c-0.6-0.7-1.3-1.7-1.6-2.6c0.2-0.6,0.7-1.1,1.4-1.5l1.8-1l0-2l0,0l0-0.4L32.1,22l0,0
					l-1.5-1.1l-0.1,0c-1.2,0-2.4-0.2-3.3-0.6l-5.9-2.2c-0.2-0.1-0.3-0.1-0.5-0.2l-0.2-0.1c-0.3-0.1-0.6-0.3-0.9-0.4
					c-0.9-0.5-1.5-1.1-1.8-1.8c0.3-0.7,0.9-1.3,1.8-1.8c2.9-1.7,7.5-1.6,10.4,0c0.2,0.1,0.5,0.3,0.7,0.5l0.1,0.1
					c0.1,0.1,0.2,0.2,0.3,0.2l3.8,3.5c0.6,0.5,0.9,1.1,0.9,1.7l0,0.2l2.3,1l1.8-1c3.1-1.8,8.2-0.8,11.1,0.1l-17,9.8
					C33.1,30.6,31.3,30.4,30.7,29.7z"/>
			</g>
		</g>
	</g>
</g>
</svg>
