<svg version="1.1" id="Capa_1" xmlns="http://www.w3.org/2000/svg" x="0" y="0" viewBox="0 0 464 464" xml:space="preserve"><style>.st0{fill:#f4dd38}.st1{fill:#25212a}</style><path class="st0" d="M264 56l-32 32-32-32L40 216h89c17-16 43-32 71-32s54 16 71 32h153L264 56z"/><path class="st1" d="M368 312c0-14-10-24-24-24s-24 10-24 24 10 24 24 24 24-10 24-24zm-24 8c-5 0-8-3-8-8s3-8 8-8 8 3 8 8-3 8-8 8z"/><path class="st1" d="M424 112h-61l-93-94c-4-3-8-3-12 0l-26 27-26-27c-4-3-8-3-12 0l-93 94H40c-22 0-40 18-40 40v256c0 22 18 40 40 40h384c22 0 40-18 40-40V152c0-22-18-40-40-40zm0 16c14 0 24 10 24 24 0 12-9 22-21 24l-48-48h45zM264 35l90 91 51 50h-42L243 56l21-21zm-64 0l26 27 115 114h-67c-14-13-42-32-74-32-33 0-60 19-74 32H59l51-50 90-91zm48 141h-96c13-8 30-16 48-16s35 8 48 16zM40 128h45l-48 48c-12-2-21-12-21-24 0-14 10-24 24-24zm384 304H40c-14 0-24-10-24-24V184c6 5 15 8 24 8h384c9 0 18-3 24-8v152H331l-24-24 24-24h93c5 0 8-3 8-8s-3-8-8-8h-96l-6 2-32 32c-3 4-3 8 0 12l32 32 6 2h120v56c0 14-10 24-24 24z"/><path class="st1" d="M194 274l-64 64c-3 4-3 8 0 12l6 2 6-2 64-64c3-4 3-8 0-12s-8-3-12 0zM136 320l6-2 32-32c3-4 3-8 0-12s-8-3-12 0l-32 32c-3 4-3 8 0 12l6 2zM194 306l-32 32c-3 4-3 8 0 12l6 2 6-2 32-32c3-4 3-8 0-12s-8-3-12 0zM72 400c-7 0-14-2-18-6-6-7-6-18-6-18a8 8 0 00-16 0c0 1 0 18 11 30 7 6 17 10 29 10 5 0 8-3 8-8s-3-8-8-8z"/><g><path d="M-135 109c-27-26-62-39-103-39h-158v396h113V354h45c41 0 76-13 103-39 28-25 41-60 41-103s-13-77-41-103z" fill="#fff"/></g><path class="st0" d="M-89 153c-28-26-62-39-103-39h-158v396h113V398h45c41 0 76-13 103-39 28-26 41-60 41-103s-13-77-41-103z"/><g><path class="st1" d="M-238 86c19 0 36 3 51 9a119 119 0 0177 117 119 119 0 01-77 118c-15 5-32 8-51 8h-61v112h-82V86h143m0-16h-158v396h113V354h45c41 0 76-13 103-39 28-25 41-60 41-103s-14-77-41-103-62-39-103-39z"/></g></svg>