<svg id="Layer_1" xmlns="http://www.w3.org/2000/svg" viewBox="0 0 33.3 51.9"><style>.st0{fill:#f4dd38}.st1{fill:#25212a}.st2{fill:#fff}</style><g id="XMLID_197_"><g id="XMLID_196_"><path id="XMLID_2227_" class="st0" d="M23.1 19.7c1.9 1.1 3.6 2.6 5.1 4.4 1.5 1.9 2.7 4 3.5 6.3.8 2.3 1.3 4.7 1.3 7.1 0 4.2-1.1 6.8-3.3 7.8-2.2 1-5.5.2-9.9-2.4-3.8-2.2-6.9-4.7-9.3-7.4v-8.3c1.3 1.4 2.7 2.8 4.4 4.2s3 2.4 4.2 3.1c1.6.9 2.9 1.3 3.8 1 .9-.3 1.3-1.2 1.3-2.8 0-1.4-.4-2.8-1.3-4.1-.9-1.3-2.2-2.5-4-3.5-1.4-.8-2.9-1.4-4.5-1.7L11 19.6 12.2.5l18.6 10.7v8.5l-11.1-6.4-.4 4.7c1.2.4 2 .7 2.5 1 .4.2.9.4 1.3.7z"/><path id="XMLID_2229_" class="st1" d="M27.5 46c-2.1 0-4.7-.9-8-2.8-3.8-2.2-7-4.7-9.4-7.5l-.1-.1v-9.4l.7.7c1.3 1.4 2.7 2.8 4.3 4.2 1.6 1.4 3 2.4 4.1 3 1.5.9 2.7 1.2 3.5.9.7-.2 1.1-1 1.1-2.4s-.4-2.7-1.3-3.9c-.9-1.3-2.2-2.4-3.9-3.4-1.3-.8-2.8-1.3-4.4-1.6H14l-3.4-3.9v-.2L12.2 0l18.9 10.9v8.9l-.4.2L20 13.8l-.3 3.8c1 .4 1.8.7 2.2.9.5.3 1 .5 1.4.8 1.9 1.1 3.6 2.6 5.2 4.5 1.5 1.9 2.7 4 3.6 6.4.8 2.3 1.3 4.8 1.3 7.2 0 4.3-1.2 7.1-3.5 8.1-.8.3-1.5.5-2.4.5zM10.8 35.3c2.4 2.7 5.4 5.1 9.1 7.2 4.3 2.5 7.5 3.3 9.6 2.4 2-.9 3.1-3.4 3.1-7.4 0-2.3-.4-4.7-1.2-6.9-.8-2.3-2-4.3-3.5-6.2-1.5-1.8-3.1-3.3-5-4.3-.4-.2-.9-.5-1.3-.7-.5-.2-1.3-.6-2.4-1l-.3-.1.5-5.6 11 6.4v-7.6L12.5 1.1l-1.2 18.4 3 3.5c1.6.3 3.1.9 4.5 1.7 1.9 1.1 3.3 2.3 4.2 3.7.9 1.4 1.4 2.8 1.4 4.3 0 1.7-.5 2.8-1.6 3.1-1 .3-2.3 0-4.1-1-1.2-.7-2.6-1.7-4.2-3.1-1.4-1.2-2.6-2.3-3.8-3.5v7.1z"/></g><path id="XMLID_2223_" class="st0" d="M12.2.4l-10 6 18.5 10.7 10-6z"/><path id="XMLID_2219_" class="st0" d="M.4 33l9.6-5.6 6.4 7.3v7.6l-7.2 1.9s-5.5-4.5-5.7-5.1-2.4-1.9-2.4-1.9L.4 33z"/><path id="XMLID_2220_" class="st1" d="M9.1 44.8l-.1-.1c-1.7-1.4-5.6-4.6-5.8-5.2-.1-.3-1.3-1.1-2.2-1.7l-.1-.1-.9-4.6v-.3L10.1 27l6.7 7.6v8.1l-7.7 2.1zm-7.6-7.6c.6.4 2.1 1.4 2.4 2 .2.4 3.3 3 5.5 4.8l6.8-1.8V35l-6.1-7-9.2 5.3.6 3.9z"/><path id="XMLID_13_" class="st0" d="M28.1 24.1c-1.5-1.9-3.2-3.3-5.1-4.4-.4-.2-.9-.5-1.4-.7-.5-.3-1.3-.6-2.5-1L11 19.6l-4.1 5.2 10.8 8.1 2 9.9h.1l.2 8 10.2-6c1.8-1.2 2.7-3.6 2.7-7.4 0-2.4-.4-4.8-1.3-7.1-.8-2.2-1.9-4.3-3.5-6.2z"/><path id="XMLID_2216_" class="st1" d="M20.3 51.2l-1-8.2-2-9.8-11-8.3 4.5-5.7 8.5-1.7h.1c1.2.4 2 .8 2.5 1 .5.3 1 .5 1.4.8 1.9 1.1 3.6 2.6 5.2 4.5 1.5 1.9 2.7 4 3.6 6.4.8 2.3 1.3 4.8 1.3 7.2 0 3.8-.9 6.3-2.7 7.6l-.2.1-10.2 6.1zm-.3-8.6l.1.3.2 7.4 9.7-5.7c1.7-1.1 2.5-3.5 2.5-7.1 0-2.3-.4-4.7-1.2-6.9-.8-2.3-2-4.3-3.5-6.2-1.5-1.8-3.1-3.3-5-4.3-.4-.2-.9-.5-1.3-.7-.5-.2-1.2-.6-2.3-.9l-8.1 1.6-3.8 4.8 10.6 8 2.1 9.7z"/><path id="XMLID_12_" class="st2" d="M4 34.4s6.1 6.8 8.9 6c2.8-.9 1.7-6 1.7-6l-3.6-4-7 4z"/><path id="XMLID_2207_" class="st0" d="M13.1 25.6c1.9 1.1 3.6 2.6 5.1 4.4 1.5 1.9 2.7 4 3.5 6.3.8 2.3 1.3 4.7 1.3 7.1 0 4.2-1.1 6.8-3.3 7.8-2.2 1-5.5.2-9.9-2.4C6 46.6 2.9 44.1.5 41.4V33c1.3 1.4 2.7 2.8 4.4 4.2 1.6 1.4 3 2.4 4.2 3.1 1.6.9 2.9 1.3 3.8 1 .9-.3 1.3-1.2 1.3-2.8 0-1.4-.4-2.8-1.3-4.1-.9-1.3-2.2-2.5-4-3.5-1.4-.8-2.9-1.4-4.5-1.7l-3.2-3.7 1-19.1 18.6 10.7v8.5L9.6 19.1l-.4 4.7c1.2.4 2 .7 2.5 1 .5.3.9.6 1.4.8z"/><path id="XMLID_2183_" class="st2" d="M12.2 3.5l-10 5.9 18.5 10.7 10-5.9z"/><path id="XMLID_2192_" class="st1" d="M31.7 30.4l-9.8 5.5c-.8-2.2-2-4.3-3.4-6.1-1.5-1.9-3.3-3.4-5.2-4.5-.4-.2-.9-.5-1.4-.8-.4-.2-1-.5-1.8-.8l3.3-2 7.3 4.2 10.4-6.1v-8.9L12.2 0 1.8 6.1.6 25.5v.2L4 29.5h.1c1.6.3 3 .9 4.4 1.6 1.8 1 3.1 2.2 3.9 3.4.8 1.2 1.3 2.6 1.3 3.9 0 1.4-.4 2.2-1.1 2.4-.8.3-1.9-.1-3.5-.9C8 39.4 6.6 38.3 5 37c-1.6-1.4-3.1-2.8-4.3-4.2l-.2-.2-.5.2v8.7l.1.1c2.4 2.8 5.6 5.3 9.4 7.5 3.3 1.9 5.9 2.8 8 2.8.8 0 1.6-.1 2.2-.4.7-.3 1.3-.8 1.8-1.5l9.5-5.9 1.4-3 .4-4.9-1.1-5.8zM12.2.9L30 11.1l-1.6.9-7.7 4.5L2.9 6.4 12.2.9zm7.3 49.9c-2.1.9-5.3.1-9.6-2.4-3.7-2.1-6.8-4.6-9.1-7.2V34c1.1 1.2 2.4 2.4 3.8 3.5 1.6 1.4 3.1 2.4 4.2 3.1 1.7 1 3.1 1.3 4.1 1 1-.3 1.6-1.4 1.6-3.1 0-1.5-.5-3-1.4-4.3-.9-1.4-2.3-2.6-4.2-3.7-1.4-.8-2.9-1.4-4.5-1.7l-3-3.5L2.5 7l17.8 10.3v7.6l-6.2-3.6-4.8-2.8-.4 5.3v.3l.4.2c1 .4 1.8.7 2.3.9.5.3.9.5 1.3.7 1.8 1 3.5 2.5 5 4.3 1.5 1.8 2.6 3.9 3.5 6.2.8 2.3 1.2 4.6 1.2 6.9-.1 4.1-1.1 6.6-3.1 7.5z"/></g></svg>