<svg id="Layer_1" xmlns="http://www.w3.org/2000/svg" viewBox="0 0 161.3 52.1"><style>.st0{fill:#f4dd38}.st1{fill:#25212a}.st2{fill:#fff}</style><g id="XMLID_19_"><path id="XMLID_2135_" class="st0" d="M.4 34.1V21.3L23 34.4v12.7z"/><path id="XMLID_2150_" class="st0" d="M25.9 11.5V20h12.3l4.3-5.6-8-5.8-6.3 1.1z"/><path id="XMLID_2151_" class="st1" d="M38.4 20.4H25.6v-9.1l2.6-2 6.4-1.1 8.4 6.2-4.6 6zm-12.1-.7H38l3.9-5.2L34.4 9l-6 1-2.1 1.7v8z"/><path id="XMLID_52_" class="st0" d="M44 19l-4.9 1.3-24.2 2.2 6.7 8.3 4.8 5.6c2.3 0 4 .1 5.2.1 2.2 0 4.1-.1 5.7-.4 1.6-.2 3.1-.5 4.5-.9 1.3-.4 2.6-1 3.9-1.7 1.6-.9 2.7-2.1 3.1-3.3.1-.4.2-.8.2-1.2v-.2V16.5L44 19z"/><path id="XMLID_2147_" class="st1" d="M30.6 36.8c-1.1 0-2.5 0-4.3-.1h-.2L21.3 31l-7.2-8.8L39 20l4.8-1.3 5.4-2.9v13.4c0 .3-.1.7-.2 1-.5 1.3-1.6 2.5-3.3 3.5-1.2.7-2.6 1.3-3.9 1.7-1.4.4-2.9.8-4.6 1-1.7.2-3.6.3-5.8.4h-.8zm-4.1-.8c2.3 0 3.9.1 5 0 2.1 0 4.1-.1 5.7-.4 1.6-.2 3.1-.5 4.4-.9 1.3-.4 2.6-1 3.8-1.7 1.5-.9 2.5-1.9 3-3.1.1-.3.2-.7.2-1V17l-4.5 2.3-4.9 1.3-23.6 2.1 6.3 7.7 4.6 5.6z"/><path id="XMLID_2142_" class="st0" d="M23 34.4L.4 21.3 6 18.1h15.3c4.5-.1 7.4-.1 8.9-.2s2.7-.2 3.5-.4c.9-.2 1.6-.5 2.3-.9.8-.5 1.2-1 1.1-1.6-.1-.6-.6-1.1-1.5-1.7-1-.6-2.3-1-3.8-1.2-1.6-.3-3.5-.4-5.9-.5l.8-5.8c3 .1 5.4.3 7.1.6 1.7.3 3.4.7 5 1.2 1.6.6 3.2 1.3 4.8 2.2 2 1.2 3.5 2.4 4.3 3.7.9 1.3 1.1 2.6.7 3.9-.4 1.3-1.5 2.4-3.1 3.3-1.2.7-2.5 1.3-3.9 1.7-1.3.4-2.8.7-4.5.9-1.6.2-3.6.3-5.7.4-2.2 0-6.5-.1-13.1-.3l-.2.1L30 30.4l-7 4z"/><path id="XMLID_2133_" class="st2" d="M48 16c-.9-1.3-2.3-2.6-4.3-3.7-1.6-.9-3.2-1.7-4.8-2.2-1.6-.6-3.3-1-5-1.2-1.7-.3-4.1-.5-7.1-.6l-.4 3V14c2.2.1 4 .3 5.5.5 1.6.3 2.8.7 3.8 1.2 1 .6 1.5 1.1 1.5 1.7.1.6-.3 1.1-1.1 1.6-.7.4-1.4.7-2.3.9-.9.2-2 .3-3.5.4-1.5.1-4.5.2-8.9.2H6.1L.5 23.7 23 36.9l7-4L18.2 26l.2-.1c6.6.2 10.9.3 13.1.3 2.2 0 4.1-.1 5.7-.4 1.6-.2 3.1-.5 4.5-.9 1.3-.4 2.6-1 3.9-1.7 1.6-.9 2.7-2.1 3.1-3.3.4-1.3.2-2.6-.7-3.9z"/><path id="XMLID_191_" class="st1" d="M48.4 13.3c-.9-1.4-2.4-2.7-4.5-3.9-1.6-.9-3.3-1.7-4.9-2.3-1.6-.6-3.3-1-5.1-1.3-1.7-.3-4.1-.5-7.2-.6h-.3l-.9 6.6h.4c2.3.1 4.3.3 5.9.5 1.5.2 2.8.6 3.7 1.2.8.5 1.3 1 1.3 1.4 0 .4-.3.8-.9 1.2-.6.4-1.3.6-2.2.8-.8.2-2 .3-3.5.4-1.5.1-4.5.2-8.9.2H5.8L0 21.1v13.2l23 13.3 7.3-4.2V30.2l-10.9-6.3c6.1.2 10 .3 12.1.2 1 0 1.9 0 2.7-.1v12.4l5.9-.6 5.6-2.3 2.5-2.4.6-2V17.9c0-.1.1-.2.1-.3.6-1.5.4-2.9-.5-4.3zM22.7 37.6v8.9L.8 33.8V21.9l21.9 12.7v3zm8.8-14.3c-2.1 0-6.5-.1-13.1-.3h-.1l-.9.5 11.8 6.8-.8.4-5.4 3.2L4.2 23.1l-3.1-1.8L6 18.5h15.2c4.4-.1 7.5-.1 9-.2s2.7-.2 3.6-.4c.9-.2 1.7-.5 2.4-.9.9-.5 1.4-1.2 1.3-1.9-.1-.7-.6-1.4-1.7-2-1-.6-2.3-1-4-1.3-1.5-.2-3.3-.4-5.5-.5l.7-5.2c2.9.1 5.1.3 6.8.5 1.7.3 3.3.7 4.9 1.2 1.6.5 3.2 1.3 4.8 2.2 2 1.1 3.4 2.4 4.2 3.6.8 1.2 1 2.4.6 3.6-.4 1.2-1.4 2.2-3 3.1-1.2.7-2.5 1.2-3.8 1.7-1.3.4-2.8.7-4.4.9-1.5.3-3.4.4-5.6.4z"/></g><g id="XMLID_197_"><g id="XMLID_196_"><path id="XMLID_2227_" class="st0" d="M75.5 19.8c1.9 1.1 3.6 2.6 5.1 4.4 1.5 1.9 2.7 4 3.5 6.3.8 2.3 1.3 4.7 1.3 7.1 0 4.2-1.1 6.8-3.3 7.8-2.2 1-5.5.2-9.9-2.4-3.8-2.2-6.9-4.7-9.3-7.4v-8.3c1.3 1.4 2.7 2.8 4.4 4.2s3 2.4 4.2 3.1c1.6.9 2.9 1.3 3.8 1 .9-.3 1.3-1.2 1.3-2.8 0-1.4-.4-2.8-1.3-4.1-.9-1.3-2.2-2.5-4-3.5-1.4-.8-2.9-1.4-4.5-1.7l-3.2-3.7L64.8.7l18.6 10.7v8.5l-11.1-6.4-.4 4.7c1.2.4 2 .7 2.5 1 .2.1.7.4 1.1.6z"/><path id="XMLID_2229_" class="st1" d="M80 46.1c-2.1 0-4.7-.9-8-2.8-3.8-2.2-7-4.7-9.4-7.5l-.1-.1v-9.4l.7.7c1.3 1.4 2.7 2.8 4.3 4.2 1.6 1.4 3 2.4 4.1 3 1.5.9 2.7 1.2 3.5.9.7-.2 1.1-1 1.1-2.4s-.4-2.7-1.3-3.9c-.9-1.3-2.2-2.4-3.9-3.4-1.3-.8-2.8-1.3-4.4-1.6h-.1l-3.5-4v-.2L64.6.1 83.5 11v9l-.4.2L72.4 14l-.3 3.8c1 .4 1.8.7 2.2.9.5.3 1 .5 1.4.8 1.9 1.1 3.6 2.6 5.2 4.5 1.5 1.9 2.7 4 3.6 6.4.8 2.3 1.3 4.8 1.3 7.2 0 4.3-1.2 7.1-3.5 8.1-.7.3-1.5.4-2.3.4zM63.2 35.4c2.4 2.7 5.4 5.1 9.1 7.2 4.3 2.5 7.5 3.3 9.6 2.4 2-.9 3.1-3.4 3.1-7.4 0-2.3-.4-4.7-1.2-6.9-.8-2.3-2-4.3-3.5-6.2-1.5-1.8-3.1-3.3-5-4.3-.4-.2-.9-.5-1.3-.7-.5-.2-1.3-.6-2.4-1l-.3-.1.5-5.6 11 6.4v-7.6L64.9 1.2l-1.2 18.4 3 3.5c1.6.3 3.1.9 4.5 1.7 1.9 1.1 3.3 2.3 4.2 3.7.9 1.4 1.4 2.8 1.4 4.3 0 1.7-.5 2.8-1.6 3.1-1 .3-2.3 0-4.1-1-1.2-.7-2.6-1.7-4.2-3.1-1.4-1.2-2.6-2.3-3.8-3.5v7.1z"/></g><path id="XMLID_2223_" class="st0" d="M64.6.6l-10 5.9 18.5 10.7 10.1-5.9z"/><path id="XMLID_2219_" class="st0" d="M52.8 33.2l9.6-5.6 6.4 7.3v7.6l-7.2 1.9s-5.5-4.5-5.7-5.1-2.4-1.9-2.4-1.9l-.7-4.2z"/><path id="XMLID_2220_" class="st1" d="M61.6 44.9l-.1-.1c-1.7-1.4-5.6-4.6-5.8-5.2-.1-.3-1.3-1.1-2.2-1.7l-.1-.1-.8-4.6V33l10.1-5.8 6.7 7.6v8.1l-7.8 2zm-7.7-7.6c.6.4 2.1 1.4 2.4 2 .2.4 3.3 3 5.5 4.8l6.8-1.8v-7.2l-6.1-7-9.2 5.3.6 3.9z"/><path id="XMLID_13_" class="st0" d="M80.6 24.2c-1.5-1.9-3.2-3.3-5.1-4.4-.4-.2-.9-.5-1.4-.7-.5-.3-1.3-.6-2.5-1l-8.3 1.6-4.1 5.2L70 33l2 9.9h.1l.2 8 10.2-6c1.8-1.2 2.7-3.6 2.7-7.4 0-2.4-.4-4.8-1.3-7.1-.7-2.2-1.8-4.3-3.3-6.2z"/><path id="XMLID_2216_" class="st1" d="M72.8 51.3l-1-8.2-2-9.8-11-8.3 4.5-5.7 8.5-1.7h.1c1.2.4 2 .8 2.5 1 .5.3 1 .5 1.4.8 1.9 1.1 3.6 2.6 5.2 4.5 1.5 1.9 2.7 4 3.6 6.4.8 2.3 1.3 4.8 1.3 7.2 0 3.8-.9 6.3-2.7 7.6l-.2.1-10.2 6.1zm-.3-8.5l.1.3.2 7.4 9.7-5.7c1.7-1.1 2.5-3.5 2.5-7.1 0-2.3-.4-4.7-1.2-6.9-.8-2.3-2-4.3-3.5-6.2-1.5-1.8-3.1-3.3-5-4.3-.4-.2-.9-.5-1.3-.7-.5-.2-1.2-.6-2.3-.9L63.6 20l-3.8 4.8 10.6 8 2.1 10z"/><path id="XMLID_12_" class="st2" d="M56.5 34.5s6.1 6.8 8.9 6c2.8-.9 1.7-6 1.7-6l-3.7-3.9-6.9 3.9z"/><path id="XMLID_2207_" class="st0" d="M65.5 25.7c1.9 1.1 3.6 2.6 5.1 4.4 1.5 1.9 2.7 4 3.5 6.3.8 2.3 1.3 4.7 1.3 7.1 0 4.2-1.1 6.8-3.3 7.8-2.2 1-5.5.2-9.9-2.4-3.8-2.2-6.9-4.7-9.3-7.4v-8.3c1.3 1.4 2.7 2.8 4.4 4.2 1.6 1.4 3 2.4 4.2 3.1 1.6.9 2.9 1.3 3.8 1 .9-.3 1.3-1.2 1.3-2.8 0-1.4-.4-2.8-1.3-4.1-.9-1.3-2.2-2.5-4-3.5-1.4-.8-2.9-1.4-4.5-1.7l-3.2-3.7 1.2-19.1 18.6 10.7v8.5l-11.1-6.4-.6 4.6c1.2.4 2 .7 2.5 1 .4.3.9.5 1.3.7z"/><path id="XMLID_2183_" class="st2" d="M64.6 3.6l-10 6 18.5 10.7 10.1-6z"/><path id="XMLID_2192_" class="st1" d="M84.1 30.5L74.3 36c-.8-2.2-2-4.3-3.4-6.1-1.5-1.9-3.3-3.4-5.2-4.5-.4-.2-.9-.5-1.4-.8-.4-.2-1-.5-1.8-.8l3.3-2 7.3 4.2 10.4-6v-8.9L64.6.1 54.2 6.3 53 25.6v.2l3.4 3.9h.1c1.6.3 3 .9 4.4 1.6 1.8 1 3.1 2.2 3.9 3.4.8 1.2 1.3 2.6 1.3 3.9 0 1.4-.4 2.2-1.1 2.4-.8.3-1.9-.1-3.5-.9-1.1-.7-2.5-1.7-4.1-3-1.6-1.4-3.1-2.8-4.3-4.2l-.2-.2-.5.3v8.7l.1.1c2.4 2.8 5.6 5.3 9.4 7.5 3.3 1.9 5.9 2.8 8 2.8.8 0 1.6-.1 2.2-.4.7-.3 1.3-.8 1.8-1.5l9.5-5.9 1.4-3 .4-4.9-1.1-5.9zM64.6 1l17.8 10.3-1.6.9-7.7 4.5L55.3 6.5 64.6 1zm7.3 49.9c-2.1.9-5.3.1-9.6-2.4-3.7-2.1-6.8-4.6-9.1-7.2v-7.2c1.1 1.2 2.4 2.4 3.8 3.5 1.6 1.4 3.1 2.4 4.2 3.1 1.7 1 3.1 1.3 4.1 1 1-.3 1.6-1.4 1.6-3.1 0-1.5-.5-3-1.4-4.3-.9-1.4-2.3-2.6-4.2-3.7-1.4-.8-2.9-1.4-4.5-1.7l-3-3.5L55 7l17.8 10.3V25l-6.2-3.6-4.8-2.8-.4 5.3v.3l.4.2c1 .4 1.8.7 2.3.9.5.3.9.5 1.3.7 1.8 1 3.5 2.5 5 4.3 1.5 1.8 2.6 3.9 3.5 6.2.8 2.3 1.2 4.6 1.2 6.9-.2 4.1-1.2 6.6-3.2 7.5z"/></g><g id="XMLID_2258_"><g id="XMLID_2262_"><path id="XMLID_15_" class="st0" d="M123 29.8c0-6.7-1-12.4-3.1-17s-5.1-8.1-9.2-10.4C107.4.5 105-.1 103 .9l-.3.1-.4.2c-.1 0-.1.1-.2.1l-9.2 5.5 5.5 5.3c-.1 1.1-.1 2.2-.1 3.5 0 6.7 1 12.3 3.1 16.9 1.8 4 4.3 7.1 7.6 9.4l.1 8.1 9.8-5.8c.4-.2.7-.5 1-.8 2-2.1 3.1-6.6 3.1-13.6z"/><path id="XMLID_2268_" class="st1" d="M108.7 50.6l-.1-8.6c-3.3-2.3-5.8-5.5-7.6-9.4-2.1-4.6-3.1-10.3-3.1-17 0-1.1 0-2.3.1-3.3l-5.8-5.6 9.7-5.7s.1 0 .1-.1l.4-.3.3-.1c2-1 4.5-.5 8 1.6 4.1 2.4 7.3 5.9 9.4 10.6 2.1 4.6 3.1 10.4 3.1 17.2 0 7.1-1 11.7-3.1 13.8-.3.3-.6.5-.9.7l-.2.1-10.3 6.1zM93.5 6.8l5.3 5.1v.2c-.1 1.1-.1 2.2-.1 3.4 0 6.6 1 12.2 3.1 16.7 1.7 3.9 4.3 7 7.5 9.2l.2.1.1 7.6 9.2-5.5c.4-.2.7-.5 1-.7 1.9-2 2.9-6.5 2.9-13.3 0-6.7-1-12.3-3.1-16.9-2-4.5-5.1-8-9.1-10.2-3.3-1.9-5.6-2.4-7.4-1.5l-.3.1-.5.3-8.8 5.4z"/></g><path id="XMLID_199_" class="st0" d="M95.7 16.5l-.5 21.7 4.9 5.4 5.8.9.5-4.6-1.2-24-4.4-3.6z"/><path id="XMLID_200_" class="st1" d="M98.6 36l5.2-3.1s3.3-4.7 3.3-4.9-3.7-13.4-3.7-13.4-5.5-2.6-5.9-2.7c-.4-.1-3.1 5.6-3.1 6.9s.2 11.2.2 11.5 1.4 6 1.4 6l1 .2 1.6-.5z"/><path id="XMLID_305_" class="st2" d="M105 33.4l-5.4 3.4s2.3 4.6 5.4 1.9 0-5.3 0-5.3z"/><path id="XMLID_198_" class="st0" d="M112.9 35.7c0 7-1 11.5-3 13.6-2 2.1-5.1 1.9-9.3-.5-4.1-2.4-7.1-5.8-9.2-10.4-2.1-4.6-3.1-10.2-3.1-16.9 0-7 1-11.6 3-13.7 2-2.1 5.1-1.9 9.3.5 4.1 2.3 7.1 5.8 9.2 10.4 2.1 4.6 3.1 10.3 3.1 17zm-15.4-8.9c0 4.5.2 7.7.7 9.6.5 1.9 1.3 3.3 2.4 3.9 1.2.7 2 .3 2.4-1.2.5-1.5.7-4.3.7-8.7 0-4.4-.2-7.6-.7-9.6-.5-2-1.3-3.4-2.4-4-1.1-.7-1.9-.3-2.4 1.1-.5 1.4-.7 4.4-.7 8.9z"/><path id="XMLID_2273_" class="st2" d="M110 4.7c-3.3-1.9-5.7-2.5-7.7-1.5l-.3.1-.4.2c-.1 0-.1.1-.2.1l-9.2 5.5c1.9-.8 4.5-.3 7.7 1.5 3 1.7 5.4 4 7.3 6.9l10-5.9c-1.8-2.9-4.2-5.2-7.2-6.9z"/><g id="XMLID_14_"><path id="XMLID_2272_" class="st1" d="M100.8 16.5c-.6-.4-1.2-.5-1.7-.3s-1 .7-1.3 1.6c-.5 1.5-.7 4.4-.7 9 0 4.5.2 7.7.7 9.7.5 2 1.4 3.4 2.6 4.1.4.2.8.4 1.2.4.2 0 .4 0 .5-.1.6-.2 1-.8 1.3-1.7.5-1.5.7-4.4.7-8.8s-.2-7.6-.7-9.7c-.5-2.1-1.4-3.5-2.6-4.2zm1.9 22.5c-.2.7-.5 1.1-.8 1.2-.3.1-.6 0-1.1-.2-1-.6-1.8-1.8-2.2-3.7-.5-1.9-.7-5.1-.7-9.5s.2-7.4.7-8.7c.2-.6.5-1 .8-1.1h.3c.2 0 .5.1.8.3 1 .6 1.8 1.9 2.2 3.8.5 2 .7 5.2.7 9.5 0 4.1-.3 7-.7 8.4z"/><path id="XMLID_2276_" class="st1" d="M122.6 21.7l-1.9-5.6-9.4 5.4c-.3-1-.7-2.1-1.1-3-2.1-4.7-5.2-8.2-9.4-10.6-4.3-2.5-7.6-2.6-9.7-.4C89 9.7 88 14.2 88 21.4c0 6.7 1.1 12.4 3.1 17 2.1 4.6 5.2 8.2 9.4 10.6 2.3 1.3 4.3 2 6 2 1.5 0 2.8-.5 3.8-1.5.2-.2.4-.5.6-.8l6.5-3.6 3.5-2.8 1.6-4.4.7-6.7-.6-9.5zm-21.8 26.8c-4-2.3-7-5.7-9.1-10.2-2-4.5-3.1-10.1-3.1-16.7 0-6.9 1-11.4 2.9-13.4.9-.9 2-1.3 3.3-1.3 1.5 0 3.4.6 5.6 1.9 4 2.3 7 5.7 9.1 10.2 2 4.5 3.1 10.2 3.1 16.9 0 6.8-1 11.3-2.9 13.3-2 1.8-4.9 1.6-8.9-.7z"/></g></g><g id="XMLID_1_"><g id="XMLID_22_"><path id="XMLID_26_" class="st0" d="M161 29.8c0-6.7-1-12.4-3.1-17s-5.1-8.1-9.2-10.4C145.4.5 143-.1 141 .9l-.3.1-.4.2c-.1 0-.1.1-.2.1l-9.2 5.5 5.5 5.3c-.1 1.1-.1 2.2-.1 3.5 0 6.7 1 12.3 3.1 16.9 1.8 4 4.3 7.1 7.6 9.4l.1 8.1 9.8-5.8c.4-.2.7-.5 1-.8 2-2.1 3.1-6.6 3.1-13.6z"/><path id="XMLID_23_" class="st1" d="M146.7 50.6l-.1-8.6c-3.3-2.3-5.8-5.5-7.6-9.4-2.1-4.6-3.1-10.3-3.1-17 0-1.1 0-2.3.1-3.3l-5.8-5.6 9.7-5.7s.1 0 .1-.1l.4-.3.3-.1c2-1 4.5-.5 8 1.6 4.1 2.4 7.3 5.9 9.4 10.6 2.1 4.6 3.1 10.4 3.1 17.2 0 7.1-1 11.7-3.1 13.8-.3.3-.6.5-.9.7l-.2.1-10.3 6.1zM131.5 6.8l5.3 5.1v.2c-.1 1.1-.1 2.2-.1 3.4 0 6.6 1 12.2 3.1 16.7 1.7 3.9 4.3 7 7.5 9.2l.2.1.1 7.6 9.2-5.5c.4-.2.7-.5 1-.7 1.9-2 2.9-6.5 2.9-13.3 0-6.7-1-12.3-3.1-16.9-2-4.5-5.1-8-9.1-10.2-3.3-1.9-5.6-2.4-7.4-1.5l-.3.1-.5.3-8.8 5.4z"/></g><path id="XMLID_21_" class="st0" d="M133.7 16.5l-.5 21.7 4.9 5.4 5.8.9.5-4.6-1.2-24-4.4-3.6z"/><path id="XMLID_20_" class="st1" d="M136.6 36l5.2-3.1s3.3-4.7 3.3-4.9-3.7-13.4-3.7-13.4-5.5-2.6-5.9-2.7c-.4-.1-3.1 5.6-3.1 6.9s.2 11.2.2 11.5 1.4 6 1.4 6l1 .2 1.6-.5z"/><path id="XMLID_18_" class="st2" d="M143 33.4l-5.4 3.4s2.3 4.6 5.4 1.9 0-5.3 0-5.3z"/><path id="XMLID_10_" class="st0" d="M150.9 35.7c0 7-1 11.5-3 13.6-2 2.1-5.1 1.9-9.3-.5-4.1-2.4-7.1-5.8-9.2-10.4-2.1-4.6-3.1-10.2-3.1-16.9 0-7 1-11.6 3-13.7 2-2.1 5.1-1.9 9.3.5 4.1 2.3 7.1 5.8 9.2 10.4 2.1 4.6 3.1 10.3 3.1 17zm-15.4-8.9c0 4.5.2 7.7.7 9.6.5 1.9 1.3 3.3 2.4 3.9 1.2.7 2 .3 2.4-1.2.5-1.5.7-4.3.7-8.7 0-4.4-.2-7.6-.7-9.6-.5-2-1.3-3.4-2.4-4-1.1-.7-1.9-.3-2.4 1.1-.5 1.4-.7 4.4-.7 8.9z"/><path id="XMLID_9_" class="st2" d="M148 4.7c-3.3-1.9-5.7-2.5-7.7-1.5l-.3.1-.4.2c-.1 0-.1.1-.2.1l-9.2 5.5c1.9-.8 4.5-.3 7.7 1.5 3 1.7 5.4 4 7.3 6.9l10-5.9c-1.8-2.9-4.2-5.2-7.2-6.9z"/><g id="XMLID_2_"><path id="XMLID_6_" class="st1" d="M138.8 16.5c-.6-.4-1.2-.5-1.7-.3s-1 .7-1.3 1.6c-.5 1.5-.7 4.4-.7 9 0 4.5.2 7.7.7 9.7.5 2 1.4 3.4 2.6 4.1.4.2.8.4 1.2.4.2 0 .4 0 .5-.1.6-.2 1-.8 1.3-1.7.5-1.5.7-4.4.7-8.8s-.2-7.6-.7-9.7c-.5-2.1-1.4-3.5-2.6-4.2zm1.9 22.5c-.2.7-.5 1.1-.8 1.2-.3.1-.6 0-1.1-.2-1-.6-1.8-1.8-2.2-3.7-.5-1.9-.7-5.1-.7-9.5s.2-7.4.7-8.7c.2-.6.5-1 .8-1.1h.3c.2 0 .5.1.8.3 1 .6 1.8 1.9 2.2 3.8.5 2 .7 5.2.7 9.5 0 4.1-.3 7-.7 8.4z"/><path id="XMLID_3_" class="st1" d="M160.6 21.7l-1.9-5.6-9.4 5.4c-.3-1-.7-2.1-1.1-3-2.1-4.7-5.2-8.2-9.4-10.6-4.3-2.5-7.6-2.6-9.7-.4-2.1 2.2-3.1 6.7-3.1 13.9 0 6.7 1.1 12.4 3.1 17 2.1 4.6 5.2 8.2 9.4 10.6 2.3 1.3 4.3 2 6 2 1.5 0 2.8-.5 3.8-1.5.2-.2.4-.5.6-.8l6.5-3.6 3.5-2.8 1.6-4.4.7-6.7-.6-9.5zm-21.8 26.8c-4-2.3-7-5.7-9.1-10.2-2-4.5-3.1-10.1-3.1-16.7 0-6.9 1-11.4 2.9-13.4.9-.9 2-1.3 3.3-1.3 1.5 0 3.4.6 5.6 1.9 4 2.3 7 5.7 9.1 10.2 2 4.5 3.1 10.2 3.1 16.9 0 6.8-1 11.3-2.9 13.3-2 1.8-4.9 1.6-8.9-.7z"/></g></g></svg>