<?xml version="1.0" encoding="utf-8"?>
<!-- Generator: Adobe Illustrator 21.1.0, SVG Export Plug-In . SVG Version: 6.00 Build 0)  -->
<svg version="1.1" id="Layer_1" xmlns="http://www.w3.org/2000/svg" xmlns:xlink="http://www.w3.org/1999/xlink" x="0px" y="0px"
	 viewBox="0 0 2500 747" style="enable-background:new 0 0 2500 747;" xml:space="preserve">
<style type="text/css">
	.st0{fill:#262626;}
	.st1{fill:#FF831D;}
	.st2{fill:#FFFFFF;}
</style>
<path class="st0" d="M896.1,26.7L839.8,308c-3.4,16.5-6.2,33.5-6.2,50.6c0,49.4,32.9,77.8,98.8,77.8
	c125.1,0,184.1-103.4,184.1-193.7c0-49.5-26.1-96.8-84.1-96.8c-34.1,0-65.3,14.8-85.7,39.3h-1.2l33-158.5L896.1,26.7L896.1,26.7z
	 M1250.2,31.4c-25.1,0-46.7,18.6-47.2,46.4c-0.1,24.5,17,39.9,39.7,39.9c26.2,0,48.3-17.1,48.3-46
	C1291.1,47.3,1274,31.4,1250.2,31.4z M2155.4,31.4c-24.9,0-46.7,18.6-47.2,46.4c-0.1,24.5,17.1,39.9,39.8,39.9
	c26.1,0,48.3-17.1,48.3-46C2196.3,47.3,2179.3,31.4,2155.4,31.4z M1446.8,74.6l-83.4,19.3l-11.4,58.5h-35.8l-11.3,62h35.2
	l-21.7,110.8c-4,21-5.7,36.3-5.7,51.7c0,34.7,23.4,59.7,72.2,59.7c17.5,0,37.9-2.3,48.3-6.3l9.6-64.2c-7.5,1.1-15.4,1.2-22.6,1.2
	c-17.7,0-23.5-9.5-23.5-23.3c0-9.5,2.4-23.8,4.6-35.3l18.9-94.2h59l11.9-62h-59L1446.8,74.6z M1674.9,146
	c-105.8,0-181.3,77.3-181.3,176.4c0,72.1,48.3,113.7,117,113.7c32.9,0,61.4-5.8,79-14.2l-0.6-62.8c-14.2,5.8-31.3,11.4-55.1,11.4
	c-30.7,0-54.4-19.4-54.4-57.3c0-52.3,35.7-101.7,94.2-101.7c16.5,0,27.8,2.9,37.6,6.7l19.8-62.4C1719.3,150.6,1698.7,146,1674.9,146
	L1674.9,146z M1901.8,146c-98.9,0-165.9,79.1-165.9,175.7c0,68.9,47.1,114.8,117.6,114.8c96.7,0,165.9-74.6,165.9-176.3
	C2019.4,197.1,1976.3,146,1901.8,146L1901.8,146z M2410.8,146c-36.9,0-71.5,15.9-97.8,52.2h-1.2l5.7-45.9h-72.7
	c-3.6,24.6-8.1,55.2-14.9,90.4L2194.7,430h81.8l23.4-123.2c11.3-61.4,42.7-95,69.4-95c20.5,0,27.3,13.8,27.3,33
	c0,10.2-1.2,21.6-2.8,31.3l-29,153.9h81.9l30.7-161.3c2.3-13.6,4.5-34.7,4.5-47.1C2481.8,173.7,2456.2,146,2410.8,146L2410.8,146z
	 M1191.8,152.2l-52.8,278h81.8l52.8-278L1191.8,152.2L1191.8,152.2z M2096.7,152.2l-52.8,278h81.9l52.8-278L2096.7,152.2
	L2096.7,152.2z M1890.9,208c33,0,43.8,27.3,43.8,52.8c0,47.7-24.9,113.2-69.8,113.2c-28.5,0-44.5-21.7-44.5-54
	C1820,276.8,1843.8,208,1890.9,208L1890.9,208z M994.3,212c24.9,0,36.2,21,36.2,47.7c0,48.7-34,114.7-81.2,114.7
	c-18.8,0-30.7-10.8-31.3-30.7c-0.6-11.8,1.7-21.4,2.8-30.5l5.2-22.9C935.8,242.1,964.7,212,994.3,212L994.3,212z M1845.6,473v72.1
	h-0.6c-6.1-9.2-18.8-15-35.2-15c-31.9,0-60,25.8-59.7,70.8c0,41.3,25.4,68.4,57,68.4c17.1,0,33.2-7.7,41.7-22.6h0.6l1.8,19.6h36.8
	c-0.6-9-1.2-24.8-1.2-39.8V473H1845.6z M1975.4,473v193.3h41.5v-79.1c0-3.1,0.3-6.6,1.3-9.2c3-7.3,9.9-14.4,20.8-14.4
	c15.5,0,21.5,11.9,21.5,29.4v73.2h41.4v-77.8c0-40.1-20.1-58.4-46.6-58.4c-7.6,0-15.5,1.8-21.6,5.2c-6.5,3.5-11.9,8-16.4,13.6h-0.5
	V473H1975.4L1975.4,473L1975.4,473z M1561.5,495.1l-40.6,9.1v28.9h-17.6v30.5h17.6V618c0,18.9,3.8,31.7,11.4,39.7
	c6.5,6.7,17.7,11.5,31.2,11.5c11.7,0,21.5-1.4,26.9-3.6l-0.3-31.3c-3,0.5-7,1.1-12.2,1.1c-12.5,0-16.4-7.3-16.4-23.4v-48.2h29.8
	v-30.5h-29.8V495.1L1561.5,495.1L1561.5,495.1z M876.7,530.1c-24.2,0-42.5,6.6-51.8,11.8l7.6,26.7c8.7-5.5,23.2-10.1,36.8-10.1
	c20.5,0,24.3,10,24.3,17.1v2c-47.1-0.4-78.2,16.3-78.2,51c0,21.2,16,40.7,43,40.7c15.8,0,29.4-5.8,38.2-16.4h0.9l2.4,13.4h37.4
	c-1.3-7.3-1.8-19.6-1.8-32.6v-46.2C935.4,556.2,921.1,530.1,876.7,530.1z M1036.8,530.1c-49.6,0-76.3,31.9-76.3,70.8
	c0,41.9,27.5,68.2,70.5,68.2c15.8,0,29.7-2.8,37.1-6l-5-30.5c-6.3,2.5-13.9,3.9-23.7,3.9c-20.2,0-36.5-12.7-36.5-37.3
	c-0.3-21.7,14-37.2,35.7-37.2c10.9,0,18.3,1.7,23.2,3.9l6.5-30.7C1059.6,531.9,1047.6,530.1,1036.8,530.1z M1156.7,530.1
	c-49.6,0-76.3,31.9-76.3,70.8c0,41.9,27.6,68.2,70.6,68.2c15.8,0,29.7-2.8,37.1-6l-4.9-30.5c-6.3,2.5-13.9,3.9-23.8,3.9
	c-20.1,0-36.5-12.7-36.5-37.3c-0.3-21.7,13.9-37.2,35.7-37.2c10.9,0,18.2,1.7,23.1,3.9l6.6-30.7
	C1179.6,531.9,1167.6,530.1,1156.7,530.1z M1267.8,530.1c-46.4,0-67.3,37.3-67.3,71c0,41.6,26,68,71.1,68c18,0,34.6-2.8,48.2-8.3
	l-5.4-28c-11.2,3.6-22.7,5.5-36.8,5.5c-19.3,0-36.3-8.1-37.6-25.2h85.7c0.6-3.1,1.4-9.2,1.4-16.5
	C1327.2,563.8,1310.8,530.1,1267.8,530.1L1267.8,530.1z M1433.8,530.1c-19.3,0-34.7,7.3-44.5,21.6h-0.5l-1.8-18.5h-36
	c0.5,12.1,1.2,27.2,1.2,44.7v142.4h41.4v-66.1h0.5c6.1,8.7,18.5,15.2,34.6,15.2c29.7,0,60.5-22.9,60.5-71.4
	C1489.1,555.4,1463,530.1,1433.8,530.1z M1673.5,530.1c-46.2,0-67.3,37.3-67.3,71c0,41.6,26,68,71.1,68c18,0,34.6-2.8,48.2-8.3
	l-5.5-28c-11.2,3.6-22.6,5.5-36.7,5.5c-19.4,0-36.2-8.1-37.6-25.2h85.7c0.5-3.1,1.3-9.2,1.3-16.5
	C1732.9,563.8,1716.6,530.1,1673.5,530.1L1673.5,530.1z M2195,530.1c-46.4,0-67.3,37.3-67.3,71c0,41.6,25.9,68,71.1,68
	c18,0,34.6-2.8,48.3-8.3l-5.6-28c-11.1,3.6-22.6,5.5-36.7,5.5c-19.4,0-36.3-8.1-37.7-25.2h85.8c0.5-3.1,1.3-9.2,1.3-16.5
	C2254.3,563.8,2238,530.1,2195,530.1L2195,530.1z M2440.4,530.1c-46.2,0-67.3,37.3-67.3,71c0,41.6,26,68,71.1,68
	c18,0,34.7-2.8,48.3-8.3l-5.5-28c-11.2,3.6-22.6,5.5-36.8,5.5c-19.3,0-36.2-8.1-37.6-25.2h85.7c0.6-3.1,1.4-9.2,1.4-16.5
	C2499.8,563.8,2483.4,530.1,2440.4,530.1L2440.4,530.1z M2352.3,530.3c-12.7,0-29.1,8.2-35.9,27.5h-1.2l-1.3-24.6h-35.6
	c0.5,11.4,1,24.4,1,43.9v89.3h41.4v-67.6c0-3.3,0.3-6.5,0.9-9.2c2.7-12.9,13.1-21,28.3-21c4.7,0,8.3,0.6,11.3,1.2v-39
	C2358.2,530.2,2356.2,530.3,2352.3,530.3L2352.3,530.3z M1265.3,557.6c19,0,23.5,16.9,23.5,27h-49.1
	C1240.8,573.3,1247.8,557.6,1265.3,557.6z M1671,557.6c19.2,0,23.6,16.9,23.6,27h-49.2C1646.6,573.3,1653.6,557.6,1671,557.6z
	 M2192.5,557.6c19.1,0,23.5,16.9,23.5,27h-49.1C2168,573.3,2175.1,557.6,2192.5,557.6z M2437.9,557.6c19,0,23.5,16.9,23.5,27h-49.1
	C2413.4,573.3,2420.4,557.6,2437.9,557.6z M1820.8,561.6c12.8,0,21.8,9.2,24.3,20.4c0.3,2.1,0.6,5.1,0.6,7.3V607
	c0,3.6-0.2,6.5-1.1,9.5c-2.5,11.7-12,19.8-24.1,19.8c-17.1,0-28.4-14.2-28.4-36.7C1792.1,578.6,1801.9,561.6,1820.8,561.6
	L1820.8,561.6L1820.8,561.6z M1419.1,562.6c18.6,0,28,16.1,28,37.3c0,22.6-10.7,37.8-28.6,37.8c-12,0-21.5-8.5-24.3-19.6
	c-0.5-2.6-0.8-5.4-0.8-8.8V591c0-2.4,0.3-5.1,0.8-7.4C1397,571.3,1407.4,562.6,1419.1,562.6L1419.1,562.6z M894.9,603.4l0.1,14.5
	c0,2.5-0.3,5-0.9,7.1c-2.7,8.5-11.2,15.1-21.6,15.1c-9.2,0-16.3-5.1-16.3-15.7C856.3,608.2,873.2,603,894.9,603.4L894.9,603.4z"/>
<path class="st1" d="M373.5,0C167.2,0,0,167.2,0,373.5C0,579.7,167.2,747,373.5,747C579.7,747,747,579.7,747,373.5
	C747,167.2,579.7,0,373.5,0z"/>
<path class="st2" d="M341.4,145.9l54.5,10.4l-10,52.9l35.1,6.6l10-53l54.5,10.2L475,229.7c7.8,3.1,14.9,6.2,20.5,10.1
	c14.6,9.7,25.3,21.4,31.7,35.2c6.3,13.8,8,28.1,5.2,42.7c-2,10.6-6.1,20.3-12.5,29.1c-6.3,8.6-14.5,15.8-24.4,21.6
	c-9.9,5.7-22.4,9.6-37.3,11.8c14.3,6.6,25.1,13,32.2,19.2c10.3,8.7,17.8,19.4,22.4,32.4c4.6,12.8,5.5,26.4,2.9,40.7
	c-3.2,17.2-11.3,31.9-24.3,44.2c-13,12.6-29.7,20.9-49.9,24.8c-7.5,1.3-15.9,2.2-25.3,2.3l-10.8,57.4L350.8,591l10-53.1
	c-1.4-0.4-2.6-0.5-4-0.8l-31.2-5.8l-9.9,53l-54.5-10.2l9.9-53.1l-83.2-15.6l8.3-44.6l12.7,2.4c8.5,1.7,14.3,2.1,17.6,1
	c3.3-0.9,5.7-2.6,7.5-5c1.8-2.5,3.6-8.4,5.3-17.7L272.9,262c1.8-9.4,2.4-15.7,1.6-18.6c-0.8-2.9-2.5-5.4-5.3-7.4
	c-2.6-2.2-8.3-4.1-16.8-5.5l-12.7-2.6l8.3-44.6l83.3,15.7L341.4,145.9L341.4,145.9z"/>
<path class="st1" d="M356.2,257.3l-14.7,78.5l35.4,6.7c18.4,3.4,32.4,4.3,41.9,2.9c9.4-1.3,16.8-4.8,22.5-10.2
	c5.5-5.3,9.2-12.2,10.7-20.4c1.6-8.5,0.9-16-2.3-22.8c-3-6.7-8.3-12-16-16.3c-7.5-4-21.4-8-42.2-11.8L356.2,257.3L356.2,257.3z"/>
<path class="st1" d="M332.7,383.4l-12.9,69.7c-1.6,9.7-2.4,15.8-2.2,17.4c0.4,2.3,1.4,4.1,3,5.2c1.7,1.1,6.3,2.6,14.2,3.9l23.5,4.5
	c13.8,2.5,25.3,3.4,34.8,2.5s18.1-4.8,26-11.6c7.7-6.9,12.7-15.8,14.9-27.1c1.6-9.5,1-17.9-2.2-25.4c-3.3-7.4-9-13.8-17.3-18.8
	s-21.5-9.1-39.9-12.6L332.7,383.4L332.7,383.4z"/>
</svg>
