<?xml version="1.0" encoding="utf-8"?>
<!-- Generator: Adobe Illustrator 21.1.0, SVG Export Plug-In . SVG Version: 6.00 Build 0)  -->
<svg version="1.1" id="Layer_1" xmlns="http://www.w3.org/2000/svg" xmlns:xlink="http://www.w3.org/1999/xlink" x="0px" y="0px"
	 viewBox="0 0 169 34.8" style="enable-background:new 0 0 169 34.8;" xml:space="preserve">
<style type="text/css">
	.st0{fill:#74B027;}
	.st1{fill:#363636;}
	.st2{font-family:'Arial-BoldMT';}
	.st3{font-size:27px;}
</style>
<g>
	<path class="st0" d="M39.8,30.4h-5.2v-18h18.6v18h-5.2V15.9h-8.3V30.4z M55.7,17v17.9h4.8v-6.1c1.6,1.7,4.2,1.8,4.8,1.8
		c4.5,0,7.3-2.9,7.3-7c0-4.3-2.8-7.1-7.2-7.1c-1.1,0-3.3,0.2-5.1,2.1h-0.1l0-1.6C60.2,17,55.7,17,55.7,17z M60.3,23.5
		c0-3.7,2.3-4.4,3.7-4.4c1.4,0,3.7,0.7,3.7,4.4c0,2.3-1,4.4-3.7,4.4C61.2,27.9,60.3,25.8,60.3,23.5L60.3,23.5z M84.5,28.5
		c-1.8,1.6-3.5,2.1-5.3,2.1c-5.1,0-5.3-3.8-5.3-5.4V17h4.8v7.6c0,2.6,0.9,3.4,2.7,3.4c3,0,3.2-2.7,3.2-3.6V17h4.8v13.1h-4.8V28.5z
		 M96.1,24.6H99c2.3,0,2.7,0.7,2.7,1.5c0,0.6-0.3,1.3-2.7,1.3h-3L96.1,24.6L96.1,24.6z M91.3,17v13.1h9.5c3.5,0,5.8-0.7,5.8-3.3
		c0-2.1-1.2-3-3.8-3.4v-0.1c1.7-0.2,3.2-1.3,3.2-3.1c0-3.2-3.8-3.2-5.2-3.2L91.3,17L91.3,17z M96.1,19.6h2.6c1.4,0,2.5,0.2,2.5,1.3
		c0,1.2-1.8,1.2-2.6,1.2h-2.5V19.6L96.1,19.6z M112.6,21.2c0-1.9,2.1-2.1,2.9-2.1c0.5,0,2.5,0,2.6,1.7v0.4c-0.1,1.3-1.3,1-4.9,1.5
		c-2.9,0.4-5.9,1.1-5.9,4.1c0,1.1,0.5,3.8,5.5,3.8c1.9,0,4.1-0.5,5.3-1.8h0.1l0.4,1.3h5v-0.2c-0.9-0.2-1-1.1-0.9-2.5l0.1-6
		c0-1.5-0.1-4.9-7.3-4.9c-1.7,0-7.3,0.2-7.5,4.7C108.1,21.2,112.6,21.2,112.6,21.2z M118.2,24.7c0,2.6-2.3,3.3-3.5,3.3
		c-0.9,0-2.4-0.3-2.4-1.5c0-1.5,1.8-1.8,2.8-1.9c1.8-0.3,1.7-0.2,3.1-0.7C118.2,23.8,118.2,24.7,118.2,24.7z M123.4,19.6V17h15.3
		v2.6h-5.3v10.5h-4.8V19.6L123.4,19.6z"/>
	<path class="st1" d="M0,30.1h11.9V18.3H0V30.1z"/>
	<path class="st0" d="M24.2,6.2v17.7h-2.4C20.7,15.2,15.2,9.7,6.3,8.6V6.2H24.2L24.2,6.2z M0,0v14.7h3.2c8.3,0,12.5,4.2,12.5,12.4
		v3.1h14.9V0H0z"/>
	<text transform="matrix(1 0 0 1 139 30)" class="st1 st2 st3">24</text>
</g>
</svg>
