<?xml version="1.0" encoding="utf-8"?>
<!-- Generator: Adobe Illustrator 21.1.0, SVG Export Plug-In . SVG Version: 6.00 Build 0)  -->
<svg version="1.1" id="Layer_1" xmlns="http://www.w3.org/2000/svg" xmlns:xlink="http://www.w3.org/1999/xlink" x="0px" y="0px"
	 viewBox="0 0 344.4 154.8" style="enable-background:new 0 0 344.4 154.8;" xml:space="preserve">
<style type="text/css">
	.st0{fill:#2D3540;}
	.st1{fill:#FF8C00;}
</style>
<g>
	<path class="st0" d="M168.7,87.7h5.4v12.1h3.9l7-12.1h5.9l-8.4,14.2v0.1l8.9,15.5h-6.1l-7.2-13h-3.9v13h-5.4L168.7,87.7L168.7,87.7
		z M203.5,95.6c6.5,0,11.8,4.6,11.8,11.2c0,6.6-5.2,11.2-11.7,11.2s-11.7-4.6-11.7-11.2C191.8,100.3,197,95.6,203.5,95.6z
		 M203.5,113.5c3.5,0,6.4-2.7,6.4-6.7c0-3.9-2.9-6.7-6.4-6.7s-6.3,2.7-6.3,6.7C197.2,110.8,200,113.5,203.5,113.5z M219.5,96.1h5.1
		V113h6.7V96.1h5.1V113h6.7V96.1h5.1v21.4h-28.5L219.5,96.1L219.5,96.1z M263.3,95.6c6.1,0,9.5,4.5,9.5,10.1c0,0.7-0.1,1.4-0.2,2.1
		h-14.7c0.3,3.7,3.2,5.7,6.4,5.7c2.2,0,4.4-1,6.1-2.3l2.1,3.8c-2.2,1.9-5.5,3.1-8.6,3.1c-7.1,0-11.5-5.1-11.5-11.2
		C252.4,100.2,256.9,95.6,263.3,95.6z M267.5,104.2c0-2.9-1.9-4.5-4.3-4.5c-2.7,0-4.7,1.8-5.2,4.5H267.5z M275.3,113
		c2.6-0.4,4.5-2.6,4.5-10.2v-6.7h15.6v21.4H290v-17.1h-5.2v2.4c0,9.3-2.5,14.7-9.6,14.9V113z M310.6,95.6c6.1,0,9.5,4.5,9.5,10.1
		c0,0.7-0.1,1.4-0.2,2.1h-14.7c0.3,3.7,3.2,5.7,6.4,5.7c2.2,0,4.4-1,6.1-2.3l2.1,3.8c-2.2,1.9-5.5,3.1-8.6,3.1
		c-7.1,0-11.5-5.1-11.5-11.2C299.7,100.2,304.2,95.6,310.6,95.6z M314.7,104.2c0-2.9-1.9-4.5-4.3-4.5c-2.7,0-4.7,1.8-5.2,4.5H314.7z
		 M324.5,96.1h5.3v8.2h2.6l5.2-8.2h5.9l-6.8,10.2v0.1l7.6,11.1h-6.2l-5.6-8.7h-2.8v8.7h-5.3L324.5,96.1L324.5,96.1z"/>
	<path class="st1" d="M243.4,22.8v50.5c0,0.8-0.6,1.4-1.4,1.4h-10.3c-0.8,0-1.4-0.6-1.4-1.4V22.8c0-0.8,0.6-1.4,1.4-1.4H242
		C242.8,21.4,243.4,22,243.4,22.8z M323.8,21.4h-11.5c-0.6,0-1.1,0.4-1.3,1l-9.1,29.9l-10-29.9c-0.2-0.6-0.7-0.9-1.3-0.9h-8.1
		c-0.6,0-1.1,0.4-1.3,0.9l-10,29.9l-9.1-29.9c-0.2-0.6-0.7-1-1.3-1H249c-0.4,0-0.9,0.2-1.1,0.6c-0.3,0.4-0.3,0.8-0.2,1.2l17,50.6
		c0.2,0.6,0.7,0.9,1.3,0.9h9.2c0.6,0,1.1-0.4,1.3-0.9l9.9-29.5l9.9,29.5c0.2,0.6,0.7,0.9,1.3,0.9h9.2c0.6,0,1.1-0.4,1.3-0.9l17-50.6
		c0.1-0.4,0.1-0.9-0.2-1.2C324.7,21.6,324.2,21.4,323.8,21.4z M341.2,21.4h-10.3c-0.8,0-1.4,0.6-1.4,1.4v50.5c0,0.8,0.6,1.4,1.4,1.4
		h10.3c0.8,0,1.4-0.6,1.4-1.4V22.8C342.5,22,341.9,21.4,341.2,21.4z M224.3,73c0.6,0.7,0.1,1.7-0.8,1.7h-12.6c-0.5,0-1-0.2-1.3-0.6
		l-2.1-2.6c-4.4,2.8-9.6,4.5-15.1,4.5c-15.4,0-27.9-12.5-27.9-27.9s12.5-27.9,27.9-27.9c15.4,0,27.9,12.5,27.9,27.9
		c0,5.6-1.6,10.7-4.4,15.1L224.3,73z M199.3,61.7l-5.5-6.7c-0.6-0.7-0.1-1.8,0.8-1.8h11.6c0.6-1.6,0.9-3.4,0.9-5.2
		c0-8.3-6.2-15.5-14.7-15.5c-8.5,0-14.7,7.2-14.7,15.5s6.2,15.4,14.7,15.4C194.8,63.5,197.2,62.8,199.3,61.7z M119,97.5
		c-1.3-0.5-2.4-0.1-2.9,0.8c-0.8,1.4-0.2,4.1,1.3,6.5c1.5,2.4,2.9,3.6,3.9,3.6c1,0,1.9-1.2,1.5-4.3C122.6,102.3,121.6,98.4,119,97.5
		z M103.8,108.7c-1.4,0-2.5,0.5-3.2,1.4c-1.8,2.2-1,6.2,1.8,8.6c1.2,1.1,3,1.7,4.7,1.7c1.7,0,3.2-0.7,4.1-1.8
		c1.6-2.2,0.7-5.2-2.4-7.8C107.2,109.4,105.4,108.7,103.8,108.7z M68.8,137.7c-38,0-68.8-30.8-68.8-68.8S30.8,0,68.8,0
		s68.8,30.8,68.8,68.8c0,12.9-3.6,25-9.7,35.3c-0.2,0.3-0.7,0.2-0.8-0.2c-2.4-16.9-12.7-26.2-27.7-29c-1.3-0.2-1.5-1,0.2-1.2
		c4.6-0.4,11.1-0.3,14.5,0.3c0.2-1.7,0.3-3.5,0.3-5.3c0-25.1-20.4-45.5-45.5-45.5c-25.1,0-45.5,20.4-45.5,45.5s20.4,45.5,45.5,45.5
		c0.7,0,1.4,0,2.1,0l0,0c-0.8-4.4-1-8.9-0.9-12.3c0.1-2.8,0.7-3.2,1.9-1c6.3,10.9,15.3,20.7,32.9,24.6c14.4,3.2,28.8,6.9,44.3,26.6
		c1.4,1.7-0.7,3.5-2.3,2.1c-15.8-14-30.2-18.6-43.3-18.6C88.9,135.7,78.9,137.7,68.8,137.7z"/>
</g>
</svg>
