<?xml version="1.0" encoding="utf-8"?>
<!-- Generator: Adobe Illustrator 21.1.0, SVG Export Plug-In . SVG Version: 6.00 Build 0)  -->
<svg version="1.1" id="Capa_1" xmlns="http://www.w3.org/2000/svg" xmlns:xlink="http://www.w3.org/1999/xlink" x="0px" y="0px"
	 viewBox="0 0 112.1 29.7" style="enable-background:new 0 0 112.1 29.7;" xml:space="preserve">
<style type="text/css">
	.st0{fill:#2D88D3;}
</style>
<g>
	<g>
		<rect x="104" y="15.3" transform="matrix(0.742 -0.6704 0.6704 0.742 15.8006 75.3355)" class="st0" width="3.6" height="3.6"/>
	</g>
</g>
<g>
	<g>
		<rect x="98.2" y="17.8" transform="matrix(0.7432 -0.669 0.669 0.7432 12.3167 72.4452)" class="st0" width="4.7" height="4.7"/>
	</g>
</g>
<g>
	<g>
		
			<rect x="109.4" y="14.3" transform="matrix(0.7428 -0.6695 0.6695 0.7428 18.1143 77.9824)" class="st0" width="2.3" height="2.3"/>
	</g>
</g>
<g>
	<g>
		<rect x="99.3" y="4.5" transform="matrix(0.7432 -0.669 0.669 0.7432 21.7073 69.2569)" class="st0" width="3.6" height="3.6"/>
	</g>
</g>
<g>
	<g>
		<rect x="107.2" y="9.1" transform="matrix(0.742 -0.6704 0.6704 0.742 21.1098 75.2752)" class="st0" width="2.3" height="2.3"/>
	</g>
</g>
<g>
	<g>
		<polygon class="st0" points="11.6,8.6 10,17.6 9.8,17.6 7.6,8.6 6,8.6 3.7,17.6 3.7,17.6 1.7,8.6 -0.1,8.6 2.6,20.7 4.4,20.7 
			6.6,12.2 6.9,12.2 9.1,20.7 10.9,20.7 13.6,8.6 		"/>
	</g>
</g>
<g>
	<g>
		<rect x="95.7" y="11.7" transform="matrix(0.7432 -0.669 0.669 0.7432 15.7472 69.2156)" class="st0" width="4.7" height="4.7"/>
	</g>
</g>
<g>
	<g>
		<rect x="93.2" y="5.6" transform="matrix(0.7432 -0.669 0.669 0.7432 19.199 65.9568)" class="st0" width="4.7" height="4.7"/>
	</g>
</g>
<g>
	<g>
		<rect x="101.7" y="9.7" transform="matrix(0.7423 -0.67 0.67 0.7423 18.9385 72.3109)" class="st0" width="3.6" height="3.6"/>
	</g>
</g>
<g>
	<g>
		
			<rect x="104.9" y="3.9" transform="matrix(0.7428 -0.6695 0.6695 0.7428 23.8944 72.3151)" class="st0" width="2.3" height="2.3"/>
	</g>
</g>
<g>
	<g>
		<path class="st0" d="M77.4,12.2l-2,6.3l0,0l-2.3-6.3h-1.8l3.2,8.3c-0.5,1.4-1.1,2.3-2.3,2.3v1.4c2,0,2.9-1.1,3.8-3.6l3.2-8.3
			C79.2,12.2,77.4,12.2,77.4,12.2z"/>
	</g>
</g>
<g>
	<g>
		<path class="st0" d="M21.3,16c0-2.7-1.4-4.1-3.4-4.1c-2.5,0-3.8,1.8-3.8,4.5s1.1,4.5,4.1,4.5c1.1,0,2.3-0.2,2.9-0.7v-1.4
			c-0.9,0.5-1.8,0.7-2.7,0.7c-1.8,0-2.5-0.9-2.5-2.9h5.4C21.3,16.6,21.3,16,21.3,16z M15.9,15.6c0.2-1.6,0.9-2.5,2-2.5
			c0.9,0,1.8,0.7,1.8,2.5H15.9z"/>
	</g>
</g>
<g>
	<g>
		
			<rect x="106.5" y="20.6" transform="matrix(0.7429 -0.6694 0.6694 0.7429 12.8268 78.2513)" class="st0" width="3.6" height="3.6"/>
	</g>
</g>
<g>
	<g>
		<path class="st0" d="M70.7,16c0-2.7-1.4-4.1-3.4-4.1c-2.5,0-3.8,1.8-3.8,4.5s1.1,4.5,4.1,4.5c1.1,0,2.3-0.2,2.9-0.7v-1.4
			c-0.9,0.5-1.8,0.9-2.7,0.9c-1.8,0-2.5-0.9-2.5-2.9h5.4C70.7,16.7,70.7,16,70.7,16z M65.2,15.6c0.2-1.6,0.9-2.5,2-2.5
			c0.9,0,1.8,0.7,1.8,2.5H65.2z"/>
	</g>
</g>
<g>
	<g>
		<path class="st0" d="M103.6,23l-3.4,3.2l-5.9-6.5l1.6-1.4l-4.1-4.5l1.6-1.4l-4.1-4.5L95.9,2l2,2.3l3.4-3.2l2,2l1.4-1.1
			c-0.2-0.2-0.7-0.2-0.9-0.5c-2-0.9-4.1-1.6-6.5-1.6c-8.1,0-14.9,6.8-14.9,14.9s6.8,14.9,14.9,14.9c2.7,0,5.2-0.7,7.2-2
			c0.7-0.5,1.4-0.9,2-1.4L103.6,23z"/>
	</g>
</g>
<g>
	<g>
		<path class="st0" d="M26.9,11.9c-0.9,0-1.8,0.5-2.3,0.7V7.9l-1.8,0.2v11.7c0.9,0.5,2.5,0.9,3.4,0.9c2.5,0,4.1-1.6,4.1-4.7
			C30.1,13.5,29,11.9,26.9,11.9z M26.3,19.6c-0.5,0-0.9,0-1.6-0.2v-5.6c0.7-0.5,1.1-0.5,1.8-0.5c1.1,0,1.8,0.7,1.8,2.9
			C28.5,18.9,27.4,19.6,26.3,19.6z"/>
	</g>
</g>
<g>
	<g>
		<path class="st0" d="M59.2,11.9c-2,0-3.6,0.9-4.3,1.4v7.4h1.8V14c0.5-0.2,1.4-0.7,2-0.7c0.9,0,1.6,0.2,1.6,1.6v5.6h1.8v-6.1
			C61.9,12.8,61.2,11.9,59.2,11.9z"/>
	</g>
</g>
<g>
	<g>
		<polygon class="st0" points="41.6,8.6 38,18 38,18 34.1,8.6 32.1,8.6 32.1,20.7 33.5,20.7 33.5,12.2 33.7,12.2 37.1,20.7 
			38.2,20.7 41.8,11.9 41.8,11.9 41.8,20.7 43.6,20.7 43.6,8.6 		"/>
	</g>
</g>
<g>
	<g>
		<path class="st0" d="M49.5,11.9c-2.3,0-3.8,1.6-3.8,4.5s1.6,4.5,3.8,4.5s3.8-1.6,3.8-4.5S51.7,11.9,49.5,11.9z M49.5,19.6
			c-1.1,0-2-0.9-2-3.2s0.9-3.2,2-3.2s2,0.9,2,3.2S50.6,19.6,49.5,19.6z"/>
	</g>
</g>
</svg>
